<?xml version="1.0" encoding="utf-8"?>
<svg xmlns="http://www.w3.org/2000/svg" xmlns:xlink="http://www.w3.org/1999/xlink" width="500" height="309" viewBox="0 0 2000 1236">
<defs>
  <clipPath id="clip830">
    <rect x="0" y="0" width="2000" height="1236"/>
  </clipPath>
</defs>
<path clip-path="url(#clip830)" d="M0 1236 L2000 1236 L2000 1.24345e-14 L0 1.24345e-14  Z" fill="#ffffff" fill-rule="evenodd" fill-opacity="1"/>
<defs>
  <clipPath id="clip831">
    <rect x="280" y="47" width="1673" height="1023"/>
  </clipPath>
</defs>
<path clip-path="url(#clip830)" d="M280.383 1068.81 L1952.76 1068.81 L1952.76 47.2441 L280.383 47.2441  Z" fill="#ffffff" fill-rule="evenodd" fill-opacity="1"/>
<polyline clip-path="url(#clip830)" style="stroke:#000000; stroke-linecap:round; stroke-linejoin:round; stroke-width:4; stroke-opacity:1; fill:none" points="280.383,1068.81 1952.76,1068.81 "/>
<polyline clip-path="url(#clip830)" style="stroke:#000000; stroke-linecap:round; stroke-linejoin:round; stroke-width:4; stroke-opacity:1; fill:none" points="485.485,1068.81 485.485,1049.91 "/>
<polyline clip-path="url(#clip830)" style="stroke:#000000; stroke-linecap:round; stroke-linejoin:round; stroke-width:4; stroke-opacity:1; fill:none" points="801.027,1068.81 801.027,1049.91 "/>
<polyline clip-path="url(#clip830)" style="stroke:#000000; stroke-linecap:round; stroke-linejoin:round; stroke-width:4; stroke-opacity:1; fill:none" points="1116.57,1068.81 1116.57,1049.91 "/>
<polyline clip-path="url(#clip830)" style="stroke:#000000; stroke-linecap:round; stroke-linejoin:round; stroke-width:4; stroke-opacity:1; fill:none" points="1432.11,1068.81 1432.11,1049.91 "/>
<polyline clip-path="url(#clip830)" style="stroke:#000000; stroke-linecap:round; stroke-linejoin:round; stroke-width:4; stroke-opacity:1; fill:none" points="1747.65,1068.81 1747.65,1049.91 "/>
<path clip-path="url(#clip830)" d="M447.708 1096.53 Q444.097 1096.53 442.268 1100.1 Q440.462 1103.64 440.462 1110.77 Q440.462 1117.87 442.268 1121.44 Q444.097 1124.98 447.708 1124.98 Q451.342 1124.98 453.148 1121.44 Q454.976 1117.87 454.976 1110.77 Q454.976 1103.64 453.148 1100.1 Q451.342 1096.53 447.708 1096.53 M447.708 1092.83 Q453.518 1092.83 456.574 1097.43 Q459.652 1102.02 459.652 1110.77 Q459.652 1119.49 456.574 1124.1 Q453.518 1128.68 447.708 1128.68 Q441.898 1128.68 438.819 1124.1 Q435.763 1119.49 435.763 1110.77 Q435.763 1102.02 438.819 1097.43 Q441.898 1092.83 447.708 1092.83 Z" fill="#000000" fill-rule="nonzero" fill-opacity="1" /><path clip-path="url(#clip830)" d="M467.87 1122.13 L472.754 1122.13 L472.754 1128.01 L467.87 1128.01 L467.87 1122.13 Z" fill="#000000" fill-rule="nonzero" fill-opacity="1" /><path clip-path="url(#clip830)" d="M483.078 1127.29 L483.078 1123.03 Q484.837 1123.87 486.643 1124.31 Q488.448 1124.75 490.184 1124.75 Q494.814 1124.75 497.245 1121.65 Q499.698 1118.52 500.045 1112.18 Q498.703 1114.17 496.643 1115.23 Q494.583 1116.3 492.083 1116.3 Q486.897 1116.3 483.865 1113.17 Q480.856 1110.03 480.856 1104.59 Q480.856 1099.26 484.004 1096.04 Q487.152 1092.83 492.383 1092.83 Q498.379 1092.83 501.527 1097.43 Q504.698 1102.02 504.698 1110.77 Q504.698 1118.94 500.809 1123.82 Q496.944 1128.68 490.393 1128.68 Q488.634 1128.68 486.828 1128.34 Q485.022 1127.99 483.078 1127.29 M492.383 1112.64 Q495.532 1112.64 497.36 1110.49 Q499.212 1108.34 499.212 1104.59 Q499.212 1100.86 497.36 1098.71 Q495.532 1096.53 492.383 1096.53 Q489.235 1096.53 487.384 1098.71 Q485.555 1100.86 485.555 1104.59 Q485.555 1108.34 487.384 1110.49 Q489.235 1112.64 492.383 1112.64 Z" fill="#000000" fill-rule="nonzero" fill-opacity="1" /><path clip-path="url(#clip830)" d="M523.68 1108.87 Q520.531 1108.87 518.68 1111.02 Q516.851 1113.17 516.851 1116.92 Q516.851 1120.65 518.68 1122.83 Q520.531 1124.98 523.68 1124.98 Q526.828 1124.98 528.656 1122.83 Q530.508 1120.65 530.508 1116.92 Q530.508 1113.17 528.656 1111.02 Q526.828 1108.87 523.68 1108.87 M532.962 1094.22 L532.962 1098.47 Q531.203 1097.64 529.397 1097.2 Q527.615 1096.76 525.856 1096.76 Q521.226 1096.76 518.772 1099.89 Q516.342 1103.01 515.994 1109.33 Q517.36 1107.32 519.42 1106.25 Q521.481 1105.16 523.957 1105.16 Q529.166 1105.16 532.175 1108.34 Q535.207 1111.48 535.207 1116.92 Q535.207 1122.25 532.059 1125.47 Q528.911 1128.68 523.68 1128.68 Q517.684 1128.68 514.513 1124.1 Q511.342 1119.49 511.342 1110.77 Q511.342 1102.57 515.231 1097.71 Q519.119 1092.83 525.67 1092.83 Q527.43 1092.83 529.212 1093.17 Q531.018 1093.52 532.962 1094.22 Z" fill="#000000" fill-rule="nonzero" fill-opacity="1" /><path clip-path="url(#clip830)" d="M763.377 1096.53 Q759.766 1096.53 757.937 1100.1 Q756.132 1103.64 756.132 1110.77 Q756.132 1117.87 757.937 1121.44 Q759.766 1124.98 763.377 1124.98 Q767.011 1124.98 768.817 1121.44 Q770.646 1117.87 770.646 1110.77 Q770.646 1103.64 768.817 1100.1 Q767.011 1096.53 763.377 1096.53 M763.377 1092.83 Q769.187 1092.83 772.243 1097.43 Q775.322 1102.02 775.322 1110.77 Q775.322 1119.49 772.243 1124.1 Q769.187 1128.68 763.377 1128.68 Q757.567 1128.68 754.488 1124.1 Q751.433 1119.49 751.433 1110.77 Q751.433 1102.02 754.488 1097.43 Q757.567 1092.83 763.377 1092.83 Z" fill="#000000" fill-rule="nonzero" fill-opacity="1" /><path clip-path="url(#clip830)" d="M783.539 1122.13 L788.423 1122.13 L788.423 1128.01 L783.539 1128.01 L783.539 1122.13 Z" fill="#000000" fill-rule="nonzero" fill-opacity="1" /><path clip-path="url(#clip830)" d="M798.747 1127.29 L798.747 1123.03 Q800.507 1123.87 802.312 1124.31 Q804.118 1124.75 805.854 1124.75 Q810.483 1124.75 812.914 1121.65 Q815.368 1118.52 815.715 1112.18 Q814.372 1114.17 812.312 1115.23 Q810.252 1116.3 807.752 1116.3 Q802.567 1116.3 799.534 1113.17 Q796.525 1110.03 796.525 1104.59 Q796.525 1099.26 799.673 1096.04 Q802.821 1092.83 808.053 1092.83 Q814.048 1092.83 817.196 1097.43 Q820.368 1102.02 820.368 1110.77 Q820.368 1118.94 816.479 1123.82 Q812.613 1128.68 806.062 1128.68 Q804.303 1128.68 802.497 1128.34 Q800.692 1127.99 798.747 1127.29 M808.053 1112.64 Q811.201 1112.64 813.03 1110.49 Q814.882 1108.34 814.882 1104.59 Q814.882 1100.86 813.03 1098.71 Q811.201 1096.53 808.053 1096.53 Q804.905 1096.53 803.053 1098.71 Q801.224 1100.86 801.224 1104.59 Q801.224 1108.34 803.053 1110.49 Q804.905 1112.64 808.053 1112.64 Z" fill="#000000" fill-rule="nonzero" fill-opacity="1" /><path clip-path="url(#clip830)" d="M838.77 1111.6 Q835.437 1111.6 833.516 1113.38 Q831.618 1115.16 831.618 1118.29 Q831.618 1121.41 833.516 1123.2 Q835.437 1124.98 838.77 1124.98 Q842.104 1124.98 844.025 1123.2 Q845.946 1121.39 845.946 1118.29 Q845.946 1115.16 844.025 1113.38 Q842.127 1111.6 838.77 1111.6 M834.094 1109.61 Q831.085 1108.87 829.395 1106.81 Q827.729 1104.75 827.729 1101.78 Q827.729 1097.64 830.668 1095.23 Q833.631 1092.83 838.77 1092.83 Q843.932 1092.83 846.872 1095.23 Q849.812 1097.64 849.812 1101.78 Q849.812 1104.75 848.122 1106.81 Q846.455 1108.87 843.469 1109.61 Q846.849 1110.4 848.724 1112.69 Q850.622 1114.98 850.622 1118.29 Q850.622 1123.31 847.543 1126 Q844.488 1128.68 838.77 1128.68 Q833.053 1128.68 829.974 1126 Q826.918 1123.31 826.918 1118.29 Q826.918 1114.98 828.817 1112.69 Q830.715 1110.4 834.094 1109.61 M832.381 1102.22 Q832.381 1104.91 834.048 1106.41 Q835.738 1107.92 838.77 1107.92 Q841.78 1107.92 843.469 1106.41 Q845.182 1104.91 845.182 1102.22 Q845.182 1099.54 843.469 1098.03 Q841.78 1096.53 838.77 1096.53 Q835.738 1096.53 834.048 1098.03 Q832.381 1099.54 832.381 1102.22 Z" fill="#000000" fill-rule="nonzero" fill-opacity="1" /><path clip-path="url(#clip830)" d="M1068.64 1124.08 L1076.28 1124.08 L1076.28 1097.71 L1067.97 1099.38 L1067.97 1095.12 L1076.23 1093.45 L1080.91 1093.45 L1080.91 1124.08 L1088.55 1124.08 L1088.55 1128.01 L1068.64 1128.01 L1068.64 1124.08 Z" fill="#000000" fill-rule="nonzero" fill-opacity="1" /><path clip-path="url(#clip830)" d="M1097.99 1122.13 L1102.88 1122.13 L1102.88 1128.01 L1097.99 1128.01 L1097.99 1122.13 Z" fill="#000000" fill-rule="nonzero" fill-opacity="1" /><path clip-path="url(#clip830)" d="M1123.06 1096.53 Q1119.45 1096.53 1117.62 1100.1 Q1115.82 1103.64 1115.82 1110.77 Q1115.82 1117.87 1117.62 1121.44 Q1119.45 1124.98 1123.06 1124.98 Q1126.7 1124.98 1128.5 1121.44 Q1130.33 1117.87 1130.33 1110.77 Q1130.33 1103.64 1128.5 1100.1 Q1126.7 1096.53 1123.06 1096.53 M1123.06 1092.83 Q1128.87 1092.83 1131.93 1097.43 Q1135.01 1102.02 1135.01 1110.77 Q1135.01 1119.49 1131.93 1124.1 Q1128.87 1128.68 1123.06 1128.68 Q1117.25 1128.68 1114.17 1124.1 Q1111.12 1119.49 1111.12 1110.77 Q1111.12 1102.02 1114.17 1097.43 Q1117.25 1092.83 1123.06 1092.83 Z" fill="#000000" fill-rule="nonzero" fill-opacity="1" /><path clip-path="url(#clip830)" d="M1153.22 1096.53 Q1149.61 1096.53 1147.78 1100.1 Q1145.98 1103.64 1145.98 1110.77 Q1145.98 1117.87 1147.78 1121.44 Q1149.61 1124.98 1153.22 1124.98 Q1156.86 1124.98 1158.66 1121.44 Q1160.49 1117.87 1160.49 1110.77 Q1160.49 1103.64 1158.66 1100.1 Q1156.86 1096.53 1153.22 1096.53 M1153.22 1092.83 Q1159.03 1092.83 1162.09 1097.43 Q1165.17 1102.02 1165.17 1110.77 Q1165.17 1119.49 1162.09 1124.1 Q1159.03 1128.68 1153.22 1128.68 Q1147.41 1128.68 1144.34 1124.1 Q1141.28 1119.49 1141.28 1110.77 Q1141.28 1102.02 1144.34 1097.43 Q1147.41 1092.83 1153.22 1092.83 Z" fill="#000000" fill-rule="nonzero" fill-opacity="1" /><path clip-path="url(#clip830)" d="M1384.98 1124.08 L1392.62 1124.08 L1392.62 1097.71 L1384.31 1099.38 L1384.31 1095.12 L1392.57 1093.45 L1397.25 1093.45 L1397.25 1124.08 L1404.89 1124.08 L1404.89 1128.01 L1384.98 1128.01 L1384.98 1124.08 Z" fill="#000000" fill-rule="nonzero" fill-opacity="1" /><path clip-path="url(#clip830)" d="M1414.33 1122.13 L1419.22 1122.13 L1419.22 1128.01 L1414.33 1128.01 L1414.33 1122.13 Z" fill="#000000" fill-rule="nonzero" fill-opacity="1" /><path clip-path="url(#clip830)" d="M1439.4 1096.53 Q1435.79 1096.53 1433.96 1100.1 Q1432.16 1103.64 1432.16 1110.77 Q1432.16 1117.87 1433.96 1121.44 Q1435.79 1124.98 1439.4 1124.98 Q1443.04 1124.98 1444.84 1121.44 Q1446.67 1117.87 1446.67 1110.77 Q1446.67 1103.64 1444.84 1100.1 Q1443.04 1096.53 1439.4 1096.53 M1439.4 1092.83 Q1445.21 1092.83 1448.27 1097.43 Q1451.35 1102.02 1451.35 1110.77 Q1451.35 1119.49 1448.27 1124.1 Q1445.21 1128.68 1439.4 1128.68 Q1433.59 1128.68 1430.51 1124.1 Q1427.46 1119.49 1427.46 1110.77 Q1427.46 1102.02 1430.51 1097.43 Q1433.59 1092.83 1439.4 1092.83 Z" fill="#000000" fill-rule="nonzero" fill-opacity="1" /><path clip-path="url(#clip830)" d="M1463.59 1124.08 L1479.91 1124.08 L1479.91 1128.01 L1457.97 1128.01 L1457.97 1124.08 Q1460.63 1121.32 1465.21 1116.69 Q1469.82 1112.04 1471 1110.7 Q1473.25 1108.17 1474.13 1106.44 Q1475.03 1104.68 1475.03 1102.99 Q1475.03 1100.23 1473.08 1098.5 Q1471.16 1096.76 1468.06 1096.76 Q1465.86 1096.76 1463.41 1097.53 Q1460.98 1098.29 1458.2 1099.84 L1458.2 1095.12 Q1461.02 1093.98 1463.48 1093.41 Q1465.93 1092.83 1467.97 1092.83 Q1473.34 1092.83 1476.53 1095.51 Q1479.73 1098.2 1479.73 1102.69 Q1479.73 1104.82 1478.92 1106.74 Q1478.13 1108.64 1476.02 1111.23 Q1475.44 1111.9 1472.34 1115.12 Q1469.24 1118.31 1463.59 1124.08 Z" fill="#000000" fill-rule="nonzero" fill-opacity="1" /><path clip-path="url(#clip830)" d="M1699.48 1124.08 L1707.12 1124.08 L1707.12 1097.71 L1698.81 1099.38 L1698.81 1095.12 L1707.08 1093.45 L1711.75 1093.45 L1711.75 1124.08 L1719.39 1124.08 L1719.39 1128.01 L1699.48 1128.01 L1699.48 1124.08 Z" fill="#000000" fill-rule="nonzero" fill-opacity="1" /><path clip-path="url(#clip830)" d="M1728.83 1122.13 L1733.72 1122.13 L1733.72 1128.01 L1728.83 1128.01 L1728.83 1122.13 Z" fill="#000000" fill-rule="nonzero" fill-opacity="1" /><path clip-path="url(#clip830)" d="M1753.9 1096.53 Q1750.29 1096.53 1748.46 1100.1 Q1746.66 1103.64 1746.66 1110.77 Q1746.66 1117.87 1748.46 1121.44 Q1750.29 1124.98 1753.9 1124.98 Q1757.54 1124.98 1759.34 1121.44 Q1761.17 1117.87 1761.17 1110.77 Q1761.17 1103.64 1759.34 1100.1 Q1757.54 1096.53 1753.9 1096.53 M1753.9 1092.83 Q1759.71 1092.83 1762.77 1097.43 Q1765.85 1102.02 1765.85 1110.77 Q1765.85 1119.49 1762.77 1124.1 Q1759.71 1128.68 1753.9 1128.68 Q1748.09 1128.68 1745.01 1124.1 Q1741.96 1119.49 1741.96 1110.77 Q1741.96 1102.02 1745.01 1097.43 Q1748.09 1092.83 1753.9 1092.83 Z" fill="#000000" fill-rule="nonzero" fill-opacity="1" /><path clip-path="url(#clip830)" d="M1786.91 1097.53 L1775.11 1115.97 L1786.91 1115.97 L1786.91 1097.53 M1785.69 1093.45 L1791.57 1093.45 L1791.57 1115.97 L1796.5 1115.97 L1796.5 1119.86 L1791.57 1119.86 L1791.57 1128.01 L1786.91 1128.01 L1786.91 1119.86 L1771.31 1119.86 L1771.31 1115.35 L1785.69 1093.45 Z" fill="#000000" fill-rule="nonzero" fill-opacity="1" /><path clip-path="url(#clip830)" d="M1119.1 1159.59 Q1119.1 1161.39 1117.97 1162.42 Q1116.84 1163.42 1115.56 1163.42 Q1114.33 1163.42 1113.69 1162.71 Q1113.04 1162.01 1113.04 1161.1 Q1113.04 1159.88 1113.95 1158.82 Q1114.85 1157.75 1116.2 1157.53 Q1114.88 1156.69 1112.91 1156.69 Q1111.63 1156.69 1110.5 1157.37 Q1109.4 1158.04 1108.73 1158.91 Q1108.08 1159.78 1107.5 1161.04 Q1106.96 1162.26 1106.73 1163 Q1106.54 1163.71 1106.38 1164.49 L1104.12 1173.5 Q1103.03 1177.79 1103.03 1179.3 Q1103.03 1181.17 1103.93 1182.42 Q1104.83 1183.65 1106.63 1183.65 Q1107.34 1183.65 1108.15 1183.45 Q1108.95 1183.23 1109.98 1182.65 Q1111.05 1182.04 1111.98 1181.14 Q1112.95 1180.2 1113.88 1178.62 Q1114.81 1177.05 1115.43 1175.02 Q1115.62 1174.31 1116.26 1174.31 Q1117.07 1174.31 1117.07 1174.95 Q1117.07 1175.5 1116.62 1176.66 Q1116.2 1177.79 1115.27 1179.27 Q1114.36 1180.72 1113.17 1182.04 Q1111.98 1183.33 1110.21 1184.23 Q1108.44 1185.13 1106.51 1185.13 Q1103.74 1185.13 1101.9 1183.65 Q1100.06 1182.17 1099.39 1180.11 Q1099.23 1180.4 1099 1180.78 Q1098.78 1181.17 1098.1 1182.04 Q1097.46 1182.88 1096.72 1183.52 Q1095.97 1184.13 1094.81 1184.61 Q1093.69 1185.13 1092.46 1185.13 Q1090.92 1185.13 1089.53 1184.68 Q1088.18 1184.23 1087.21 1183.2 Q1086.25 1182.17 1086.25 1180.75 Q1086.25 1179.17 1087.31 1178.08 Q1088.41 1176.95 1089.89 1176.95 Q1090.82 1176.95 1091.56 1177.5 Q1092.34 1178.04 1092.34 1179.24 Q1092.34 1180.56 1091.43 1181.55 Q1090.53 1182.55 1089.24 1182.81 Q1090.56 1183.65 1092.53 1183.65 Q1094.65 1183.65 1096.33 1181.78 Q1098 1179.91 1098.81 1176.79 Q1100.81 1169.28 1101.58 1165.93 Q1102.35 1162.55 1102.35 1161.1 Q1102.35 1159.75 1102 1158.82 Q1101.64 1157.88 1101.03 1157.46 Q1100.45 1157.01 1099.9 1156.85 Q1099.39 1156.69 1098.81 1156.69 Q1097.84 1156.69 1096.75 1157.08 Q1095.68 1157.46 1094.4 1158.37 Q1093.14 1159.24 1091.95 1161.04 Q1090.76 1162.84 1089.95 1165.32 Q1089.79 1166.06 1089.08 1166.06 Q1088.31 1166.03 1088.31 1165.39 Q1088.31 1164.84 1088.73 1163.71 Q1089.18 1162.55 1090.08 1161.1 Q1091.01 1159.65 1092.21 1158.37 Q1093.43 1157.05 1095.2 1156.14 Q1097 1155.24 1098.94 1155.24 Q1099.81 1155.24 1100.64 1155.44 Q1101.51 1155.6 1102.54 1156.08 Q1103.61 1156.56 1104.54 1157.63 Q1105.48 1158.69 1106.05 1160.23 Q1106.44 1159.49 1106.96 1158.79 Q1107.5 1158.08 1108.34 1157.21 Q1109.21 1156.31 1110.4 1155.79 Q1111.63 1155.24 1112.98 1155.24 Q1114.3 1155.24 1115.59 1155.6 Q1116.88 1155.92 1117.97 1156.98 Q1119.1 1158.01 1119.1 1159.59 Z" fill="#000000" fill-rule="nonzero" fill-opacity="1" /><path clip-path="url(#clip830)" d="M1139.99 1182.91 Q1139.99 1183.54 1139.7 1183.7 Q1139.41 1183.83 1138.6 1183.83 L1134.27 1183.83 L1130.84 1197.45 Q1130.57 1198.64 1130.57 1199.66 Q1130.57 1200.78 1130.91 1201.28 Q1131.27 1201.78 1132.01 1201.78 Q1133.48 1201.78 1135.06 1200.45 Q1136.66 1199.12 1138.01 1195.87 Q1138.19 1195.44 1138.28 1195.35 Q1138.39 1195.24 1138.69 1195.24 Q1139.25 1195.24 1139.25 1195.69 Q1139.25 1195.85 1138.93 1196.57 Q1138.64 1197.29 1137.99 1198.35 Q1137.36 1199.41 1136.52 1200.4 Q1135.71 1201.39 1134.47 1202.11 Q1133.23 1202.81 1131.9 1202.81 Q1130.03 1202.81 1128.84 1201.62 Q1127.66 1200.42 1127.66 1198.55 Q1127.66 1197.94 1128.14 1196.01 Q1128.61 1194.04 1131.18 1183.83 L1127.1 1183.83 Q1126.54 1183.83 1126.31 1183.81 Q1126.11 1183.79 1125.95 1183.67 Q1125.81 1183.54 1125.81 1183.27 Q1125.81 1182.84 1125.99 1182.66 Q1126.17 1182.46 1126.4 1182.43 Q1126.65 1182.39 1127.21 1182.39 L1131.54 1182.39 L1133.34 1175.06 Q1133.52 1174.34 1133.98 1173.93 Q1134.45 1173.51 1134.72 1173.46 Q1134.99 1173.39 1135.19 1173.39 Q1135.8 1173.39 1136.16 1173.73 Q1136.52 1174.05 1136.52 1174.63 Q1136.52 1174.95 1134.63 1182.39 L1138.69 1182.39 Q1139.21 1182.39 1139.41 1182.41 Q1139.63 1182.43 1139.81 1182.55 Q1139.99 1182.66 1139.99 1182.91 Z" fill="#000000" fill-rule="nonzero" fill-opacity="1" /><polyline clip-path="url(#clip830)" style="stroke:#000000; stroke-linecap:round; stroke-linejoin:round; stroke-width:4; stroke-opacity:1; fill:none" points="280.383,1068.81 280.383,47.2441 "/>
<polyline clip-path="url(#clip830)" style="stroke:#000000; stroke-linecap:round; stroke-linejoin:round; stroke-width:4; stroke-opacity:1; fill:none" points="280.383,932.451 299.281,932.451 "/>
<polyline clip-path="url(#clip830)" style="stroke:#000000; stroke-linecap:round; stroke-linejoin:round; stroke-width:4; stroke-opacity:1; fill:none" points="280.383,742.163 299.281,742.163 "/>
<polyline clip-path="url(#clip830)" style="stroke:#000000; stroke-linecap:round; stroke-linejoin:round; stroke-width:4; stroke-opacity:1; fill:none" points="280.383,551.875 299.281,551.875 "/>
<polyline clip-path="url(#clip830)" style="stroke:#000000; stroke-linecap:round; stroke-linejoin:round; stroke-width:4; stroke-opacity:1; fill:none" points="280.383,361.588 299.281,361.588 "/>
<polyline clip-path="url(#clip830)" style="stroke:#000000; stroke-linecap:round; stroke-linejoin:round; stroke-width:4; stroke-opacity:1; fill:none" points="280.383,171.3 299.281,171.3 "/>
<path clip-path="url(#clip830)" d="M112.791 932.902 L142.467 932.902 L142.467 936.837 L112.791 936.837 L112.791 932.902 Z" fill="#000000" fill-rule="nonzero" fill-opacity="1" /><path clip-path="url(#clip830)" d="M162.559 918.249 Q158.948 918.249 157.12 921.814 Q155.314 925.356 155.314 932.485 Q155.314 939.592 157.12 943.157 Q158.948 946.698 162.559 946.698 Q166.194 946.698 167.999 943.157 Q169.828 939.592 169.828 932.485 Q169.828 925.356 167.999 921.814 Q166.194 918.249 162.559 918.249 M162.559 914.546 Q168.37 914.546 171.425 919.152 Q174.504 923.735 174.504 932.485 Q174.504 941.212 171.425 945.819 Q168.37 950.402 162.559 950.402 Q156.749 950.402 153.671 945.819 Q150.615 941.212 150.615 932.485 Q150.615 923.735 153.671 919.152 Q156.749 914.546 162.559 914.546 Z" fill="#000000" fill-rule="nonzero" fill-opacity="1" /><path clip-path="url(#clip830)" d="M182.721 943.851 L187.606 943.851 L187.606 949.731 L182.721 949.731 L182.721 943.851 Z" fill="#000000" fill-rule="nonzero" fill-opacity="1" /><path clip-path="url(#clip830)" d="M207.791 918.249 Q204.18 918.249 202.351 921.814 Q200.545 925.356 200.545 932.485 Q200.545 939.592 202.351 943.157 Q204.18 946.698 207.791 946.698 Q211.425 946.698 213.23 943.157 Q215.059 939.592 215.059 932.485 Q215.059 925.356 213.23 921.814 Q211.425 918.249 207.791 918.249 M207.791 914.546 Q213.601 914.546 216.656 919.152 Q219.735 923.735 219.735 932.485 Q219.735 941.212 216.656 945.819 Q213.601 950.402 207.791 950.402 Q201.981 950.402 198.902 945.819 Q195.846 941.212 195.846 932.485 Q195.846 923.735 198.902 919.152 Q201.981 914.546 207.791 914.546 Z" fill="#000000" fill-rule="nonzero" fill-opacity="1" /><path clip-path="url(#clip830)" d="M240.8 919.245 L228.994 937.694 L240.8 937.694 L240.8 919.245 M239.573 915.171 L245.453 915.171 L245.453 937.694 L250.383 937.694 L250.383 941.583 L245.453 941.583 L245.453 949.731 L240.8 949.731 L240.8 941.583 L225.198 941.583 L225.198 937.069 L239.573 915.171 Z" fill="#000000" fill-rule="nonzero" fill-opacity="1" /><path clip-path="url(#clip830)" d="M114.875 742.614 L144.55 742.614 L144.55 746.55 L114.875 746.55 L114.875 742.614 Z" fill="#000000" fill-rule="nonzero" fill-opacity="1" /><path clip-path="url(#clip830)" d="M164.643 727.962 Q161.032 727.962 159.203 731.527 Q157.397 735.068 157.397 742.198 Q157.397 749.304 159.203 752.869 Q161.032 756.411 164.643 756.411 Q168.277 756.411 170.083 752.869 Q171.911 749.304 171.911 742.198 Q171.911 735.068 170.083 731.527 Q168.277 727.962 164.643 727.962 M164.643 724.258 Q170.453 724.258 173.508 728.865 Q176.587 733.448 176.587 742.198 Q176.587 750.925 173.508 755.531 Q170.453 760.114 164.643 760.114 Q158.833 760.114 155.754 755.531 Q152.698 750.925 152.698 742.198 Q152.698 733.448 155.754 728.865 Q158.833 724.258 164.643 724.258 Z" fill="#000000" fill-rule="nonzero" fill-opacity="1" /><path clip-path="url(#clip830)" d="M184.805 753.563 L189.689 753.563 L189.689 759.443 L184.805 759.443 L184.805 753.563 Z" fill="#000000" fill-rule="nonzero" fill-opacity="1" /><path clip-path="url(#clip830)" d="M209.874 727.962 Q206.263 727.962 204.434 731.527 Q202.629 735.068 202.629 742.198 Q202.629 749.304 204.434 752.869 Q206.263 756.411 209.874 756.411 Q213.508 756.411 215.314 752.869 Q217.142 749.304 217.142 742.198 Q217.142 735.068 215.314 731.527 Q213.508 727.962 209.874 727.962 M209.874 724.258 Q215.684 724.258 218.74 728.865 Q221.818 733.448 221.818 742.198 Q221.818 750.925 218.74 755.531 Q215.684 760.114 209.874 760.114 Q204.064 760.114 200.985 755.531 Q197.93 750.925 197.93 742.198 Q197.93 733.448 200.985 728.865 Q204.064 724.258 209.874 724.258 Z" fill="#000000" fill-rule="nonzero" fill-opacity="1" /><path clip-path="url(#clip830)" d="M234.064 755.508 L250.383 755.508 L250.383 759.443 L228.439 759.443 L228.439 755.508 Q231.101 752.753 235.684 748.124 Q240.291 743.471 241.471 742.128 Q243.716 739.605 244.596 737.869 Q245.499 736.11 245.499 734.42 Q245.499 731.665 243.554 729.929 Q241.633 728.193 238.531 728.193 Q236.332 728.193 233.879 728.957 Q231.448 729.721 228.67 731.272 L228.67 726.55 Q231.494 725.415 233.948 724.837 Q236.402 724.258 238.439 724.258 Q243.809 724.258 247.003 726.943 Q250.198 729.628 250.198 734.119 Q250.198 736.249 249.388 738.17 Q248.601 740.068 246.494 742.661 Q245.915 743.332 242.814 746.55 Q239.712 749.744 234.064 755.508 Z" fill="#000000" fill-rule="nonzero" fill-opacity="1" /><path clip-path="url(#clip830)" d="M163.046 537.674 Q159.434 537.674 157.606 541.239 Q155.8 544.781 155.8 551.91 Q155.8 559.017 157.606 562.581 Q159.434 566.123 163.046 566.123 Q166.68 566.123 168.485 562.581 Q170.314 559.017 170.314 551.91 Q170.314 544.781 168.485 541.239 Q166.68 537.674 163.046 537.674 M163.046 533.97 Q168.856 533.97 171.911 538.577 Q174.99 543.16 174.99 551.91 Q174.99 560.637 171.911 565.243 Q168.856 569.827 163.046 569.827 Q157.235 569.827 154.157 565.243 Q151.101 560.637 151.101 551.91 Q151.101 543.16 154.157 538.577 Q157.235 533.97 163.046 533.97 Z" fill="#000000" fill-rule="nonzero" fill-opacity="1" /><path clip-path="url(#clip830)" d="M183.207 563.276 L188.092 563.276 L188.092 569.155 L183.207 569.155 L183.207 563.276 Z" fill="#000000" fill-rule="nonzero" fill-opacity="1" /><path clip-path="url(#clip830)" d="M208.277 537.674 Q204.666 537.674 202.837 541.239 Q201.031 544.781 201.031 551.91 Q201.031 559.017 202.837 562.581 Q204.666 566.123 208.277 566.123 Q211.911 566.123 213.717 562.581 Q215.545 559.017 215.545 551.91 Q215.545 544.781 213.717 541.239 Q211.911 537.674 208.277 537.674 M208.277 533.97 Q214.087 533.97 217.142 538.577 Q220.221 543.16 220.221 551.91 Q220.221 560.637 217.142 565.243 Q214.087 569.827 208.277 569.827 Q202.467 569.827 199.388 565.243 Q196.332 560.637 196.332 551.91 Q196.332 543.16 199.388 538.577 Q202.467 533.97 208.277 533.97 Z" fill="#000000" fill-rule="nonzero" fill-opacity="1" /><path clip-path="url(#clip830)" d="M238.439 537.674 Q234.828 537.674 232.999 541.239 Q231.193 544.781 231.193 551.91 Q231.193 559.017 232.999 562.581 Q234.828 566.123 238.439 566.123 Q242.073 566.123 243.878 562.581 Q245.707 559.017 245.707 551.91 Q245.707 544.781 243.878 541.239 Q242.073 537.674 238.439 537.674 M238.439 533.97 Q244.249 533.97 247.304 538.577 Q250.383 543.16 250.383 551.91 Q250.383 560.637 247.304 565.243 Q244.249 569.827 238.439 569.827 Q232.629 569.827 229.55 565.243 Q226.494 560.637 226.494 551.91 Q226.494 543.16 229.55 538.577 Q232.629 533.97 238.439 533.97 Z" fill="#000000" fill-rule="nonzero" fill-opacity="1" /><path clip-path="url(#clip830)" d="M164.643 347.387 Q161.032 347.387 159.203 350.951 Q157.397 354.493 157.397 361.623 Q157.397 368.729 159.203 372.294 Q161.032 375.835 164.643 375.835 Q168.277 375.835 170.083 372.294 Q171.911 368.729 171.911 361.623 Q171.911 354.493 170.083 350.951 Q168.277 347.387 164.643 347.387 M164.643 343.683 Q170.453 343.683 173.508 348.289 Q176.587 352.873 176.587 361.623 Q176.587 370.349 173.508 374.956 Q170.453 379.539 164.643 379.539 Q158.833 379.539 155.754 374.956 Q152.698 370.349 152.698 361.623 Q152.698 352.873 155.754 348.289 Q158.833 343.683 164.643 343.683 Z" fill="#000000" fill-rule="nonzero" fill-opacity="1" /><path clip-path="url(#clip830)" d="M184.805 372.988 L189.689 372.988 L189.689 378.868 L184.805 378.868 L184.805 372.988 Z" fill="#000000" fill-rule="nonzero" fill-opacity="1" /><path clip-path="url(#clip830)" d="M209.874 347.387 Q206.263 347.387 204.434 350.951 Q202.629 354.493 202.629 361.623 Q202.629 368.729 204.434 372.294 Q206.263 375.835 209.874 375.835 Q213.508 375.835 215.314 372.294 Q217.142 368.729 217.142 361.623 Q217.142 354.493 215.314 350.951 Q213.508 347.387 209.874 347.387 M209.874 343.683 Q215.684 343.683 218.74 348.289 Q221.818 352.873 221.818 361.623 Q221.818 370.349 218.74 374.956 Q215.684 379.539 209.874 379.539 Q204.064 379.539 200.985 374.956 Q197.93 370.349 197.93 361.623 Q197.93 352.873 200.985 348.289 Q204.064 343.683 209.874 343.683 Z" fill="#000000" fill-rule="nonzero" fill-opacity="1" /><path clip-path="url(#clip830)" d="M234.064 374.933 L250.383 374.933 L250.383 378.868 L228.439 378.868 L228.439 374.933 Q231.101 372.178 235.684 367.548 Q240.291 362.896 241.471 361.553 Q243.716 359.03 244.596 357.294 Q245.499 355.535 245.499 353.845 Q245.499 351.09 243.554 349.354 Q241.633 347.618 238.531 347.618 Q236.332 347.618 233.879 348.382 Q231.448 349.146 228.67 350.697 L228.67 345.974 Q231.494 344.84 233.948 344.262 Q236.402 343.683 238.439 343.683 Q243.809 343.683 247.003 346.368 Q250.198 349.053 250.198 353.544 Q250.198 355.673 249.388 357.595 Q248.601 359.493 246.494 362.086 Q245.915 362.757 242.814 365.974 Q239.712 369.169 234.064 374.933 Z" fill="#000000" fill-rule="nonzero" fill-opacity="1" /><path clip-path="url(#clip830)" d="M162.559 157.099 Q158.948 157.099 157.12 160.664 Q155.314 164.205 155.314 171.335 Q155.314 178.441 157.12 182.006 Q158.948 185.548 162.559 185.548 Q166.194 185.548 167.999 182.006 Q169.828 178.441 169.828 171.335 Q169.828 164.205 167.999 160.664 Q166.194 157.099 162.559 157.099 M162.559 153.395 Q168.37 153.395 171.425 158.002 Q174.504 162.585 174.504 171.335 Q174.504 180.062 171.425 184.668 Q168.37 189.251 162.559 189.251 Q156.749 189.251 153.671 184.668 Q150.615 180.062 150.615 171.335 Q150.615 162.585 153.671 158.002 Q156.749 153.395 162.559 153.395 Z" fill="#000000" fill-rule="nonzero" fill-opacity="1" /><path clip-path="url(#clip830)" d="M182.721 182.701 L187.606 182.701 L187.606 188.58 L182.721 188.58 L182.721 182.701 Z" fill="#000000" fill-rule="nonzero" fill-opacity="1" /><path clip-path="url(#clip830)" d="M207.791 157.099 Q204.18 157.099 202.351 160.664 Q200.545 164.205 200.545 171.335 Q200.545 178.441 202.351 182.006 Q204.18 185.548 207.791 185.548 Q211.425 185.548 213.23 182.006 Q215.059 178.441 215.059 171.335 Q215.059 164.205 213.23 160.664 Q211.425 157.099 207.791 157.099 M207.791 153.395 Q213.601 153.395 216.656 158.002 Q219.735 162.585 219.735 171.335 Q219.735 180.062 216.656 184.668 Q213.601 189.251 207.791 189.251 Q201.981 189.251 198.902 184.668 Q195.846 180.062 195.846 171.335 Q195.846 162.585 198.902 158.002 Q201.981 153.395 207.791 153.395 Z" fill="#000000" fill-rule="nonzero" fill-opacity="1" /><path clip-path="url(#clip830)" d="M240.8 158.094 L228.994 176.543 L240.8 176.543 L240.8 158.094 M239.573 154.02 L245.453 154.02 L245.453 176.543 L250.383 176.543 L250.383 180.432 L245.453 180.432 L245.453 188.58 L240.8 188.58 L240.8 180.432 L225.198 180.432 L225.198 175.918 L239.573 154.02 Z" fill="#000000" fill-rule="nonzero" fill-opacity="1" /><path clip-path="url(#clip830)" d="M29.296 559.036 L30.2203 559.599 Q28.7098 563.094 26.2976 567.445 Q28.7098 571.796 30.2203 575.29 L29.296 575.831 Q25.982 572.021 23.4345 567.445 Q26.0046 562.823 29.296 559.036 Z" fill="#000000" fill-rule="nonzero" fill-opacity="1" /><path clip-path="url(#clip830)" d="M41.5845 555.871 Q43.3881 555.871 44.4187 556.999 Q45.417 558.126 45.417 559.414 Q45.417 560.638 44.7085 561.282 Q44 561.926 43.0982 561.926 Q41.8744 561.926 40.8116 561.024 Q39.7488 560.123 39.5234 558.77 Q38.686 560.09 38.686 562.055 Q38.686 563.343 39.3623 564.47 Q40.0387 565.565 40.9082 566.242 Q41.7778 566.886 43.0338 567.466 Q44.2576 568.013 44.9984 568.238 Q45.7069 568.432 46.4798 568.593 L55.4975 570.847 Q59.7809 571.942 61.2945 571.942 Q63.1625 571.942 64.4185 571.04 Q65.6423 570.139 65.6423 568.335 Q65.6423 567.627 65.4491 566.821 Q65.2236 566.016 64.6439 564.986 Q64.032 563.923 63.1303 562.989 Q62.1963 562.023 60.6182 561.089 Q59.0401 560.155 57.0111 559.543 Q56.3026 559.35 56.3026 558.706 Q56.3026 557.9 56.9467 557.9 Q57.4942 557.9 58.6536 558.351 Q59.7809 558.77 61.2623 559.704 Q62.7116 560.606 64.032 561.797 Q65.3203 562.989 66.222 564.76 Q67.1238 566.532 67.1238 568.464 Q67.1238 571.234 65.6423 573.069 Q64.1608 574.905 62.0997 575.581 Q62.3895 575.742 62.776 575.968 Q63.1625 576.193 64.032 576.87 Q64.8694 577.514 65.5135 578.254 Q66.1254 578.995 66.6085 580.155 Q67.1238 581.282 67.1238 582.506 Q67.1238 584.052 66.6729 585.436 Q66.222 586.789 65.1914 587.755 Q64.1608 588.721 62.7438 588.721 Q61.1657 588.721 60.0707 587.659 Q58.9435 586.564 58.9435 585.082 Q58.9435 584.148 59.491 583.407 Q60.0385 582.634 61.2301 582.634 Q62.5506 582.634 63.5489 583.536 Q64.5473 584.438 64.805 585.726 Q65.6423 584.406 65.6423 582.441 Q65.6423 580.316 63.7744 578.641 Q61.9064 576.966 58.7825 576.161 Q51.2785 574.164 47.9291 573.391 Q44.5475 572.618 43.0982 572.618 Q41.7456 572.618 40.8116 572.973 Q39.8776 573.327 39.459 573.939 Q39.0081 574.519 38.847 575.066 Q38.686 575.581 38.686 576.161 Q38.686 577.127 39.0725 578.222 Q39.459 579.285 40.3607 580.573 Q41.2303 581.829 43.0338 583.021 Q44.8373 584.213 47.3172 585.018 Q48.0579 585.179 48.0579 585.887 Q48.0257 586.66 47.3816 586.66 Q46.8341 586.66 45.7069 586.242 Q44.5475 585.791 43.0982 584.889 Q41.649 583.955 40.3607 582.763 Q39.0403 581.539 38.1385 579.768 Q37.2367 577.965 37.2367 576.032 Q37.2367 575.163 37.43 574.325 Q37.591 573.456 38.0741 572.425 Q38.5572 571.362 39.62 570.428 Q40.6828 569.494 42.2287 568.915 Q41.4879 568.528 40.7794 568.013 Q40.0709 567.466 39.2013 566.628 Q38.2995 565.759 37.7842 564.567 Q37.2367 563.343 37.2367 561.991 Q37.2367 560.67 37.591 559.382 Q37.9131 558.094 38.9759 556.999 Q40.0065 555.871 41.5845 555.871 Z" fill="#000000" fill-rule="nonzero" fill-opacity="1" /><path clip-path="url(#clip830)" d="M64.9016 534.231 Q65.5329 534.231 65.6907 534.524 Q65.8259 534.817 65.8259 535.628 L65.8259 539.957 L79.4426 543.384 Q80.6374 543.654 81.6519 543.654 Q82.7791 543.654 83.2751 543.316 Q83.771 542.955 83.771 542.211 Q83.771 540.746 82.4409 539.168 Q81.1108 537.567 77.8645 536.215 Q77.4362 536.034 77.346 535.944 Q77.2333 535.831 77.2333 535.538 Q77.2333 534.975 77.6841 534.975 Q77.8419 534.975 78.5634 535.29 Q79.2848 535.583 80.3443 536.237 Q81.4039 536.868 82.3959 537.702 Q83.3878 538.514 84.1092 539.754 Q84.8081 540.994 84.8081 542.324 Q84.8081 544.195 83.6132 545.39 Q82.4184 546.562 80.5472 546.562 Q79.9386 546.562 77.9998 546.089 Q76.0384 545.615 65.8259 543.045 L65.8259 547.126 Q65.8259 547.689 65.8034 547.915 Q65.7809 548.118 65.6681 548.276 Q65.5329 548.411 65.2623 548.411 Q64.834 548.411 64.6536 548.231 Q64.4508 548.05 64.4282 547.825 Q64.3831 547.577 64.3831 547.013 L64.3831 542.685 L57.0563 540.881 Q56.3349 540.701 55.9291 540.25 Q55.5007 539.776 55.4557 539.506 Q55.388 539.235 55.388 539.033 Q55.388 538.424 55.7262 538.063 Q56.0418 537.702 56.6279 537.702 Q56.9436 537.702 64.3831 539.596 L64.3831 535.538 Q64.3831 535.02 64.4057 534.817 Q64.4282 534.591 64.5409 534.411 Q64.6536 534.231 64.9016 534.231 Z" fill="#000000" fill-rule="nonzero" fill-opacity="1" /><polyline clip-path="url(#clip831)" style="stroke:#0f6a81; stroke-linecap:round; stroke-linejoin:round; stroke-width:4; stroke-opacity:1; fill:none" points="327.714,1027.59 485.485,932.451 643.256,837.307 801.027,742.163 958.798,647.019 1116.57,551.875 1274.34,456.732 1432.11,361.588 1589.88,266.444 1747.65,171.3 1905.42,76.1564 "/>
<polyline clip-path="url(#clip831)" style="stroke:#c2676d; stroke-linecap:round; stroke-linejoin:round; stroke-width:4; stroke-opacity:1; fill:none" points="327.714,1039.9 485.485,940.271 643.256,841.676 801.027,744.092 958.798,647.498 1116.57,551.875 1274.34,457.204 1432.11,363.466 1589.88,270.642 1747.65,178.715 1905.42,87.6672 "/>
<path clip-path="url(#clip830)" d="M336.129 318.15 L781.989 318.15 L781.989 81.2963 L336.129 81.2963  Z" fill="#ffffff" fill-rule="evenodd" fill-opacity="1"/>
<polyline clip-path="url(#clip830)" style="stroke:#000000; stroke-linecap:round; stroke-linejoin:round; stroke-width:4; stroke-opacity:0; fill:none" points="336.129,318.15 781.989,318.15 781.989,81.2963 336.129,81.2963 336.129,318.15 "/>
<polyline clip-path="url(#clip830)" style="stroke:#0f6a81; stroke-linecap:round; stroke-linejoin:round; stroke-width:4; stroke-opacity:1; fill:none" points="354.711,160.248 466.202,160.248 "/>
<path clip-path="url(#clip830)" d="M518.915 123.726 Q518.915 125.038 518.095 125.787 Q517.276 126.514 516.339 126.514 Q515.449 126.514 514.98 125.998 Q514.512 125.483 514.512 124.827 Q514.512 123.937 515.167 123.164 Q515.823 122.391 516.807 122.227 Q515.847 121.618 514.418 121.618 Q513.481 121.618 512.661 122.11 Q511.865 122.602 511.373 123.234 Q510.905 123.867 510.483 124.78 Q510.085 125.67 509.921 126.209 Q509.78 126.724 509.663 127.286 L508.024 133.845 Q507.227 136.96 507.227 138.061 Q507.227 139.419 507.883 140.333 Q508.539 141.223 509.851 141.223 Q510.366 141.223 510.951 141.082 Q511.537 140.918 512.287 140.497 Q513.059 140.052 513.739 139.396 Q514.441 138.717 515.121 137.569 Q515.8 136.421 516.245 134.946 Q516.385 134.43 516.854 134.43 Q517.439 134.43 517.439 134.899 Q517.439 135.297 517.112 136.14 Q516.807 136.96 516.128 138.037 Q515.472 139.091 514.605 140.052 Q513.739 140.989 512.45 141.644 Q511.162 142.3 509.757 142.3 Q507.743 142.3 506.407 141.223 Q505.072 140.145 504.581 138.646 Q504.463 138.857 504.299 139.138 Q504.136 139.419 503.644 140.052 Q503.175 140.661 502.636 141.129 Q502.098 141.574 501.255 141.925 Q500.435 142.3 499.545 142.3 Q498.42 142.3 497.413 141.972 Q496.43 141.644 495.727 140.895 Q495.024 140.145 495.024 139.115 Q495.024 137.967 495.797 137.171 Q496.593 136.351 497.671 136.351 Q498.35 136.351 498.889 136.749 Q499.451 137.147 499.451 138.014 Q499.451 138.974 498.795 139.7 Q498.139 140.426 497.202 140.614 Q498.163 141.223 499.592 141.223 Q501.137 141.223 502.355 139.864 Q503.573 138.506 504.159 136.234 Q505.611 130.776 506.173 128.34 Q506.735 125.881 506.735 124.827 Q506.735 123.843 506.478 123.164 Q506.22 122.485 505.775 122.18 Q505.353 121.852 504.955 121.735 Q504.581 121.618 504.159 121.618 Q503.456 121.618 502.66 121.899 Q501.887 122.18 500.95 122.836 Q500.037 123.469 499.17 124.78 Q498.303 126.092 497.718 127.895 Q497.601 128.434 497.085 128.434 Q496.523 128.411 496.523 127.942 Q496.523 127.544 496.828 126.724 Q497.156 125.881 497.811 124.827 Q498.491 123.773 499.357 122.836 Q500.247 121.876 501.536 121.22 Q502.847 120.564 504.253 120.564 Q504.885 120.564 505.494 120.705 Q506.126 120.822 506.876 121.173 Q507.649 121.525 508.328 122.297 Q509.007 123.07 509.429 124.195 Q509.71 123.656 510.085 123.141 Q510.483 122.625 511.092 121.993 Q511.724 121.337 512.591 120.962 Q513.481 120.564 514.465 120.564 Q515.425 120.564 516.362 120.822 Q517.299 121.056 518.095 121.829 Q518.915 122.579 518.915 123.726 Z" fill="#000000" fill-rule="nonzero" fill-opacity="1" /><path clip-path="url(#clip830)" d="M534.116 140.686 Q534.116 141.145 533.903 141.26 Q533.69 141.358 533.099 141.358 L529.951 141.358 L527.459 151.261 Q527.263 152.13 527.263 152.868 Q527.263 153.687 527.508 154.048 Q527.771 154.409 528.312 154.409 Q529.378 154.409 530.525 153.442 Q531.689 152.474 532.673 150.113 Q532.804 149.802 532.87 149.736 Q532.952 149.654 533.165 149.654 Q533.575 149.654 533.575 149.982 Q533.575 150.097 533.345 150.621 Q533.132 151.146 532.657 151.917 Q532.198 152.687 531.591 153.409 Q531.001 154.13 530.099 154.655 Q529.197 155.163 528.23 155.163 Q526.869 155.163 526 154.294 Q525.147 153.425 525.147 152.064 Q525.147 151.622 525.492 150.212 Q525.836 148.785 527.705 141.358 L524.738 141.358 Q524.328 141.358 524.164 141.342 Q524.016 141.325 523.901 141.243 Q523.803 141.145 523.803 140.948 Q523.803 140.637 523.934 140.505 Q524.065 140.358 524.229 140.341 Q524.41 140.309 524.82 140.309 L527.968 140.309 L529.279 134.98 Q529.41 134.455 529.738 134.16 Q530.083 133.849 530.279 133.816 Q530.476 133.767 530.624 133.767 Q531.066 133.767 531.329 134.013 Q531.591 134.242 531.591 134.668 Q531.591 134.898 530.214 140.309 L533.165 140.309 Q533.542 140.309 533.69 140.325 Q533.854 140.341 533.985 140.423 Q534.116 140.505 534.116 140.686 Z" fill="#000000" fill-rule="nonzero" fill-opacity="1" /><path clip-path="url(#clip830)" d="M584.11 129.09 Q584.391 129.371 584.391 129.769 Q584.391 130.167 584.11 130.448 Q583.829 130.73 583.43 130.73 L553.403 130.73 Q553.005 130.73 552.724 130.448 Q552.443 130.167 552.443 129.769 Q552.443 129.371 552.724 129.09 Q553.005 128.809 553.403 128.809 L583.43 128.809 Q583.829 128.809 584.11 129.09 Z" fill="#000000" fill-rule="nonzero" fill-opacity="1" /><path clip-path="url(#clip830)" d="M626.602 123.726 Q626.602 125.038 625.782 125.787 Q624.962 126.514 624.025 126.514 Q623.135 126.514 622.667 125.998 Q622.198 125.483 622.198 124.827 Q622.198 123.937 622.854 123.164 Q623.51 122.391 624.494 122.227 Q623.534 121.618 622.105 121.618 Q621.168 121.618 620.348 122.11 Q619.552 122.602 619.06 123.234 Q618.591 123.867 618.17 124.78 Q617.772 125.67 617.608 126.209 Q617.467 126.724 617.35 127.286 L615.71 133.845 Q614.914 136.96 614.914 138.061 Q614.914 139.419 615.57 140.333 Q616.226 141.223 617.537 141.223 Q618.053 141.223 618.638 141.082 Q619.224 140.918 619.973 140.497 Q620.746 140.052 621.425 139.396 Q622.128 138.717 622.807 137.569 Q623.487 136.421 623.932 134.946 Q624.072 134.43 624.541 134.43 Q625.126 134.43 625.126 134.899 Q625.126 135.297 624.798 136.14 Q624.494 136.96 623.815 138.037 Q623.159 139.091 622.292 140.052 Q621.425 140.989 620.137 141.644 Q618.849 142.3 617.444 142.3 Q615.429 142.3 614.094 141.223 Q612.759 140.145 612.267 138.646 Q612.15 138.857 611.986 139.138 Q611.822 139.419 611.33 140.052 Q610.862 140.661 610.323 141.129 Q609.785 141.574 608.941 141.925 Q608.122 142.3 607.231 142.3 Q606.107 142.3 605.1 141.972 Q604.116 141.644 603.414 140.895 Q602.711 140.145 602.711 139.115 Q602.711 137.967 603.484 137.171 Q604.28 136.351 605.358 136.351 Q606.037 136.351 606.576 136.749 Q607.138 137.147 607.138 138.014 Q607.138 138.974 606.482 139.7 Q605.826 140.426 604.889 140.614 Q605.85 141.223 607.278 141.223 Q608.824 141.223 610.042 139.864 Q611.26 138.506 611.846 136.234 Q613.298 130.776 613.86 128.34 Q614.422 125.881 614.422 124.827 Q614.422 123.843 614.165 123.164 Q613.907 122.485 613.462 122.18 Q613.04 121.852 612.642 121.735 Q612.267 121.618 611.846 121.618 Q611.143 121.618 610.347 121.899 Q609.574 122.18 608.637 122.836 Q607.723 123.469 606.857 124.78 Q605.99 126.092 605.405 127.895 Q605.287 128.434 604.772 128.434 Q604.21 128.411 604.21 127.942 Q604.21 127.544 604.514 126.724 Q604.842 125.881 605.498 124.827 Q606.177 123.773 607.044 122.836 Q607.934 121.876 609.222 121.22 Q610.534 120.564 611.939 120.564 Q612.572 120.564 613.181 120.705 Q613.813 120.822 614.563 121.173 Q615.336 121.525 616.015 122.297 Q616.694 123.07 617.116 124.195 Q617.397 123.656 617.772 123.141 Q618.17 122.625 618.779 121.993 Q619.411 121.337 620.278 120.962 Q621.168 120.564 622.152 120.564 Q623.112 120.564 624.049 120.822 Q624.986 121.056 625.782 121.829 Q626.602 122.579 626.602 123.726 Z" fill="#000000" fill-rule="nonzero" fill-opacity="1" /><path clip-path="url(#clip830)" d="M495.024 167.96 L631.49 167.96 L631.49 165.4 L495.024 165.4  Z" fill="#000000" fill-rule="evenodd" fill-opacity="1"/>
<path clip-path="url(#clip830)" d="M573.082 181.154 Q573.082 182.466 572.262 183.215 Q571.442 183.941 570.505 183.941 Q569.615 183.941 569.147 183.426 Q568.678 182.911 568.678 182.255 Q568.678 181.365 569.334 180.592 Q569.99 179.819 570.974 179.655 Q570.013 179.046 568.585 179.046 Q567.648 179.046 566.828 179.538 Q566.032 180.03 565.54 180.662 Q565.071 181.295 564.65 182.208 Q564.251 183.098 564.088 183.637 Q563.947 184.152 563.83 184.714 L562.19 191.273 Q561.394 194.388 561.394 195.489 Q561.394 196.847 562.05 197.761 Q562.706 198.651 564.017 198.651 Q564.533 198.651 565.118 198.51 Q565.704 198.346 566.453 197.924 Q567.226 197.479 567.905 196.824 Q568.608 196.144 569.287 194.997 Q569.967 193.849 570.412 192.373 Q570.552 191.858 571.021 191.858 Q571.606 191.858 571.606 192.327 Q571.606 192.725 571.278 193.568 Q570.974 194.388 570.294 195.465 Q569.639 196.519 568.772 197.479 Q567.905 198.416 566.617 199.072 Q565.329 199.728 563.924 199.728 Q561.909 199.728 560.574 198.651 Q559.239 197.573 558.747 196.074 Q558.63 196.285 558.466 196.566 Q558.302 196.847 557.81 197.479 Q557.342 198.088 556.803 198.557 Q556.264 199.002 555.421 199.353 Q554.601 199.728 553.711 199.728 Q552.587 199.728 551.58 199.4 Q550.596 199.072 549.894 198.323 Q549.191 197.573 549.191 196.543 Q549.191 195.395 549.964 194.598 Q550.76 193.779 551.838 193.779 Q552.517 193.779 553.056 194.177 Q553.618 194.575 553.618 195.442 Q553.618 196.402 552.962 197.128 Q552.306 197.854 551.369 198.042 Q552.329 198.651 553.758 198.651 Q555.304 198.651 556.522 197.292 Q557.74 195.934 558.326 193.662 Q559.778 188.204 560.34 185.768 Q560.902 183.309 560.902 182.255 Q560.902 181.271 560.644 180.592 Q560.387 179.913 559.942 179.608 Q559.52 179.28 559.122 179.163 Q558.747 179.046 558.326 179.046 Q557.623 179.046 556.827 179.327 Q556.054 179.608 555.117 180.264 Q554.203 180.896 553.337 182.208 Q552.47 183.52 551.884 185.323 Q551.767 185.862 551.252 185.862 Q550.69 185.838 550.69 185.37 Q550.69 184.972 550.994 184.152 Q551.322 183.309 551.978 182.255 Q552.657 181.201 553.524 180.264 Q554.414 179.304 555.702 178.648 Q557.014 177.992 558.419 177.992 Q559.052 177.992 559.661 178.133 Q560.293 178.25 561.043 178.601 Q561.816 178.952 562.495 179.725 Q563.174 180.498 563.596 181.622 Q563.877 181.084 564.251 180.568 Q564.65 180.053 565.259 179.421 Q565.891 178.765 566.758 178.39 Q567.648 177.992 568.631 177.992 Q569.592 177.992 570.529 178.25 Q571.466 178.484 572.262 179.257 Q573.082 180.006 573.082 181.154 Z" fill="#000000" fill-rule="nonzero" fill-opacity="1" /><polyline clip-path="url(#clip830)" style="stroke:#c2676d; stroke-linecap:round; stroke-linejoin:round; stroke-width:4; stroke-opacity:1; fill:none" points="354.711,239.199 466.202,239.199 "/>
<path clip-path="url(#clip830)" d="M490.489 248.984 L490.489 247.508 Q493.042 247.508 493.628 247.204 Q494.213 246.876 494.213 245.33 L494.213 220.385 Q494.213 218.605 493.581 218.16 Q492.972 217.715 490.489 217.715 L490.489 216.216 L497.375 215.701 L497.375 245.33 Q497.375 246.876 497.984 247.204 Q498.593 247.508 501.123 247.508 L501.123 248.984 Q500.537 248.984 499.319 248.937 Q498.101 248.89 497.211 248.867 Q496.321 248.843 495.806 248.843 Q495.244 248.843 490.489 248.984 Z" fill="#000000" fill-rule="nonzero" fill-opacity="1" /><path clip-path="url(#clip830)" d="M508.341 246.408 Q505.179 243.269 505.179 238.725 Q505.179 234.158 508.271 230.832 Q511.386 227.482 515.836 227.482 Q520.193 227.482 523.308 230.808 Q526.447 234.111 526.447 238.725 Q526.447 243.246 523.285 246.384 Q520.146 249.523 515.79 249.523 Q511.527 249.523 508.341 246.408 M509.161 238.327 Q509.161 242.988 510.379 245.096 Q512.253 248.305 515.836 248.305 Q517.617 248.305 519.092 247.344 Q520.591 246.384 521.411 244.768 Q522.465 242.66 522.465 238.327 Q522.465 233.713 521.2 231.675 Q519.326 228.56 515.79 228.56 Q514.244 228.56 512.721 229.379 Q511.222 230.176 510.309 231.769 Q509.161 233.877 509.161 238.327 Z" fill="#000000" fill-rule="nonzero" fill-opacity="1" /><path clip-path="url(#clip830)" d="M527.208 252.778 Q527.208 251.233 528.379 249.898 Q529.573 248.562 531.635 247.977 Q529.527 246.642 529.527 243.714 Q529.527 241.465 531.002 239.732 Q528.754 237.858 528.754 234.79 Q528.754 231.956 531.002 229.871 Q533.251 227.787 536.53 227.787 Q539.411 227.787 541.613 229.52 Q543.908 227.271 546.695 227.248 Q547.937 227.248 548.522 228.021 Q549.131 228.794 549.131 229.614 Q549.131 230.34 548.663 230.691 Q548.218 231.042 547.749 231.042 Q547.164 231.042 546.742 230.668 Q546.344 230.269 546.344 229.661 Q546.344 228.653 547.117 228.349 Q546.976 228.302 546.648 228.302 Q544.306 228.302 542.315 230.176 Q544.283 232.003 544.283 234.837 Q544.283 237.671 542.034 239.756 Q539.786 241.84 536.53 241.84 Q533.836 241.84 531.775 240.341 Q530.955 241.301 530.955 242.613 Q530.955 243.808 531.681 244.745 Q532.408 245.681 533.508 245.822 Q533.836 245.869 537.092 245.869 Q539.013 245.869 540.067 245.916 Q541.121 245.963 542.62 246.29 Q544.142 246.595 545.337 247.204 Q548.452 248.937 548.475 252.685 Q548.475 255.425 545.313 257.135 Q542.175 258.868 537.818 258.868 Q533.415 258.868 530.299 257.112 Q527.208 255.378 527.208 252.778 M529.714 252.778 Q529.714 254.746 532.033 256.245 Q534.352 257.767 537.865 257.767 Q541.308 257.767 543.627 256.268 Q545.969 254.793 545.969 252.778 Q545.969 251.35 545.149 250.436 Q544.33 249.523 542.643 249.148 Q540.98 248.797 539.809 248.726 Q538.638 248.656 536.483 248.656 L533.649 248.656 Q532.009 248.75 530.862 249.944 Q529.714 251.139 529.714 252.778 M532.337 234.837 Q532.337 240.739 536.53 240.739 Q538.638 240.739 539.926 238.819 Q540.699 237.53 540.699 234.79 Q540.699 228.888 536.53 228.888 Q534.422 228.888 533.11 230.808 Q532.337 232.096 532.337 234.837 Z" fill="#000000" fill-rule="nonzero" fill-opacity="1" /><path clip-path="url(#clip830)" d="M580.56 230.949 Q580.56 232.26 579.74 233.01 Q578.92 233.736 577.983 233.736 Q577.093 233.736 576.625 233.221 Q576.157 232.705 576.157 232.05 Q576.157 231.16 576.812 230.387 Q577.468 229.614 578.452 229.45 Q577.492 228.841 576.063 228.841 Q575.126 228.841 574.306 229.333 Q573.51 229.824 573.018 230.457 Q572.549 231.089 572.128 232.003 Q571.73 232.893 571.566 233.432 Q571.425 233.947 571.308 234.509 L569.669 241.067 Q568.872 244.182 568.872 245.283 Q568.872 246.642 569.528 247.555 Q570.184 248.445 571.495 248.445 Q572.011 248.445 572.596 248.305 Q573.182 248.141 573.931 247.719 Q574.704 247.274 575.384 246.618 Q576.086 245.939 576.766 244.791 Q577.445 243.644 577.89 242.168 Q578.03 241.653 578.499 241.653 Q579.084 241.653 579.084 242.121 Q579.084 242.519 578.756 243.363 Q578.452 244.182 577.773 245.26 Q577.117 246.314 576.25 247.274 Q575.384 248.211 574.095 248.867 Q572.807 249.523 571.402 249.523 Q569.387 249.523 568.052 248.445 Q566.717 247.368 566.225 245.869 Q566.108 246.08 565.944 246.361 Q565.78 246.642 565.289 247.274 Q564.82 247.883 564.281 248.352 Q563.743 248.797 562.899 249.148 Q562.08 249.523 561.19 249.523 Q560.065 249.523 559.058 249.195 Q558.074 248.867 557.372 248.117 Q556.669 247.368 556.669 246.337 Q556.669 245.19 557.442 244.393 Q558.238 243.573 559.316 243.573 Q559.995 243.573 560.534 243.972 Q561.096 244.37 561.096 245.236 Q561.096 246.197 560.44 246.923 Q559.784 247.649 558.847 247.836 Q559.808 248.445 561.236 248.445 Q562.782 248.445 564 247.087 Q565.218 245.728 565.804 243.456 Q567.256 237.999 567.818 235.563 Q568.38 233.104 568.38 232.05 Q568.38 231.066 568.123 230.387 Q567.865 229.707 567.42 229.403 Q566.998 229.075 566.6 228.958 Q566.225 228.841 565.804 228.841 Q565.101 228.841 564.305 229.122 Q563.532 229.403 562.595 230.059 Q561.681 230.691 560.815 232.003 Q559.948 233.314 559.363 235.118 Q559.246 235.657 558.73 235.657 Q558.168 235.633 558.168 235.165 Q558.168 234.767 558.473 233.947 Q558.8 233.104 559.456 232.05 Q560.136 230.996 561.002 230.059 Q561.892 229.098 563.18 228.443 Q564.492 227.787 565.897 227.787 Q566.53 227.787 567.139 227.927 Q567.771 228.044 568.521 228.396 Q569.294 228.747 569.973 229.52 Q570.652 230.293 571.074 231.417 Q571.355 230.878 571.73 230.363 Q572.128 229.848 572.737 229.215 Q573.369 228.56 574.236 228.185 Q575.126 227.787 576.11 227.787 Q577.07 227.787 578.007 228.044 Q578.944 228.279 579.74 229.052 Q580.56 229.801 580.56 230.949 Z" fill="#000000" fill-rule="nonzero" fill-opacity="1" /><path clip-path="url(#clip830)" d="M595.761 247.908 Q595.761 248.367 595.548 248.482 Q595.335 248.58 594.744 248.58 L591.596 248.58 L589.104 258.483 Q588.907 259.352 588.907 260.09 Q588.907 260.91 589.153 261.271 Q589.416 261.631 589.957 261.631 Q591.022 261.631 592.17 260.664 Q593.334 259.697 594.318 257.336 Q594.449 257.024 594.515 256.959 Q594.597 256.877 594.81 256.877 Q595.22 256.877 595.22 257.205 Q595.22 257.319 594.99 257.844 Q594.777 258.369 594.302 259.139 Q593.843 259.91 593.236 260.631 Q592.646 261.353 591.744 261.877 Q590.842 262.386 589.875 262.386 Q588.514 262.386 587.645 261.517 Q586.792 260.648 586.792 259.287 Q586.792 258.844 587.137 257.434 Q587.481 256.008 589.35 248.58 L586.382 248.58 Q585.973 248.58 585.809 248.564 Q585.661 248.548 585.546 248.466 Q585.448 248.367 585.448 248.171 Q585.448 247.859 585.579 247.728 Q585.71 247.58 585.874 247.564 Q586.055 247.531 586.464 247.531 L589.612 247.531 L590.924 242.202 Q591.055 241.678 591.383 241.383 Q591.727 241.071 591.924 241.038 Q592.121 240.989 592.269 240.989 Q592.711 240.989 592.974 241.235 Q593.236 241.465 593.236 241.891 Q593.236 242.121 591.859 247.531 L594.81 247.531 Q595.187 247.531 595.335 247.547 Q595.498 247.564 595.63 247.646 Q595.761 247.728 595.761 247.908 Z" fill="#000000" fill-rule="nonzero" fill-opacity="1" /><path clip-path="url(#clip830)" d="M645.755 236.312 Q646.036 236.594 646.036 236.992 Q646.036 237.39 645.755 237.671 Q645.474 237.952 645.075 237.952 L615.048 237.952 Q614.65 237.952 614.369 237.671 Q614.087 237.39 614.087 236.992 Q614.087 236.594 614.369 236.312 Q614.65 236.031 615.048 236.031 L645.075 236.031 Q645.474 236.031 645.755 236.312 Z" fill="#000000" fill-rule="nonzero" fill-opacity="1" /><path clip-path="url(#clip830)" d="M670.061 248.984 L670.061 247.508 Q672.614 247.508 673.199 247.204 Q673.785 246.876 673.785 245.33 L673.785 220.385 Q673.785 218.605 673.152 218.16 Q672.543 217.715 670.061 217.715 L670.061 216.216 L676.947 215.701 L676.947 245.33 Q676.947 246.876 677.556 247.204 Q678.165 247.508 680.694 247.508 L680.694 248.984 Q680.109 248.984 678.891 248.937 Q677.673 248.89 676.783 248.867 Q675.893 248.843 675.378 248.843 Q674.815 248.843 670.061 248.984 Z" fill="#000000" fill-rule="nonzero" fill-opacity="1" /><path clip-path="url(#clip830)" d="M687.913 246.408 Q684.751 243.269 684.751 238.725 Q684.751 234.158 687.843 230.832 Q690.958 227.482 695.408 227.482 Q699.765 227.482 702.88 230.808 Q706.018 234.111 706.018 238.725 Q706.018 243.246 702.856 246.384 Q699.718 249.523 695.361 249.523 Q691.098 249.523 687.913 246.408 M688.733 238.327 Q688.733 242.988 689.951 245.096 Q691.824 248.305 695.408 248.305 Q697.188 248.305 698.664 247.344 Q700.163 246.384 700.983 244.768 Q702.037 242.66 702.037 238.327 Q702.037 233.713 700.772 231.675 Q698.898 228.56 695.361 228.56 Q693.815 228.56 692.293 229.379 Q690.794 230.176 689.88 231.769 Q688.733 233.877 688.733 238.327 Z" fill="#000000" fill-rule="nonzero" fill-opacity="1" /><path clip-path="url(#clip830)" d="M706.779 252.778 Q706.779 251.233 707.951 249.898 Q709.145 248.562 711.206 247.977 Q709.098 246.642 709.098 243.714 Q709.098 241.465 710.574 239.732 Q708.325 237.858 708.325 234.79 Q708.325 231.956 710.574 229.871 Q712.822 227.787 716.102 227.787 Q718.982 227.787 721.184 229.52 Q723.48 227.271 726.267 227.248 Q727.508 227.248 728.094 228.021 Q728.703 228.794 728.703 229.614 Q728.703 230.34 728.234 230.691 Q727.789 231.042 727.321 231.042 Q726.735 231.042 726.314 230.668 Q725.916 230.269 725.916 229.661 Q725.916 228.653 726.688 228.349 Q726.548 228.302 726.22 228.302 Q723.878 228.302 721.887 230.176 Q723.854 232.003 723.854 234.837 Q723.854 237.671 721.606 239.756 Q719.357 241.84 716.102 241.84 Q713.408 241.84 711.347 240.341 Q710.527 241.301 710.527 242.613 Q710.527 243.808 711.253 244.745 Q711.979 245.681 713.08 245.822 Q713.408 245.869 716.664 245.869 Q718.584 245.869 719.638 245.916 Q720.692 245.963 722.191 246.29 Q723.714 246.595 724.908 247.204 Q728.024 248.937 728.047 252.685 Q728.047 255.425 724.885 257.135 Q721.746 258.868 717.39 258.868 Q712.986 258.868 709.871 257.112 Q706.779 255.378 706.779 252.778 M709.286 252.778 Q709.286 254.746 711.604 256.245 Q713.923 257.767 717.437 257.767 Q720.88 257.767 723.199 256.268 Q725.541 254.793 725.541 252.778 Q725.541 251.35 724.721 250.436 Q723.901 249.523 722.215 249.148 Q720.552 248.797 719.381 248.726 Q718.21 248.656 716.055 248.656 L713.221 248.656 Q711.581 248.75 710.433 249.944 Q709.286 251.139 709.286 252.778 M711.909 234.837 Q711.909 240.739 716.102 240.739 Q718.21 240.739 719.498 238.819 Q720.271 237.53 720.271 234.79 Q720.271 228.888 716.102 228.888 Q713.994 228.888 712.682 230.808 Q711.909 232.096 711.909 234.837 Z" fill="#000000" fill-rule="nonzero" fill-opacity="1" /><path clip-path="url(#clip830)" d="M760.132 230.949 Q760.132 232.26 759.312 233.01 Q758.492 233.736 757.555 233.736 Q756.665 233.736 756.197 233.221 Q755.728 232.705 755.728 232.05 Q755.728 231.16 756.384 230.387 Q757.04 229.614 758.024 229.45 Q757.063 228.841 755.634 228.841 Q754.698 228.841 753.878 229.333 Q753.081 229.824 752.59 230.457 Q752.121 231.089 751.7 232.003 Q751.301 232.893 751.137 233.432 Q750.997 233.947 750.88 234.509 L749.24 241.067 Q748.444 244.182 748.444 245.283 Q748.444 246.642 749.1 247.555 Q749.755 248.445 751.067 248.445 Q751.582 248.445 752.168 248.305 Q752.754 248.141 753.503 247.719 Q754.276 247.274 754.955 246.618 Q755.658 245.939 756.337 244.791 Q757.016 243.644 757.461 242.168 Q757.602 241.653 758.07 241.653 Q758.656 241.653 758.656 242.121 Q758.656 242.519 758.328 243.363 Q758.024 244.182 757.344 245.26 Q756.689 246.314 755.822 247.274 Q754.955 248.211 753.667 248.867 Q752.379 249.523 750.973 249.523 Q748.959 249.523 747.624 248.445 Q746.289 247.368 745.797 245.869 Q745.68 246.08 745.516 246.361 Q745.352 246.642 744.86 247.274 Q744.392 247.883 743.853 248.352 Q743.314 248.797 742.471 249.148 Q741.651 249.523 740.761 249.523 Q739.637 249.523 738.63 249.195 Q737.646 248.867 736.943 248.117 Q736.241 247.368 736.241 246.337 Q736.241 245.19 737.014 244.393 Q737.81 243.573 738.887 243.573 Q739.567 243.573 740.105 243.972 Q740.668 244.37 740.668 245.236 Q740.668 246.197 740.012 246.923 Q739.356 247.649 738.419 247.836 Q739.379 248.445 740.808 248.445 Q742.354 248.445 743.572 247.087 Q744.79 245.728 745.375 243.456 Q746.828 237.999 747.39 235.563 Q747.952 233.104 747.952 232.05 Q747.952 231.066 747.694 230.387 Q747.437 229.707 746.992 229.403 Q746.57 229.075 746.172 228.958 Q745.797 228.841 745.375 228.841 Q744.673 228.841 743.876 229.122 Q743.103 229.403 742.167 230.059 Q741.253 230.691 740.386 232.003 Q739.52 233.314 738.934 235.118 Q738.817 235.657 738.302 235.657 Q737.74 235.633 737.74 235.165 Q737.74 234.767 738.044 233.947 Q738.372 233.104 739.028 232.05 Q739.707 230.996 740.574 230.059 Q741.464 229.098 742.752 228.443 Q744.064 227.787 745.469 227.787 Q746.102 227.787 746.711 227.927 Q747.343 228.044 748.092 228.396 Q748.865 228.747 749.545 229.52 Q750.224 230.293 750.646 231.417 Q750.927 230.878 751.301 230.363 Q751.7 229.848 752.309 229.215 Q752.941 228.56 753.808 228.185 Q754.698 227.787 755.681 227.787 Q756.642 227.787 757.579 228.044 Q758.515 228.279 759.312 229.052 Q760.132 229.801 760.132 230.949 Z" fill="#000000" fill-rule="nonzero" fill-opacity="1" /></svg>
