<?xml version="1.0" encoding="utf-8"?>
<svg xmlns="http://www.w3.org/2000/svg" xmlns:xlink="http://www.w3.org/1999/xlink" width="500" height="309" viewBox="0 0 2000 1236">
<defs>
  <clipPath id="clip360">
    <rect x="0" y="0" width="2000" height="1236"/>
  </clipPath>
</defs>
<path clip-path="url(#clip360)" d="M0 1236 L2000 1236 L2000 1.24345e-14 L0 1.24345e-14  Z" fill="#ffffff" fill-rule="evenodd" fill-opacity="1"/>
<defs>
  <clipPath id="clip361">
    <rect x="218" y="47" width="1735" height="1082"/>
  </clipPath>
</defs>
<path clip-path="url(#clip360)" d="M218.501 1128.61 L1952.76 1128.61 L1952.76 47.2441 L218.501 47.2441  Z" fill="#ffffff" fill-rule="evenodd" fill-opacity="1"/>
<polyline clip-path="url(#clip360)" style="stroke:#000000; stroke-linecap:round; stroke-linejoin:round; stroke-width:4; stroke-opacity:1; fill:none" points="218.501,1128.61 1952.76,1128.61 "/>
<polyline clip-path="url(#clip360)" style="stroke:#000000; stroke-linecap:round; stroke-linejoin:round; stroke-width:4; stroke-opacity:1; fill:none" points="251.057,1128.61 251.057,1109.71 "/>
<polyline clip-path="url(#clip360)" style="stroke:#000000; stroke-linecap:round; stroke-linejoin:round; stroke-width:4; stroke-opacity:1; fill:none" points="664.211,1128.61 664.211,1109.71 "/>
<polyline clip-path="url(#clip360)" style="stroke:#000000; stroke-linecap:round; stroke-linejoin:round; stroke-width:4; stroke-opacity:1; fill:none" points="1077.37,1128.61 1077.37,1109.71 "/>
<polyline clip-path="url(#clip360)" style="stroke:#000000; stroke-linecap:round; stroke-linejoin:round; stroke-width:4; stroke-opacity:1; fill:none" points="1490.52,1128.61 1490.52,1109.71 "/>
<polyline clip-path="url(#clip360)" style="stroke:#000000; stroke-linecap:round; stroke-linejoin:round; stroke-width:4; stroke-opacity:1; fill:none" points="1903.67,1128.61 1903.67,1109.71 "/>
<path clip-path="url(#clip360)" d="M251.057 1156.33 Q247.446 1156.33 245.617 1159.89 Q243.812 1163.44 243.812 1170.57 Q243.812 1177.67 245.617 1181.24 Q247.446 1184.78 251.057 1184.78 Q254.691 1184.78 256.497 1181.24 Q258.326 1177.67 258.326 1170.57 Q258.326 1163.44 256.497 1159.89 Q254.691 1156.33 251.057 1156.33 M251.057 1152.63 Q256.867 1152.63 259.923 1157.23 Q263.002 1161.82 263.002 1170.57 Q263.002 1179.29 259.923 1183.9 Q256.867 1188.48 251.057 1188.48 Q245.247 1188.48 242.168 1183.9 Q239.113 1179.29 239.113 1170.57 Q239.113 1161.82 242.168 1157.23 Q245.247 1152.63 251.057 1152.63 Z" fill="#000000" fill-rule="nonzero" fill-opacity="1" /><path clip-path="url(#clip360)" d="M643.482 1183.88 L659.801 1183.88 L659.801 1187.81 L637.857 1187.81 L637.857 1183.88 Q640.519 1181.12 645.103 1176.49 Q649.709 1171.84 650.89 1170.5 Q653.135 1167.97 654.014 1166.24 Q654.917 1164.48 654.917 1162.79 Q654.917 1160.03 652.973 1158.3 Q651.052 1156.56 647.95 1156.56 Q645.751 1156.56 643.297 1157.32 Q640.866 1158.09 638.089 1159.64 L638.089 1154.92 Q640.913 1153.78 643.366 1153.2 Q645.82 1152.63 647.857 1152.63 Q653.227 1152.63 656.422 1155.31 Q659.616 1158 659.616 1162.49 Q659.616 1164.62 658.806 1166.54 Q658.019 1168.44 655.913 1171.03 Q655.334 1171.7 652.232 1174.92 Q649.13 1178.11 643.482 1183.88 Z" fill="#000000" fill-rule="nonzero" fill-opacity="1" /><path clip-path="url(#clip360)" d="M669.663 1153.25 L688.019 1153.25 L688.019 1157.19 L673.945 1157.19 L673.945 1165.66 Q674.963 1165.31 675.982 1165.15 Q677 1164.96 678.019 1164.96 Q683.806 1164.96 687.186 1168.13 Q690.565 1171.31 690.565 1176.72 Q690.565 1182.3 687.093 1185.4 Q683.621 1188.48 677.301 1188.48 Q675.125 1188.48 672.857 1188.11 Q670.612 1187.74 668.204 1187 L668.204 1182.3 Q670.288 1183.44 672.51 1183.99 Q674.732 1184.55 677.209 1184.55 Q681.213 1184.55 683.551 1182.44 Q685.889 1180.33 685.889 1176.72 Q685.889 1173.11 683.551 1171.01 Q681.213 1168.9 677.209 1168.9 Q675.334 1168.9 673.459 1169.32 Q671.607 1169.73 669.663 1170.61 L669.663 1153.25 Z" fill="#000000" fill-rule="nonzero" fill-opacity="1" /><path clip-path="url(#clip360)" d="M1052.06 1153.25 L1070.42 1153.25 L1070.42 1157.19 L1056.35 1157.19 L1056.35 1165.66 Q1057.37 1165.31 1058.38 1165.15 Q1059.4 1164.96 1060.42 1164.96 Q1066.21 1164.96 1069.59 1168.13 Q1072.97 1171.31 1072.97 1176.72 Q1072.97 1182.3 1069.49 1185.4 Q1066.02 1188.48 1059.7 1188.48 Q1057.53 1188.48 1055.26 1188.11 Q1053.01 1187.74 1050.61 1187 L1050.61 1182.3 Q1052.69 1183.44 1054.91 1183.99 Q1057.13 1184.55 1059.61 1184.55 Q1063.62 1184.55 1065.95 1182.44 Q1068.29 1180.33 1068.29 1176.72 Q1068.29 1173.11 1065.95 1171.01 Q1063.62 1168.9 1059.61 1168.9 Q1057.74 1168.9 1055.86 1169.32 Q1054.01 1169.73 1052.06 1170.61 L1052.06 1153.25 Z" fill="#000000" fill-rule="nonzero" fill-opacity="1" /><path clip-path="url(#clip360)" d="M1092.18 1156.33 Q1088.57 1156.33 1086.74 1159.89 Q1084.93 1163.44 1084.93 1170.57 Q1084.93 1177.67 1086.74 1181.24 Q1088.57 1184.78 1092.18 1184.78 Q1095.81 1184.78 1097.62 1181.24 Q1099.45 1177.67 1099.45 1170.57 Q1099.45 1163.44 1097.62 1159.89 Q1095.81 1156.33 1092.18 1156.33 M1092.18 1152.63 Q1097.99 1152.63 1101.05 1157.23 Q1104.12 1161.82 1104.12 1170.57 Q1104.12 1179.29 1101.05 1183.9 Q1097.99 1188.48 1092.18 1188.48 Q1086.37 1188.48 1083.29 1183.9 Q1080.24 1179.29 1080.24 1170.57 Q1080.24 1161.82 1083.29 1157.23 Q1086.37 1152.63 1092.18 1152.63 Z" fill="#000000" fill-rule="nonzero" fill-opacity="1" /><path clip-path="url(#clip360)" d="M1464.37 1153.25 L1486.6 1153.25 L1486.6 1155.24 L1474.05 1187.81 L1469.17 1187.81 L1480.97 1157.19 L1464.37 1157.19 L1464.37 1153.25 Z" fill="#000000" fill-rule="nonzero" fill-opacity="1" /><path clip-path="url(#clip360)" d="M1495.76 1153.25 L1514.12 1153.25 L1514.12 1157.19 L1500.04 1157.19 L1500.04 1165.66 Q1501.06 1165.31 1502.08 1165.15 Q1503.1 1164.96 1504.12 1164.96 Q1509.91 1164.96 1513.29 1168.13 Q1516.66 1171.31 1516.66 1176.72 Q1516.66 1182.3 1513.19 1185.4 Q1509.72 1188.48 1503.4 1188.48 Q1501.23 1188.48 1498.96 1188.11 Q1496.71 1187.74 1494.3 1187 L1494.3 1182.3 Q1496.39 1183.44 1498.61 1183.99 Q1500.83 1184.55 1503.31 1184.55 Q1507.31 1184.55 1509.65 1182.44 Q1511.99 1180.33 1511.99 1176.72 Q1511.99 1173.11 1509.65 1171.01 Q1507.31 1168.9 1503.31 1168.9 Q1501.43 1168.9 1499.56 1169.32 Q1497.71 1169.73 1495.76 1170.61 L1495.76 1153.25 Z" fill="#000000" fill-rule="nonzero" fill-opacity="1" /><path clip-path="url(#clip360)" d="M1863.28 1183.88 L1870.92 1183.88 L1870.92 1157.51 L1862.61 1159.18 L1862.61 1154.92 L1870.87 1153.25 L1875.55 1153.25 L1875.55 1183.88 L1883.19 1183.88 L1883.19 1187.81 L1863.28 1187.81 L1863.28 1183.88 Z" fill="#000000" fill-rule="nonzero" fill-opacity="1" /><path clip-path="url(#clip360)" d="M1902.63 1156.33 Q1899.02 1156.33 1897.19 1159.89 Q1895.39 1163.44 1895.39 1170.57 Q1895.39 1177.67 1897.19 1181.24 Q1899.02 1184.78 1902.63 1184.78 Q1906.27 1184.78 1908.07 1181.24 Q1909.9 1177.67 1909.9 1170.57 Q1909.9 1163.44 1908.07 1159.89 Q1906.27 1156.33 1902.63 1156.33 M1902.63 1152.63 Q1908.44 1152.63 1911.5 1157.23 Q1914.58 1161.82 1914.58 1170.57 Q1914.58 1179.29 1911.5 1183.9 Q1908.44 1188.48 1902.63 1188.48 Q1896.82 1188.48 1893.74 1183.9 Q1890.69 1179.29 1890.69 1170.57 Q1890.69 1161.82 1893.74 1157.23 Q1896.82 1152.63 1902.63 1152.63 Z" fill="#000000" fill-rule="nonzero" fill-opacity="1" /><path clip-path="url(#clip360)" d="M1932.79 1156.33 Q1929.18 1156.33 1927.35 1159.89 Q1925.55 1163.44 1925.55 1170.57 Q1925.55 1177.67 1927.35 1181.24 Q1929.18 1184.78 1932.79 1184.78 Q1936.43 1184.78 1938.23 1181.24 Q1940.06 1177.67 1940.06 1170.57 Q1940.06 1163.44 1938.23 1159.89 Q1936.43 1156.33 1932.79 1156.33 M1932.79 1152.63 Q1938.6 1152.63 1941.66 1157.23 Q1944.74 1161.82 1944.74 1170.57 Q1944.74 1179.29 1941.66 1183.9 Q1938.6 1188.48 1932.79 1188.48 Q1926.98 1188.48 1923.9 1183.9 Q1920.85 1179.29 1920.85 1170.57 Q1920.85 1161.82 1923.9 1157.23 Q1926.98 1152.63 1932.79 1152.63 Z" fill="#000000" fill-rule="nonzero" fill-opacity="1" /><polyline clip-path="url(#clip360)" style="stroke:#000000; stroke-linecap:round; stroke-linejoin:round; stroke-width:4; stroke-opacity:1; fill:none" points="218.501,1128.61 218.501,47.2441 "/>
<polyline clip-path="url(#clip360)" style="stroke:#000000; stroke-linecap:round; stroke-linejoin:round; stroke-width:4; stroke-opacity:1; fill:none" points="218.501,1012.29 237.398,1012.29 "/>
<polyline clip-path="url(#clip360)" style="stroke:#000000; stroke-linecap:round; stroke-linejoin:round; stroke-width:4; stroke-opacity:1; fill:none" points="218.501,766.973 237.398,766.973 "/>
<polyline clip-path="url(#clip360)" style="stroke:#000000; stroke-linecap:round; stroke-linejoin:round; stroke-width:4; stroke-opacity:1; fill:none" points="218.501,521.658 237.398,521.658 "/>
<polyline clip-path="url(#clip360)" style="stroke:#000000; stroke-linecap:round; stroke-linejoin:round; stroke-width:4; stroke-opacity:1; fill:none" points="218.501,276.344 237.398,276.344 "/>
<path clip-path="url(#clip360)" d="M52.9921 1012.74 L82.6679 1012.74 L82.6679 1016.67 L52.9921 1016.67 L52.9921 1012.74 Z" fill="#000000" fill-rule="nonzero" fill-opacity="1" /><path clip-path="url(#clip360)" d="M102.76 998.086 Q99.1493 998.086 97.3206 1001.65 Q95.515 1005.19 95.515 1012.32 Q95.515 1019.43 97.3206 1022.99 Q99.1493 1026.53 102.76 1026.53 Q106.395 1026.53 108.2 1022.99 Q110.029 1019.43 110.029 1012.32 Q110.029 1005.19 108.2 1001.65 Q106.395 998.086 102.76 998.086 M102.76 994.382 Q108.571 994.382 111.626 998.989 Q114.705 1003.57 114.705 1012.32 Q114.705 1021.05 111.626 1025.66 Q108.571 1030.24 102.76 1030.24 Q96.9502 1030.24 93.8715 1025.66 Q90.816 1021.05 90.816 1012.32 Q90.816 1003.57 93.8715 998.989 Q96.9502 994.382 102.76 994.382 Z" fill="#000000" fill-rule="nonzero" fill-opacity="1" /><path clip-path="url(#clip360)" d="M122.922 1023.69 L127.807 1023.69 L127.807 1029.57 L122.922 1029.57 L122.922 1023.69 Z" fill="#000000" fill-rule="nonzero" fill-opacity="1" /><path clip-path="url(#clip360)" d="M147.992 998.086 Q144.381 998.086 142.552 1001.65 Q140.746 1005.19 140.746 1012.32 Q140.746 1019.43 142.552 1022.99 Q144.381 1026.53 147.992 1026.53 Q151.626 1026.53 153.431 1022.99 Q155.26 1019.43 155.26 1012.32 Q155.26 1005.19 153.431 1001.65 Q151.626 998.086 147.992 998.086 M147.992 994.382 Q153.802 994.382 156.857 998.989 Q159.936 1003.57 159.936 1012.32 Q159.936 1021.05 156.857 1025.66 Q153.802 1030.24 147.992 1030.24 Q142.181 1030.24 139.103 1025.66 Q136.047 1021.05 136.047 1012.32 Q136.047 1003.57 139.103 998.989 Q142.181 994.382 147.992 994.382 Z" fill="#000000" fill-rule="nonzero" fill-opacity="1" /><path clip-path="url(#clip360)" d="M172.181 1025.63 L188.501 1025.63 L188.501 1029.57 L166.556 1029.57 L166.556 1025.63 Q169.218 1022.88 173.802 1018.25 Q178.408 1013.6 179.589 1012.25 Q181.834 1009.73 182.714 1007.99 Q183.616 1006.23 183.616 1004.54 Q183.616 1001.79 181.672 1000.05 Q179.751 998.317 176.649 998.317 Q174.45 998.317 171.996 999.081 Q169.566 999.845 166.788 1001.4 L166.788 996.674 Q169.612 995.54 172.066 994.961 Q174.519 994.382 176.556 994.382 Q181.927 994.382 185.121 997.067 Q188.315 999.753 188.315 1004.24 Q188.315 1006.37 187.505 1008.29 Q186.718 1010.19 184.612 1012.78 Q184.033 1013.46 180.931 1016.67 Q177.829 1019.87 172.181 1025.63 Z" fill="#000000" fill-rule="nonzero" fill-opacity="1" /><path clip-path="url(#clip360)" d="M101.163 752.772 Q97.5521 752.772 95.7234 756.336 Q93.9178 759.878 93.9178 767.008 Q93.9178 774.114 95.7234 777.679 Q97.5521 781.22 101.163 781.22 Q104.797 781.22 106.603 777.679 Q108.432 774.114 108.432 767.008 Q108.432 759.878 106.603 756.336 Q104.797 752.772 101.163 752.772 M101.163 749.068 Q106.973 749.068 110.029 753.674 Q113.108 758.258 113.108 767.008 Q113.108 775.734 110.029 780.341 Q106.973 784.924 101.163 784.924 Q95.353 784.924 92.2743 780.341 Q89.2188 775.734 89.2188 767.008 Q89.2188 758.258 92.2743 753.674 Q95.353 749.068 101.163 749.068 Z" fill="#000000" fill-rule="nonzero" fill-opacity="1" /><path clip-path="url(#clip360)" d="M121.325 778.373 L126.209 778.373 L126.209 784.253 L121.325 784.253 L121.325 778.373 Z" fill="#000000" fill-rule="nonzero" fill-opacity="1" /><path clip-path="url(#clip360)" d="M146.394 752.772 Q142.783 752.772 140.955 756.336 Q139.149 759.878 139.149 767.008 Q139.149 774.114 140.955 777.679 Q142.783 781.22 146.394 781.22 Q150.029 781.22 151.834 777.679 Q153.663 774.114 153.663 767.008 Q153.663 759.878 151.834 756.336 Q150.029 752.772 146.394 752.772 M146.394 749.068 Q152.205 749.068 155.26 753.674 Q158.339 758.258 158.339 767.008 Q158.339 775.734 155.26 780.341 Q152.205 784.924 146.394 784.924 Q140.584 784.924 137.506 780.341 Q134.45 775.734 134.45 767.008 Q134.45 758.258 137.506 753.674 Q140.584 749.068 146.394 749.068 Z" fill="#000000" fill-rule="nonzero" fill-opacity="1" /><path clip-path="url(#clip360)" d="M176.556 752.772 Q172.945 752.772 171.116 756.336 Q169.311 759.878 169.311 767.008 Q169.311 774.114 171.116 777.679 Q172.945 781.22 176.556 781.22 Q180.191 781.22 181.996 777.679 Q183.825 774.114 183.825 767.008 Q183.825 759.878 181.996 756.336 Q180.191 752.772 176.556 752.772 M176.556 749.068 Q182.366 749.068 185.422 753.674 Q188.501 758.258 188.501 767.008 Q188.501 775.734 185.422 780.341 Q182.366 784.924 176.556 784.924 Q170.746 784.924 167.667 780.341 Q164.612 775.734 164.612 767.008 Q164.612 758.258 167.667 753.674 Q170.746 749.068 176.556 749.068 Z" fill="#000000" fill-rule="nonzero" fill-opacity="1" /><path clip-path="url(#clip360)" d="M102.76 507.457 Q99.1493 507.457 97.3206 511.022 Q95.515 514.564 95.515 521.693 Q95.515 528.8 97.3206 532.364 Q99.1493 535.906 102.76 535.906 Q106.395 535.906 108.2 532.364 Q110.029 528.8 110.029 521.693 Q110.029 514.564 108.2 511.022 Q106.395 507.457 102.76 507.457 M102.76 503.753 Q108.571 503.753 111.626 508.36 Q114.705 512.943 114.705 521.693 Q114.705 530.42 111.626 535.026 Q108.571 539.61 102.76 539.61 Q96.9502 539.61 93.8715 535.026 Q90.816 530.42 90.816 521.693 Q90.816 512.943 93.8715 508.36 Q96.9502 503.753 102.76 503.753 Z" fill="#000000" fill-rule="nonzero" fill-opacity="1" /><path clip-path="url(#clip360)" d="M122.922 533.059 L127.807 533.059 L127.807 538.938 L122.922 538.938 L122.922 533.059 Z" fill="#000000" fill-rule="nonzero" fill-opacity="1" /><path clip-path="url(#clip360)" d="M147.992 507.457 Q144.381 507.457 142.552 511.022 Q140.746 514.564 140.746 521.693 Q140.746 528.8 142.552 532.364 Q144.381 535.906 147.992 535.906 Q151.626 535.906 153.431 532.364 Q155.26 528.8 155.26 521.693 Q155.26 514.564 153.431 511.022 Q151.626 507.457 147.992 507.457 M147.992 503.753 Q153.802 503.753 156.857 508.36 Q159.936 512.943 159.936 521.693 Q159.936 530.42 156.857 535.026 Q153.802 539.61 147.992 539.61 Q142.181 539.61 139.103 535.026 Q136.047 530.42 136.047 521.693 Q136.047 512.943 139.103 508.36 Q142.181 503.753 147.992 503.753 Z" fill="#000000" fill-rule="nonzero" fill-opacity="1" /><path clip-path="url(#clip360)" d="M172.181 535.003 L188.501 535.003 L188.501 538.938 L166.556 538.938 L166.556 535.003 Q169.218 532.249 173.802 527.619 Q178.408 522.966 179.589 521.624 Q181.834 519.101 182.714 517.365 Q183.616 515.605 183.616 513.915 Q183.616 511.161 181.672 509.425 Q179.751 507.689 176.649 507.689 Q174.45 507.689 171.996 508.453 Q169.566 509.216 166.788 510.767 L166.788 506.045 Q169.612 504.911 172.066 504.332 Q174.519 503.753 176.556 503.753 Q181.927 503.753 185.121 506.439 Q188.315 509.124 188.315 513.615 Q188.315 515.744 187.505 517.665 Q186.718 519.564 184.612 522.156 Q184.033 522.827 180.931 526.045 Q177.829 529.239 172.181 535.003 Z" fill="#000000" fill-rule="nonzero" fill-opacity="1" /><path clip-path="url(#clip360)" d="M100.677 262.143 Q97.066 262.143 95.2373 265.708 Q93.4317 269.249 93.4317 276.379 Q93.4317 283.485 95.2373 287.05 Q97.066 290.592 100.677 290.592 Q104.311 290.592 106.117 287.05 Q107.946 283.485 107.946 276.379 Q107.946 269.249 106.117 265.708 Q104.311 262.143 100.677 262.143 M100.677 258.439 Q106.487 258.439 109.543 263.046 Q112.621 267.629 112.621 276.379 Q112.621 285.106 109.543 289.712 Q106.487 294.295 100.677 294.295 Q94.8669 294.295 91.7882 289.712 Q88.7327 285.106 88.7327 276.379 Q88.7327 267.629 91.7882 263.046 Q94.8669 258.439 100.677 258.439 Z" fill="#000000" fill-rule="nonzero" fill-opacity="1" /><path clip-path="url(#clip360)" d="M120.839 287.745 L125.723 287.745 L125.723 293.624 L120.839 293.624 L120.839 287.745 Z" fill="#000000" fill-rule="nonzero" fill-opacity="1" /><path clip-path="url(#clip360)" d="M145.908 262.143 Q142.297 262.143 140.469 265.708 Q138.663 269.249 138.663 276.379 Q138.663 283.485 140.469 287.05 Q142.297 290.592 145.908 290.592 Q149.543 290.592 151.348 287.05 Q153.177 283.485 153.177 276.379 Q153.177 269.249 151.348 265.708 Q149.543 262.143 145.908 262.143 M145.908 258.439 Q151.718 258.439 154.774 263.046 Q157.853 267.629 157.853 276.379 Q157.853 285.106 154.774 289.712 Q151.718 294.295 145.908 294.295 Q140.098 294.295 137.019 289.712 Q133.964 285.106 133.964 276.379 Q133.964 267.629 137.019 263.046 Q140.098 258.439 145.908 258.439 Z" fill="#000000" fill-rule="nonzero" fill-opacity="1" /><path clip-path="url(#clip360)" d="M178.917 263.138 L167.112 281.587 L178.917 281.587 L178.917 263.138 M177.691 259.064 L183.57 259.064 L183.57 281.587 L188.501 281.587 L188.501 285.476 L183.57 285.476 L183.57 293.624 L178.917 293.624 L178.917 285.476 L163.316 285.476 L163.316 280.962 L177.691 259.064 Z" fill="#000000" fill-rule="nonzero" fill-opacity="1" /><polyline clip-path="url(#clip361)" style="stroke:#0f6a81; stroke-linecap:round; stroke-linejoin:round; stroke-width:4; stroke-opacity:1; fill:none" points="267.583,766.973 284.11,811.096 300.636,673.33 317.162,734.16 333.688,649.262 350.214,609.486 366.74,709.338 383.266,463.07 399.793,453.61 416.319,522.344 432.845,490.177 449.371,621.497 465.897,527.283 482.423,549.587 498.95,558.366 515.476,645.602 532.002,742.402 548.528,859.717 565.054,926.22 581.58,891.648 598.107,989.495 614.633,867.34 631.159,820.693 647.685,1057.33 664.211,988.833 680.737,933.482 697.264,723.117 713.79,803.332 730.316,979.878 746.842,1048.07 763.368,1098.01 779.894,1090.12 796.42,963.277 812.947,1092.55 829.473,926.108 845.999,760.547 862.525,770.491 879.051,558.655 895.577,560.756 912.104,776.161 928.63,893.429 945.156,997.535 961.682,904.037 978.208,987.052 994.734,1044.36 1011.26,914.155 1027.79,685.411 1044.31,426.776 1060.84,240.023 1077.37,253.376 1093.89,151.267 1110.42,342.824 1126.94,257.755 1143.47,361.37 1160,345.655 1176.52,206.227 1193.05,153.318 1209.57,98.7276 1226.1,97.221 1242.63,77.8488 1259.15,246.327 1275.68,261.337 1292.21,214.465 1308.73,164.198 1325.26,306.347 1341.78,209.094 1358.31,265.397 1374.84,279.207 1391.36,229.14 1407.89,294.594 1424.41,251.899 1440.94,180.645 1457.47,224.794 1473.99,361.095 1490.52,631.249 1507.05,759.738 1523.57,848.445 1540.1,609.569 1556.62,622.187 1573.15,722.144 1589.68,919.518 1606.2,658.223 1622.73,466.241 1639.25,445.274 1655.78,433.566 1672.31,536.344 1688.83,464.022 1705.36,131.004 1721.89,296.298 1738.41,421.445 1754.94,556.537 1771.46,518.612 1787.99,703.118 1804.52,685.291 1821.04,764.431 1837.57,612.864 1854.09,675.21 1870.62,852.667 1887.15,730.465 1903.67,739.502 "/>
</svg>
