<?xml version="1.0" encoding="utf-8"?>
<svg xmlns="http://www.w3.org/2000/svg" xmlns:xlink="http://www.w3.org/1999/xlink" width="500" height="309" viewBox="0 0 2000 1236">
<defs>
  <clipPath id="clip390">
    <rect x="0" y="0" width="2000" height="1236"/>
  </clipPath>
</defs>
<path clip-path="url(#clip390)" d="M0 1236 L2000 1236 L2000 1.24345e-14 L0 1.24345e-14  Z" fill="#ffffff" fill-rule="evenodd" fill-opacity="1"/>
<defs>
  <clipPath id="clip391">
    <rect x="400" y="0" width="1401" height="1236"/>
  </clipPath>
</defs>
<path clip-path="url(#clip390)" d="M152.598 1068.81 L1952.76 1068.81 L1952.76 47.2441 L152.598 47.2441  Z" fill="#ffffff" fill-rule="evenodd" fill-opacity="1"/>
<defs>
  <clipPath id="clip392">
    <rect x="152" y="47" width="1801" height="1023"/>
  </clipPath>
</defs>
<polyline clip-path="url(#clip392)" style="stroke:#000000; stroke-linecap:round; stroke-linejoin:round; stroke-width:2; stroke-opacity:0.1; fill:none" points="415.829,1068.81 415.829,47.2441 "/>
<polyline clip-path="url(#clip392)" style="stroke:#000000; stroke-linecap:round; stroke-linejoin:round; stroke-width:2; stroke-opacity:0.1; fill:none" points="840.394,1068.81 840.394,47.2441 "/>
<polyline clip-path="url(#clip392)" style="stroke:#000000; stroke-linecap:round; stroke-linejoin:round; stroke-width:2; stroke-opacity:0.1; fill:none" points="1264.96,1068.81 1264.96,47.2441 "/>
<polyline clip-path="url(#clip392)" style="stroke:#000000; stroke-linecap:round; stroke-linejoin:round; stroke-width:2; stroke-opacity:0.1; fill:none" points="1689.53,1068.81 1689.53,47.2441 "/>
<polyline clip-path="url(#clip392)" style="stroke:#000000; stroke-linecap:round; stroke-linejoin:round; stroke-width:2; stroke-opacity:0.1; fill:none" points="152.598,980.892 1952.76,980.892 "/>
<polyline clip-path="url(#clip392)" style="stroke:#000000; stroke-linecap:round; stroke-linejoin:round; stroke-width:2; stroke-opacity:0.1; fill:none" points="152.598,830.103 1952.76,830.103 "/>
<polyline clip-path="url(#clip392)" style="stroke:#000000; stroke-linecap:round; stroke-linejoin:round; stroke-width:2; stroke-opacity:0.1; fill:none" points="152.598,679.314 1952.76,679.314 "/>
<polyline clip-path="url(#clip392)" style="stroke:#000000; stroke-linecap:round; stroke-linejoin:round; stroke-width:2; stroke-opacity:0.1; fill:none" points="152.598,528.524 1952.76,528.524 "/>
<polyline clip-path="url(#clip392)" style="stroke:#000000; stroke-linecap:round; stroke-linejoin:round; stroke-width:2; stroke-opacity:0.1; fill:none" points="152.598,377.735 1952.76,377.735 "/>
<polyline clip-path="url(#clip392)" style="stroke:#000000; stroke-linecap:round; stroke-linejoin:round; stroke-width:2; stroke-opacity:0.1; fill:none" points="152.598,226.946 1952.76,226.946 "/>
<polyline clip-path="url(#clip392)" style="stroke:#000000; stroke-linecap:round; stroke-linejoin:round; stroke-width:2; stroke-opacity:0.1; fill:none" points="152.598,76.1564 1952.76,76.1564 "/>
<polyline clip-path="url(#clip390)" style="stroke:#000000; stroke-linecap:round; stroke-linejoin:round; stroke-width:4; stroke-opacity:1; fill:none" points="152.598,1068.81 1952.76,1068.81 "/>
<polyline clip-path="url(#clip390)" style="stroke:#000000; stroke-linecap:round; stroke-linejoin:round; stroke-width:4; stroke-opacity:1; fill:none" points="415.829,1068.81 415.829,1049.91 "/>
<polyline clip-path="url(#clip390)" style="stroke:#000000; stroke-linecap:round; stroke-linejoin:round; stroke-width:4; stroke-opacity:1; fill:none" points="840.394,1068.81 840.394,1049.91 "/>
<polyline clip-path="url(#clip390)" style="stroke:#000000; stroke-linecap:round; stroke-linejoin:round; stroke-width:4; stroke-opacity:1; fill:none" points="1264.96,1068.81 1264.96,1049.91 "/>
<polyline clip-path="url(#clip390)" style="stroke:#000000; stroke-linecap:round; stroke-linejoin:round; stroke-width:4; stroke-opacity:1; fill:none" points="1689.53,1068.81 1689.53,1049.91 "/>
<path clip-path="url(#clip390)" d="M394.012 1096.53 Q390.401 1096.53 388.572 1100.1 Q386.766 1103.64 386.766 1110.77 Q386.766 1117.87 388.572 1121.44 Q390.401 1124.98 394.012 1124.98 Q397.646 1124.98 399.452 1121.44 Q401.28 1117.87 401.28 1110.77 Q401.28 1103.64 399.452 1100.1 Q397.646 1096.53 394.012 1096.53 M394.012 1092.83 Q399.822 1092.83 402.878 1097.43 Q405.956 1102.02 405.956 1110.77 Q405.956 1119.49 402.878 1124.1 Q399.822 1128.68 394.012 1128.68 Q388.202 1128.68 385.123 1124.1 Q382.067 1119.49 382.067 1110.77 Q382.067 1102.02 385.123 1097.43 Q388.202 1092.83 394.012 1092.83 Z" fill="#000000" fill-rule="nonzero" fill-opacity="1" /><path clip-path="url(#clip390)" d="M414.174 1122.13 L419.058 1122.13 L419.058 1128.01 L414.174 1128.01 L414.174 1122.13 Z" fill="#000000" fill-rule="nonzero" fill-opacity="1" /><path clip-path="url(#clip390)" d="M433.271 1124.08 L449.59 1124.08 L449.59 1128.01 L427.646 1128.01 L427.646 1124.08 Q430.308 1121.32 434.891 1116.69 Q439.498 1112.04 440.678 1110.7 Q442.924 1108.17 443.803 1106.44 Q444.706 1104.68 444.706 1102.99 Q444.706 1100.23 442.762 1098.5 Q440.84 1096.76 437.738 1096.76 Q435.539 1096.76 433.086 1097.53 Q430.655 1098.29 427.877 1099.84 L427.877 1095.12 Q430.701 1093.98 433.155 1093.41 Q435.609 1092.83 437.646 1092.83 Q443.016 1092.83 446.211 1095.51 Q449.405 1098.2 449.405 1102.69 Q449.405 1104.82 448.595 1106.74 Q447.808 1108.64 445.701 1111.23 Q445.123 1111.9 442.021 1115.12 Q438.919 1118.31 433.271 1124.08 Z" fill="#000000" fill-rule="nonzero" fill-opacity="1" /><path clip-path="url(#clip390)" d="M817.536 1096.53 Q813.925 1096.53 812.096 1100.1 Q810.29 1103.64 810.29 1110.77 Q810.29 1117.87 812.096 1121.44 Q813.925 1124.98 817.536 1124.98 Q821.17 1124.98 822.975 1121.44 Q824.804 1117.87 824.804 1110.77 Q824.804 1103.64 822.975 1100.1 Q821.17 1096.53 817.536 1096.53 M817.536 1092.83 Q823.346 1092.83 826.401 1097.43 Q829.48 1102.02 829.48 1110.77 Q829.48 1119.49 826.401 1124.1 Q823.346 1128.68 817.536 1128.68 Q811.725 1128.68 808.647 1124.1 Q805.591 1119.49 805.591 1110.77 Q805.591 1102.02 808.647 1097.43 Q811.725 1092.83 817.536 1092.83 Z" fill="#000000" fill-rule="nonzero" fill-opacity="1" /><path clip-path="url(#clip390)" d="M837.698 1122.13 L842.582 1122.13 L842.582 1128.01 L837.698 1128.01 L837.698 1122.13 Z" fill="#000000" fill-rule="nonzero" fill-opacity="1" /><path clip-path="url(#clip390)" d="M865.614 1097.53 L853.809 1115.97 L865.614 1115.97 L865.614 1097.53 M864.387 1093.45 L870.267 1093.45 L870.267 1115.97 L875.197 1115.97 L875.197 1119.86 L870.267 1119.86 L870.267 1128.01 L865.614 1128.01 L865.614 1119.86 L850.012 1119.86 L850.012 1115.35 L864.387 1093.45 Z" fill="#000000" fill-rule="nonzero" fill-opacity="1" /><path clip-path="url(#clip390)" d="M1242.26 1096.53 Q1238.65 1096.53 1236.82 1100.1 Q1235.02 1103.64 1235.02 1110.77 Q1235.02 1117.87 1236.82 1121.44 Q1238.65 1124.98 1242.26 1124.98 Q1245.9 1124.98 1247.7 1121.44 Q1249.53 1117.87 1249.53 1110.77 Q1249.53 1103.64 1247.7 1100.1 Q1245.9 1096.53 1242.26 1096.53 M1242.26 1092.83 Q1248.07 1092.83 1251.13 1097.43 Q1254.21 1102.02 1254.21 1110.77 Q1254.21 1119.49 1251.13 1124.1 Q1248.07 1128.68 1242.26 1128.68 Q1236.45 1128.68 1233.37 1124.1 Q1230.32 1119.49 1230.32 1110.77 Q1230.32 1102.02 1233.37 1097.43 Q1236.45 1092.83 1242.26 1092.83 Z" fill="#000000" fill-rule="nonzero" fill-opacity="1" /><path clip-path="url(#clip390)" d="M1262.43 1122.13 L1267.31 1122.13 L1267.31 1128.01 L1262.43 1128.01 L1262.43 1122.13 Z" fill="#000000" fill-rule="nonzero" fill-opacity="1" /><path clip-path="url(#clip390)" d="M1288.07 1108.87 Q1284.92 1108.87 1283.07 1111.02 Q1281.24 1113.17 1281.24 1116.92 Q1281.24 1120.65 1283.07 1122.83 Q1284.92 1124.98 1288.07 1124.98 Q1291.22 1124.98 1293.05 1122.83 Q1294.9 1120.65 1294.9 1116.92 Q1294.9 1113.17 1293.05 1111.02 Q1291.22 1108.87 1288.07 1108.87 M1297.36 1094.22 L1297.36 1098.47 Q1295.6 1097.64 1293.79 1097.2 Q1292.01 1096.76 1290.25 1096.76 Q1285.62 1096.76 1283.17 1099.89 Q1280.74 1103.01 1280.39 1109.33 Q1281.75 1107.32 1283.81 1106.25 Q1285.87 1105.16 1288.35 1105.16 Q1293.56 1105.16 1296.57 1108.34 Q1299.6 1111.48 1299.6 1116.92 Q1299.6 1122.25 1296.45 1125.47 Q1293.3 1128.68 1288.07 1128.68 Q1282.08 1128.68 1278.91 1124.1 Q1275.74 1119.49 1275.74 1110.77 Q1275.74 1102.57 1279.62 1097.71 Q1283.51 1092.83 1290.06 1092.83 Q1291.82 1092.83 1293.61 1093.17 Q1295.41 1093.52 1297.36 1094.22 Z" fill="#000000" fill-rule="nonzero" fill-opacity="1" /><path clip-path="url(#clip390)" d="M1666.96 1096.53 Q1663.34 1096.53 1661.52 1100.1 Q1659.71 1103.64 1659.71 1110.77 Q1659.71 1117.87 1661.52 1121.44 Q1663.34 1124.98 1666.96 1124.98 Q1670.59 1124.98 1672.4 1121.44 Q1674.22 1117.87 1674.22 1110.77 Q1674.22 1103.64 1672.4 1100.1 Q1670.59 1096.53 1666.96 1096.53 M1666.96 1092.83 Q1672.77 1092.83 1675.82 1097.43 Q1678.9 1102.02 1678.9 1110.77 Q1678.9 1119.49 1675.82 1124.1 Q1672.77 1128.68 1666.96 1128.68 Q1661.15 1128.68 1658.07 1124.1 Q1655.01 1119.49 1655.01 1110.77 Q1655.01 1102.02 1658.07 1097.43 Q1661.15 1092.83 1666.96 1092.83 Z" fill="#000000" fill-rule="nonzero" fill-opacity="1" /><path clip-path="url(#clip390)" d="M1687.12 1122.13 L1692 1122.13 L1692 1128.01 L1687.12 1128.01 L1687.12 1122.13 Z" fill="#000000" fill-rule="nonzero" fill-opacity="1" /><path clip-path="url(#clip390)" d="M1712.19 1111.6 Q1708.85 1111.6 1706.93 1113.38 Q1705.03 1115.16 1705.03 1118.29 Q1705.03 1121.41 1706.93 1123.2 Q1708.85 1124.98 1712.19 1124.98 Q1715.52 1124.98 1717.44 1123.2 Q1719.36 1121.39 1719.36 1118.29 Q1719.36 1115.16 1717.44 1113.38 Q1715.54 1111.6 1712.19 1111.6 M1707.51 1109.61 Q1704.5 1108.87 1702.81 1106.81 Q1701.15 1104.75 1701.15 1101.78 Q1701.15 1097.64 1704.09 1095.23 Q1707.05 1092.83 1712.19 1092.83 Q1717.35 1092.83 1720.29 1095.23 Q1723.23 1097.64 1723.23 1101.78 Q1723.23 1104.75 1721.54 1106.81 Q1719.87 1108.87 1716.89 1109.61 Q1720.27 1110.4 1722.14 1112.69 Q1724.04 1114.98 1724.04 1118.29 Q1724.04 1123.31 1720.96 1126 Q1717.9 1128.68 1712.19 1128.68 Q1706.47 1128.68 1703.39 1126 Q1700.34 1123.31 1700.34 1118.29 Q1700.34 1114.98 1702.23 1112.69 Q1704.13 1110.4 1707.51 1109.61 M1705.8 1102.22 Q1705.8 1104.91 1707.47 1106.41 Q1709.15 1107.92 1712.19 1107.92 Q1715.2 1107.92 1716.89 1106.41 Q1718.6 1104.91 1718.6 1102.22 Q1718.6 1099.54 1716.89 1098.03 Q1715.2 1096.53 1712.19 1096.53 Q1709.15 1096.53 1707.47 1098.03 Q1705.8 1099.54 1705.8 1102.22 Z" fill="#000000" fill-rule="nonzero" fill-opacity="1" /><path clip-path="url(#clip390)" d="M1056.29 1154.33 Q1056.29 1156.81 1054.94 1162.29 Q1053.58 1167.76 1051.94 1171.5 Q1048.43 1179.61 1042.38 1179.61 Q1041.64 1179.61 1040.89 1179.55 Q1040.19 1179.48 1039.12 1179.19 Q1038.06 1178.9 1037.19 1178.45 Q1036.32 1177.97 1035.45 1177.07 Q1034.61 1176.17 1034.13 1174.97 Q1031.46 1179.61 1027.27 1179.61 Q1023.21 1179.61 1020.54 1177.55 Q1017.9 1175.49 1017.9 1171.27 Q1017.9 1169.37 1018.67 1166.57 Q1019.45 1163.77 1021.6 1157.97 Q1022.8 1154.98 1022.8 1153.33 Q1022.8 1152.59 1022.63 1152.11 Q1022.47 1151.63 1022.15 1151.46 Q1021.86 1151.27 1021.67 1151.24 Q1021.47 1151.17 1021.15 1151.17 Q1019.22 1151.17 1017.48 1153.14 Q1015.74 1155.07 1014.49 1159.36 Q1014.23 1160.16 1014.07 1160.35 Q1013.91 1160.55 1013.42 1160.55 Q1012.62 1160.51 1012.62 1159.87 Q1012.62 1159.61 1012.91 1158.61 Q1013.2 1157.58 1013.87 1156.07 Q1014.58 1154.52 1015.55 1153.14 Q1016.52 1151.72 1018.03 1150.72 Q1019.57 1149.73 1021.35 1149.73 Q1023.73 1149.73 1025.24 1151.3 Q1026.76 1152.88 1026.76 1155.14 Q1026.76 1155.78 1026.6 1156.49 Q1026.43 1157.17 1026.27 1157.62 Q1026.14 1158.03 1025.63 1159.36 Q1023.5 1164.93 1022.83 1167.6 Q1022.18 1170.27 1022.18 1172.14 Q1022.18 1172.75 1022.22 1173.24 Q1022.25 1173.72 1022.51 1174.72 Q1022.8 1175.72 1023.31 1176.39 Q1023.83 1177.04 1024.89 1177.58 Q1025.98 1178.13 1027.47 1178.13 Q1031.17 1178.13 1033.55 1172.59 Q1033.49 1172.27 1033.49 1171.43 Q1033.49 1169.56 1034.07 1167.05 Q1034.23 1166.47 1035.16 1162.77 Q1036.1 1159.03 1036.9 1155.78 Q1037.74 1152.5 1037.84 1152.3 Q1038.16 1151.4 1038.87 1150.92 Q1039.57 1150.43 1040.28 1150.43 Q1041.09 1150.43 1041.64 1150.92 Q1042.18 1151.4 1042.18 1152.24 Q1042.18 1152.4 1041.99 1153.14 Q1041.83 1153.85 1041.57 1154.91 Q1041.31 1155.97 1041.18 1156.52 L1038.42 1167.6 Q1037.71 1170.18 1037.71 1172.4 Q1037.71 1175.2 1038.96 1176.68 Q1040.22 1178.13 1042.57 1178.13 Q1046.98 1178.13 1049.82 1172.33 Q1051.1 1169.82 1052.26 1165.89 Q1053.46 1161.96 1053.46 1160.26 Q1053.46 1157.04 1051.07 1154.65 Q1050.56 1154.2 1050.33 1153.85 Q1050.11 1153.46 1050.11 1152.88 Q1050.11 1151.79 1051.14 1150.76 Q1052.17 1149.73 1053.39 1149.73 Q1054.49 1149.73 1055.39 1150.82 Q1056.29 1151.88 1056.29 1154.33 Z" fill="#000000" fill-rule="nonzero" fill-opacity="1" /><path clip-path="url(#clip390)" d="M1085.92 1169.57 Q1085.92 1170.81 1085.13 1171.58 Q1084.36 1172.34 1083.39 1172.34 Q1082.69 1172.34 1082.18 1171.91 Q1081.68 1171.49 1081.68 1170.74 Q1081.68 1169.97 1082.27 1169.16 Q1082.85 1168.35 1084.18 1168.24 Q1083.3 1167.4 1081.91 1167.4 Q1081.21 1167.4 1080.62 1167.86 Q1080.06 1168.28 1079.74 1168.98 Q1079.4 1169.7 1078.64 1173.78 Q1078.39 1175.11 1078.16 1176.4 Q1077.94 1177.68 1077.67 1179.04 L1081.5 1179.04 Q1082 1179.04 1082.2 1179.06 Q1082.4 1179.08 1082.56 1179.2 Q1082.74 1179.31 1082.74 1179.56 Q1082.74 1180.19 1082.45 1180.35 Q1082.18 1180.48 1081.36 1180.48 L1077.4 1180.48 L1074.62 1195.11 Q1074.56 1195.54 1074.26 1196.89 Q1073.99 1198.22 1073.34 1200.41 Q1072.68 1202.62 1072.03 1203.93 Q1071.67 1204.67 1071.2 1205.37 Q1070.75 1206.09 1070.09 1206.81 Q1069.44 1207.53 1068.58 1207.96 Q1067.72 1208.41 1066.82 1208.41 Q1065.29 1208.41 1064.1 1207.56 Q1062.9 1206.7 1062.9 1205.23 Q1062.9 1203.99 1063.67 1203.23 Q1064.46 1202.46 1065.43 1202.46 Q1066.12 1202.46 1066.62 1202.89 Q1067.14 1203.32 1067.14 1204.06 Q1067.14 1204.38 1067.03 1204.74 Q1066.91 1205.1 1066.67 1205.5 Q1066.42 1205.93 1065.88 1206.23 Q1065.34 1206.52 1064.59 1206.56 Q1065.47 1207.4 1066.82 1207.4 Q1067.25 1207.4 1067.63 1207.22 Q1068.02 1207.06 1068.33 1206.65 Q1068.67 1206.25 1068.92 1205.84 Q1069.17 1205.46 1069.42 1204.72 Q1069.66 1203.99 1069.82 1203.45 Q1069.98 1202.91 1070.18 1201.94 Q1070.41 1200.97 1070.52 1200.39 Q1070.63 1199.82 1070.84 1198.72 L1074.29 1180.48 L1071.24 1180.48 Q1070.7 1180.48 1070.48 1180.46 Q1070.27 1180.44 1070.11 1180.32 Q1069.96 1180.19 1069.96 1179.92 Q1069.96 1179.49 1070.14 1179.31 Q1070.34 1179.11 1070.57 1179.08 Q1070.79 1179.04 1071.33 1179.04 L1074.53 1179.04 Q1075.62 1173.33 1076.04 1171.8 Q1076.54 1170.18 1077.31 1169.05 Q1078.07 1167.9 1078.93 1167.36 Q1079.79 1166.82 1080.48 1166.62 Q1081.21 1166.39 1081.91 1166.39 Q1083.48 1166.39 1084.7 1167.25 Q1085.92 1168.08 1085.92 1169.57 Z" fill="#000000" fill-rule="nonzero" fill-opacity="1" /><polyline clip-path="url(#clip390)" style="stroke:#000000; stroke-linecap:round; stroke-linejoin:round; stroke-width:4; stroke-opacity:1; fill:none" points="152.598,1068.81 152.598,47.2441 "/>
<polyline clip-path="url(#clip390)" style="stroke:#000000; stroke-linecap:round; stroke-linejoin:round; stroke-width:4; stroke-opacity:1; fill:none" points="152.598,980.892 171.496,980.892 "/>
<polyline clip-path="url(#clip390)" style="stroke:#000000; stroke-linecap:round; stroke-linejoin:round; stroke-width:4; stroke-opacity:1; fill:none" points="152.598,830.103 171.496,830.103 "/>
<polyline clip-path="url(#clip390)" style="stroke:#000000; stroke-linecap:round; stroke-linejoin:round; stroke-width:4; stroke-opacity:1; fill:none" points="152.598,679.314 171.496,679.314 "/>
<polyline clip-path="url(#clip390)" style="stroke:#000000; stroke-linecap:round; stroke-linejoin:round; stroke-width:4; stroke-opacity:1; fill:none" points="152.598,528.524 171.496,528.524 "/>
<polyline clip-path="url(#clip390)" style="stroke:#000000; stroke-linecap:round; stroke-linejoin:round; stroke-width:4; stroke-opacity:1; fill:none" points="152.598,377.735 171.496,377.735 "/>
<polyline clip-path="url(#clip390)" style="stroke:#000000; stroke-linecap:round; stroke-linejoin:round; stroke-width:4; stroke-opacity:1; fill:none" points="152.598,226.946 171.496,226.946 "/>
<polyline clip-path="url(#clip390)" style="stroke:#000000; stroke-linecap:round; stroke-linejoin:round; stroke-width:4; stroke-opacity:1; fill:none" points="152.598,76.1564 171.496,76.1564 "/>
<path clip-path="url(#clip390)" d="M64.9365 966.691 Q61.3254 966.691 59.4967 970.256 Q57.6912 973.797 57.6912 980.927 Q57.6912 988.033 59.4967 991.598 Q61.3254 995.14 64.9365 995.14 Q68.5707 995.14 70.3763 991.598 Q72.205 988.033 72.205 980.927 Q72.205 973.797 70.3763 970.256 Q68.5707 966.691 64.9365 966.691 M64.9365 962.987 Q70.7467 962.987 73.8022 967.594 Q76.8809 972.177 76.8809 980.927 Q76.8809 989.654 73.8022 994.26 Q70.7467 998.844 64.9365 998.844 Q59.1264 998.844 56.0477 994.26 Q52.9921 989.654 52.9921 980.927 Q52.9921 972.177 56.0477 967.594 Q59.1264 962.987 64.9365 962.987 Z" fill="#000000" fill-rule="nonzero" fill-opacity="1" /><path clip-path="url(#clip390)" d="M85.0984 992.293 L89.9827 992.293 L89.9827 998.172 L85.0984 998.172 L85.0984 992.293 Z" fill="#000000" fill-rule="nonzero" fill-opacity="1" /><path clip-path="url(#clip390)" d="M113.015 967.686 L101.209 986.135 L113.015 986.135 L113.015 967.686 M111.788 963.612 L117.668 963.612 L117.668 986.135 L122.598 986.135 L122.598 990.024 L117.668 990.024 L117.668 998.172 L113.015 998.172 L113.015 990.024 L97.4132 990.024 L97.4132 985.51 L111.788 963.612 Z" fill="#000000" fill-rule="nonzero" fill-opacity="1" /><path clip-path="url(#clip390)" d="M66.418 815.902 Q62.8069 815.902 60.9782 819.466 Q59.1726 823.008 59.1726 830.138 Q59.1726 837.244 60.9782 840.809 Q62.8069 844.351 66.418 844.351 Q70.0522 844.351 71.8578 840.809 Q73.6865 837.244 73.6865 830.138 Q73.6865 823.008 71.8578 819.466 Q70.0522 815.902 66.418 815.902 M66.418 812.198 Q72.2281 812.198 75.2837 816.804 Q78.3624 821.388 78.3624 830.138 Q78.3624 838.864 75.2837 843.471 Q72.2281 848.054 66.418 848.054 Q60.6078 848.054 57.5291 843.471 Q54.4736 838.864 54.4736 830.138 Q54.4736 821.388 57.5291 816.804 Q60.6078 812.198 66.418 812.198 Z" fill="#000000" fill-rule="nonzero" fill-opacity="1" /><path clip-path="url(#clip390)" d="M86.5799 841.503 L91.4641 841.503 L91.4641 847.383 L86.5799 847.383 L86.5799 841.503 Z" fill="#000000" fill-rule="nonzero" fill-opacity="1" /><path clip-path="url(#clip390)" d="M101.696 812.823 L120.052 812.823 L120.052 816.758 L105.978 816.758 L105.978 825.23 Q106.996 824.883 108.015 824.721 Q109.033 824.536 110.052 824.536 Q115.839 824.536 119.219 827.707 Q122.598 830.878 122.598 836.295 Q122.598 841.874 119.126 844.976 Q115.654 848.054 109.334 848.054 Q107.159 848.054 104.89 847.684 Q102.645 847.314 100.237 846.573 L100.237 841.874 Q102.321 843.008 104.543 843.564 Q106.765 844.119 109.242 844.119 Q113.246 844.119 115.584 842.013 Q117.922 839.906 117.922 836.295 Q117.922 832.684 115.584 830.577 Q113.246 828.471 109.242 828.471 Q107.367 828.471 105.492 828.888 Q103.64 829.304 101.696 830.184 L101.696 812.823 Z" fill="#000000" fill-rule="nonzero" fill-opacity="1" /><path clip-path="url(#clip390)" d="M65.2606 665.112 Q61.6495 665.112 59.8208 668.677 Q58.0152 672.219 58.0152 679.348 Q58.0152 686.455 59.8208 690.02 Q61.6495 693.561 65.2606 693.561 Q68.8948 693.561 70.7004 690.02 Q72.5291 686.455 72.5291 679.348 Q72.5291 672.219 70.7004 668.677 Q68.8948 665.112 65.2606 665.112 M65.2606 661.409 Q71.0707 661.409 74.1263 666.015 Q77.205 670.598 77.205 679.348 Q77.205 688.075 74.1263 692.682 Q71.0707 697.265 65.2606 697.265 Q59.4504 697.265 56.3717 692.682 Q53.3162 688.075 53.3162 679.348 Q53.3162 670.598 56.3717 666.015 Q59.4504 661.409 65.2606 661.409 Z" fill="#000000" fill-rule="nonzero" fill-opacity="1" /><path clip-path="url(#clip390)" d="M85.4225 690.714 L90.3067 690.714 L90.3067 696.594 L85.4225 696.594 L85.4225 690.714 Z" fill="#000000" fill-rule="nonzero" fill-opacity="1" /><path clip-path="url(#clip390)" d="M111.071 677.45 Q107.922 677.45 106.071 679.603 Q104.242 681.756 104.242 685.506 Q104.242 689.233 106.071 691.408 Q107.922 693.561 111.071 693.561 Q114.219 693.561 116.047 691.408 Q117.899 689.233 117.899 685.506 Q117.899 681.756 116.047 679.603 Q114.219 677.45 111.071 677.45 M120.353 662.798 L120.353 667.057 Q118.594 666.223 116.788 665.784 Q115.006 665.344 113.246 665.344 Q108.617 665.344 106.163 668.469 Q103.733 671.594 103.385 677.913 Q104.751 675.899 106.811 674.834 Q108.871 673.747 111.348 673.747 Q116.557 673.747 119.566 676.918 Q122.598 680.066 122.598 685.506 Q122.598 690.83 119.45 694.047 Q116.302 697.265 111.071 697.265 Q105.075 697.265 101.904 692.682 Q98.7326 688.075 98.7326 679.348 Q98.7326 671.154 102.621 666.293 Q106.51 661.409 113.061 661.409 Q114.82 661.409 116.603 661.756 Q118.408 662.103 120.353 662.798 Z" fill="#000000" fill-rule="nonzero" fill-opacity="1" /><path clip-path="url(#clip390)" d="M66.3254 514.323 Q62.7143 514.323 60.8856 517.888 Q59.0801 521.429 59.0801 528.559 Q59.0801 535.665 60.8856 539.23 Q62.7143 542.772 66.3254 542.772 Q69.9596 542.772 71.7652 539.23 Q73.5939 535.665 73.5939 528.559 Q73.5939 521.429 71.7652 517.888 Q69.9596 514.323 66.3254 514.323 M66.3254 510.619 Q72.1355 510.619 75.1911 515.226 Q78.2698 519.809 78.2698 528.559 Q78.2698 537.286 75.1911 541.892 Q72.1355 546.476 66.3254 546.476 Q60.5152 546.476 57.4365 541.892 Q54.381 537.286 54.381 528.559 Q54.381 519.809 57.4365 515.226 Q60.5152 510.619 66.3254 510.619 Z" fill="#000000" fill-rule="nonzero" fill-opacity="1" /><path clip-path="url(#clip390)" d="M86.4873 539.925 L91.3715 539.925 L91.3715 545.804 L86.4873 545.804 L86.4873 539.925 Z" fill="#000000" fill-rule="nonzero" fill-opacity="1" /><path clip-path="url(#clip390)" d="M100.376 511.244 L122.598 511.244 L122.598 513.235 L110.052 545.804 L105.168 545.804 L116.973 515.179 L100.376 515.179 L100.376 511.244 Z" fill="#000000" fill-rule="nonzero" fill-opacity="1" /><path clip-path="url(#clip390)" d="M65.5152 363.534 Q61.9041 363.534 60.0754 367.098 Q58.2699 370.64 58.2699 377.77 Q58.2699 384.876 60.0754 388.441 Q61.9041 391.983 65.5152 391.983 Q69.1494 391.983 70.955 388.441 Q72.7837 384.876 72.7837 377.77 Q72.7837 370.64 70.955 367.098 Q69.1494 363.534 65.5152 363.534 M65.5152 359.83 Q71.3254 359.83 74.3809 364.436 Q77.4596 369.02 77.4596 377.77 Q77.4596 386.497 74.3809 391.103 Q71.3254 395.686 65.5152 395.686 Q59.7051 395.686 56.6264 391.103 Q53.5708 386.497 53.5708 377.77 Q53.5708 369.02 56.6264 364.436 Q59.7051 359.83 65.5152 359.83 Z" fill="#000000" fill-rule="nonzero" fill-opacity="1" /><path clip-path="url(#clip390)" d="M85.6771 389.135 L90.5614 389.135 L90.5614 395.015 L85.6771 395.015 L85.6771 389.135 Z" fill="#000000" fill-rule="nonzero" fill-opacity="1" /><path clip-path="url(#clip390)" d="M110.746 378.603 Q107.413 378.603 105.492 380.385 Q103.594 382.168 103.594 385.293 Q103.594 388.418 105.492 390.2 Q107.413 391.983 110.746 391.983 Q114.08 391.983 116.001 390.2 Q117.922 388.395 117.922 385.293 Q117.922 382.168 116.001 380.385 Q114.103 378.603 110.746 378.603 M106.071 376.612 Q103.061 375.872 101.371 373.811 Q99.7048 371.751 99.7048 368.788 Q99.7048 364.645 102.645 362.237 Q105.608 359.83 110.746 359.83 Q115.908 359.83 118.848 362.237 Q121.788 364.645 121.788 368.788 Q121.788 371.751 120.098 373.811 Q118.432 375.872 115.445 376.612 Q118.825 377.399 120.7 379.691 Q122.598 381.983 122.598 385.293 Q122.598 390.316 119.52 393.001 Q116.464 395.686 110.746 395.686 Q105.029 395.686 101.95 393.001 Q98.8947 390.316 98.8947 385.293 Q98.8947 381.983 100.793 379.691 Q102.691 377.399 106.071 376.612 M104.358 369.228 Q104.358 371.913 106.024 373.418 Q107.714 374.923 110.746 374.923 Q113.756 374.923 115.445 373.418 Q117.158 371.913 117.158 369.228 Q117.158 366.543 115.445 365.038 Q113.756 363.534 110.746 363.534 Q107.714 363.534 106.024 365.038 Q104.358 366.543 104.358 369.228 Z" fill="#000000" fill-rule="nonzero" fill-opacity="1" /><path clip-path="url(#clip390)" d="M65.6078 212.744 Q61.9967 212.744 60.168 216.309 Q58.3625 219.851 58.3625 226.98 Q58.3625 234.087 60.168 237.652 Q61.9967 241.193 65.6078 241.193 Q69.242 241.193 71.0476 237.652 Q72.8763 234.087 72.8763 226.98 Q72.8763 219.851 71.0476 216.309 Q69.242 212.744 65.6078 212.744 M65.6078 209.041 Q71.418 209.041 74.4735 213.647 Q77.5522 218.23 77.5522 226.98 Q77.5522 235.707 74.4735 240.314 Q71.418 244.897 65.6078 244.897 Q59.7976 244.897 56.719 240.314 Q53.6634 235.707 53.6634 226.98 Q53.6634 218.23 56.719 213.647 Q59.7976 209.041 65.6078 209.041 Z" fill="#000000" fill-rule="nonzero" fill-opacity="1" /><path clip-path="url(#clip390)" d="M85.7697 238.346 L90.654 238.346 L90.654 244.226 L85.7697 244.226 L85.7697 238.346 Z" fill="#000000" fill-rule="nonzero" fill-opacity="1" /><path clip-path="url(#clip390)" d="M100.978 243.508 L100.978 239.249 Q102.737 240.082 104.543 240.522 Q106.348 240.962 108.084 240.962 Q112.714 240.962 115.145 237.86 Q117.598 234.735 117.945 228.392 Q116.603 230.383 114.543 231.448 Q112.483 232.513 109.983 232.513 Q104.797 232.513 101.765 229.388 Q98.7558 226.24 98.7558 220.8 Q98.7558 215.476 101.904 212.258 Q105.052 209.041 110.283 209.041 Q116.279 209.041 119.427 213.647 Q122.598 218.23 122.598 226.98 Q122.598 235.152 118.709 240.036 Q114.844 244.897 108.293 244.897 Q106.534 244.897 104.728 244.55 Q102.922 244.203 100.978 243.508 M110.283 228.855 Q113.432 228.855 115.26 226.703 Q117.112 224.55 117.112 220.8 Q117.112 217.073 115.26 214.92 Q113.432 212.744 110.283 212.744 Q107.135 212.744 105.284 214.92 Q103.455 217.073 103.455 220.8 Q103.455 224.55 105.284 226.703 Q107.135 228.855 110.283 228.855 Z" fill="#000000" fill-rule="nonzero" fill-opacity="1" /><path clip-path="url(#clip390)" d="M56.2328 89.5012 L63.8717 89.5012 L63.8717 63.1356 L55.5616 64.8023 L55.5616 60.543 L63.8254 58.8764 L68.5013 58.8764 L68.5013 89.5012 L76.1402 89.5012 L76.1402 93.4364 L56.2328 93.4364 L56.2328 89.5012 Z" fill="#000000" fill-rule="nonzero" fill-opacity="1" /><path clip-path="url(#clip390)" d="M85.5845 87.5568 L90.4688 87.5568 L90.4688 93.4364 L85.5845 93.4364 L85.5845 87.5568 Z" fill="#000000" fill-rule="nonzero" fill-opacity="1" /><path clip-path="url(#clip390)" d="M110.654 61.9551 Q107.043 61.9551 105.214 65.5199 Q103.409 69.0615 103.409 76.1911 Q103.409 83.2976 105.214 86.8623 Q107.043 90.404 110.654 90.404 Q114.288 90.404 116.094 86.8623 Q117.922 83.2976 117.922 76.1911 Q117.922 69.0615 116.094 65.5199 Q114.288 61.9551 110.654 61.9551 M110.654 58.2514 Q116.464 58.2514 119.52 62.8578 Q122.598 67.4412 122.598 76.1911 Q122.598 84.9179 119.52 89.5244 Q116.464 94.1077 110.654 94.1077 Q104.844 94.1077 101.765 89.5244 Q98.7095 84.9179 98.7095 76.1911 Q98.7095 67.4412 101.765 62.8578 Q104.844 58.2514 110.654 58.2514 Z" fill="#000000" fill-rule="nonzero" fill-opacity="1" /><polyline clip-path="url(#clip392)" style="stroke:#0f6a81; stroke-linecap:round; stroke-linejoin:round; stroke-width:4; stroke-opacity:1; fill:none" points="203.546,1039.9 224.774,1039.9 246.003,1039.9 267.231,1039.9 288.459,1039.9 309.687,1039.9 330.916,1039.9 352.144,1039.9 373.372,1039.9 394.601,1039.9 415.829,1039.9 437.057,1039.9 458.285,1038.94 479.514,1035.93 500.742,1032.9 521.97,1029.85 543.198,1026.77 564.427,1023.68 585.655,1020.57 606.883,1017.44 628.112,1014.29 649.34,1011.14 670.568,1007.97 691.796,1004.78 713.025,1001.59 734.253,998.389 755.481,995.177 776.71,991.957 797.938,988.729 819.166,985.493 840.394,982.251 861.623,979.003 882.851,975.749 904.079,972.49 925.307,969.226 946.536,965.957 967.764,962.684 988.992,959.407 1010.22,956.127 1031.45,952.843 1052.68,949.556 1073.91,946.267 1095.13,942.975 1116.36,939.68 1137.59,936.384 1158.82,933.085 1180.05,929.785 1201.27,926.483 1222.5,923.18 1243.73,919.875 1264.96,916.569 1286.19,913.262 1307.42,909.954 1328.64,906.645 1349.87,903.336 1371.1,900.026 1392.33,896.716 1413.56,893.405 1434.79,890.094 1456.01,886.782 1477.24,883.471 1498.47,880.159 1519.7,876.848 1540.93,873.536 1562.16,870.225 1583.38,866.914 1604.61,863.603 1625.84,860.293 1647.07,856.983 1668.3,853.673 1689.53,850.364 1710.75,847.055 1731.98,843.747 1753.21,840.44 1774.44,837.133 1795.67,833.827 1816.89,830.521 1838.12,827.217 1859.35,823.913 1880.58,820.61 1901.81,817.308 "/>
<polyline clip-path="url(#clip392)" style="stroke:#c2676d; stroke-linecap:round; stroke-linejoin:round; stroke-width:4; stroke-opacity:1; fill:none" stroke-dasharray="16, 10" points="203.546,76.1564 224.774,76.1564 246.003,76.1564 267.231,76.1564 288.459,76.1564 309.687,76.1564 330.916,76.1564 352.144,76.1564 373.372,76.1564 394.601,76.1564 415.829,76.1564 437.057,76.1564 458.285,88.2618 479.514,123.935 500.742,156.934 521.97,187.553 543.198,216.045 564.427,242.627 585.655,267.486 606.883,290.787 628.112,312.673 649.34,333.269 670.568,352.689 691.796,371.029 713.025,388.377 734.253,404.813 755.481,420.407 776.71,435.221 797.938,449.312 819.166,462.732 840.394,475.528 861.623,487.741 882.851,499.41 904.079,510.571 925.307,521.256 946.536,531.494 967.764,541.311 988.992,550.734 1010.22,559.785 1031.45,568.486 1052.68,576.855 1073.91,584.911 1095.13,592.671 1116.36,600.15 1137.59,607.363 1158.82,614.324 1180.05,621.046 1201.27,627.539 1222.5,633.815 1243.73,639.885 1264.96,645.758 1286.19,651.443 1307.42,656.949 1328.64,662.283 1349.87,667.454 1371.1,672.468 1392.33,677.332 1413.56,682.053 1434.79,686.636 1456.01,691.087 1477.24,695.412 1498.47,699.614 1519.7,703.7 1540.93,707.674 1562.16,711.54 1583.38,715.302 1604.61,718.964 1625.84,722.529 1647.07,726.002 1668.3,729.386 1689.53,732.683 1710.75,735.897 1731.98,739.03 1753.21,742.087 1774.44,745.068 1795.67,747.976 1816.89,750.815 1838.12,753.586 1859.35,756.292 1880.58,758.934 1901.81,761.515 "/>
<path clip-path="url(#clip390)" d="M1665.1 244.471 L1892.75 244.471 L1892.75 81.2963 L1665.1 81.2963  Z" fill="#ffffff" fill-rule="evenodd" fill-opacity="1"/>
<polyline clip-path="url(#clip390)" style="stroke:#000000; stroke-linecap:round; stroke-linejoin:round; stroke-width:4; stroke-opacity:1; fill:none" points="1665.1,244.471 1892.75,244.471 1892.75,81.2963 1665.1,81.2963 1665.1,244.471 "/>
<polyline clip-path="url(#clip390)" style="stroke:#0f6a81; stroke-linecap:round; stroke-linejoin:round; stroke-width:4; stroke-opacity:1; fill:none" points="1685.1,135.688 1805.11,135.688 "/>
<path clip-path="url(#clip390)" d="M1835.37 114.543 L1828.46 142.275 Q1828.18 143.376 1828.18 144.57 Q1828.18 146.772 1829.63 146.772 Q1830.31 146.772 1830.87 146.327 Q1831.43 145.858 1831.85 144.945 Q1832.3 144.008 1832.58 143.118 Q1832.89 142.228 1833.26 140.846 Q1833.38 140.307 1833.49 140.143 Q1833.61 139.979 1833.94 139.979 Q1834.52 139.979 1834.52 140.448 Q1833.94 143.329 1833.07 145.156 Q1831.81 147.849 1829.47 147.849 Q1827.71 147.849 1826.4 146.631 Q1825.11 145.39 1825.11 143.422 Q1825.11 142.673 1825.34 141.783 L1831.39 117.798 L1831.55 116.861 Q1831.55 116.604 1831.46 116.463 Q1831.36 116.323 1830.8 116.182 Q1830.26 116.042 1829.18 116.042 Q1828.74 116.042 1828.53 116.018 Q1828.34 115.995 1828.15 115.878 Q1827.99 115.761 1827.99 115.503 Q1827.99 115.081 1828.15 114.847 Q1828.34 114.613 1828.48 114.566 Q1828.62 114.519 1828.9 114.496 Q1829.3 114.472 1830.64 114.355 Q1831.97 114.215 1833.12 114.121 Q1834.27 114.027 1834.76 114.027 Q1835.04 114.027 1835.18 114.168 Q1835.34 114.285 1835.37 114.425 L1835.37 114.543 Z" fill="#000000" fill-rule="nonzero" fill-opacity="1" /><path clip-path="url(#clip390)" d="M1867.9 151.856 Q1867.9 151.987 1867.75 152.496 Q1867.6 153.004 1867.24 153.791 Q1866.9 154.578 1866.41 155.299 Q1865.93 156.004 1865.14 156.529 Q1864.37 157.037 1863.49 157.037 Q1862.31 157.037 1861.52 156.25 Q1860.73 155.463 1860.73 154.283 Q1860.73 153.643 1861.18 152.43 Q1863.26 146.888 1863.26 144.904 Q1863.26 142.56 1861.44 142.56 Q1860.4 142.56 1859.47 142.986 Q1858.54 143.412 1857.93 144.003 Q1857.32 144.593 1856.85 145.265 Q1856.37 145.937 1856.16 146.38 Q1855.96 146.823 1855.91 147.019 L1853.9 155.119 Q1853.73 155.807 1853.62 156.135 Q1853.5 156.463 1853.19 156.742 Q1852.88 157.037 1852.39 157.037 Q1851.98 157.037 1851.68 156.791 Q1851.4 156.545 1851.4 156.119 Q1851.4 156.053 1851.49 155.709 Q1851.57 155.365 1851.68 154.889 Q1851.8 154.414 1851.85 154.135 Q1852.44 151.905 1852.52 151.594 L1853.45 147.692 Q1853.96 145.757 1853.96 144.904 Q1853.96 142.56 1852.14 142.56 Q1851.24 142.56 1850.39 142.904 Q1849.55 143.232 1848.98 143.691 Q1848.4 144.15 1847.88 144.79 Q1847.37 145.413 1847.11 145.839 Q1846.86 146.249 1846.66 146.659 L1846.24 148.331 Q1846.14 148.79 1845.66 150.577 L1844.93 153.61 Q1844.4 155.873 1844.29 156.086 Q1844.12 156.545 1843.76 156.791 Q1843.4 157.037 1843.04 157.037 Q1842.63 157.037 1842.35 156.791 Q1842.07 156.545 1842.07 156.119 Q1842.07 156.053 1842.12 155.807 Q1842.17 155.562 1842.25 155.217 Q1842.34 154.873 1842.37 154.676 L1844.32 146.921 Q1844.68 145.511 1844.76 145.068 Q1844.86 144.609 1844.86 144.101 Q1844.86 142.56 1843.81 142.56 Q1842.96 142.56 1842.4 143.576 Q1841.84 144.593 1841.37 146.56 Q1841.22 147.101 1841.12 147.216 Q1841.04 147.331 1840.8 147.331 Q1840.39 147.314 1840.39 146.987 Q1840.39 146.905 1840.52 146.38 Q1840.65 145.855 1840.89 145.068 Q1841.16 144.265 1841.43 143.74 Q1841.6 143.396 1841.75 143.166 Q1841.89 142.937 1842.19 142.576 Q1842.48 142.215 1842.93 142.019 Q1843.37 141.822 1843.91 141.822 Q1845.11 141.822 1845.99 142.592 Q1846.89 143.363 1847.01 144.74 Q1849.19 141.822 1852.24 141.822 Q1853.96 141.822 1854.99 142.691 Q1855.96 143.527 1856.08 145.068 Q1858.34 141.822 1861.55 141.822 Q1863.4 141.822 1864.41 142.789 Q1865.41 143.74 1865.41 145.413 Q1865.41 146.282 1864.96 147.938 Q1864.52 149.577 1864.22 150.397 Q1863.93 151.217 1863.36 152.791 Q1862.75 154.299 1862.75 155.184 Q1862.75 155.758 1862.95 156.021 Q1863.14 156.283 1863.57 156.283 Q1864.22 156.283 1864.8 155.906 Q1865.37 155.512 1865.78 154.873 Q1866.21 154.217 1866.49 153.561 Q1866.77 152.889 1866.98 152.135 Q1867.11 151.725 1867.18 151.627 Q1867.26 151.528 1867.49 151.528 Q1867.9 151.528 1867.9 151.856 Z" fill="#000000" fill-rule="nonzero" fill-opacity="1" /><polyline clip-path="url(#clip390)" style="stroke:#c2676d; stroke-linecap:round; stroke-linejoin:round; stroke-width:4; stroke-opacity:1; fill:none" stroke-dasharray="16, 10" points="1685.1,190.079 1805.11,190.079 "/>
<path clip-path="url(#clip390)" d="M1835.37 163.084 L1828.46 190.816 Q1828.18 191.917 1828.18 193.112 Q1828.18 195.313 1829.63 195.313 Q1830.31 195.313 1830.87 194.868 Q1831.43 194.4 1831.85 193.487 Q1832.3 192.55 1832.58 191.66 Q1832.89 190.77 1833.26 189.388 Q1833.38 188.849 1833.49 188.685 Q1833.61 188.521 1833.94 188.521 Q1834.52 188.521 1834.52 188.989 Q1833.94 191.87 1833.07 193.697 Q1831.81 196.391 1829.47 196.391 Q1827.71 196.391 1826.4 195.173 Q1825.11 193.932 1825.11 191.964 Q1825.11 191.215 1825.34 190.325 L1831.39 166.34 L1831.55 165.403 Q1831.55 165.145 1831.46 165.005 Q1831.36 164.864 1830.8 164.724 Q1830.26 164.583 1829.18 164.583 Q1828.74 164.583 1828.53 164.56 Q1828.34 164.536 1828.15 164.419 Q1827.99 164.302 1827.99 164.045 Q1827.99 163.623 1828.15 163.389 Q1828.34 163.154 1828.48 163.108 Q1828.62 163.061 1828.9 163.037 Q1829.3 163.014 1830.64 162.897 Q1831.97 162.756 1833.12 162.663 Q1834.27 162.569 1834.76 162.569 Q1835.04 162.569 1835.18 162.709 Q1835.34 162.827 1835.37 162.967 L1835.37 163.084 Z" fill="#000000" fill-rule="nonzero" fill-opacity="1" /><path clip-path="url(#clip390)" d="M1857.13 189.094 Q1857.13 189.995 1856.55 190.553 Q1855.99 191.11 1855.29 191.11 Q1854.78 191.11 1854.4 190.799 Q1854.04 190.487 1854.04 189.946 Q1854.04 189.389 1854.47 188.798 Q1854.9 188.208 1855.86 188.126 Q1855.22 187.52 1854.21 187.52 Q1853.7 187.52 1853.27 187.847 Q1852.86 188.159 1852.63 188.667 Q1852.39 189.192 1851.83 192.16 Q1851.65 193.127 1851.49 194.061 Q1851.32 194.996 1851.12 195.98 L1853.91 195.98 Q1854.27 195.98 1854.42 195.996 Q1854.57 196.013 1854.68 196.095 Q1854.81 196.176 1854.81 196.357 Q1854.81 196.816 1854.6 196.931 Q1854.4 197.029 1853.81 197.029 L1850.93 197.029 L1848.91 207.67 Q1848.86 207.981 1848.65 208.965 Q1848.45 209.932 1847.98 211.523 Q1847.5 213.13 1847.03 214.081 Q1846.76 214.622 1846.42 215.13 Q1846.09 215.655 1845.62 216.179 Q1845.14 216.704 1844.52 217.015 Q1843.89 217.343 1843.24 217.343 Q1842.12 217.343 1841.25 216.72 Q1840.39 216.097 1840.39 215.032 Q1840.39 214.13 1840.94 213.572 Q1841.52 213.015 1842.22 213.015 Q1842.73 213.015 1843.09 213.326 Q1843.47 213.638 1843.47 214.179 Q1843.47 214.409 1843.39 214.671 Q1843.3 214.933 1843.12 215.228 Q1842.94 215.54 1842.55 215.753 Q1842.16 215.966 1841.62 215.999 Q1842.25 216.606 1843.24 216.606 Q1843.55 216.606 1843.83 216.474 Q1844.11 216.36 1844.34 216.064 Q1844.58 215.769 1844.76 215.474 Q1844.94 215.196 1845.12 214.654 Q1845.3 214.13 1845.42 213.736 Q1845.53 213.343 1845.68 212.638 Q1845.85 211.933 1845.93 211.506 Q1846.01 211.097 1846.16 210.293 L1848.67 197.029 L1846.45 197.029 Q1846.06 197.029 1845.89 197.013 Q1845.75 196.996 1845.63 196.914 Q1845.52 196.816 1845.52 196.619 Q1845.52 196.308 1845.65 196.176 Q1845.8 196.029 1845.96 196.013 Q1846.12 195.98 1846.52 195.98 L1848.85 195.98 Q1849.63 191.832 1849.94 190.717 Q1850.3 189.536 1850.86 188.716 Q1851.42 187.88 1852.04 187.487 Q1852.67 187.093 1853.17 186.946 Q1853.7 186.782 1854.21 186.782 Q1855.35 186.782 1856.24 187.405 Q1857.13 188.011 1857.13 189.094 Z" fill="#000000" fill-rule="nonzero" fill-opacity="1" /></svg>
