<?xml version="1.0" encoding="utf-8"?>
<svg xmlns="http://www.w3.org/2000/svg" xmlns:xlink="http://www.w3.org/1999/xlink" width="500" height="309" viewBox="0 0 2000 1236">
<defs>
  <clipPath id="clip180">
    <rect x="0" y="0" width="2000" height="1236"/>
  </clipPath>
</defs>
<path clip-path="url(#clip180)" d="M0 1236 L2000 1236 L2000 1.24345e-14 L0 1.24345e-14  Z" fill="#ffffff" fill-rule="evenodd" fill-opacity="1"/>
<defs>
  <clipPath id="clip181">
    <rect x="143" y="47" width="1810" height="1020"/>
  </clipPath>
</defs>
<path clip-path="url(#clip180)" d="M143.478 1066.65 L1952.76 1066.65 L1952.76 47.2441 L143.478 47.2441  Z" fill="#ffffff" fill-rule="evenodd" fill-opacity="1"/>
<polyline clip-path="url(#clip181)" style="stroke:#000000; stroke-linecap:round; stroke-linejoin:round; stroke-width:2; stroke-opacity:0.1; fill:none" points="177.267,1066.65 177.267,47.2441 "/>
<polyline clip-path="url(#clip181)" style="stroke:#000000; stroke-linecap:round; stroke-linejoin:round; stroke-width:2; stroke-opacity:0.1; fill:none" points="612.692,1066.65 612.692,47.2441 "/>
<polyline clip-path="url(#clip181)" style="stroke:#000000; stroke-linecap:round; stroke-linejoin:round; stroke-width:2; stroke-opacity:0.1; fill:none" points="1048.12,1066.65 1048.12,47.2441 "/>
<polyline clip-path="url(#clip181)" style="stroke:#000000; stroke-linecap:round; stroke-linejoin:round; stroke-width:2; stroke-opacity:0.1; fill:none" points="1483.54,1066.65 1483.54,47.2441 "/>
<polyline clip-path="url(#clip181)" style="stroke:#000000; stroke-linecap:round; stroke-linejoin:round; stroke-width:2; stroke-opacity:0.1; fill:none" points="1918.97,1066.65 1918.97,47.2441 "/>
<polyline clip-path="url(#clip181)" style="stroke:#000000; stroke-linecap:round; stroke-linejoin:round; stroke-width:2; stroke-opacity:0.1; fill:none" points="143.478,846.955 1952.76,846.955 "/>
<polyline clip-path="url(#clip181)" style="stroke:#000000; stroke-linecap:round; stroke-linejoin:round; stroke-width:2; stroke-opacity:0.1; fill:none" points="143.478,586.73 1952.76,586.73 "/>
<polyline clip-path="url(#clip181)" style="stroke:#000000; stroke-linecap:round; stroke-linejoin:round; stroke-width:2; stroke-opacity:0.1; fill:none" points="143.478,326.506 1952.76,326.506 "/>
<polyline clip-path="url(#clip181)" style="stroke:#000000; stroke-linecap:round; stroke-linejoin:round; stroke-width:2; stroke-opacity:0.1; fill:none" points="143.478,66.2819 1952.76,66.2819 "/>
<polyline clip-path="url(#clip180)" style="stroke:#000000; stroke-linecap:round; stroke-linejoin:round; stroke-width:4; stroke-opacity:1; fill:none" points="143.478,1066.65 1952.76,1066.65 "/>
<polyline clip-path="url(#clip180)" style="stroke:#000000; stroke-linecap:round; stroke-linejoin:round; stroke-width:4; stroke-opacity:1; fill:none" points="177.267,1066.65 177.267,1047.75 "/>
<polyline clip-path="url(#clip180)" style="stroke:#000000; stroke-linecap:round; stroke-linejoin:round; stroke-width:4; stroke-opacity:1; fill:none" points="612.692,1066.65 612.692,1047.75 "/>
<polyline clip-path="url(#clip180)" style="stroke:#000000; stroke-linecap:round; stroke-linejoin:round; stroke-width:4; stroke-opacity:1; fill:none" points="1048.12,1066.65 1048.12,1047.75 "/>
<polyline clip-path="url(#clip180)" style="stroke:#000000; stroke-linecap:round; stroke-linejoin:round; stroke-width:4; stroke-opacity:1; fill:none" points="1483.54,1066.65 1483.54,1047.75 "/>
<polyline clip-path="url(#clip180)" style="stroke:#000000; stroke-linecap:round; stroke-linejoin:round; stroke-width:4; stroke-opacity:1; fill:none" points="1918.97,1066.65 1918.97,1047.75 "/>
<path clip-path="url(#clip180)" d="M139.57 1094.37 Q135.959 1094.37 134.131 1097.93 Q132.325 1101.48 132.325 1108.61 Q132.325 1115.71 134.131 1119.28 Q135.959 1122.82 139.57 1122.82 Q143.205 1122.82 145.01 1119.28 Q146.839 1115.71 146.839 1108.61 Q146.839 1101.48 145.01 1097.93 Q143.205 1094.37 139.57 1094.37 M139.57 1090.67 Q145.38 1090.67 148.436 1095.27 Q151.515 1099.86 151.515 1108.61 Q151.515 1117.33 148.436 1121.94 Q145.38 1126.52 139.57 1126.52 Q133.76 1126.52 130.681 1121.94 Q127.626 1117.33 127.626 1108.61 Q127.626 1099.86 130.681 1095.27 Q133.76 1090.67 139.57 1090.67 Z" fill="#000000" fill-rule="nonzero" fill-opacity="1" /><path clip-path="url(#clip180)" d="M159.732 1119.97 L164.616 1119.97 L164.616 1125.85 L159.732 1125.85 L159.732 1119.97 Z" fill="#000000" fill-rule="nonzero" fill-opacity="1" /><path clip-path="url(#clip180)" d="M184.802 1094.37 Q181.19 1094.37 179.362 1097.93 Q177.556 1101.48 177.556 1108.61 Q177.556 1115.71 179.362 1119.28 Q181.19 1122.82 184.802 1122.82 Q188.436 1122.82 190.241 1119.28 Q192.07 1115.71 192.07 1108.61 Q192.07 1101.48 190.241 1097.93 Q188.436 1094.37 184.802 1094.37 M184.802 1090.67 Q190.612 1090.67 193.667 1095.27 Q196.746 1099.86 196.746 1108.61 Q196.746 1117.33 193.667 1121.94 Q190.612 1126.52 184.802 1126.52 Q178.991 1126.52 175.913 1121.94 Q172.857 1117.33 172.857 1108.61 Q172.857 1099.86 175.913 1095.27 Q178.991 1090.67 184.802 1090.67 Z" fill="#000000" fill-rule="nonzero" fill-opacity="1" /><path clip-path="url(#clip180)" d="M214.963 1094.37 Q211.352 1094.37 209.524 1097.93 Q207.718 1101.48 207.718 1108.61 Q207.718 1115.71 209.524 1119.28 Q211.352 1122.82 214.963 1122.82 Q218.598 1122.82 220.403 1119.28 Q222.232 1115.71 222.232 1108.61 Q222.232 1101.48 220.403 1097.93 Q218.598 1094.37 214.963 1094.37 M214.963 1090.67 Q220.774 1090.67 223.829 1095.27 Q226.908 1099.86 226.908 1108.61 Q226.908 1117.33 223.829 1121.94 Q220.774 1126.52 214.963 1126.52 Q209.153 1126.52 206.075 1121.94 Q203.019 1117.33 203.019 1108.61 Q203.019 1099.86 206.075 1095.27 Q209.153 1090.67 214.963 1090.67 Z" fill="#000000" fill-rule="nonzero" fill-opacity="1" /><path clip-path="url(#clip180)" d="M575.493 1094.37 Q571.882 1094.37 570.053 1097.93 Q568.248 1101.48 568.248 1108.61 Q568.248 1115.71 570.053 1119.28 Q571.882 1122.82 575.493 1122.82 Q579.127 1122.82 580.933 1119.28 Q582.762 1115.71 582.762 1108.61 Q582.762 1101.48 580.933 1097.93 Q579.127 1094.37 575.493 1094.37 M575.493 1090.67 Q581.303 1090.67 584.359 1095.27 Q587.437 1099.86 587.437 1108.61 Q587.437 1117.33 584.359 1121.94 Q581.303 1126.52 575.493 1126.52 Q569.683 1126.52 566.604 1121.94 Q563.549 1117.33 563.549 1108.61 Q563.549 1099.86 566.604 1095.27 Q569.683 1090.67 575.493 1090.67 Z" fill="#000000" fill-rule="nonzero" fill-opacity="1" /><path clip-path="url(#clip180)" d="M595.655 1119.97 L600.539 1119.97 L600.539 1125.85 L595.655 1125.85 L595.655 1119.97 Z" fill="#000000" fill-rule="nonzero" fill-opacity="1" /><path clip-path="url(#clip180)" d="M614.752 1121.92 L631.071 1121.92 L631.071 1125.85 L609.127 1125.85 L609.127 1121.92 Q611.789 1119.16 616.372 1114.53 Q620.979 1109.88 622.159 1108.54 Q624.405 1106.01 625.284 1104.28 Q626.187 1102.52 626.187 1100.83 Q626.187 1098.07 624.243 1096.34 Q622.321 1094.6 619.22 1094.6 Q617.021 1094.6 614.567 1095.36 Q612.136 1096.13 609.359 1097.68 L609.359 1092.96 Q612.183 1091.82 614.636 1091.24 Q617.09 1090.67 619.127 1090.67 Q624.497 1090.67 627.692 1093.35 Q630.886 1096.04 630.886 1100.53 Q630.886 1102.66 630.076 1104.58 Q629.289 1106.48 627.183 1109.07 Q626.604 1109.74 623.502 1112.96 Q620.4 1116.15 614.752 1121.92 Z" fill="#000000" fill-rule="nonzero" fill-opacity="1" /><path clip-path="url(#clip180)" d="M640.932 1091.29 L659.289 1091.29 L659.289 1095.23 L645.215 1095.23 L645.215 1103.7 Q646.233 1103.35 647.252 1103.19 Q648.27 1103 649.289 1103 Q655.076 1103 658.456 1106.17 Q661.835 1109.35 661.835 1114.76 Q661.835 1120.34 658.363 1123.44 Q654.891 1126.52 648.571 1126.52 Q646.395 1126.52 644.127 1126.15 Q641.882 1125.78 639.474 1125.04 L639.474 1120.34 Q641.557 1121.48 643.78 1122.03 Q646.002 1122.59 648.479 1122.59 Q652.483 1122.59 654.821 1120.48 Q657.159 1118.37 657.159 1114.76 Q657.159 1111.15 654.821 1109.05 Q652.483 1106.94 648.479 1106.94 Q646.604 1106.94 644.729 1107.36 Q642.877 1107.77 640.932 1108.65 L640.932 1091.29 Z" fill="#000000" fill-rule="nonzero" fill-opacity="1" /><path clip-path="url(#clip180)" d="M1010.42 1094.37 Q1006.81 1094.37 1004.98 1097.93 Q1003.18 1101.48 1003.18 1108.61 Q1003.18 1115.71 1004.98 1119.28 Q1006.81 1122.82 1010.42 1122.82 Q1014.05 1122.82 1015.86 1119.28 Q1017.69 1115.71 1017.69 1108.61 Q1017.69 1101.48 1015.86 1097.93 Q1014.05 1094.37 1010.42 1094.37 M1010.42 1090.67 Q1016.23 1090.67 1019.29 1095.27 Q1022.36 1099.86 1022.36 1108.61 Q1022.36 1117.33 1019.29 1121.94 Q1016.23 1126.52 1010.42 1126.52 Q1004.61 1126.52 1001.53 1121.94 Q998.476 1117.33 998.476 1108.61 Q998.476 1099.86 1001.53 1095.27 Q1004.61 1090.67 1010.42 1090.67 Z" fill="#000000" fill-rule="nonzero" fill-opacity="1" /><path clip-path="url(#clip180)" d="M1030.58 1119.97 L1035.47 1119.97 L1035.47 1125.85 L1030.58 1125.85 L1030.58 1119.97 Z" fill="#000000" fill-rule="nonzero" fill-opacity="1" /><path clip-path="url(#clip180)" d="M1045.7 1091.29 L1064.05 1091.29 L1064.05 1095.23 L1049.98 1095.23 L1049.98 1103.7 Q1051 1103.35 1052.02 1103.19 Q1053.04 1103 1054.05 1103 Q1059.84 1103 1063.22 1106.17 Q1066.6 1109.35 1066.6 1114.76 Q1066.6 1120.34 1063.13 1123.44 Q1059.66 1126.52 1053.34 1126.52 Q1051.16 1126.52 1048.89 1126.15 Q1046.65 1125.78 1044.24 1125.04 L1044.24 1120.34 Q1046.32 1121.48 1048.55 1122.03 Q1050.77 1122.59 1053.24 1122.59 Q1057.25 1122.59 1059.59 1120.48 Q1061.92 1118.37 1061.92 1114.76 Q1061.92 1111.15 1059.59 1109.05 Q1057.25 1106.94 1053.24 1106.94 Q1051.37 1106.94 1049.49 1107.36 Q1047.64 1107.77 1045.7 1108.65 L1045.7 1091.29 Z" fill="#000000" fill-rule="nonzero" fill-opacity="1" /><path clip-path="url(#clip180)" d="M1085.81 1094.37 Q1082.2 1094.37 1080.37 1097.93 Q1078.57 1101.48 1078.57 1108.61 Q1078.57 1115.71 1080.37 1119.28 Q1082.2 1122.82 1085.81 1122.82 Q1089.45 1122.82 1091.25 1119.28 Q1093.08 1115.71 1093.08 1108.61 Q1093.08 1101.48 1091.25 1097.93 Q1089.45 1094.37 1085.81 1094.37 M1085.81 1090.67 Q1091.62 1090.67 1094.68 1095.27 Q1097.76 1099.86 1097.76 1108.61 Q1097.76 1117.33 1094.68 1121.94 Q1091.62 1126.52 1085.81 1126.52 Q1080 1126.52 1076.92 1121.94 Q1073.87 1117.33 1073.87 1108.61 Q1073.87 1099.86 1076.92 1095.27 Q1080 1090.67 1085.81 1090.67 Z" fill="#000000" fill-rule="nonzero" fill-opacity="1" /><path clip-path="url(#clip180)" d="M1446.34 1094.37 Q1442.73 1094.37 1440.9 1097.93 Q1439.1 1101.48 1439.1 1108.61 Q1439.1 1115.71 1440.9 1119.28 Q1442.73 1122.82 1446.34 1122.82 Q1449.98 1122.82 1451.78 1119.28 Q1453.61 1115.71 1453.61 1108.61 Q1453.61 1101.48 1451.78 1097.93 Q1449.98 1094.37 1446.34 1094.37 M1446.34 1090.67 Q1452.15 1090.67 1455.21 1095.27 Q1458.29 1099.86 1458.29 1108.61 Q1458.29 1117.33 1455.21 1121.94 Q1452.15 1126.52 1446.34 1126.52 Q1440.53 1126.52 1437.45 1121.94 Q1434.4 1117.33 1434.4 1108.61 Q1434.4 1099.86 1437.45 1095.27 Q1440.53 1090.67 1446.34 1090.67 Z" fill="#000000" fill-rule="nonzero" fill-opacity="1" /><path clip-path="url(#clip180)" d="M1466.5 1119.97 L1471.39 1119.97 L1471.39 1125.85 L1466.5 1125.85 L1466.5 1119.97 Z" fill="#000000" fill-rule="nonzero" fill-opacity="1" /><path clip-path="url(#clip180)" d="M1480.39 1091.29 L1502.62 1091.29 L1502.62 1093.28 L1490.07 1125.85 L1485.19 1125.85 L1496.99 1095.23 L1480.39 1095.23 L1480.39 1091.29 Z" fill="#000000" fill-rule="nonzero" fill-opacity="1" /><path clip-path="url(#clip180)" d="M1511.78 1091.29 L1530.14 1091.29 L1530.14 1095.23 L1516.06 1095.23 L1516.06 1103.7 Q1517.08 1103.35 1518.1 1103.19 Q1519.12 1103 1520.14 1103 Q1525.93 1103 1529.31 1106.17 Q1532.69 1109.35 1532.69 1114.76 Q1532.69 1120.34 1529.21 1123.44 Q1525.74 1126.52 1519.42 1126.52 Q1517.25 1126.52 1514.98 1126.15 Q1512.73 1125.78 1510.32 1125.04 L1510.32 1120.34 Q1512.41 1121.48 1514.63 1122.03 Q1516.85 1122.59 1519.33 1122.59 Q1523.33 1122.59 1525.67 1120.48 Q1528.01 1118.37 1528.01 1114.76 Q1528.01 1111.15 1525.67 1109.05 Q1523.33 1106.94 1519.33 1106.94 Q1517.45 1106.94 1515.58 1107.36 Q1513.73 1107.77 1511.78 1108.65 L1511.78 1091.29 Z" fill="#000000" fill-rule="nonzero" fill-opacity="1" /><path clip-path="url(#clip180)" d="M1871.04 1121.92 L1878.68 1121.92 L1878.68 1095.55 L1870.37 1097.22 L1870.37 1092.96 L1878.63 1091.29 L1883.31 1091.29 L1883.31 1121.92 L1890.95 1121.92 L1890.95 1125.85 L1871.04 1125.85 L1871.04 1121.92 Z" fill="#000000" fill-rule="nonzero" fill-opacity="1" /><path clip-path="url(#clip180)" d="M1900.39 1119.97 L1905.27 1119.97 L1905.27 1125.85 L1900.39 1125.85 L1900.39 1119.97 Z" fill="#000000" fill-rule="nonzero" fill-opacity="1" /><path clip-path="url(#clip180)" d="M1925.46 1094.37 Q1921.85 1094.37 1920.02 1097.93 Q1918.21 1101.48 1918.21 1108.61 Q1918.21 1115.71 1920.02 1119.28 Q1921.85 1122.82 1925.46 1122.82 Q1929.09 1122.82 1930.9 1119.28 Q1932.73 1115.71 1932.73 1108.61 Q1932.73 1101.48 1930.9 1097.93 Q1929.09 1094.37 1925.46 1094.37 M1925.46 1090.67 Q1931.27 1090.67 1934.33 1095.27 Q1937.4 1099.86 1937.4 1108.61 Q1937.4 1117.33 1934.33 1121.94 Q1931.27 1126.52 1925.46 1126.52 Q1919.65 1126.52 1916.57 1121.94 Q1913.52 1117.33 1913.52 1108.61 Q1913.52 1099.86 1916.57 1095.27 Q1919.65 1090.67 1925.46 1090.67 Z" fill="#000000" fill-rule="nonzero" fill-opacity="1" /><path clip-path="url(#clip180)" d="M1955.62 1094.37 Q1952.01 1094.37 1950.18 1097.93 Q1948.38 1101.48 1948.38 1108.61 Q1948.38 1115.71 1950.18 1119.28 Q1952.01 1122.82 1955.62 1122.82 Q1959.26 1122.82 1961.06 1119.28 Q1962.89 1115.71 1962.89 1108.61 Q1962.89 1101.48 1961.06 1097.93 Q1959.26 1094.37 1955.62 1094.37 M1955.62 1090.67 Q1961.43 1090.67 1964.49 1095.27 Q1967.57 1099.86 1967.57 1108.61 Q1967.57 1117.33 1964.49 1121.94 Q1961.43 1126.52 1955.62 1126.52 Q1949.81 1126.52 1946.73 1121.94 Q1943.68 1117.33 1943.68 1108.61 Q1943.68 1099.86 1946.73 1095.27 Q1949.81 1090.67 1955.62 1090.67 Z" fill="#000000" fill-rule="nonzero" fill-opacity="1" /><path clip-path="url(#clip180)" d="M1036.8 1141.28 L1027.3 1179.41 Q1026.91 1180.93 1026.91 1182.57 Q1026.91 1185.6 1028.91 1185.6 Q1029.84 1185.6 1030.62 1184.99 Q1031.39 1184.34 1031.97 1183.09 Q1032.58 1181.8 1032.97 1180.57 Q1033.39 1179.35 1033.9 1177.45 Q1034.06 1176.71 1034.22 1176.48 Q1034.38 1176.26 1034.84 1176.26 Q1035.64 1176.26 1035.64 1176.9 Q1034.84 1180.86 1033.64 1183.38 Q1031.9 1187.08 1028.68 1187.08 Q1026.27 1187.08 1024.46 1185.4 Q1022.69 1183.7 1022.69 1180.99 Q1022.69 1179.96 1023.02 1178.74 L1031.32 1145.76 L1031.55 1144.47 Q1031.55 1144.12 1031.42 1143.92 Q1031.29 1143.73 1030.52 1143.54 Q1029.78 1143.34 1028.3 1143.34 Q1027.69 1143.34 1027.4 1143.31 Q1027.14 1143.28 1026.88 1143.12 Q1026.65 1142.96 1026.65 1142.6 Q1026.65 1142.02 1026.88 1141.7 Q1027.14 1141.38 1027.33 1141.31 Q1027.52 1141.25 1027.91 1141.22 Q1028.46 1141.19 1030.29 1141.03 Q1032.13 1140.83 1033.71 1140.7 Q1035.29 1140.57 1035.96 1140.57 Q1036.35 1140.57 1036.54 1140.77 Q1036.77 1140.93 1036.8 1141.12 L1036.8 1141.28 Z" fill="#000000" fill-rule="nonzero" fill-opacity="1" /><path clip-path="url(#clip180)" d="M1066.72 1177.04 Q1066.72 1178.28 1065.93 1179.04 Q1065.17 1179.81 1064.2 1179.81 Q1063.5 1179.81 1062.98 1179.38 Q1062.48 1178.95 1062.48 1178.21 Q1062.48 1177.44 1063.07 1176.63 Q1063.66 1175.82 1064.99 1175.71 Q1064.11 1174.87 1062.71 1174.87 Q1062.01 1174.87 1061.42 1175.32 Q1060.86 1175.75 1060.55 1176.45 Q1060.21 1177.17 1059.44 1181.25 Q1059.19 1182.58 1058.97 1183.87 Q1058.74 1185.15 1058.47 1186.5 L1062.3 1186.5 Q1062.8 1186.5 1063 1186.53 Q1063.21 1186.55 1063.36 1186.66 Q1063.54 1186.77 1063.54 1187.02 Q1063.54 1187.65 1063.25 1187.81 Q1062.98 1187.95 1062.17 1187.95 L1058.2 1187.95 L1055.43 1202.58 Q1055.36 1203.01 1055.07 1204.36 Q1054.8 1205.69 1054.14 1207.88 Q1053.49 1210.09 1052.84 1211.39 Q1052.47 1212.14 1052 1212.84 Q1051.55 1213.56 1050.9 1214.28 Q1050.24 1215 1049.39 1215.43 Q1048.53 1215.88 1047.63 1215.88 Q1046.09 1215.88 1044.9 1215.02 Q1043.7 1214.17 1043.7 1212.7 Q1043.7 1211.46 1044.47 1210.69 Q1045.26 1209.93 1046.23 1209.93 Q1046.93 1209.93 1047.42 1210.36 Q1047.94 1210.78 1047.94 1211.53 Q1047.94 1211.84 1047.83 1212.2 Q1047.72 1212.57 1047.47 1212.97 Q1047.22 1213.4 1046.68 1213.69 Q1046.14 1213.99 1045.4 1214.03 Q1046.27 1214.86 1047.63 1214.86 Q1048.06 1214.86 1048.44 1214.68 Q1048.82 1214.53 1049.14 1214.12 Q1049.48 1213.72 1049.72 1213.31 Q1049.97 1212.93 1050.22 1212.18 Q1050.47 1211.46 1050.63 1210.92 Q1050.78 1210.38 1050.99 1209.41 Q1051.21 1208.44 1051.32 1207.85 Q1051.44 1207.29 1051.64 1206.19 L1055.09 1187.95 L1052.05 1187.95 Q1051.51 1187.95 1051.28 1187.92 Q1051.08 1187.9 1050.92 1187.79 Q1050.76 1187.65 1050.76 1187.38 Q1050.76 1186.96 1050.94 1186.77 Q1051.14 1186.57 1051.37 1186.55 Q1051.6 1186.5 1052.14 1186.5 L1055.34 1186.5 Q1056.42 1180.8 1056.85 1179.27 Q1057.34 1177.64 1058.11 1176.52 Q1058.88 1175.37 1059.73 1174.83 Q1060.59 1174.29 1061.29 1174.08 Q1062.01 1173.86 1062.71 1173.86 Q1064.29 1173.86 1065.5 1174.71 Q1066.72 1175.55 1066.72 1177.04 Z" fill="#000000" fill-rule="nonzero" fill-opacity="1" /><polyline clip-path="url(#clip180)" style="stroke:#000000; stroke-linecap:round; stroke-linejoin:round; stroke-width:4; stroke-opacity:1; fill:none" points="143.478,1066.65 143.478,47.2441 "/>
<polyline clip-path="url(#clip180)" style="stroke:#000000; stroke-linecap:round; stroke-linejoin:round; stroke-width:4; stroke-opacity:1; fill:none" points="143.478,846.955 162.376,846.955 "/>
<polyline clip-path="url(#clip180)" style="stroke:#000000; stroke-linecap:round; stroke-linejoin:round; stroke-width:4; stroke-opacity:1; fill:none" points="143.478,586.73 162.376,586.73 "/>
<polyline clip-path="url(#clip180)" style="stroke:#000000; stroke-linecap:round; stroke-linejoin:round; stroke-width:4; stroke-opacity:1; fill:none" points="143.478,326.506 162.376,326.506 "/>
<polyline clip-path="url(#clip180)" style="stroke:#000000; stroke-linecap:round; stroke-linejoin:round; stroke-width:4; stroke-opacity:1; fill:none" points="143.478,66.2819 162.376,66.2819 "/>
<path clip-path="url(#clip180)" d="M52.9921 847.406 L82.6679 847.406 L82.6679 851.341 L52.9921 851.341 L52.9921 847.406 Z" fill="#000000" fill-rule="nonzero" fill-opacity="1" /><path clip-path="url(#clip180)" d="M93.5706 860.3 L101.209 860.3 L101.209 833.934 L92.8993 835.601 L92.8993 831.341 L101.163 829.675 L105.839 829.675 L105.839 860.3 L113.478 860.3 L113.478 864.235 L93.5706 864.235 L93.5706 860.3 Z" fill="#000000" fill-rule="nonzero" fill-opacity="1" /><path clip-path="url(#clip180)" d="M101.534 572.529 Q97.9224 572.529 96.0937 576.094 Q94.2882 579.636 94.2882 586.765 Q94.2882 593.872 96.0937 597.436 Q97.9224 600.978 101.534 600.978 Q105.168 600.978 106.973 597.436 Q108.802 593.872 108.802 586.765 Q108.802 579.636 106.973 576.094 Q105.168 572.529 101.534 572.529 M101.534 568.825 Q107.344 568.825 110.399 573.432 Q113.478 578.015 113.478 586.765 Q113.478 595.492 110.399 600.098 Q107.344 604.682 101.534 604.682 Q95.7234 604.682 92.6447 600.098 Q89.5892 595.492 89.5892 586.765 Q89.5892 578.015 92.6447 573.432 Q95.7234 568.825 101.534 568.825 Z" fill="#000000" fill-rule="nonzero" fill-opacity="1" /><path clip-path="url(#clip180)" d="M93.5706 339.851 L101.209 339.851 L101.209 313.485 L92.8993 315.152 L92.8993 310.893 L101.163 309.226 L105.839 309.226 L105.839 339.851 L113.478 339.851 L113.478 343.786 L93.5706 343.786 L93.5706 339.851 Z" fill="#000000" fill-rule="nonzero" fill-opacity="1" /><path clip-path="url(#clip180)" d="M97.1586 79.6268 L113.478 79.6268 L113.478 83.5619 L91.5336 83.5619 L91.5336 79.6268 Q94.1956 76.8721 98.7789 72.2425 Q103.385 67.5898 104.566 66.2472 Q106.811 63.7241 107.691 61.988 Q108.594 60.2287 108.594 58.5389 Q108.594 55.7843 106.649 54.0482 Q104.728 52.3121 101.626 52.3121 Q99.4271 52.3121 96.9734 53.076 Q94.5428 53.8399 91.7651 55.3908 L91.7651 50.6686 Q94.5891 49.5343 97.0428 48.9556 Q99.4965 48.3769 101.534 48.3769 Q106.904 48.3769 110.098 51.0621 Q113.293 53.7473 113.293 58.238 Q113.293 60.3676 112.483 62.2889 Q111.696 64.187 109.589 66.7796 Q109.01 67.4509 105.909 70.6685 Q102.807 73.8629 97.1586 79.6268 Z" fill="#000000" fill-rule="nonzero" fill-opacity="1" /><polyline clip-path="url(#clip181)" style="stroke:#0f6a81; stroke-linecap:round; stroke-linejoin:round; stroke-width:4; stroke-opacity:1; fill:none" points="194.684,76.0952 212.101,85.9085 229.518,95.7218 246.935,105.535 264.352,115.348 281.769,125.162 299.186,134.975 316.603,144.788 334.02,154.602 351.437,164.415 368.854,174.228 386.271,184.042 403.688,193.855 421.105,203.668 438.522,213.482 455.939,223.295 473.356,233.108 490.773,242.922 508.19,252.735 525.607,262.548 543.024,272.361 560.441,282.175 577.858,291.988 595.275,301.801 612.692,311.615 630.109,321.428 647.526,331.241 664.943,341.055 682.36,350.868 699.777,360.681 717.194,370.495 734.611,380.308 752.028,390.121 769.445,399.934 786.862,409.748 804.279,419.561 821.696,429.374 839.113,439.188 856.53,449.001 873.947,458.814 891.364,468.628 908.781,478.441 926.198,488.254 943.615,498.068 961.032,507.881 978.449,517.694 995.866,527.508 1013.28,537.321 1030.7,547.134 1048.12,556.947 1065.53,566.761 1082.95,576.574 1100.37,586.387 1117.78,596.201 1135.2,606.014 1152.62,615.827 1170.04,625.641 1187.45,635.454 1204.87,645.267 1222.29,655.081 1239.7,664.894 1257.12,674.707 1274.54,684.52 1291.95,694.334 1309.37,704.147 1326.79,713.96 1344.21,723.774 1361.62,733.587 1379.04,743.4 1396.46,753.214 1413.87,763.027 1431.29,772.84 1448.71,782.654 1466.12,792.467 1483.54,802.28 1500.96,812.094 1518.38,821.907 1535.79,831.72 1553.21,841.533 1570.63,851.347 1588.04,861.16 1605.46,870.973 1622.88,880.787 1640.29,890.6 1657.71,900.413 1675.13,910.227 1692.55,920.04 1709.96,929.853 1727.38,939.667 1744.8,949.48 1762.21,959.293 1779.63,969.106 1797.05,978.92 1814.46,988.733 1831.88,998.546 1849.3,1008.36 1866.72,1018.17 1884.13,1027.99 1901.55,1037.8 "/>
<polyline clip-path="url(#clip181)" style="stroke:#c2676d; stroke-linecap:round; stroke-linejoin:round; stroke-width:4; stroke-opacity:1; fill:none" stroke-dasharray="16, 10" points="194.684,202.238 212.101,208.082 229.518,213.925 246.935,219.769 264.352,225.613 281.769,231.457 299.186,237.301 316.603,243.145 334.02,248.988 351.437,254.832 368.854,260.676 386.271,266.52 403.688,272.364 421.105,278.207 438.522,284.051 455.939,289.895 473.356,295.739 490.773,301.583 508.19,307.426 525.607,313.27 543.024,319.114 560.441,324.958 577.858,330.802 595.275,336.645 612.692,342.489 630.109,348.333 647.526,354.177 664.943,360.021 682.36,365.865 699.777,371.708 717.194,377.552 734.611,383.396 752.028,389.24 769.445,395.084 786.862,400.927 804.279,406.771 821.696,412.615 839.113,418.459 856.53,424.303 873.947,430.146 891.364,435.99 908.781,441.834 926.198,447.678 943.615,453.522 961.032,459.365 978.449,465.209 995.866,471.053 1013.28,476.897 1030.7,482.741 1048.12,488.585 1065.53,494.428 1082.95,500.272 1100.37,506.116 1117.78,511.96 1135.2,517.804 1152.62,523.647 1170.04,529.491 1187.45,535.335 1204.87,541.179 1222.29,547.023 1239.7,552.866 1257.12,558.71 1274.54,564.554 1291.95,570.398 1309.37,576.242 1326.79,582.085 1344.21,587.929 1361.62,593.773 1379.04,599.617 1396.46,605.461 1413.87,611.305 1431.29,617.148 1448.71,622.992 1466.12,628.836 1483.54,634.68 1500.96,640.524 1518.38,646.367 1535.79,652.211 1553.21,658.055 1570.63,663.899 1588.04,669.743 1605.46,675.586 1622.88,681.43 1640.29,687.274 1657.71,693.118 1675.13,698.962 1692.55,704.805 1709.96,710.649 1727.38,716.493 1744.8,722.337 1762.21,728.181 1779.63,734.025 1797.05,739.868 1814.46,745.712 1831.88,751.556 1849.3,757.4 1866.72,763.244 1884.13,769.087 1901.55,774.931 "/>
<polyline clip-path="url(#clip181)" style="stroke:#995041; stroke-linecap:round; stroke-linejoin:round; stroke-width:4; stroke-opacity:1; fill:none" stroke-dasharray="2, 4" points="194.684,302.298 212.101,304.111 229.518,305.925 246.935,307.739 264.352,309.553 281.769,311.367 299.186,313.18 316.603,314.994 334.02,316.808 351.437,318.622 368.854,320.436 386.271,322.249 403.688,324.063 421.105,325.877 438.522,327.691 455.939,329.505 473.356,331.318 490.773,333.132 508.19,334.946 525.607,336.76 543.024,338.574 560.441,340.387 577.858,342.201 595.275,344.015 612.692,345.829 630.109,347.643 647.526,349.456 664.943,351.27 682.36,353.084 699.777,354.898 717.194,356.712 734.611,358.525 752.028,360.339 769.445,362.153 786.862,363.967 804.279,365.781 821.696,367.594 839.113,369.408 856.53,371.222 873.947,373.036 891.364,374.85 908.781,376.663 926.198,378.477 943.615,380.291 961.032,382.105 978.449,383.919 995.866,385.732 1013.28,387.546 1030.7,389.36 1048.12,391.174 1065.53,392.988 1082.95,394.801 1100.37,396.615 1117.78,398.429 1135.2,400.243 1152.62,402.057 1170.04,403.87 1187.45,405.684 1204.87,407.498 1222.29,409.312 1239.7,411.126 1257.12,412.939 1274.54,414.753 1291.95,416.567 1309.37,418.381 1326.79,420.195 1344.21,422.008 1361.62,423.822 1379.04,425.636 1396.46,427.45 1413.87,429.264 1431.29,431.077 1448.71,432.891 1466.12,434.705 1483.54,436.519 1500.96,438.333 1518.38,440.146 1535.79,441.96 1553.21,443.774 1570.63,445.588 1588.04,447.402 1605.46,449.215 1622.88,451.029 1640.29,452.843 1657.71,454.657 1675.13,456.471 1692.55,458.285 1709.96,460.098 1727.38,461.912 1744.8,463.726 1762.21,465.54 1779.63,467.354 1797.05,469.167 1814.46,470.981 1831.88,472.795 1849.3,474.609 1866.72,476.423 1884.13,478.236 1901.55,480.05 "/>
<polyline clip-path="url(#clip181)" style="stroke:#000000; stroke-linecap:round; stroke-linejoin:round; stroke-width:8; stroke-opacity:1; fill:none" points="-1665.8,586.73 3762.03,586.73 "/>
<path clip-path="url(#clip180)" d="M1528.95 293.477 L1892.45 293.477 L1892.45 81.2243 L1528.95 81.2243  Z" fill="#ffffff" fill-rule="evenodd" fill-opacity="1"/>
<polyline clip-path="url(#clip180)" style="stroke:#000000; stroke-linecap:round; stroke-linejoin:round; stroke-width:4; stroke-opacity:1; fill:none" points="1528.95,293.477 1892.45,293.477 1892.45,81.2243 1528.95,81.2243 1528.95,293.477 "/>
<polyline clip-path="url(#clip180)" style="stroke:#0f6a81; stroke-linecap:round; stroke-linejoin:round; stroke-width:4; stroke-opacity:1; fill:none" points="1549.05,134.288 1669.67,134.288 "/>
<path clip-path="url(#clip180)" d="M1721.53 121.549 Q1721.53 123.352 1720.55 127.334 Q1719.57 131.316 1718.37 134.033 Q1715.82 139.935 1711.41 139.935 Q1710.88 139.935 1710.34 139.888 Q1709.82 139.842 1709.05 139.631 Q1708.28 139.42 1707.64 139.092 Q1707.01 138.741 1706.38 138.085 Q1705.77 137.429 1705.42 136.562 Q1703.47 139.935 1700.43 139.935 Q1697.48 139.935 1695.53 138.436 Q1693.61 136.937 1693.61 133.869 Q1693.61 132.487 1694.18 130.449 Q1694.74 128.411 1696.31 124.195 Q1697.17 122.017 1697.17 120.823 Q1697.17 120.284 1697.06 119.933 Q1696.94 119.581 1696.71 119.464 Q1696.49 119.324 1696.35 119.3 Q1696.21 119.253 1695.98 119.253 Q1694.57 119.253 1693.31 120.682 Q1692.04 122.087 1691.13 125.203 Q1690.94 125.788 1690.83 125.929 Q1690.71 126.069 1690.36 126.069 Q1689.77 126.046 1689.77 125.577 Q1689.77 125.39 1689.98 124.664 Q1690.19 123.914 1690.69 122.813 Q1691.2 121.689 1691.9 120.682 Q1692.61 119.651 1693.71 118.925 Q1694.83 118.199 1696.12 118.199 Q1697.85 118.199 1698.95 119.347 Q1700.05 120.495 1700.05 122.134 Q1700.05 122.603 1699.94 123.118 Q1699.82 123.61 1699.7 123.938 Q1699.61 124.242 1699.24 125.203 Q1697.69 129.255 1697.2 131.199 Q1696.73 133.143 1696.73 134.501 Q1696.73 134.946 1696.75 135.298 Q1696.78 135.649 1696.96 136.375 Q1697.17 137.101 1697.55 137.593 Q1697.92 138.062 1698.7 138.46 Q1699.49 138.858 1700.57 138.858 Q1703.26 138.858 1705 134.829 Q1704.95 134.595 1704.95 133.986 Q1704.95 132.627 1705.37 130.801 Q1705.49 130.379 1706.17 127.685 Q1706.85 124.968 1707.43 122.603 Q1708.04 120.214 1708.11 120.073 Q1708.35 119.417 1708.86 119.066 Q1709.38 118.715 1709.89 118.715 Q1710.48 118.715 1710.88 119.066 Q1711.27 119.417 1711.27 120.026 Q1711.27 120.143 1711.13 120.682 Q1711.02 121.197 1710.83 121.97 Q1710.64 122.743 1710.55 123.141 L1708.53 131.199 Q1708.02 133.073 1708.02 134.689 Q1708.02 136.726 1708.93 137.804 Q1709.85 138.858 1711.56 138.858 Q1714.76 138.858 1716.83 134.642 Q1717.76 132.815 1718.61 129.957 Q1719.47 127.1 1719.47 125.858 Q1719.47 123.516 1717.74 121.783 Q1717.36 121.455 1717.2 121.197 Q1717.04 120.916 1717.04 120.495 Q1717.04 119.698 1717.79 118.949 Q1718.54 118.199 1719.43 118.199 Q1720.22 118.199 1720.88 118.996 Q1721.53 119.769 1721.53 121.549 Z" fill="#000000" fill-rule="nonzero" fill-opacity="1" /><path clip-path="url(#clip180)" d="M1743.09 132.638 Q1743.09 133.54 1742.52 134.097 Q1741.96 134.655 1741.25 134.655 Q1740.75 134.655 1740.37 134.343 Q1740.01 134.032 1740.01 133.49 Q1740.01 132.933 1740.43 132.343 Q1740.86 131.753 1741.83 131.671 Q1741.19 131.064 1740.17 131.064 Q1739.66 131.064 1739.24 131.392 Q1738.83 131.703 1738.6 132.212 Q1738.35 132.736 1737.8 135.704 Q1737.61 136.671 1737.45 137.606 Q1737.29 138.54 1737.09 139.524 L1739.88 139.524 Q1740.24 139.524 1740.39 139.541 Q1740.53 139.557 1740.65 139.639 Q1740.78 139.721 1740.78 139.901 Q1740.78 140.36 1740.57 140.475 Q1740.37 140.573 1739.78 140.573 L1736.89 140.573 L1734.88 151.214 Q1734.83 151.526 1734.61 152.51 Q1734.42 153.477 1733.94 155.067 Q1733.47 156.674 1732.99 157.625 Q1732.73 158.166 1732.38 158.674 Q1732.06 159.199 1731.58 159.724 Q1731.11 160.248 1730.48 160.56 Q1729.86 160.888 1729.2 160.888 Q1728.09 160.888 1727.22 160.265 Q1726.35 159.642 1726.35 158.576 Q1726.35 157.674 1726.91 157.117 Q1727.48 156.559 1728.19 156.559 Q1728.7 156.559 1729.06 156.871 Q1729.43 157.182 1729.43 157.723 Q1729.43 157.953 1729.35 158.215 Q1729.27 158.478 1729.09 158.773 Q1728.91 159.084 1728.52 159.297 Q1728.12 159.51 1727.58 159.543 Q1728.22 160.15 1729.2 160.15 Q1729.52 160.15 1729.79 160.019 Q1730.07 159.904 1730.3 159.609 Q1730.55 159.314 1730.73 159.019 Q1730.91 158.74 1731.09 158.199 Q1731.27 157.674 1731.38 157.281 Q1731.5 156.887 1731.65 156.182 Q1731.81 155.477 1731.89 155.051 Q1731.97 154.641 1732.12 153.838 L1734.63 140.573 L1732.42 140.573 Q1732.02 140.573 1731.86 140.557 Q1731.71 140.541 1731.6 140.459 Q1731.48 140.36 1731.48 140.164 Q1731.48 139.852 1731.61 139.721 Q1731.76 139.573 1731.93 139.557 Q1732.09 139.524 1732.48 139.524 L1734.81 139.524 Q1735.6 135.376 1735.91 134.261 Q1736.27 133.081 1736.83 132.261 Q1737.39 131.425 1738.01 131.031 Q1738.63 130.638 1739.14 130.49 Q1739.66 130.326 1740.17 130.326 Q1741.32 130.326 1742.21 130.949 Q1743.09 131.556 1743.09 132.638 Z" fill="#000000" fill-rule="nonzero" fill-opacity="1" /><path clip-path="url(#clip180)" d="M1761.36 132.112 Q1761.41 131.527 1762.32 131.527 L1791.72 131.527 Q1793.1 131.527 1793.12 132.065 Q1793.12 132.651 1791.81 132.627 L1762.65 132.627 Q1761.36 132.651 1761.36 132.112 M1761.36 122.743 Q1761.36 122.158 1762.37 122.181 L1791.67 122.181 Q1793.1 122.181 1793.12 122.743 Q1793.12 123.282 1791.9 123.282 L1762.32 123.282 Q1761.36 123.282 1761.36 122.743 Z" fill="#000000" fill-rule="nonzero" fill-opacity="1" /><path clip-path="url(#clip180)" d="M1811.63 112.016 L1811.63 110.517 Q1817.39 110.517 1820.37 107.448 Q1821.19 107.448 1821.33 107.636 Q1821.47 107.823 1821.47 108.69 L1821.47 135.602 Q1821.47 137.031 1822.17 137.476 Q1822.87 137.921 1825.94 137.921 L1827.46 137.921 L1827.46 139.397 Q1825.78 139.256 1819.69 139.256 Q1813.6 139.256 1811.93 139.397 L1811.93 137.921 L1813.46 137.921 Q1816.48 137.921 1817.2 137.499 Q1817.93 137.054 1817.93 135.602 L1817.93 110.751 Q1815.42 112.016 1811.63 112.016 Z" fill="#000000" fill-rule="nonzero" fill-opacity="1" /><path clip-path="url(#clip180)" d="M1831.22 138.624 Q1830.49 137.851 1830.49 136.844 Q1830.49 135.836 1831.22 135.11 Q1831.94 134.361 1833.04 134.361 Q1834.1 134.361 1834.8 135.063 Q1835.53 135.743 1835.53 136.867 Q1835.53 137.968 1834.75 138.694 Q1834 139.397 1833.04 139.397 Q1831.94 139.397 1831.22 138.624 Z" fill="#000000" fill-rule="nonzero" fill-opacity="1" /><path clip-path="url(#clip180)" d="M1843.69 124.055 Q1843.69 117.005 1845.47 113.163 Q1847.95 107.448 1853.81 107.448 Q1855.05 107.448 1856.34 107.8 Q1857.65 108.128 1859.29 109.416 Q1860.95 110.704 1861.96 112.812 Q1863.88 116.888 1863.88 124.055 Q1863.88 131.058 1862.1 134.876 Q1859.5 140.451 1853.76 140.451 Q1851.61 140.451 1849.41 139.35 Q1847.23 138.249 1845.85 135.602 Q1843.69 131.644 1843.69 124.055 M1847.67 123.469 Q1847.67 130.707 1848.19 133.588 Q1848.77 136.703 1850.37 138.062 Q1851.98 139.397 1853.76 139.397 Q1855.68 139.397 1857.28 137.968 Q1858.89 136.516 1859.38 133.4 Q1859.92 130.332 1859.9 123.469 Q1859.9 116.794 1859.43 114.124 Q1858.8 111.009 1857.11 109.767 Q1855.45 108.502 1853.76 108.502 Q1853.13 108.502 1852.45 108.69 Q1851.8 108.877 1850.84 109.416 Q1849.87 109.955 1849.13 111.29 Q1848.4 112.625 1848.05 114.639 Q1847.67 117.239 1847.67 123.469 Z" fill="#000000" fill-rule="nonzero" fill-opacity="1" /><polyline clip-path="url(#clip180)" style="stroke:#c2676d; stroke-linecap:round; stroke-linejoin:round; stroke-width:4; stroke-opacity:1; fill:none" stroke-dasharray="16, 10" points="1549.05,187.351 1669.67,187.351 "/>
<path clip-path="url(#clip180)" d="M1721.53 174.612 Q1721.53 176.415 1720.55 180.397 Q1719.57 184.379 1718.37 187.096 Q1715.82 192.999 1711.41 192.999 Q1710.88 192.999 1710.34 192.952 Q1709.82 192.905 1709.05 192.694 Q1708.28 192.483 1707.64 192.155 Q1707.01 191.804 1706.38 191.148 Q1705.77 190.492 1705.42 189.626 Q1703.47 192.999 1700.43 192.999 Q1697.48 192.999 1695.53 191.5 Q1693.61 190.001 1693.61 186.932 Q1693.61 185.55 1694.18 183.512 Q1694.74 181.475 1696.31 177.259 Q1697.17 175.08 1697.17 173.886 Q1697.17 173.347 1697.06 172.996 Q1696.94 172.644 1696.71 172.527 Q1696.49 172.387 1696.35 172.363 Q1696.21 172.317 1695.98 172.317 Q1694.57 172.317 1693.31 173.745 Q1692.04 175.151 1691.13 178.266 Q1690.94 178.851 1690.83 178.992 Q1690.71 179.132 1690.36 179.132 Q1689.77 179.109 1689.77 178.641 Q1689.77 178.453 1689.98 177.727 Q1690.19 176.978 1690.69 175.877 Q1691.2 174.752 1691.9 173.745 Q1692.61 172.715 1693.71 171.989 Q1694.83 171.263 1696.12 171.263 Q1697.85 171.263 1698.95 172.41 Q1700.05 173.558 1700.05 175.198 Q1700.05 175.666 1699.94 176.181 Q1699.82 176.673 1699.7 177.001 Q1699.61 177.306 1699.24 178.266 Q1697.69 182.318 1697.2 184.262 Q1696.73 186.206 1696.73 187.565 Q1696.73 188.01 1696.75 188.361 Q1696.78 188.712 1696.96 189.438 Q1697.17 190.164 1697.55 190.656 Q1697.92 191.125 1698.7 191.523 Q1699.49 191.921 1700.57 191.921 Q1703.26 191.921 1705 187.892 Q1704.95 187.658 1704.95 187.049 Q1704.95 185.691 1705.37 183.864 Q1705.49 183.442 1706.17 180.749 Q1706.85 178.032 1707.43 175.666 Q1708.04 173.277 1708.11 173.136 Q1708.35 172.481 1708.86 172.129 Q1709.38 171.778 1709.89 171.778 Q1710.48 171.778 1710.88 172.129 Q1711.27 172.481 1711.27 173.09 Q1711.27 173.207 1711.13 173.745 Q1711.02 174.261 1710.83 175.034 Q1710.64 175.807 1710.55 176.205 L1708.53 184.262 Q1708.02 186.136 1708.02 187.752 Q1708.02 189.79 1708.93 190.867 Q1709.85 191.921 1711.56 191.921 Q1714.76 191.921 1716.83 187.705 Q1717.76 185.878 1718.61 183.021 Q1719.47 180.163 1719.47 178.922 Q1719.47 176.579 1717.74 174.846 Q1717.36 174.518 1717.2 174.261 Q1717.04 173.98 1717.04 173.558 Q1717.04 172.762 1717.79 172.012 Q1718.54 171.263 1719.43 171.263 Q1720.22 171.263 1720.88 172.059 Q1721.53 172.832 1721.53 174.612 Z" fill="#000000" fill-rule="nonzero" fill-opacity="1" /><path clip-path="url(#clip180)" d="M1743.09 185.701 Q1743.09 186.603 1742.52 187.16 Q1741.96 187.718 1741.25 187.718 Q1740.75 187.718 1740.37 187.406 Q1740.01 187.095 1740.01 186.554 Q1740.01 185.996 1740.43 185.406 Q1740.86 184.816 1741.83 184.734 Q1741.19 184.127 1740.17 184.127 Q1739.66 184.127 1739.24 184.455 Q1738.83 184.767 1738.6 185.275 Q1738.35 185.8 1737.8 188.767 Q1737.61 189.735 1737.45 190.669 Q1737.29 191.604 1737.09 192.587 L1739.88 192.587 Q1740.24 192.587 1740.39 192.604 Q1740.53 192.62 1740.65 192.702 Q1740.78 192.784 1740.78 192.965 Q1740.78 193.424 1740.57 193.538 Q1740.37 193.637 1739.78 193.637 L1736.89 193.637 L1734.88 204.278 Q1734.83 204.589 1734.61 205.573 Q1734.42 206.54 1733.94 208.131 Q1733.47 209.737 1732.99 210.688 Q1732.73 211.229 1732.38 211.738 Q1732.06 212.262 1731.58 212.787 Q1731.11 213.312 1730.48 213.623 Q1729.86 213.951 1729.2 213.951 Q1728.09 213.951 1727.22 213.328 Q1726.35 212.705 1726.35 211.639 Q1726.35 210.737 1726.91 210.18 Q1727.48 209.623 1728.19 209.623 Q1728.7 209.623 1729.06 209.934 Q1729.43 210.246 1729.43 210.787 Q1729.43 211.016 1729.35 211.279 Q1729.27 211.541 1729.09 211.836 Q1728.91 212.147 1728.52 212.361 Q1728.12 212.574 1727.58 212.607 Q1728.22 213.213 1729.2 213.213 Q1729.52 213.213 1729.79 213.082 Q1730.07 212.967 1730.3 212.672 Q1730.55 212.377 1730.73 212.082 Q1730.91 211.803 1731.09 211.262 Q1731.27 210.737 1731.38 210.344 Q1731.5 209.95 1731.65 209.245 Q1731.81 208.54 1731.89 208.114 Q1731.97 207.704 1732.12 206.901 L1734.63 193.637 L1732.42 193.637 Q1732.02 193.637 1731.86 193.62 Q1731.71 193.604 1731.6 193.522 Q1731.48 193.424 1731.48 193.227 Q1731.48 192.915 1731.61 192.784 Q1731.76 192.637 1731.93 192.62 Q1732.09 192.587 1732.48 192.587 L1734.81 192.587 Q1735.6 188.439 1735.91 187.324 Q1736.27 186.144 1736.83 185.324 Q1737.39 184.488 1738.01 184.094 Q1738.63 183.701 1739.14 183.553 Q1739.66 183.389 1740.17 183.389 Q1741.32 183.389 1742.21 184.012 Q1743.09 184.619 1743.09 185.701 Z" fill="#000000" fill-rule="nonzero" fill-opacity="1" /><path clip-path="url(#clip180)" d="M1761.36 185.175 Q1761.41 184.59 1762.32 184.59 L1791.72 184.59 Q1793.1 184.59 1793.12 185.129 Q1793.12 185.714 1791.81 185.691 L1762.65 185.691 Q1761.36 185.714 1761.36 185.175 M1761.36 175.807 Q1761.36 175.221 1762.37 175.244 L1791.67 175.244 Q1793.1 175.244 1793.12 175.807 Q1793.12 176.345 1791.9 176.345 L1762.32 176.345 Q1761.36 176.345 1761.36 175.807 Z" fill="#000000" fill-rule="nonzero" fill-opacity="1" /><path clip-path="url(#clip180)" d="M1811.63 177.118 Q1811.63 170.068 1813.41 166.227 Q1815.89 160.512 1821.75 160.512 Q1822.99 160.512 1824.28 160.863 Q1825.59 161.191 1827.23 162.479 Q1828.89 163.767 1829.9 165.875 Q1831.82 169.951 1831.82 177.118 Q1831.82 184.121 1830.04 187.939 Q1827.44 193.514 1821.7 193.514 Q1819.55 193.514 1817.34 192.413 Q1815.17 191.312 1813.78 188.665 Q1811.63 184.707 1811.63 177.118 M1815.61 176.533 Q1815.61 183.77 1816.13 186.651 Q1816.71 189.766 1818.31 191.125 Q1819.92 192.46 1821.7 192.46 Q1823.62 192.46 1825.21 191.031 Q1826.83 189.579 1827.32 186.464 Q1827.86 183.395 1827.84 176.533 Q1827.84 169.857 1827.37 167.187 Q1826.74 164.072 1825.05 162.83 Q1823.39 161.566 1821.7 161.566 Q1821.07 161.566 1820.39 161.753 Q1819.73 161.94 1818.77 162.479 Q1817.81 163.018 1817.06 164.353 Q1816.34 165.688 1815.99 167.702 Q1815.61 170.302 1815.61 176.533 Z" fill="#000000" fill-rule="nonzero" fill-opacity="1" /><path clip-path="url(#clip180)" d="M1836.11 191.687 Q1835.39 190.914 1835.39 189.907 Q1835.39 188.9 1836.11 188.174 Q1836.84 187.424 1837.94 187.424 Q1838.99 187.424 1839.7 188.127 Q1840.42 188.806 1840.42 189.93 Q1840.42 191.031 1839.65 191.757 Q1838.9 192.46 1837.94 192.46 Q1836.84 192.46 1836.11 191.687 Z" fill="#000000" fill-rule="nonzero" fill-opacity="1" /><path clip-path="url(#clip180)" d="M1848.59 184.73 Q1848.59 183.302 1849.36 182.763 Q1850.13 182.201 1850.95 182.201 Q1852.05 182.201 1852.69 182.904 Q1853.34 183.583 1853.34 184.543 Q1853.34 185.503 1852.69 186.206 Q1852.05 186.885 1850.95 186.885 Q1850.41 186.885 1850.13 186.792 Q1850.77 188.993 1852.69 190.586 Q1854.63 192.179 1857.18 192.179 Q1860.39 192.179 1862.31 189.064 Q1863.46 187.049 1863.46 182.482 Q1863.46 178.453 1862.59 176.439 Q1861.26 173.371 1858.52 173.371 Q1854.63 173.371 1852.33 176.72 Q1852.05 177.142 1851.73 177.165 Q1851.26 177.165 1851.14 176.907 Q1851.05 176.626 1851.05 175.9 L1851.05 161.706 Q1851.05 160.558 1851.51 160.558 Q1851.7 160.558 1852.1 160.699 Q1855.12 162.034 1858.47 162.058 Q1861.91 162.058 1865.01 160.652 Q1865.24 160.512 1865.38 160.512 Q1865.85 160.512 1865.87 161.05 Q1865.87 161.238 1865.47 161.8 Q1865.1 162.339 1864.28 163.065 Q1863.46 163.767 1862.41 164.447 Q1861.35 165.126 1859.81 165.594 Q1858.28 166.039 1856.6 166.039 Q1854.58 166.039 1852.52 165.407 L1852.52 174.752 Q1855 172.317 1858.61 172.317 Q1862.45 172.317 1865.1 175.408 Q1867.75 178.5 1867.75 182.81 Q1867.75 187.33 1864.61 190.422 Q1861.49 193.514 1857.28 193.514 Q1853.44 193.514 1851 190.773 Q1848.59 188.033 1848.59 184.73 Z" fill="#000000" fill-rule="nonzero" fill-opacity="1" /><polyline clip-path="url(#clip180)" style="stroke:#995041; stroke-linecap:round; stroke-linejoin:round; stroke-width:4; stroke-opacity:1; fill:none" stroke-dasharray="2, 4" points="1549.05,240.414 1669.67,240.414 "/>
<path clip-path="url(#clip180)" d="M1721.53 227.675 Q1721.53 229.479 1720.55 233.461 Q1719.57 237.442 1718.37 240.159 Q1715.82 246.062 1711.41 246.062 Q1710.88 246.062 1710.34 246.015 Q1709.82 245.968 1709.05 245.757 Q1708.28 245.547 1707.64 245.219 Q1707.01 244.867 1706.38 244.211 Q1705.77 243.556 1705.42 242.689 Q1703.47 246.062 1700.43 246.062 Q1697.48 246.062 1695.53 244.563 Q1693.61 243.064 1693.61 239.995 Q1693.61 238.614 1694.18 236.576 Q1694.74 234.538 1696.31 230.322 Q1697.17 228.144 1697.17 226.949 Q1697.17 226.41 1697.06 226.059 Q1696.94 225.708 1696.71 225.591 Q1696.49 225.45 1696.35 225.427 Q1696.21 225.38 1695.98 225.38 Q1694.57 225.38 1693.31 226.809 Q1692.04 228.214 1691.13 231.329 Q1690.94 231.915 1690.83 232.055 Q1690.71 232.196 1690.36 232.196 Q1689.77 232.172 1689.77 231.704 Q1689.77 231.517 1689.98 230.79 Q1690.19 230.041 1690.69 228.94 Q1691.2 227.816 1691.9 226.809 Q1692.61 225.778 1693.71 225.052 Q1694.83 224.326 1696.12 224.326 Q1697.85 224.326 1698.95 225.474 Q1700.05 226.621 1700.05 228.261 Q1700.05 228.729 1699.94 229.245 Q1699.82 229.736 1699.7 230.064 Q1699.61 230.369 1699.24 231.329 Q1697.69 235.381 1697.2 237.325 Q1696.73 239.269 1696.73 240.628 Q1696.73 241.073 1696.75 241.424 Q1696.78 241.776 1696.96 242.502 Q1697.17 243.228 1697.55 243.72 Q1697.92 244.188 1698.7 244.586 Q1699.49 244.984 1700.57 244.984 Q1703.26 244.984 1705 240.956 Q1704.95 240.722 1704.95 240.113 Q1704.95 238.754 1705.37 236.927 Q1705.49 236.506 1706.17 233.812 Q1706.85 231.095 1707.43 228.729 Q1708.04 226.34 1708.11 226.2 Q1708.35 225.544 1708.86 225.192 Q1709.38 224.841 1709.89 224.841 Q1710.48 224.841 1710.88 225.192 Q1711.27 225.544 1711.27 226.153 Q1711.27 226.27 1711.13 226.809 Q1711.02 227.324 1710.83 228.097 Q1710.64 228.87 1710.55 229.268 L1708.53 237.325 Q1708.02 239.199 1708.02 240.815 Q1708.02 242.853 1708.93 243.93 Q1709.85 244.984 1711.56 244.984 Q1714.76 244.984 1716.83 240.768 Q1717.76 238.941 1718.61 236.084 Q1719.47 233.226 1719.47 231.985 Q1719.47 229.643 1717.74 227.909 Q1717.36 227.582 1717.2 227.324 Q1717.04 227.043 1717.04 226.621 Q1717.04 225.825 1717.79 225.075 Q1718.54 224.326 1719.43 224.326 Q1720.22 224.326 1720.88 225.122 Q1721.53 225.895 1721.53 227.675 Z" fill="#000000" fill-rule="nonzero" fill-opacity="1" /><path clip-path="url(#clip180)" d="M1743.09 238.764 Q1743.09 239.666 1742.52 240.224 Q1741.96 240.781 1741.25 240.781 Q1740.75 240.781 1740.37 240.47 Q1740.01 240.158 1740.01 239.617 Q1740.01 239.06 1740.43 238.469 Q1740.86 237.879 1741.83 237.797 Q1741.19 237.19 1740.17 237.19 Q1739.66 237.19 1739.24 237.518 Q1738.83 237.83 1738.6 238.338 Q1738.35 238.863 1737.8 241.83 Q1737.61 242.798 1737.45 243.732 Q1737.29 244.667 1737.09 245.651 L1739.88 245.651 Q1740.24 245.651 1740.39 245.667 Q1740.53 245.683 1740.65 245.765 Q1740.78 245.847 1740.78 246.028 Q1740.78 246.487 1740.57 246.602 Q1740.37 246.7 1739.78 246.7 L1736.89 246.7 L1734.88 257.341 Q1734.83 257.652 1734.61 258.636 Q1734.42 259.603 1733.94 261.194 Q1733.47 262.801 1732.99 263.752 Q1732.73 264.293 1732.38 264.801 Q1732.06 265.326 1731.58 265.85 Q1731.11 266.375 1730.48 266.686 Q1729.86 267.014 1729.2 267.014 Q1728.09 267.014 1727.22 266.391 Q1726.35 265.768 1726.35 264.702 Q1726.35 263.801 1726.91 263.243 Q1727.48 262.686 1728.19 262.686 Q1728.7 262.686 1729.06 262.997 Q1729.43 263.309 1729.43 263.85 Q1729.43 264.079 1729.35 264.342 Q1729.27 264.604 1729.09 264.899 Q1728.91 265.211 1728.52 265.424 Q1728.12 265.637 1727.58 265.67 Q1728.22 266.276 1729.2 266.276 Q1729.52 266.276 1729.79 266.145 Q1730.07 266.031 1730.3 265.735 Q1730.55 265.44 1730.73 265.145 Q1730.91 264.866 1731.09 264.325 Q1731.27 263.801 1731.38 263.407 Q1731.5 263.014 1731.65 262.309 Q1731.81 261.604 1731.89 261.177 Q1731.97 260.768 1732.12 259.964 L1734.63 246.7 L1732.42 246.7 Q1732.02 246.7 1731.86 246.684 Q1731.71 246.667 1731.6 246.585 Q1731.48 246.487 1731.48 246.29 Q1731.48 245.979 1731.61 245.847 Q1731.76 245.7 1731.93 245.683 Q1732.09 245.651 1732.48 245.651 L1734.81 245.651 Q1735.6 241.503 1735.91 240.388 Q1736.27 239.207 1736.83 238.387 Q1737.39 237.551 1738.01 237.158 Q1738.63 236.764 1739.14 236.617 Q1739.66 236.453 1740.17 236.453 Q1741.32 236.453 1742.21 237.076 Q1743.09 237.682 1743.09 238.764 Z" fill="#000000" fill-rule="nonzero" fill-opacity="1" /><path clip-path="url(#clip180)" d="M1761.36 238.239 Q1761.41 237.653 1762.32 237.653 L1791.72 237.653 Q1793.1 237.653 1793.12 238.192 Q1793.12 238.777 1791.81 238.754 L1762.65 238.754 Q1761.36 238.777 1761.36 238.239 M1761.36 228.87 Q1761.36 228.284 1762.37 228.308 L1791.67 228.308 Q1793.1 228.308 1793.12 228.87 Q1793.12 229.409 1791.9 229.409 L1762.32 229.409 Q1761.36 229.409 1761.36 228.87 Z" fill="#000000" fill-rule="nonzero" fill-opacity="1" /><path clip-path="url(#clip180)" d="M1811.63 230.181 Q1811.63 223.131 1813.41 219.29 Q1815.89 213.575 1821.75 213.575 Q1822.99 213.575 1824.28 213.926 Q1825.59 214.254 1827.23 215.542 Q1828.89 216.831 1829.9 218.939 Q1831.82 223.014 1831.82 230.181 Q1831.82 237.185 1830.04 241.003 Q1827.44 246.577 1821.7 246.577 Q1819.55 246.577 1817.34 245.476 Q1815.17 244.375 1813.78 241.729 Q1811.63 237.77 1811.63 230.181 M1815.61 229.596 Q1815.61 236.833 1816.13 239.714 Q1816.71 242.83 1818.31 244.188 Q1819.92 245.523 1821.7 245.523 Q1823.62 245.523 1825.21 244.094 Q1826.83 242.642 1827.32 239.527 Q1827.86 236.459 1827.84 229.596 Q1827.84 222.92 1827.37 220.25 Q1826.74 217.135 1825.05 215.894 Q1823.39 214.629 1821.7 214.629 Q1821.07 214.629 1820.39 214.816 Q1819.73 215.004 1818.77 215.542 Q1817.81 216.081 1817.06 217.416 Q1816.34 218.751 1815.99 220.766 Q1815.61 223.366 1815.61 229.596 Z" fill="#000000" fill-rule="nonzero" fill-opacity="1" /><path clip-path="url(#clip180)" d="M1836.11 244.75 Q1835.39 243.977 1835.39 242.97 Q1835.39 241.963 1836.11 241.237 Q1836.84 240.487 1837.94 240.487 Q1838.99 240.487 1839.7 241.19 Q1840.42 241.869 1840.42 242.994 Q1840.42 244.094 1839.65 244.82 Q1838.9 245.523 1837.94 245.523 Q1836.84 245.523 1836.11 244.75 Z" fill="#000000" fill-rule="nonzero" fill-opacity="1" /><path clip-path="url(#clip180)" d="M1843.69 218.142 L1843.69 216.643 Q1849.45 216.643 1852.43 213.575 Q1853.25 213.575 1853.39 213.762 Q1853.53 213.95 1853.53 214.816 L1853.53 241.729 Q1853.53 243.157 1854.23 243.603 Q1854.93 244.048 1858 244.048 L1859.52 244.048 L1859.52 245.523 Q1857.84 245.383 1851.75 245.383 Q1845.66 245.383 1844 245.523 L1844 244.048 L1845.52 244.048 Q1848.54 244.048 1849.27 243.626 Q1849.99 243.181 1849.99 241.729 L1849.99 216.877 Q1847.49 218.142 1843.69 218.142 Z" fill="#000000" fill-rule="nonzero" fill-opacity="1" /></svg>
