<?xml version="1.0" encoding="utf-8"?>
<svg xmlns="http://www.w3.org/2000/svg" xmlns:xlink="http://www.w3.org/1999/xlink" width="500" height="309" viewBox="0 0 2000 1236">
<defs>
  <clipPath id="clip270">
    <rect x="0" y="0" width="2000" height="1236"/>
  </clipPath>
</defs>
<path clip-path="url(#clip270)" d="M0 1236 L2000 1236 L2000 1.24345e-14 L0 1.24345e-14  Z" fill="#ffffff" fill-rule="evenodd" fill-opacity="1"/>
<defs>
  <clipPath id="clip271">
    <rect x="400" y="0" width="1401" height="1236"/>
  </clipPath>
</defs>
<path clip-path="url(#clip270)" d="M174.867 1128.61 L1952.76 1128.61 L1952.76 47.2441 L174.867 47.2441  Z" fill="#ffffff" fill-rule="evenodd" fill-opacity="1"/>
<defs>
  <clipPath id="clip272">
    <rect x="174" y="47" width="1779" height="1082"/>
  </clipPath>
</defs>
<polyline clip-path="url(#clip272)" style="stroke:#000000; stroke-linecap:round; stroke-linejoin:round; stroke-width:2; stroke-opacity:0.1; fill:none" points="434.841,1128.61 434.841,47.2441 "/>
<polyline clip-path="url(#clip272)" style="stroke:#000000; stroke-linecap:round; stroke-linejoin:round; stroke-width:2; stroke-opacity:0.1; fill:none" points="854.155,1128.61 854.155,47.2441 "/>
<polyline clip-path="url(#clip272)" style="stroke:#000000; stroke-linecap:round; stroke-linejoin:round; stroke-width:2; stroke-opacity:0.1; fill:none" points="1273.47,1128.61 1273.47,47.2441 "/>
<polyline clip-path="url(#clip272)" style="stroke:#000000; stroke-linecap:round; stroke-linejoin:round; stroke-width:2; stroke-opacity:0.1; fill:none" points="1692.78,1128.61 1692.78,47.2441 "/>
<polyline clip-path="url(#clip272)" style="stroke:#000000; stroke-linecap:round; stroke-linejoin:round; stroke-width:2; stroke-opacity:0.1; fill:none" points="174.867,994.821 1952.76,994.821 "/>
<polyline clip-path="url(#clip272)" style="stroke:#000000; stroke-linecap:round; stroke-linejoin:round; stroke-width:2; stroke-opacity:0.1; fill:none" points="174.867,842.544 1952.76,842.544 "/>
<polyline clip-path="url(#clip272)" style="stroke:#000000; stroke-linecap:round; stroke-linejoin:round; stroke-width:2; stroke-opacity:0.1; fill:none" points="174.867,690.267 1952.76,690.267 "/>
<polyline clip-path="url(#clip272)" style="stroke:#000000; stroke-linecap:round; stroke-linejoin:round; stroke-width:2; stroke-opacity:0.1; fill:none" points="174.867,537.99 1952.76,537.99 "/>
<polyline clip-path="url(#clip272)" style="stroke:#000000; stroke-linecap:round; stroke-linejoin:round; stroke-width:2; stroke-opacity:0.1; fill:none" points="174.867,385.712 1952.76,385.712 "/>
<polyline clip-path="url(#clip272)" style="stroke:#000000; stroke-linecap:round; stroke-linejoin:round; stroke-width:2; stroke-opacity:0.1; fill:none" points="174.867,233.435 1952.76,233.435 "/>
<polyline clip-path="url(#clip272)" style="stroke:#000000; stroke-linecap:round; stroke-linejoin:round; stroke-width:2; stroke-opacity:0.1; fill:none" points="174.867,81.1581 1952.76,81.1581 "/>
<polyline clip-path="url(#clip270)" style="stroke:#000000; stroke-linecap:round; stroke-linejoin:round; stroke-width:4; stroke-opacity:1; fill:none" points="174.867,1128.61 1952.76,1128.61 "/>
<polyline clip-path="url(#clip270)" style="stroke:#000000; stroke-linecap:round; stroke-linejoin:round; stroke-width:4; stroke-opacity:1; fill:none" points="434.841,1128.61 434.841,1109.71 "/>
<polyline clip-path="url(#clip270)" style="stroke:#000000; stroke-linecap:round; stroke-linejoin:round; stroke-width:4; stroke-opacity:1; fill:none" points="854.155,1128.61 854.155,1109.71 "/>
<polyline clip-path="url(#clip270)" style="stroke:#000000; stroke-linecap:round; stroke-linejoin:round; stroke-width:4; stroke-opacity:1; fill:none" points="1273.47,1128.61 1273.47,1109.71 "/>
<polyline clip-path="url(#clip270)" style="stroke:#000000; stroke-linecap:round; stroke-linejoin:round; stroke-width:4; stroke-opacity:1; fill:none" points="1692.78,1128.61 1692.78,1109.71 "/>
<path clip-path="url(#clip270)" d="M413.024 1156.33 Q409.413 1156.33 407.584 1159.89 Q405.779 1163.44 405.779 1170.57 Q405.779 1177.67 407.584 1181.24 Q409.413 1184.78 413.024 1184.78 Q416.658 1184.78 418.464 1181.24 Q420.292 1177.67 420.292 1170.57 Q420.292 1163.44 418.464 1159.89 Q416.658 1156.33 413.024 1156.33 M413.024 1152.63 Q418.834 1152.63 421.89 1157.23 Q424.968 1161.82 424.968 1170.57 Q424.968 1179.29 421.89 1183.9 Q418.834 1188.48 413.024 1188.48 Q407.214 1188.48 404.135 1183.9 Q401.08 1179.29 401.08 1170.57 Q401.08 1161.82 404.135 1157.23 Q407.214 1152.63 413.024 1152.63 Z" fill="#000000" fill-rule="nonzero" fill-opacity="1" /><path clip-path="url(#clip270)" d="M433.186 1181.93 L438.07 1181.93 L438.07 1187.81 L433.186 1187.81 L433.186 1181.93 Z" fill="#000000" fill-rule="nonzero" fill-opacity="1" /><path clip-path="url(#clip270)" d="M452.283 1183.88 L468.602 1183.88 L468.602 1187.81 L446.658 1187.81 L446.658 1183.88 Q449.32 1181.12 453.903 1176.49 Q458.51 1171.84 459.69 1170.5 Q461.936 1167.97 462.815 1166.24 Q463.718 1164.48 463.718 1162.79 Q463.718 1160.03 461.774 1158.3 Q459.852 1156.56 456.751 1156.56 Q454.552 1156.56 452.098 1157.32 Q449.667 1158.09 446.89 1159.64 L446.89 1154.92 Q449.714 1153.78 452.167 1153.2 Q454.621 1152.63 456.658 1152.63 Q462.028 1152.63 465.223 1155.31 Q468.417 1158 468.417 1162.49 Q468.417 1164.62 467.607 1166.54 Q466.82 1168.44 464.714 1171.03 Q464.135 1171.7 461.033 1174.92 Q457.931 1178.11 452.283 1183.88 Z" fill="#000000" fill-rule="nonzero" fill-opacity="1" /><path clip-path="url(#clip270)" d="M831.296 1156.33 Q827.685 1156.33 825.856 1159.89 Q824.051 1163.44 824.051 1170.57 Q824.051 1177.67 825.856 1181.24 Q827.685 1184.78 831.296 1184.78 Q834.93 1184.78 836.736 1181.24 Q838.564 1177.67 838.564 1170.57 Q838.564 1163.44 836.736 1159.89 Q834.93 1156.33 831.296 1156.33 M831.296 1152.63 Q837.106 1152.63 840.162 1157.23 Q843.24 1161.82 843.24 1170.57 Q843.24 1179.29 840.162 1183.9 Q837.106 1188.48 831.296 1188.48 Q825.486 1188.48 822.407 1183.9 Q819.351 1179.29 819.351 1170.57 Q819.351 1161.82 822.407 1157.23 Q825.486 1152.63 831.296 1152.63 Z" fill="#000000" fill-rule="nonzero" fill-opacity="1" /><path clip-path="url(#clip270)" d="M851.458 1181.93 L856.342 1181.93 L856.342 1187.81 L851.458 1187.81 L851.458 1181.93 Z" fill="#000000" fill-rule="nonzero" fill-opacity="1" /><path clip-path="url(#clip270)" d="M879.374 1157.32 L867.569 1175.77 L879.374 1175.77 L879.374 1157.32 M878.147 1153.25 L884.027 1153.25 L884.027 1175.77 L888.958 1175.77 L888.958 1179.66 L884.027 1179.66 L884.027 1187.81 L879.374 1187.81 L879.374 1179.66 L863.773 1179.66 L863.773 1175.15 L878.147 1153.25 Z" fill="#000000" fill-rule="nonzero" fill-opacity="1" /><path clip-path="url(#clip270)" d="M1250.77 1156.33 Q1247.16 1156.33 1245.33 1159.89 Q1243.53 1163.44 1243.53 1170.57 Q1243.53 1177.67 1245.33 1181.24 Q1247.16 1184.78 1250.77 1184.78 Q1254.41 1184.78 1256.21 1181.24 Q1258.04 1177.67 1258.04 1170.57 Q1258.04 1163.44 1256.21 1159.89 Q1254.41 1156.33 1250.77 1156.33 M1250.77 1152.63 Q1256.58 1152.63 1259.64 1157.23 Q1262.72 1161.82 1262.72 1170.57 Q1262.72 1179.29 1259.64 1183.9 Q1256.58 1188.48 1250.77 1188.48 Q1244.96 1188.48 1241.88 1183.9 Q1238.83 1179.29 1238.83 1170.57 Q1238.83 1161.82 1241.88 1157.23 Q1244.96 1152.63 1250.77 1152.63 Z" fill="#000000" fill-rule="nonzero" fill-opacity="1" /><path clip-path="url(#clip270)" d="M1270.93 1181.93 L1275.82 1181.93 L1275.82 1187.81 L1270.93 1187.81 L1270.93 1181.93 Z" fill="#000000" fill-rule="nonzero" fill-opacity="1" /><path clip-path="url(#clip270)" d="M1296.58 1168.67 Q1293.43 1168.67 1291.58 1170.82 Q1289.75 1172.97 1289.75 1176.72 Q1289.75 1180.45 1291.58 1182.63 Q1293.43 1184.78 1296.58 1184.78 Q1299.73 1184.78 1301.56 1182.63 Q1303.41 1180.45 1303.41 1176.72 Q1303.41 1172.97 1301.56 1170.82 Q1299.73 1168.67 1296.58 1168.67 M1305.86 1154.01 L1305.86 1158.27 Q1304.1 1157.44 1302.3 1157 Q1300.52 1156.56 1298.76 1156.56 Q1294.13 1156.56 1291.67 1159.69 Q1289.24 1162.81 1288.9 1169.13 Q1290.26 1167.12 1292.32 1166.05 Q1294.38 1164.96 1296.86 1164.96 Q1302.07 1164.96 1305.08 1168.13 Q1308.11 1171.28 1308.11 1176.72 Q1308.11 1182.05 1304.96 1185.26 Q1301.81 1188.48 1296.58 1188.48 Q1290.59 1188.48 1287.41 1183.9 Q1284.24 1179.29 1284.24 1170.57 Q1284.24 1162.37 1288.13 1157.51 Q1292.02 1152.63 1298.57 1152.63 Q1300.33 1152.63 1302.11 1152.97 Q1303.92 1153.32 1305.86 1154.01 Z" fill="#000000" fill-rule="nonzero" fill-opacity="1" /><path clip-path="url(#clip270)" d="M1670.21 1156.33 Q1666.6 1156.33 1664.77 1159.89 Q1662.97 1163.44 1662.97 1170.57 Q1662.97 1177.67 1664.77 1181.24 Q1666.6 1184.78 1670.21 1184.78 Q1673.85 1184.78 1675.65 1181.24 Q1677.48 1177.67 1677.48 1170.57 Q1677.48 1163.44 1675.65 1159.89 Q1673.85 1156.33 1670.21 1156.33 M1670.21 1152.63 Q1676.02 1152.63 1679.08 1157.23 Q1682.16 1161.82 1682.16 1170.57 Q1682.16 1179.29 1679.08 1183.9 Q1676.02 1188.48 1670.21 1188.48 Q1664.4 1188.48 1661.32 1183.9 Q1658.27 1179.29 1658.27 1170.57 Q1658.27 1161.82 1661.32 1157.23 Q1664.4 1152.63 1670.21 1152.63 Z" fill="#000000" fill-rule="nonzero" fill-opacity="1" /><path clip-path="url(#clip270)" d="M1690.37 1181.93 L1695.26 1181.93 L1695.26 1187.81 L1690.37 1187.81 L1690.37 1181.93 Z" fill="#000000" fill-rule="nonzero" fill-opacity="1" /><path clip-path="url(#clip270)" d="M1715.44 1171.4 Q1712.11 1171.4 1710.19 1173.18 Q1708.29 1174.96 1708.29 1178.09 Q1708.29 1181.21 1710.19 1183 Q1712.11 1184.78 1715.44 1184.78 Q1718.78 1184.78 1720.7 1183 Q1722.62 1181.19 1722.62 1178.09 Q1722.62 1174.96 1720.7 1173.18 Q1718.8 1171.4 1715.44 1171.4 M1710.77 1169.41 Q1707.76 1168.67 1706.07 1166.61 Q1704.4 1164.55 1704.4 1161.58 Q1704.4 1157.44 1707.34 1155.03 Q1710.3 1152.63 1715.44 1152.63 Q1720.61 1152.63 1723.55 1155.03 Q1726.49 1157.44 1726.49 1161.58 Q1726.49 1164.55 1724.8 1166.61 Q1723.13 1168.67 1720.14 1169.41 Q1723.52 1170.2 1725.4 1172.49 Q1727.3 1174.78 1727.3 1178.09 Q1727.3 1183.11 1724.22 1185.8 Q1721.16 1188.48 1715.44 1188.48 Q1709.73 1188.48 1706.65 1185.8 Q1703.59 1183.11 1703.59 1178.09 Q1703.59 1174.78 1705.49 1172.49 Q1707.39 1170.2 1710.77 1169.41 M1709.05 1162.02 Q1709.05 1164.71 1710.72 1166.21 Q1712.41 1167.72 1715.44 1167.72 Q1718.45 1167.72 1720.14 1166.21 Q1721.86 1164.71 1721.86 1162.02 Q1721.86 1159.34 1720.14 1157.83 Q1718.45 1156.33 1715.44 1156.33 Q1712.41 1156.33 1710.72 1157.83 Q1709.05 1159.34 1709.05 1162.02 Z" fill="#000000" fill-rule="nonzero" fill-opacity="1" /><polyline clip-path="url(#clip270)" style="stroke:#000000; stroke-linecap:round; stroke-linejoin:round; stroke-width:4; stroke-opacity:1; fill:none" points="174.867,1128.61 174.867,47.2441 "/>
<polyline clip-path="url(#clip270)" style="stroke:#000000; stroke-linecap:round; stroke-linejoin:round; stroke-width:4; stroke-opacity:1; fill:none" points="174.867,994.821 193.764,994.821 "/>
<polyline clip-path="url(#clip270)" style="stroke:#000000; stroke-linecap:round; stroke-linejoin:round; stroke-width:4; stroke-opacity:1; fill:none" points="174.867,842.544 193.764,842.544 "/>
<polyline clip-path="url(#clip270)" style="stroke:#000000; stroke-linecap:round; stroke-linejoin:round; stroke-width:4; stroke-opacity:1; fill:none" points="174.867,690.267 193.764,690.267 "/>
<polyline clip-path="url(#clip270)" style="stroke:#000000; stroke-linecap:round; stroke-linejoin:round; stroke-width:4; stroke-opacity:1; fill:none" points="174.867,537.99 193.764,537.99 "/>
<polyline clip-path="url(#clip270)" style="stroke:#000000; stroke-linecap:round; stroke-linejoin:round; stroke-width:4; stroke-opacity:1; fill:none" points="174.867,385.712 193.764,385.712 "/>
<polyline clip-path="url(#clip270)" style="stroke:#000000; stroke-linecap:round; stroke-linejoin:round; stroke-width:4; stroke-opacity:1; fill:none" points="174.867,233.435 193.764,233.435 "/>
<polyline clip-path="url(#clip270)" style="stroke:#000000; stroke-linecap:round; stroke-linejoin:round; stroke-width:4; stroke-opacity:1; fill:none" points="174.867,81.1581 193.764,81.1581 "/>
<path clip-path="url(#clip270)" d="M52.9921 995.273 L82.6679 995.273 L82.6679 999.208 L52.9921 999.208 L52.9921 995.273 Z" fill="#000000" fill-rule="nonzero" fill-opacity="1" /><path clip-path="url(#clip270)" d="M106.927 993.467 Q110.283 994.185 112.158 996.453 Q114.057 998.722 114.057 1002.05 Q114.057 1007.17 110.538 1009.97 Q107.02 1012.77 100.538 1012.77 Q98.3623 1012.77 96.0475 1012.33 Q93.7558 1011.92 91.3021 1011.06 L91.3021 1006.55 Q93.2465 1007.68 95.5613 1008.26 Q97.8761 1008.84 100.399 1008.84 Q104.797 1008.84 107.089 1007.1 Q109.404 1005.37 109.404 1002.05 Q109.404 998.999 107.251 997.286 Q105.121 995.55 101.302 995.55 L97.2743 995.55 L97.2743 991.708 L101.487 991.708 Q104.936 991.708 106.765 990.342 Q108.594 988.953 108.594 986.361 Q108.594 983.699 106.696 982.287 Q104.821 980.851 101.302 980.851 Q99.3808 980.851 97.1817 981.268 Q94.9826 981.685 92.3438 982.564 L92.3438 978.398 Q95.0058 977.657 97.3206 977.287 Q99.6585 976.916 101.719 976.916 Q107.043 976.916 110.145 979.347 Q113.246 981.754 113.246 985.875 Q113.246 988.745 111.603 990.736 Q109.959 992.703 106.927 993.467 Z" fill="#000000" fill-rule="nonzero" fill-opacity="1" /><path clip-path="url(#clip270)" d="M132.922 980.62 Q129.311 980.62 127.482 984.185 Q125.677 987.726 125.677 994.856 Q125.677 1001.96 127.482 1005.53 Q129.311 1009.07 132.922 1009.07 Q136.556 1009.07 138.362 1005.53 Q140.191 1001.96 140.191 994.856 Q140.191 987.726 138.362 984.185 Q136.556 980.62 132.922 980.62 M132.922 976.916 Q138.732 976.916 141.788 981.523 Q144.867 986.106 144.867 994.856 Q144.867 1003.58 141.788 1008.19 Q138.732 1012.77 132.922 1012.77 Q127.112 1012.77 124.033 1008.19 Q120.978 1003.58 120.978 994.856 Q120.978 986.106 124.033 981.523 Q127.112 976.916 132.922 976.916 Z" fill="#000000" fill-rule="nonzero" fill-opacity="1" /><path clip-path="url(#clip270)" d="M52.9921 842.995 L82.6679 842.995 L82.6679 846.931 L52.9921 846.931 L52.9921 842.995 Z" fill="#000000" fill-rule="nonzero" fill-opacity="1" /><path clip-path="url(#clip270)" d="M96.7882 855.889 L113.108 855.889 L113.108 859.824 L91.1632 859.824 L91.1632 855.889 Q93.8252 853.134 98.4085 848.505 Q103.015 843.852 104.196 842.509 Q106.441 839.986 107.321 838.25 Q108.223 836.491 108.223 834.801 Q108.223 832.046 106.279 830.31 Q104.358 828.574 101.256 828.574 Q99.0567 828.574 96.603 829.338 Q94.1725 830.102 91.3947 831.653 L91.3947 826.931 Q94.2188 825.796 96.6724 825.218 Q99.1261 824.639 101.163 824.639 Q106.534 824.639 109.728 827.324 Q112.922 830.009 112.922 834.5 Q112.922 836.63 112.112 838.551 Q111.325 840.449 109.219 843.042 Q108.64 843.713 105.538 846.931 Q102.436 850.125 96.7882 855.889 Z" fill="#000000" fill-rule="nonzero" fill-opacity="1" /><path clip-path="url(#clip270)" d="M132.922 828.343 Q129.311 828.343 127.482 831.908 Q125.677 835.449 125.677 842.579 Q125.677 849.685 127.482 853.25 Q129.311 856.792 132.922 856.792 Q136.556 856.792 138.362 853.25 Q140.191 849.685 140.191 842.579 Q140.191 835.449 138.362 831.908 Q136.556 828.343 132.922 828.343 M132.922 824.639 Q138.732 824.639 141.788 829.245 Q144.867 833.829 144.867 842.579 Q144.867 851.306 141.788 855.912 Q138.732 860.495 132.922 860.495 Q127.112 860.495 124.033 855.912 Q120.978 851.306 120.978 842.579 Q120.978 833.829 124.033 829.245 Q127.112 824.639 132.922 824.639 Z" fill="#000000" fill-rule="nonzero" fill-opacity="1" /><path clip-path="url(#clip270)" d="M52.9921 690.718 L82.6679 690.718 L82.6679 694.653 L52.9921 694.653 L52.9921 690.718 Z" fill="#000000" fill-rule="nonzero" fill-opacity="1" /><path clip-path="url(#clip270)" d="M93.5706 703.612 L101.209 703.612 L101.209 677.246 L92.8993 678.913 L92.8993 674.654 L101.163 672.987 L105.839 672.987 L105.839 703.612 L113.478 703.612 L113.478 707.547 L93.5706 707.547 L93.5706 703.612 Z" fill="#000000" fill-rule="nonzero" fill-opacity="1" /><path clip-path="url(#clip270)" d="M132.922 676.066 Q129.311 676.066 127.482 679.63 Q125.677 683.172 125.677 690.302 Q125.677 697.408 127.482 700.973 Q129.311 704.514 132.922 704.514 Q136.556 704.514 138.362 700.973 Q140.191 697.408 140.191 690.302 Q140.191 683.172 138.362 679.63 Q136.556 676.066 132.922 676.066 M132.922 672.362 Q138.732 672.362 141.788 676.968 Q144.867 681.552 144.867 690.302 Q144.867 699.028 141.788 703.635 Q138.732 708.218 132.922 708.218 Q127.112 708.218 124.033 703.635 Q120.978 699.028 120.978 690.302 Q120.978 681.552 124.033 676.968 Q127.112 672.362 132.922 672.362 Z" fill="#000000" fill-rule="nonzero" fill-opacity="1" /><path clip-path="url(#clip270)" d="M132.922 523.788 Q129.311 523.788 127.482 527.353 Q125.677 530.895 125.677 538.024 Q125.677 545.131 127.482 548.696 Q129.311 552.237 132.922 552.237 Q136.556 552.237 138.362 548.696 Q140.191 545.131 140.191 538.024 Q140.191 530.895 138.362 527.353 Q136.556 523.788 132.922 523.788 M132.922 520.085 Q138.732 520.085 141.788 524.691 Q144.867 529.274 144.867 538.024 Q144.867 546.751 141.788 551.358 Q138.732 555.941 132.922 555.941 Q127.112 555.941 124.033 551.358 Q120.978 546.751 120.978 538.024 Q120.978 529.274 124.033 524.691 Q127.112 520.085 132.922 520.085 Z" fill="#000000" fill-rule="nonzero" fill-opacity="1" /><path clip-path="url(#clip270)" d="M93.5706 399.057 L101.209 399.057 L101.209 372.692 L92.8993 374.358 L92.8993 370.099 L101.163 368.432 L105.839 368.432 L105.839 399.057 L113.478 399.057 L113.478 402.992 L93.5706 402.992 L93.5706 399.057 Z" fill="#000000" fill-rule="nonzero" fill-opacity="1" /><path clip-path="url(#clip270)" d="M132.922 371.511 Q129.311 371.511 127.482 375.076 Q125.677 378.618 125.677 385.747 Q125.677 392.854 127.482 396.418 Q129.311 399.96 132.922 399.96 Q136.556 399.96 138.362 396.418 Q140.191 392.854 140.191 385.747 Q140.191 378.618 138.362 375.076 Q136.556 371.511 132.922 371.511 M132.922 367.807 Q138.732 367.807 141.788 372.414 Q144.867 376.997 144.867 385.747 Q144.867 394.474 141.788 399.08 Q138.732 403.664 132.922 403.664 Q127.112 403.664 124.033 399.08 Q120.978 394.474 120.978 385.747 Q120.978 376.997 124.033 372.414 Q127.112 367.807 132.922 367.807 Z" fill="#000000" fill-rule="nonzero" fill-opacity="1" /><path clip-path="url(#clip270)" d="M96.7882 246.78 L113.108 246.78 L113.108 250.715 L91.1632 250.715 L91.1632 246.78 Q93.8252 244.026 98.4085 239.396 Q103.015 234.743 104.196 233.401 Q106.441 230.877 107.321 229.141 Q108.223 227.382 108.223 225.692 Q108.223 222.938 106.279 221.202 Q104.358 219.465 101.256 219.465 Q99.0567 219.465 96.603 220.229 Q94.1725 220.993 91.3947 222.544 L91.3947 217.822 Q94.2188 216.688 96.6724 216.109 Q99.1261 215.53 101.163 215.53 Q106.534 215.53 109.728 218.215 Q112.922 220.901 112.922 225.391 Q112.922 227.521 112.112 229.442 Q111.325 231.34 109.219 233.933 Q108.64 234.604 105.538 237.822 Q102.436 241.016 96.7882 246.78 Z" fill="#000000" fill-rule="nonzero" fill-opacity="1" /><path clip-path="url(#clip270)" d="M132.922 219.234 Q129.311 219.234 127.482 222.799 Q125.677 226.34 125.677 233.47 Q125.677 240.576 127.482 244.141 Q129.311 247.683 132.922 247.683 Q136.556 247.683 138.362 244.141 Q140.191 240.576 140.191 233.47 Q140.191 226.34 138.362 222.799 Q136.556 219.234 132.922 219.234 M132.922 215.53 Q138.732 215.53 141.788 220.137 Q144.867 224.72 144.867 233.47 Q144.867 242.197 141.788 246.803 Q138.732 251.387 132.922 251.387 Q127.112 251.387 124.033 246.803 Q120.978 242.197 120.978 233.47 Q120.978 224.72 124.033 220.137 Q127.112 215.53 132.922 215.53 Z" fill="#000000" fill-rule="nonzero" fill-opacity="1" /><path clip-path="url(#clip270)" d="M106.927 79.8039 Q110.283 80.5215 112.158 82.79 Q114.057 85.0585 114.057 88.3919 Q114.057 93.5076 110.538 96.3085 Q107.02 99.1094 100.538 99.1094 Q98.3623 99.1094 96.0475 98.6696 Q93.7558 98.2529 91.3021 97.3964 L91.3021 92.8826 Q93.2465 94.0168 95.5613 94.5955 Q97.8761 95.1742 100.399 95.1742 Q104.797 95.1742 107.089 93.4381 Q109.404 91.702 109.404 88.3919 Q109.404 85.3363 107.251 83.6234 Q105.121 81.8873 101.302 81.8873 L97.2743 81.8873 L97.2743 78.0447 L101.487 78.0447 Q104.936 78.0447 106.765 76.679 Q108.594 75.2901 108.594 72.6975 Q108.594 70.0355 106.696 68.6234 Q104.821 67.1883 101.302 67.1883 Q99.3808 67.1883 97.1817 67.6049 Q94.9826 68.0216 92.3438 68.9012 L92.3438 64.7346 Q95.0058 63.9938 97.3206 63.6235 Q99.6585 63.2531 101.719 63.2531 Q107.043 63.2531 110.145 65.6836 Q113.246 68.091 113.246 72.2114 Q113.246 75.0817 111.603 77.0725 Q109.959 79.0401 106.927 79.8039 Z" fill="#000000" fill-rule="nonzero" fill-opacity="1" /><path clip-path="url(#clip270)" d="M132.922 66.9568 Q129.311 66.9568 127.482 70.5216 Q125.677 74.0632 125.677 81.1928 Q125.677 88.2993 127.482 91.8641 Q129.311 95.4057 132.922 95.4057 Q136.556 95.4057 138.362 91.8641 Q140.191 88.2993 140.191 81.1928 Q140.191 74.0632 138.362 70.5216 Q136.556 66.9568 132.922 66.9568 M132.922 63.2531 Q138.732 63.2531 141.788 67.8596 Q144.867 72.4429 144.867 81.1928 Q144.867 89.9196 141.788 94.5261 Q138.732 99.1094 132.922 99.1094 Q127.112 99.1094 124.033 94.5261 Q120.978 89.9196 120.978 81.1928 Q120.978 72.4429 124.033 67.8596 Q127.112 63.2531 132.922 63.2531 Z" fill="#000000" fill-rule="nonzero" fill-opacity="1" /><polyline clip-path="url(#clip272)" style="stroke:#0f6a81; stroke-linecap:round; stroke-linejoin:round; stroke-width:8; stroke-opacity:1; fill:none" points="225.184,1098.01 246.15,1020.73 267.116,959.13 288.081,909.078 309.047,867.734 330.013,833.101 350.978,803.73 371.944,778.553 392.91,756.763 413.875,737.742 434.841,721.01 455.807,706.186 476.772,692.97 497.738,681.115 518.704,670.424 539.669,660.731 560.635,651.902 581.601,643.823 602.566,636.398 623.532,629.545 644.498,623.196 665.463,617.292 686.429,611.78 707.395,606.616 728.36,601.761 749.326,597.182 770.292,592.846 791.257,588.729 812.223,584.806 833.189,581.054 854.155,577.456 875.12,573.993 896.086,570.65 917.052,567.41 938.017,564.261 958.983,561.191 979.949,558.186 1000.91,555.235 1021.88,552.328 1042.85,549.455 1063.81,546.604 1084.78,543.766 1105.74,540.931 1126.71,538.089 1147.67,535.23 1168.64,532.344 1189.61,529.42 1210.57,526.447 1231.54,523.414 1252.5,520.307 1273.47,517.115 1294.43,513.822 1315.4,510.414 1336.37,506.873 1357.33,503.181 1378.3,499.318 1399.26,495.26 1420.23,490.982 1441.19,486.455 1462.16,481.646 1483.12,476.518 1504.09,471.026 1525.06,465.122 1546.02,458.747 1566.99,451.834 1587.95,444.301 1608.92,436.055 1629.88,426.982 1650.85,416.945 1671.82,405.778 1692.78,393.276 1713.75,379.189 1734.71,363.198 1755.68,344.904 1776.64,323.792 1797.61,299.189 1818.58,270.203 1839.54,235.63 1860.51,193.803 1881.47,142.36 1902.44,77.8488 "/>
<polyline clip-path="url(#clip272)" style="stroke:#c2676d; stroke-linecap:round; stroke-linejoin:round; stroke-width:8; stroke-opacity:1; fill:none" stroke-dasharray="32, 20" points="-1603.02,537.99 3730.65,537.99 "/>
<path clip-path="url(#clip270)" d="M234.13 233.506 L905.769 233.506 L905.769 83.2896 L234.13 83.2896  Z" fill="#ffffff" fill-rule="evenodd" fill-opacity="1"/>
<polyline clip-path="url(#clip270)" style="stroke:#000000; stroke-linecap:round; stroke-linejoin:round; stroke-width:4; stroke-opacity:1; fill:none" points="234.13,233.506 905.769,233.506 905.769,83.2896 234.13,83.2896 234.13,233.506 "/>
<polyline clip-path="url(#clip270)" style="stroke:#0f6a81; stroke-linecap:round; stroke-linejoin:round; stroke-width:8; stroke-opacity:1; fill:none" points="253.884,158.398 372.41,158.398 "/>
<path clip-path="url(#clip270)" d="M423.925 163.35 Q423.925 165.153 422.941 169.135 Q421.958 173.117 420.763 175.834 Q418.21 181.736 413.807 181.736 Q413.268 181.736 412.729 181.69 Q412.214 181.643 411.441 181.432 Q410.668 181.221 410.036 180.893 Q409.403 180.542 408.771 179.886 Q408.162 179.23 407.81 178.364 Q405.866 181.736 402.821 181.736 Q399.87 181.736 397.926 180.237 Q396.005 178.738 396.005 175.67 Q396.005 174.288 396.568 172.25 Q397.13 170.213 398.699 165.997 Q399.566 163.818 399.566 162.624 Q399.566 162.085 399.449 161.734 Q399.331 161.382 399.097 161.265 Q398.886 161.125 398.746 161.101 Q398.605 161.054 398.371 161.054 Q396.966 161.054 395.701 162.483 Q394.436 163.888 393.523 167.004 Q393.335 167.589 393.218 167.73 Q393.101 167.87 392.75 167.87 Q392.164 167.847 392.164 167.378 Q392.164 167.191 392.375 166.465 Q392.586 165.715 393.078 164.615 Q393.593 163.49 394.296 162.483 Q394.998 161.453 396.099 160.726 Q397.223 160 398.512 160 Q400.245 160 401.346 161.148 Q402.447 162.296 402.447 163.935 Q402.447 164.404 402.33 164.919 Q402.212 165.411 402.095 165.739 Q402.002 166.043 401.627 167.004 Q400.081 171.056 399.589 173 Q399.121 174.944 399.121 176.302 Q399.121 176.747 399.144 177.099 Q399.168 177.45 399.355 178.176 Q399.566 178.902 399.94 179.394 Q400.315 179.863 401.088 180.261 Q401.885 180.659 402.962 180.659 Q405.656 180.659 407.389 176.63 Q407.342 176.396 407.342 175.787 Q407.342 174.429 407.764 172.602 Q407.881 172.18 408.56 169.486 Q409.239 166.769 409.825 164.404 Q410.434 162.015 410.504 161.874 Q410.738 161.218 411.254 160.867 Q411.769 160.516 412.284 160.516 Q412.87 160.516 413.268 160.867 Q413.666 161.218 413.666 161.827 Q413.666 161.944 413.525 162.483 Q413.408 162.998 413.221 163.771 Q413.034 164.544 412.94 164.943 L410.926 173 Q410.41 174.874 410.41 176.49 Q410.41 178.528 411.324 179.605 Q412.237 180.659 413.947 180.659 Q417.156 180.659 419.217 176.443 Q420.154 174.616 420.997 171.758 Q421.864 168.901 421.864 167.66 Q421.864 165.317 420.131 163.584 Q419.756 163.256 419.592 162.998 Q419.428 162.717 419.428 162.296 Q419.428 161.499 420.177 160.75 Q420.927 160 421.817 160 Q422.613 160 423.269 160.797 Q423.925 161.57 423.925 163.35 Z" fill="#000000" fill-rule="nonzero" fill-opacity="1" /><path clip-path="url(#clip270)" d="M428.743 134.108 L428.743 133.058 Q432.776 133.058 434.858 130.911 Q435.432 130.911 435.53 131.042 Q435.629 131.173 435.629 131.779 L435.629 150.618 Q435.629 151.618 436.121 151.93 Q436.612 152.241 438.76 152.241 L439.826 152.241 L439.826 153.274 Q438.646 153.176 434.383 153.176 Q430.12 153.176 428.956 153.274 L428.956 152.241 L430.021 152.241 Q432.136 152.241 432.645 151.946 Q433.153 151.635 433.153 150.618 L433.153 133.222 Q431.399 134.108 428.743 134.108 Z" fill="#000000" fill-rule="nonzero" fill-opacity="1" /><path clip-path="url(#clip270)" d="M476.857 144.404 Q477.054 144.601 477.054 144.88 Q477.054 145.158 476.857 145.355 Q476.66 145.552 476.381 145.552 L455.362 145.552 Q455.083 145.552 454.887 145.355 Q454.69 145.158 454.69 144.88 Q454.69 144.601 454.887 144.404 Q455.083 144.207 455.362 144.207 L476.381 144.207 Q476.66 144.207 476.857 144.404 Z" fill="#000000" fill-rule="nonzero" fill-opacity="1" /><path clip-path="url(#clip270)" d="M507.503 139.141 Q507.503 139.272 506.864 140.42 Q505.798 142.535 504.437 145.765 Q503.076 148.995 502.306 151.389 Q502.142 151.963 502.027 152.7 Q501.732 154.963 500.781 158.472 Q500.453 159.57 500.24 160.029 Q500.027 160.488 499.715 160.488 Q499.273 160.488 499.273 159.882 Q499.273 159.275 499.83 157.012 Q500.404 154.75 501.027 152.668 Q501.42 151.52 501.42 149.372 Q501.42 148.683 501.388 148.06 Q501.355 147.437 501.224 146.536 Q501.092 145.634 500.879 144.896 Q500.666 144.158 500.256 143.388 Q499.846 142.601 499.289 142.076 Q498.732 141.535 497.879 141.191 Q497.043 140.846 495.993 140.846 Q495.731 140.846 495.403 140.879 Q495.092 140.896 494.337 141.109 Q493.6 141.322 492.977 141.699 Q492.354 142.06 491.681 142.863 Q491.009 143.666 490.648 144.749 L490.517 144.912 Q490.304 144.912 490.189 144.912 Q490.091 144.896 489.976 144.814 Q489.878 144.732 489.878 144.585 Q489.878 144.24 490.14 143.552 Q490.419 142.863 490.976 141.978 Q491.55 141.092 492.288 140.305 Q493.042 139.518 494.141 138.977 Q495.239 138.436 496.42 138.436 Q499.453 138.436 500.896 142.125 Q502.158 145.257 502.273 148.979 Q504.896 142.371 506.7 139.043 Q506.798 138.797 507.093 138.797 Q507.503 138.813 507.503 139.141 Z" fill="#000000" fill-rule="nonzero" fill-opacity="1" /><path clip-path="url(#clip270)" d="M519.972 163.871 Q520.063 163.974 520.063 164.078 Q520.063 164.181 519.834 164.479 Q519.616 164.778 519.145 165.179 Q518.675 165.581 518.066 165.96 Q517.458 166.339 516.563 166.591 Q515.668 166.855 514.727 166.855 Q512.971 166.855 511.938 165.696 Q510.916 164.537 510.916 162.872 Q510.916 161.254 511.823 159.705 Q512.73 158.144 514.199 157.18 Q515.668 156.204 517.217 156.204 Q518.445 156.204 519.214 156.778 Q519.983 157.352 519.983 158.224 Q519.983 158.901 519.593 159.315 Q519.203 159.728 518.675 159.728 Q518.307 159.728 518.055 159.521 Q517.802 159.303 517.802 158.901 Q517.802 158.385 518.227 157.983 Q518.388 157.823 518.571 157.754 Q518.767 157.673 518.881 157.673 Q518.996 157.662 519.26 157.662 Q519.019 157.214 518.445 156.973 Q517.883 156.721 517.24 156.721 Q516.287 156.721 515.381 157.386 Q514.474 158.041 513.923 159.074 Q513.372 160.084 513.017 161.518 Q512.661 162.941 512.661 163.768 Q512.661 164.904 513.189 165.615 Q513.717 166.327 514.773 166.327 Q514.979 166.327 515.197 166.316 Q515.427 166.304 516.001 166.178 Q516.586 166.052 517.102 165.834 Q517.619 165.615 518.273 165.145 Q518.939 164.663 519.467 164.009 Q519.65 163.768 519.776 163.768 Q519.88 163.768 519.972 163.871 Z" fill="#000000" fill-rule="nonzero" fill-opacity="1" /><path clip-path="url(#clip270)" d="M528.68 169.205 Q528.68 161.101 531.702 154.566 Q532.99 151.826 534.793 149.531 Q536.597 147.235 537.791 146.228 Q538.986 145.221 539.314 145.221 Q539.782 145.221 539.806 145.689 Q539.806 145.923 539.173 146.509 Q531.444 154.379 531.467 169.205 Q531.467 184.079 538.986 191.644 Q539.806 192.464 539.806 192.722 Q539.806 193.19 539.314 193.19 Q538.986 193.19 537.838 192.23 Q536.691 191.269 534.911 189.068 Q533.13 186.866 531.842 184.172 Q528.68 177.637 528.68 169.205 Z" fill="#000000" fill-rule="nonzero" fill-opacity="1" /><path clip-path="url(#clip270)" d="M546.141 153.817 L546.141 152.318 Q551.903 152.318 554.877 149.249 Q555.697 149.249 555.838 149.437 Q555.978 149.624 555.978 150.491 L555.978 177.403 Q555.978 178.832 556.681 179.277 Q557.383 179.722 560.452 179.722 L561.974 179.722 L561.974 181.198 Q560.288 181.057 554.198 181.057 Q548.108 181.057 546.445 181.198 L546.445 179.722 L547.968 179.722 Q550.989 179.722 551.715 179.3 Q552.441 178.855 552.441 177.403 L552.441 152.552 Q549.935 153.817 546.141 153.817 Z" fill="#000000" fill-rule="nonzero" fill-opacity="1" /><path clip-path="url(#clip270)" d="M614.876 168.526 Q615.157 168.807 615.157 169.205 Q615.157 169.604 614.876 169.885 Q614.595 170.166 614.196 170.166 L584.169 170.166 Q583.771 170.166 583.49 169.885 Q583.208 169.604 583.208 169.205 Q583.208 168.807 583.49 168.526 Q583.771 168.245 584.169 168.245 L614.196 168.245 Q614.595 168.245 614.876 168.526 Z" fill="#000000" fill-rule="nonzero" fill-opacity="1" /><path clip-path="url(#clip270)" d="M643.736 148.43 L636.826 176.162 Q636.545 177.263 636.545 178.457 Q636.545 180.659 637.997 180.659 Q638.677 180.659 639.239 180.214 Q639.801 179.745 640.222 178.832 Q640.668 177.895 640.949 177.005 Q641.253 176.115 641.628 174.733 Q641.745 174.194 641.862 174.03 Q641.979 173.866 642.307 173.866 Q642.893 173.866 642.893 174.335 Q642.307 177.216 641.44 179.043 Q640.176 181.736 637.833 181.736 Q636.077 181.736 634.765 180.518 Q633.477 179.277 633.477 177.31 Q633.477 176.56 633.711 175.67 L639.754 151.685 L639.918 150.749 Q639.918 150.491 639.824 150.35 Q639.731 150.21 639.168 150.069 Q638.63 149.929 637.552 149.929 Q637.107 149.929 636.896 149.905 Q636.709 149.882 636.522 149.765 Q636.358 149.648 636.358 149.39 Q636.358 148.968 636.522 148.734 Q636.709 148.5 636.85 148.453 Q636.99 148.406 637.271 148.383 Q637.669 148.359 639.005 148.242 Q640.34 148.102 641.487 148.008 Q642.635 147.914 643.127 147.914 Q643.408 147.914 643.548 148.055 Q643.712 148.172 643.736 148.313 L643.736 148.43 Z" fill="#000000" fill-rule="nonzero" fill-opacity="1" /><path clip-path="url(#clip270)" d="M647.629 192.722 Q647.629 192.487 648.238 191.902 Q655.967 184.032 655.967 169.205 Q655.967 154.332 648.542 146.814 Q647.629 145.947 647.629 145.689 Q647.629 145.221 648.097 145.221 Q648.425 145.221 649.573 146.181 Q650.744 147.141 652.501 149.343 Q654.281 151.545 655.592 154.238 Q658.754 160.773 658.754 169.205 Q658.754 177.31 655.733 183.844 Q654.445 186.585 652.641 188.88 Q650.838 191.176 649.643 192.183 Q648.448 193.19 648.097 193.19 Q647.629 193.19 647.629 192.722 Z" fill="#000000" fill-rule="nonzero" fill-opacity="1" /><path clip-path="url(#clip270)" d="M685.931 127.519 Q686.128 127.716 686.128 127.995 Q686.128 128.273 685.931 128.47 Q685.735 128.667 685.456 128.667 L664.436 128.667 Q664.158 128.667 663.961 128.47 Q663.764 128.273 663.764 127.995 Q663.764 127.716 663.961 127.519 Q664.158 127.322 664.436 127.322 L685.456 127.322 Q685.735 127.322 685.931 127.519 Z" fill="#000000" fill-rule="nonzero" fill-opacity="1" /><path clip-path="url(#clip270)" d="M707.26 122.256 Q707.26 122.387 706.62 123.535 Q705.555 125.65 704.194 128.88 Q702.833 132.11 702.062 134.504 Q701.898 135.077 701.783 135.815 Q701.488 138.078 700.537 141.587 Q700.21 142.685 699.996 143.144 Q699.783 143.603 699.472 143.603 Q699.029 143.603 699.029 142.997 Q699.029 142.39 699.586 140.127 Q700.16 137.865 700.783 135.782 Q701.177 134.635 701.177 132.487 Q701.177 131.798 701.144 131.175 Q701.111 130.552 700.98 129.65 Q700.849 128.749 700.636 128.011 Q700.423 127.273 700.013 126.503 Q699.603 125.716 699.045 125.191 Q698.488 124.65 697.635 124.305 Q696.799 123.961 695.75 123.961 Q695.488 123.961 695.16 123.994 Q694.848 124.01 694.094 124.223 Q693.356 124.437 692.733 124.814 Q692.11 125.174 691.438 125.978 Q690.766 126.781 690.405 127.863 L690.274 128.027 Q690.061 128.027 689.946 128.027 Q689.847 128.011 689.733 127.929 Q689.634 127.847 689.634 127.699 Q689.634 127.355 689.897 126.666 Q690.175 125.978 690.733 125.092 Q691.307 124.207 692.044 123.42 Q692.799 122.633 693.897 122.092 Q694.996 121.551 696.176 121.551 Q699.209 121.551 700.652 125.24 Q701.915 128.372 702.029 132.093 Q704.653 125.486 706.456 122.158 Q706.555 121.912 706.85 121.912 Q707.26 121.928 707.26 122.256 Z" fill="#000000" fill-rule="nonzero" fill-opacity="1" /><path clip-path="url(#clip270)" d="M719.728 146.986 Q719.82 147.089 719.82 147.192 Q719.82 147.296 719.59 147.594 Q719.372 147.893 718.902 148.294 Q718.431 148.696 717.823 149.075 Q717.215 149.453 716.319 149.706 Q715.424 149.97 714.483 149.97 Q712.727 149.97 711.694 148.811 Q710.673 147.652 710.673 145.987 Q710.673 144.369 711.579 142.82 Q712.486 141.259 713.955 140.295 Q715.424 139.319 716.974 139.319 Q718.202 139.319 718.971 139.893 Q719.74 140.467 719.74 141.339 Q719.74 142.016 719.349 142.429 Q718.959 142.843 718.431 142.843 Q718.064 142.843 717.811 142.636 Q717.559 142.418 717.559 142.016 Q717.559 141.5 717.984 141.098 Q718.144 140.937 718.328 140.869 Q718.523 140.788 718.638 140.788 Q718.753 140.777 719.016 140.777 Q718.775 140.329 718.202 140.088 Q717.639 139.836 716.997 139.836 Q716.044 139.836 715.137 140.501 Q714.231 141.156 713.68 142.188 Q713.129 143.198 712.773 144.633 Q712.417 146.056 712.417 146.883 Q712.417 148.019 712.945 148.73 Q713.473 149.442 714.529 149.442 Q714.736 149.442 714.954 149.43 Q715.183 149.419 715.757 149.293 Q716.342 149.166 716.859 148.948 Q717.375 148.73 718.029 148.26 Q718.695 147.778 719.223 147.124 Q719.407 146.883 719.533 146.883 Q719.636 146.883 719.728 146.986 Z" fill="#000000" fill-rule="nonzero" fill-opacity="1" /><path clip-path="url(#clip270)" d="M773.415 168.526 Q773.696 168.807 773.696 169.205 Q773.696 169.604 773.415 169.885 Q773.134 170.166 772.736 170.166 L742.708 170.166 Q742.31 170.166 742.029 169.885 Q741.748 169.604 741.748 169.205 Q741.748 168.807 742.029 168.526 Q742.31 168.245 742.708 168.245 L772.736 168.245 Q773.134 168.245 773.415 168.526 Z" fill="#000000" fill-rule="nonzero" fill-opacity="1" /><path clip-path="url(#clip270)" d="M818.929 162.834 Q818.882 163.069 818.788 163.49 Q818.694 163.888 818.273 165.153 Q817.851 166.418 817.289 167.706 Q816.75 168.971 815.696 170.751 Q814.666 172.508 813.401 174.101 Q813.05 174.522 812.979 174.78 Q812.932 175.014 812.932 175.787 Q812.932 180.659 814.408 180.659 Q814.478 180.659 814.595 180.659 Q814.736 180.636 815.087 180.518 Q815.462 180.378 815.79 180.167 Q816.118 179.933 816.493 179.464 Q816.867 178.973 817.102 178.317 Q817.312 177.848 817.734 177.848 Q818.296 177.848 818.296 178.317 Q818.296 179.16 817.125 180.448 Q815.954 181.736 814.268 181.736 Q812.651 181.736 811.504 180.682 Q810.379 179.605 809.911 177.684 Q804.852 181.736 799.792 181.736 Q796.232 181.736 794.124 179.418 Q792.016 177.075 792.016 173.609 Q792.016 170.283 793.843 167.121 Q795.694 163.959 798.692 161.991 Q801.713 160 804.922 160 Q806.046 160 807.124 160.305 Q808.201 160.586 809.279 161.312 Q810.356 162.038 811.152 163.139 Q811.949 164.24 812.441 165.973 Q812.932 167.706 812.932 169.885 L812.932 172.859 Q816.024 168.948 817.64 163.35 Q817.875 162.507 818.015 162.413 Q818.109 162.343 818.343 162.343 Q818.577 162.343 818.718 162.483 Q818.882 162.6 818.905 162.717 L818.929 162.834 M809.724 176.443 Q809.63 175.623 809.63 171.079 Q809.63 170.213 809.63 169.744 Q809.63 169.252 809.583 168.315 Q809.536 167.378 809.442 166.793 Q809.372 166.207 809.208 165.364 Q809.044 164.521 808.81 163.982 Q808.576 163.443 808.201 162.834 Q807.85 162.226 807.381 161.874 Q806.936 161.523 806.28 161.289 Q805.648 161.054 804.875 161.054 Q803.915 161.054 802.908 161.406 Q801.924 161.734 800.659 162.788 Q799.394 163.818 798.34 165.458 Q797.239 167.191 796.396 170.377 Q795.576 173.539 795.576 175.436 Q795.576 177.825 796.677 179.254 Q797.778 180.659 799.886 180.659 Q804.922 180.659 809.724 176.443 Z" fill="#000000" fill-rule="nonzero" fill-opacity="1" /><path clip-path="url(#clip270)" d="M830.971 172.641 L826.134 192.053 Q825.938 192.824 825.938 193.66 Q825.938 195.201 826.954 195.201 Q827.43 195.201 827.823 194.89 Q828.217 194.562 828.512 193.922 Q828.823 193.267 829.02 192.644 Q829.233 192.021 829.496 191.053 Q829.578 190.676 829.66 190.561 Q829.741 190.447 829.971 190.447 Q830.381 190.447 830.381 190.774 Q829.971 192.791 829.364 194.07 Q828.479 195.956 826.839 195.956 Q825.61 195.956 824.692 195.103 Q823.79 194.234 823.79 192.857 Q823.79 192.332 823.954 191.709 L828.184 174.92 L828.299 174.264 Q828.299 174.084 828.233 173.985 Q828.167 173.887 827.774 173.789 Q827.397 173.69 826.643 173.69 Q826.331 173.69 826.184 173.674 Q826.052 173.657 825.921 173.575 Q825.807 173.493 825.807 173.313 Q825.807 173.018 825.921 172.854 Q826.052 172.69 826.151 172.657 Q826.249 172.624 826.446 172.608 Q826.725 172.592 827.659 172.51 Q828.594 172.411 829.397 172.346 Q830.201 172.28 830.545 172.28 Q830.742 172.28 830.84 172.378 Q830.955 172.46 830.971 172.559 L830.971 172.641 Z" fill="#000000" fill-rule="nonzero" fill-opacity="1" /><path clip-path="url(#clip270)" d="M846.278 148.43 L839.369 176.162 Q839.088 177.263 839.088 178.457 Q839.088 180.659 840.54 180.659 Q841.219 180.659 841.781 180.214 Q842.343 179.745 842.765 178.832 Q843.21 177.895 843.491 177.005 Q843.795 176.115 844.17 174.733 Q844.287 174.194 844.404 174.03 Q844.522 173.866 844.849 173.866 Q845.435 173.866 845.435 174.335 Q844.849 177.216 843.983 179.043 Q842.718 181.736 840.376 181.736 Q838.619 181.736 837.307 180.518 Q836.019 179.277 836.019 177.31 Q836.019 176.56 836.253 175.67 L842.296 151.685 L842.46 150.749 Q842.46 150.491 842.367 150.35 Q842.273 150.21 841.711 150.069 Q841.172 149.929 840.095 149.929 Q839.65 149.929 839.439 149.905 Q839.252 149.882 839.064 149.765 Q838.9 149.648 838.9 149.39 Q838.9 148.968 839.064 148.734 Q839.252 148.5 839.392 148.453 Q839.533 148.406 839.814 148.383 Q840.212 148.359 841.547 148.242 Q842.882 148.102 844.03 148.008 Q845.177 147.914 845.669 147.914 Q845.95 147.914 846.091 148.055 Q846.255 148.172 846.278 148.313 L846.278 148.43 Z" fill="#000000" fill-rule="nonzero" fill-opacity="1" /><path clip-path="url(#clip270)" d="M868.921 121.403 Q868.921 121.535 868.281 122.682 Q867.216 124.797 865.855 128.027 Q864.494 131.257 863.723 133.651 Q863.559 134.225 863.445 134.963 Q863.15 137.225 862.199 140.734 Q861.871 141.832 861.658 142.292 Q861.444 142.751 861.133 142.751 Q860.69 142.751 860.69 142.144 Q860.69 141.537 861.248 139.275 Q861.822 137.012 862.445 134.93 Q862.838 133.782 862.838 131.634 Q862.838 130.946 862.805 130.323 Q862.772 129.7 862.641 128.798 Q862.51 127.896 862.297 127.158 Q862.084 126.42 861.674 125.65 Q861.264 124.863 860.707 124.338 Q860.149 123.797 859.297 123.453 Q858.46 123.109 857.411 123.109 Q857.149 123.109 856.821 123.141 Q856.509 123.158 855.755 123.371 Q855.017 123.584 854.394 123.961 Q853.771 124.322 853.099 125.125 Q852.427 125.929 852.066 127.011 L851.935 127.175 Q851.722 127.175 851.607 127.175 Q851.509 127.158 851.394 127.076 Q851.295 126.994 851.295 126.847 Q851.295 126.502 851.558 125.814 Q851.837 125.125 852.394 124.24 Q852.968 123.354 853.706 122.568 Q854.46 121.781 855.558 121.239 Q856.657 120.698 857.837 120.698 Q860.871 120.698 862.313 124.387 Q863.576 127.519 863.691 131.241 Q866.314 124.633 868.117 121.305 Q868.216 121.059 868.511 121.059 Q868.921 121.075 868.921 121.403 Z" fill="#000000" fill-rule="nonzero" fill-opacity="1" /><path clip-path="url(#clip270)" d="M877.361 136.319 L873.975 149.908 Q873.837 150.447 873.837 151.032 Q873.837 152.111 874.549 152.111 Q874.882 152.111 875.157 151.893 Q875.433 151.664 875.639 151.216 Q875.857 150.757 875.995 150.321 Q876.144 149.885 876.328 149.208 Q876.385 148.944 876.443 148.863 Q876.5 148.783 876.661 148.783 Q876.948 148.783 876.948 149.012 Q876.661 150.424 876.236 151.319 Q875.616 152.639 874.469 152.639 Q873.608 152.639 872.965 152.042 Q872.334 151.434 872.334 150.47 Q872.334 150.103 872.449 149.667 L875.41 137.914 L875.49 137.455 Q875.49 137.329 875.444 137.26 Q875.398 137.191 875.123 137.122 Q874.859 137.053 874.331 137.053 Q874.113 137.053 874.01 137.042 Q873.918 137.03 873.826 136.973 Q873.746 136.916 873.746 136.789 Q873.746 136.583 873.826 136.468 Q873.918 136.353 873.987 136.33 Q874.055 136.307 874.193 136.296 Q874.388 136.284 875.042 136.227 Q875.697 136.158 876.259 136.112 Q876.821 136.066 877.062 136.066 Q877.2 136.066 877.269 136.135 Q877.349 136.193 877.361 136.261 L877.361 136.319 Z" fill="#000000" fill-rule="nonzero" fill-opacity="1" /></svg>
