<?xml version="1.0" encoding="utf-8"?>
<svg xmlns="http://www.w3.org/2000/svg" xmlns:xlink="http://www.w3.org/1999/xlink" width="500" height="309" viewBox="0 0 2000 1236">
<defs>
  <clipPath id="clip280">
    <rect x="0" y="0" width="2000" height="1236"/>
  </clipPath>
</defs>
<path clip-path="url(#clip280)" d="M0 1236 L2000 1236 L2000 1.24345e-14 L0 1.24345e-14  Z" fill="#ffffff" fill-rule="evenodd" fill-opacity="1"/>
<defs>
  <clipPath id="clip281">
    <rect x="167" y="47" width="1786" height="1023"/>
  </clipPath>
</defs>
<path clip-path="url(#clip280)" d="M167.976 1068.81 L1952.76 1068.81 L1952.76 47.2441 L167.976 47.2441  Z" fill="#ffffff" fill-rule="evenodd" fill-opacity="1"/>
<polyline clip-path="url(#clip280)" style="stroke:#000000; stroke-linecap:round; stroke-linejoin:round; stroke-width:4; stroke-opacity:1; fill:none" points="167.976,1068.81 1952.76,1068.81 "/>
<polyline clip-path="url(#clip280)" style="stroke:#000000; stroke-linecap:round; stroke-linejoin:round; stroke-width:4; stroke-opacity:1; fill:none" points="484.345,1068.81 484.345,1049.91 "/>
<polyline clip-path="url(#clip280)" style="stroke:#000000; stroke-linecap:round; stroke-linejoin:round; stroke-width:4; stroke-opacity:1; fill:none" points="838.819,1068.81 838.819,1049.91 "/>
<polyline clip-path="url(#clip280)" style="stroke:#000000; stroke-linecap:round; stroke-linejoin:round; stroke-width:4; stroke-opacity:1; fill:none" points="1193.29,1068.81 1193.29,1049.91 "/>
<polyline clip-path="url(#clip280)" style="stroke:#000000; stroke-linecap:round; stroke-linejoin:round; stroke-width:4; stroke-opacity:1; fill:none" points="1547.77,1068.81 1547.77,1049.91 "/>
<polyline clip-path="url(#clip280)" style="stroke:#000000; stroke-linecap:round; stroke-linejoin:round; stroke-width:4; stroke-opacity:1; fill:none" points="1902.24,1068.81 1902.24,1049.91 "/>
<path clip-path="url(#clip280)" d="M478.998 1124.08 L495.317 1124.08 L495.317 1128.01 L473.373 1128.01 L473.373 1124.08 Q476.035 1121.32 480.618 1116.69 Q485.224 1112.04 486.405 1110.7 Q488.65 1108.17 489.53 1106.44 Q490.433 1104.68 490.433 1102.99 Q490.433 1100.23 488.488 1098.5 Q486.567 1096.76 483.465 1096.76 Q481.266 1096.76 478.812 1097.53 Q476.382 1098.29 473.604 1099.84 L473.604 1095.12 Q476.428 1093.98 478.882 1093.41 Q481.336 1092.83 483.373 1092.83 Q488.743 1092.83 491.937 1095.51 Q495.132 1098.2 495.132 1102.69 Q495.132 1104.82 494.322 1106.74 Q493.535 1108.64 491.428 1111.23 Q490.849 1111.9 487.748 1115.12 Q484.646 1118.31 478.998 1124.08 Z" fill="#000000" fill-rule="nonzero" fill-opacity="1" /><path clip-path="url(#clip280)" d="M841.829 1097.53 L830.023 1115.97 L841.829 1115.97 L841.829 1097.53 M840.602 1093.45 L846.481 1093.45 L846.481 1115.97 L851.412 1115.97 L851.412 1119.86 L846.481 1119.86 L846.481 1128.01 L841.829 1128.01 L841.829 1119.86 L826.227 1119.86 L826.227 1115.35 L840.602 1093.45 Z" fill="#000000" fill-rule="nonzero" fill-opacity="1" /><path clip-path="url(#clip280)" d="M1193.7 1108.87 Q1190.55 1108.87 1188.7 1111.02 Q1186.87 1113.17 1186.87 1116.92 Q1186.87 1120.65 1188.7 1122.83 Q1190.55 1124.98 1193.7 1124.98 Q1196.85 1124.98 1198.68 1122.83 Q1200.53 1120.65 1200.53 1116.92 Q1200.53 1113.17 1198.68 1111.02 Q1196.85 1108.87 1193.7 1108.87 M1202.98 1094.22 L1202.98 1098.47 Q1201.22 1097.64 1199.42 1097.2 Q1197.63 1096.76 1195.88 1096.76 Q1191.25 1096.76 1188.79 1099.89 Q1186.36 1103.01 1186.01 1109.33 Q1187.38 1107.32 1189.44 1106.25 Q1191.5 1105.16 1193.98 1105.16 Q1199.19 1105.16 1202.19 1108.34 Q1205.23 1111.48 1205.23 1116.92 Q1205.23 1122.25 1202.08 1125.47 Q1198.93 1128.68 1193.7 1128.68 Q1187.7 1128.68 1184.53 1124.1 Q1181.36 1119.49 1181.36 1110.77 Q1181.36 1102.57 1185.25 1097.71 Q1189.14 1092.83 1195.69 1092.83 Q1197.45 1092.83 1199.23 1093.17 Q1201.04 1093.52 1202.98 1094.22 Z" fill="#000000" fill-rule="nonzero" fill-opacity="1" /><path clip-path="url(#clip280)" d="M1547.77 1111.6 Q1544.44 1111.6 1542.51 1113.38 Q1540.62 1115.16 1540.62 1118.29 Q1540.62 1121.41 1542.51 1123.2 Q1544.44 1124.98 1547.77 1124.98 Q1551.1 1124.98 1553.02 1123.2 Q1554.94 1121.39 1554.94 1118.29 Q1554.94 1115.16 1553.02 1113.38 Q1551.13 1111.6 1547.77 1111.6 M1543.09 1109.61 Q1540.08 1108.87 1538.39 1106.81 Q1536.73 1104.75 1536.73 1101.78 Q1536.73 1097.64 1539.67 1095.23 Q1542.63 1092.83 1547.77 1092.83 Q1552.93 1092.83 1555.87 1095.23 Q1558.81 1097.64 1558.81 1101.78 Q1558.81 1104.75 1557.12 1106.81 Q1555.45 1108.87 1552.47 1109.61 Q1555.85 1110.4 1557.72 1112.69 Q1559.62 1114.98 1559.62 1118.29 Q1559.62 1123.31 1556.54 1126 Q1553.49 1128.68 1547.77 1128.68 Q1542.05 1128.68 1538.97 1126 Q1535.92 1123.31 1535.92 1118.29 Q1535.92 1114.98 1537.82 1112.69 Q1539.71 1110.4 1543.09 1109.61 M1541.38 1102.22 Q1541.38 1104.91 1543.05 1106.41 Q1544.74 1107.92 1547.77 1107.92 Q1550.78 1107.92 1552.47 1106.41 Q1554.18 1104.91 1554.18 1102.22 Q1554.18 1099.54 1552.47 1098.03 Q1550.78 1096.53 1547.77 1096.53 Q1544.74 1096.53 1543.05 1098.03 Q1541.38 1099.54 1541.38 1102.22 Z" fill="#000000" fill-rule="nonzero" fill-opacity="1" /><path clip-path="url(#clip280)" d="M1876.93 1124.08 L1884.57 1124.08 L1884.57 1097.71 L1876.26 1099.38 L1876.26 1095.12 L1884.52 1093.45 L1889.2 1093.45 L1889.2 1124.08 L1896.84 1124.08 L1896.84 1128.01 L1876.93 1128.01 L1876.93 1124.08 Z" fill="#000000" fill-rule="nonzero" fill-opacity="1" /><path clip-path="url(#clip280)" d="M1916.28 1096.53 Q1912.67 1096.53 1910.84 1100.1 Q1909.04 1103.64 1909.04 1110.77 Q1909.04 1117.87 1910.84 1121.44 Q1912.67 1124.98 1916.28 1124.98 Q1919.92 1124.98 1921.72 1121.44 Q1923.55 1117.87 1923.55 1110.77 Q1923.55 1103.64 1921.72 1100.1 Q1919.92 1096.53 1916.28 1096.53 M1916.28 1092.83 Q1922.09 1092.83 1925.15 1097.43 Q1928.23 1102.02 1928.23 1110.77 Q1928.23 1119.49 1925.15 1124.1 Q1922.09 1128.68 1916.28 1128.68 Q1910.47 1128.68 1907.39 1124.1 Q1904.34 1119.49 1904.34 1110.77 Q1904.34 1102.02 1907.39 1097.43 Q1910.47 1092.83 1916.28 1092.83 Z" fill="#000000" fill-rule="nonzero" fill-opacity="1" /><path clip-path="url(#clip280)" d="M958.86 1157.6 L958.86 1164.38 Q955.614 1161.36 951.921 1159.86 Q948.261 1158.37 944.123 1158.37 Q935.975 1158.37 931.647 1163.36 Q927.318 1168.33 927.318 1177.75 Q927.318 1187.14 931.647 1192.14 Q935.975 1197.1 944.123 1197.1 Q948.261 1197.1 951.921 1195.61 Q955.614 1194.11 958.86 1191.09 L958.86 1197.8 Q955.486 1200.09 951.699 1201.24 Q947.943 1202.38 943.742 1202.38 Q932.952 1202.38 926.745 1195.8 Q920.539 1189.18 920.539 1177.75 Q920.539 1166.29 926.745 1159.7 Q932.952 1153.08 943.742 1153.08 Q948.007 1153.08 951.762 1154.23 Q955.55 1155.34 958.86 1157.6 Z" fill="#000000" fill-rule="nonzero" fill-opacity="1" /><path clip-path="url(#clip280)" d="M984.737 1183.54 Q977.639 1183.54 974.902 1185.17 Q972.164 1186.79 972.164 1190.7 Q972.164 1193.82 974.201 1195.67 Q976.27 1197.48 979.803 1197.48 Q984.673 1197.48 987.601 1194.05 Q990.561 1190.58 990.561 1184.85 L990.561 1183.54 L984.737 1183.54 M996.418 1181.12 L996.418 1201.46 L990.561 1201.46 L990.561 1196.05 Q988.556 1199.3 985.564 1200.86 Q982.572 1202.38 978.244 1202.38 Q972.769 1202.38 969.523 1199.33 Q966.308 1196.24 966.308 1191.09 Q966.308 1185.07 970.318 1182.01 Q974.361 1178.96 982.35 1178.96 L990.561 1178.96 L990.561 1178.39 Q990.561 1174.34 987.888 1172.15 Q985.246 1169.92 980.44 1169.92 Q977.384 1169.92 974.488 1170.65 Q971.591 1171.38 968.918 1172.85 L968.918 1167.44 Q972.133 1166.2 975.156 1165.59 Q978.18 1164.95 981.045 1164.95 Q988.779 1164.95 992.598 1168.96 Q996.418 1172.98 996.418 1181.12 Z" fill="#000000" fill-rule="nonzero" fill-opacity="1" /><path clip-path="url(#clip280)" d="M1014.15 1196.11 L1014.15 1215.02 L1008.26 1215.02 L1008.26 1165.81 L1014.15 1165.81 L1014.15 1171.22 Q1015.99 1168.04 1018.79 1166.51 Q1021.63 1164.95 1025.54 1164.95 Q1032.03 1164.95 1036.08 1170.11 Q1040.15 1175.27 1040.15 1183.67 Q1040.15 1192.07 1036.08 1197.23 Q1032.03 1202.38 1025.54 1202.38 Q1021.63 1202.38 1018.79 1200.86 Q1015.99 1199.3 1014.15 1196.11 M1034.07 1183.67 Q1034.07 1177.21 1031.4 1173.55 Q1028.76 1169.86 1024.11 1169.86 Q1019.46 1169.86 1016.79 1173.55 Q1014.15 1177.21 1014.15 1183.67 Q1014.15 1190.13 1016.79 1193.82 Q1019.46 1197.48 1024.11 1197.48 Q1028.76 1197.48 1031.4 1193.82 Q1034.07 1190.13 1034.07 1183.67 Z" fill="#000000" fill-rule="nonzero" fill-opacity="1" /><path clip-path="url(#clip280)" d="M1049.86 1165.81 L1055.71 1165.81 L1055.71 1201.46 L1049.86 1201.46 L1049.86 1165.81 M1049.86 1151.94 L1055.71 1151.94 L1055.71 1159.35 L1049.86 1159.35 L1049.86 1151.94 Z" fill="#000000" fill-rule="nonzero" fill-opacity="1" /><path clip-path="url(#clip280)" d="M1073.76 1155.69 L1073.76 1165.81 L1085.82 1165.81 L1085.82 1170.37 L1073.76 1170.37 L1073.76 1189.72 Q1073.76 1194.08 1074.94 1195.32 Q1076.15 1196.56 1079.81 1196.56 L1085.82 1196.56 L1085.82 1201.46 L1079.81 1201.46 Q1073.03 1201.46 1070.45 1198.95 Q1067.87 1196.4 1067.87 1189.72 L1067.87 1170.37 L1063.58 1170.37 L1063.58 1165.81 L1067.87 1165.81 L1067.87 1155.69 L1073.76 1155.69 Z" fill="#000000" fill-rule="nonzero" fill-opacity="1" /><path clip-path="url(#clip280)" d="M1109.73 1183.54 Q1102.63 1183.54 1099.89 1185.17 Q1097.16 1186.79 1097.16 1190.7 Q1097.16 1193.82 1099.19 1195.67 Q1101.26 1197.48 1104.79 1197.48 Q1109.66 1197.48 1112.59 1194.05 Q1115.55 1190.58 1115.55 1184.85 L1115.55 1183.54 L1109.73 1183.54 M1121.41 1181.12 L1121.41 1201.46 L1115.55 1201.46 L1115.55 1196.05 Q1113.55 1199.3 1110.55 1200.86 Q1107.56 1202.38 1103.23 1202.38 Q1097.76 1202.38 1094.51 1199.33 Q1091.3 1196.24 1091.3 1191.09 Q1091.3 1185.07 1095.31 1182.01 Q1099.35 1178.96 1107.34 1178.96 L1115.55 1178.96 L1115.55 1178.39 Q1115.55 1174.34 1112.88 1172.15 Q1110.24 1169.92 1105.43 1169.92 Q1102.37 1169.92 1099.48 1170.65 Q1096.58 1171.38 1093.91 1172.85 L1093.91 1167.44 Q1097.12 1166.2 1100.15 1165.59 Q1103.17 1164.95 1106.04 1164.95 Q1113.77 1164.95 1117.59 1168.96 Q1121.41 1172.98 1121.41 1181.12 Z" fill="#000000" fill-rule="nonzero" fill-opacity="1" /><path clip-path="url(#clip280)" d="M1133.47 1151.94 L1139.33 1151.94 L1139.33 1201.46 L1133.47 1201.46 L1133.47 1151.94 Z" fill="#000000" fill-rule="nonzero" fill-opacity="1" /><path clip-path="url(#clip280)" d="M1196.01 1176.47 Q1196.01 1178.31 1194.89 1179.4 Q1193.79 1180.5 1192.41 1180.5 Q1191.18 1180.5 1190.54 1179.79 Q1189.9 1179.08 1189.9 1178.18 Q1189.9 1177.79 1190.06 1177.31 Q1190.22 1176.79 1190.57 1176.18 Q1190.96 1175.57 1191.76 1175.12 Q1192.57 1174.67 1193.66 1174.6 Q1193.44 1174.38 1193.37 1174.34 Q1192.89 1173.96 1191.99 1173.83 Q1191.86 1173.76 1191.41 1173.76 Q1189.19 1173.76 1186.93 1175.41 Q1184.71 1177.02 1181.97 1180.08 Q1178.53 1183.65 1176.3 1184.97 Q1186.06 1186.26 1186.06 1191.9 Q1186.06 1192.83 1185.8 1193.96 Q1185.29 1196.08 1185.29 1197.63 Q1185.29 1200.72 1187.38 1200.72 Q1189.41 1200.72 1190.7 1198.66 Q1192.02 1196.6 1193.12 1192.57 Q1193.28 1191.83 1193.44 1191.61 Q1193.6 1191.38 1194.05 1191.38 Q1194.85 1191.38 1194.85 1192.03 Q1194.11 1195.79 1192.47 1198.69 Q1190.38 1202.2 1187.25 1202.2 Q1184.65 1202.2 1182.91 1200.4 Q1181.2 1198.56 1181.2 1195.66 Q1181.2 1194.96 1181.46 1193.35 Q1181.65 1192.7 1181.65 1191.96 Q1181.65 1190.45 1180.81 1189.32 Q1179.98 1188.16 1178.62 1187.58 Q1177.27 1187 1176.14 1186.74 Q1175.05 1186.45 1173.99 1186.36 Q1170.76 1199.98 1170.31 1200.82 Q1170.02 1201.4 1169.38 1201.78 Q1168.74 1202.2 1168.06 1202.2 Q1167.42 1202.2 1166.77 1201.75 Q1166.16 1201.33 1166.16 1200.33 Q1166.16 1199.82 1166.42 1198.89 L1175.98 1160.88 L1176.18 1159.59 Q1176.18 1159.21 1176.01 1159.01 Q1175.89 1158.79 1175.11 1158.63 Q1174.37 1158.47 1172.89 1158.47 Q1172.28 1158.47 1171.99 1158.43 Q1171.73 1158.4 1171.51 1158.24 Q1171.28 1158.05 1171.28 1157.66 Q1171.28 1157.11 1171.51 1156.82 Q1171.76 1156.5 1171.96 1156.44 Q1172.15 1156.37 1172.54 1156.34 Q1173.08 1156.31 1174.92 1156.15 Q1176.76 1155.95 1178.33 1155.83 Q1179.91 1155.7 1180.59 1155.7 Q1180.97 1155.7 1181.17 1155.89 Q1181.39 1156.05 1181.42 1156.24 L1181.46 1156.41 L1174.6 1184.23 Q1177.43 1183.1 1181.91 1178.11 Q1187.09 1172.32 1191.54 1172.32 Q1193.63 1172.32 1194.82 1173.6 Q1196.01 1174.86 1196.01 1176.47 Z" fill="#000000" fill-rule="nonzero" fill-opacity="1" /><polyline clip-path="url(#clip280)" style="stroke:#000000; stroke-linecap:round; stroke-linejoin:round; stroke-width:4; stroke-opacity:1; fill:none" points="167.976,1068.81 167.976,47.2441 "/>
<polyline clip-path="url(#clip280)" style="stroke:#000000; stroke-linecap:round; stroke-linejoin:round; stroke-width:4; stroke-opacity:1; fill:none" points="167.976,856.449 186.874,856.449 "/>
<polyline clip-path="url(#clip280)" style="stroke:#000000; stroke-linecap:round; stroke-linejoin:round; stroke-width:4; stroke-opacity:1; fill:none" points="167.976,640.694 186.874,640.694 "/>
<polyline clip-path="url(#clip280)" style="stroke:#000000; stroke-linecap:round; stroke-linejoin:round; stroke-width:4; stroke-opacity:1; fill:none" points="167.976,424.939 186.874,424.939 "/>
<polyline clip-path="url(#clip280)" style="stroke:#000000; stroke-linecap:round; stroke-linejoin:round; stroke-width:4; stroke-opacity:1; fill:none" points="167.976,209.184 186.874,209.184 "/>
<path clip-path="url(#clip280)" d="M121.657 869.794 L137.976 869.794 L137.976 873.729 L116.032 873.729 L116.032 869.794 Q118.694 867.04 123.277 862.41 Q127.884 857.757 129.064 856.415 Q131.31 853.892 132.189 852.156 Q133.092 850.396 133.092 848.706 Q133.092 845.952 131.148 844.216 Q129.226 842.48 126.124 842.48 Q123.925 842.48 121.472 843.244 Q119.041 844.007 116.263 845.558 L116.263 840.836 Q119.087 839.702 121.541 839.123 Q123.995 838.544 126.032 838.544 Q131.402 838.544 134.597 841.23 Q137.791 843.915 137.791 848.406 Q137.791 850.535 136.981 852.456 Q136.194 854.355 134.087 856.947 Q133.509 857.618 130.407 860.836 Q127.305 864.03 121.657 869.794 Z" fill="#000000" fill-rule="nonzero" fill-opacity="1" /><path clip-path="url(#clip280)" d="M128.393 627.488 L116.587 645.937 L128.393 645.937 L128.393 627.488 M127.166 623.414 L133.046 623.414 L133.046 645.937 L137.976 645.937 L137.976 649.826 L133.046 649.826 L133.046 657.974 L128.393 657.974 L128.393 649.826 L112.791 649.826 L112.791 645.312 L127.166 623.414 Z" fill="#000000" fill-rule="nonzero" fill-opacity="1" /><path clip-path="url(#clip280)" d="M126.449 423.076 Q123.3 423.076 121.449 425.228 Q119.62 427.381 119.62 431.131 Q119.62 434.858 121.449 437.034 Q123.3 439.187 126.449 439.187 Q129.597 439.187 131.425 437.034 Q133.277 434.858 133.277 431.131 Q133.277 427.381 131.425 425.228 Q129.597 423.076 126.449 423.076 M135.731 408.423 L135.731 412.682 Q133.972 411.849 132.166 411.409 Q130.384 410.969 128.624 410.969 Q123.995 410.969 121.541 414.094 Q119.111 417.219 118.763 423.538 Q120.129 421.525 122.189 420.46 Q124.249 419.372 126.726 419.372 Q131.935 419.372 134.944 422.543 Q137.976 425.691 137.976 431.131 Q137.976 436.455 134.828 439.673 Q131.68 442.89 126.449 442.89 Q120.453 442.89 117.282 438.307 Q114.111 433.7 114.111 424.974 Q114.111 416.779 118 411.918 Q121.888 407.034 128.439 407.034 Q130.199 407.034 131.981 407.381 Q133.786 407.728 135.731 408.423 Z" fill="#000000" fill-rule="nonzero" fill-opacity="1" /><path clip-path="url(#clip280)" d="M126.124 210.052 Q122.791 210.052 120.87 211.834 Q118.972 213.616 118.972 216.741 Q118.972 219.866 120.87 221.649 Q122.791 223.431 126.124 223.431 Q129.458 223.431 131.379 221.649 Q133.3 219.843 133.3 216.741 Q133.3 213.616 131.379 211.834 Q129.481 210.052 126.124 210.052 M121.449 208.061 Q118.439 207.32 116.75 205.26 Q115.083 203.2 115.083 200.237 Q115.083 196.093 118.023 193.686 Q120.986 191.279 126.124 191.279 Q131.286 191.279 134.226 193.686 Q137.166 196.093 137.166 200.237 Q137.166 203.2 135.476 205.26 Q133.81 207.32 130.824 208.061 Q134.203 208.848 136.078 211.14 Q137.976 213.431 137.976 216.741 Q137.976 221.765 134.898 224.45 Q131.842 227.135 126.124 227.135 Q120.407 227.135 117.328 224.45 Q114.273 221.765 114.273 216.741 Q114.273 213.431 116.171 211.14 Q118.069 208.848 121.449 208.061 M119.736 200.677 Q119.736 203.362 121.402 204.867 Q123.092 206.371 126.124 206.371 Q129.134 206.371 130.824 204.867 Q132.536 203.362 132.536 200.677 Q132.536 197.992 130.824 196.487 Q129.134 194.982 126.124 194.982 Q123.092 194.982 121.402 196.487 Q119.736 197.992 119.736 200.677 Z" fill="#000000" fill-rule="nonzero" fill-opacity="1" /><path clip-path="url(#clip280)" d="M70.6138 709.179 L23.0938 727.322 L23.0938 720.606 L63.1023 705.551 L23.0938 690.464 L23.0938 683.78 L70.6138 701.891 L70.6138 709.179 Z" fill="#000000" fill-rule="nonzero" fill-opacity="1" /><path clip-path="url(#clip280)" d="M52.6944 665.956 Q52.6944 673.054 54.3176 675.791 Q55.9409 678.528 59.8558 678.528 Q62.975 678.528 64.821 676.491 Q66.6353 674.423 66.6353 670.89 Q66.6353 666.02 63.1978 663.092 Q59.7285 660.132 53.9993 660.132 L52.6944 660.132 L52.6944 665.956 M50.2754 654.275 L70.6138 654.275 L70.6138 660.132 L65.203 660.132 Q68.4495 662.137 70.0091 665.129 Q71.5369 668.12 71.5369 672.449 Q71.5369 677.924 68.4813 681.17 Q65.394 684.385 60.2377 684.385 Q54.2221 684.385 51.1666 680.374 Q48.1111 676.332 48.1111 668.343 L48.1111 660.132 L47.5381 660.132 Q43.4959 660.132 41.2998 662.805 Q39.0718 665.447 39.0718 670.253 Q39.0718 673.309 39.8038 676.205 Q40.5359 679.101 42 681.775 L36.5891 681.775 Q35.3478 678.56 34.7431 675.537 Q34.1065 672.513 34.1065 669.648 Q34.1065 661.914 38.1169 658.094 Q42.1273 654.275 50.2754 654.275 Z" fill="#000000" fill-rule="nonzero" fill-opacity="1" /><path clip-path="url(#clip280)" d="M21.0886 642.212 L21.0886 636.356 L70.6138 636.356 L70.6138 642.212 L21.0886 642.212 Z" fill="#000000" fill-rule="nonzero" fill-opacity="1" /><path clip-path="url(#clip280)" d="M56.5456 624.706 L34.9659 624.706 L34.9659 618.85 L56.3228 618.85 Q61.3836 618.85 63.9298 616.877 Q66.4443 614.903 66.4443 610.956 Q66.4443 606.214 63.4206 603.477 Q60.3969 600.708 55.177 600.708 L34.9659 600.708 L34.9659 594.851 L70.6138 594.851 L70.6138 600.708 L65.1393 600.708 Q68.3858 602.84 69.9773 605.673 Q71.5369 608.474 71.5369 612.198 Q71.5369 618.341 67.7174 621.523 Q63.898 624.706 56.5456 624.706 M34.1065 609.97 L34.1065 609.97 Z" fill="#000000" fill-rule="nonzero" fill-opacity="1" /><path clip-path="url(#clip280)" d="M51.3257 552.296 L54.1903 552.296 L54.1903 579.223 Q60.2377 578.841 63.4206 575.595 Q66.5716 572.317 66.5716 566.492 Q66.5716 563.118 65.7441 559.967 Q64.9165 556.784 63.2614 553.665 L68.7996 553.665 Q70.1364 556.816 70.8366 560.126 Q71.5369 563.436 71.5369 566.842 Q71.5369 575.372 66.5716 580.369 Q61.6064 585.334 53.14 585.334 Q44.3871 585.334 39.2627 580.624 Q34.1065 575.881 34.1065 567.861 Q34.1065 560.667 38.7535 556.498 Q43.3686 552.296 51.3257 552.296 M49.607 558.153 Q44.8009 558.217 41.9363 560.858 Q39.0718 563.468 39.0718 567.797 Q39.0718 572.699 41.8408 575.659 Q44.6099 578.587 49.6388 579.032 L49.607 558.153 Z" fill="#000000" fill-rule="nonzero" fill-opacity="1" /><path clip-path="url(#clip280)" d="M26.363 481.086 Q27.5546 481.151 27.619 481.956 Q27.6834 483.18 27.8444 483.92 Q27.9733 484.661 28.4564 485.82 Q28.9394 486.98 30.0989 488.107 Q31.2583 489.234 33.094 490.394 L70.8715 514.129 Q71.58 514.548 71.8054 514.902 Q72.0631 515.224 72.0631 515.965 Q72.0631 516.641 71.7732 516.899 Q71.5156 517.157 70.5494 517.286 L29.8412 522.503 Q29.1005 522.6 28.7784 522.696 Q28.4564 522.793 28.1343 523.179 Q27.8122 523.534 27.7156 524.306 Q27.619 525.079 27.619 526.464 Q27.619 527.108 27.5868 527.398 Q27.5546 527.656 27.3936 527.881 Q27.2003 528.107 26.8139 528.107 Q26.2342 528.107 25.9443 527.881 Q25.6222 527.624 25.59 527.43 Q25.5578 527.205 25.5578 526.851 Q25.5578 526.303 25.6222 525.112 Q25.6867 523.92 25.6867 523.308 Q25.6867 522.728 25.7189 521.505 Q25.7511 520.281 25.7511 519.669 Q25.7511 518.316 25.6545 515.579 Q25.5578 512.809 25.5578 511.489 Q25.5578 510.587 26.2986 510.587 Q27.2003 510.587 27.4258 510.973 Q27.619 511.36 27.619 512.229 Q27.619 514.419 28.1665 515.611 Q28.714 516.77 29.5836 516.77 L64.4947 512.294 L32.2889 492.036 Q30.7752 491.038 29.7768 491.038 Q27.8444 491.038 27.619 494.097 Q27.619 495.128 26.8139 495.128 Q26.2342 495.128 25.9443 494.87 Q25.6222 494.613 25.59 494.419 Q25.5578 494.194 25.5578 493.872 Q25.5578 492.809 25.6545 490.651 Q25.7511 488.461 25.7511 487.366 Q25.7511 486.465 25.6545 484.629 Q25.5578 482.793 25.5578 481.956 Q25.5578 481.086 26.363 481.086 Z" fill="#000000" fill-rule="nonzero" fill-opacity="1" /><path clip-path="url(#clip280)" d="M54.1244 472.365 Q42.9812 472.365 33.9958 468.211 Q30.2277 466.439 27.0715 463.96 Q23.9153 461.48 22.5305 459.837 Q21.1456 458.195 21.1456 457.744 Q21.1456 457.1 21.7897 457.068 Q22.1118 457.068 22.917 457.937 Q33.7381 468.565 54.1244 468.533 Q74.5752 468.533 84.9776 458.195 Q86.1049 457.068 86.4591 457.068 Q87.1032 457.068 87.1032 457.744 Q87.1032 458.195 85.7828 459.773 Q84.4624 461.351 81.435 463.799 Q78.4077 466.246 74.704 468.018 Q65.7185 472.365 54.1244 472.365 Z" fill="#000000" fill-rule="nonzero" fill-opacity="1" /><path clip-path="url(#clip280)" d="M45.6221 421.144 Q47.4578 421.144 48.5528 422.271 Q49.6478 423.366 49.6478 424.751 Q49.6478 425.975 48.9393 426.619 Q48.2308 427.263 47.329 427.263 Q46.9425 427.263 46.4594 427.102 Q45.9441 426.941 45.3322 426.587 Q44.7203 426.2 44.2694 425.395 Q43.8186 424.59 43.7541 423.495 Q43.5287 423.721 43.4965 423.785 Q43.11 424.268 42.9812 425.17 Q42.9168 425.299 42.9168 425.75 Q42.9168 427.972 44.5593 430.226 Q46.1696 432.448 49.2291 435.186 Q52.804 438.632 54.1244 440.854 Q55.4127 431.096 61.0487 431.096 Q61.9827 431.096 63.1099 431.353 Q65.2355 431.869 66.7813 431.869 Q69.8731 431.869 69.8731 429.775 Q69.8731 427.746 67.8119 426.458 Q65.7507 425.138 61.725 424.043 Q60.9843 423.882 60.7588 423.721 Q60.5334 423.56 60.5334 423.109 Q60.5334 422.304 61.1775 422.304 Q64.9456 423.044 67.8441 424.687 Q71.3546 426.78 71.3546 429.904 Q71.3546 432.513 69.551 434.252 Q67.7153 435.959 64.8168 435.959 Q64.1082 435.959 62.498 435.701 Q61.8538 435.508 61.1131 435.508 Q59.5994 435.508 58.4722 436.345 Q57.3128 437.183 56.7331 438.535 Q56.1534 439.888 55.8958 441.015 Q55.6059 442.11 55.5093 443.173 Q69.1324 446.394 69.9697 446.844 Q70.5494 447.134 70.9359 447.778 Q71.3546 448.422 71.3546 449.099 Q71.3546 449.743 70.9037 450.387 Q70.485 450.999 69.4866 450.999 Q68.9713 450.999 68.0374 450.741 L30.0344 441.176 L28.7462 440.983 Q28.3597 440.983 28.1665 441.144 Q27.9411 441.273 27.78 442.046 Q27.619 442.786 27.619 444.268 Q27.619 444.88 27.5868 445.17 Q27.5546 445.427 27.3936 445.653 Q27.2003 445.878 26.8139 445.878 Q26.2664 445.878 25.9765 445.653 Q25.6545 445.395 25.59 445.202 Q25.5256 445.009 25.4934 444.622 Q25.4612 444.075 25.3002 442.239 Q25.107 440.403 24.9781 438.825 Q24.8493 437.247 24.8493 436.571 Q24.8493 436.184 25.0425 435.991 Q25.2036 435.766 25.3968 435.733 L25.5578 435.701 L53.3837 442.561 Q52.2565 439.727 47.2646 435.25 Q41.4675 430.065 41.4675 425.621 Q41.4675 423.527 42.7558 422.336 Q44.0118 421.144 45.6221 421.144 Z" fill="#000000" fill-rule="nonzero" fill-opacity="1" /><path clip-path="url(#clip280)" d="M86.4591 414.061 Q86.1371 414.061 85.3319 413.223 Q74.5107 402.595 54.1244 402.595 Q33.6737 402.595 23.3356 412.805 Q22.144 414.061 21.7897 414.061 Q21.1456 414.061 21.1456 413.417 Q21.1456 412.966 22.4661 411.388 Q23.7865 409.777 26.8139 407.362 Q29.8412 404.914 33.5449 403.111 Q42.5303 398.763 54.1244 398.763 Q65.2677 398.763 74.2531 402.917 Q78.0212 404.689 81.1774 407.169 Q84.3335 409.648 85.7184 411.291 Q87.1032 412.933 87.1032 413.417 Q87.1032 414.061 86.4591 414.061 Z" fill="#000000" fill-rule="nonzero" fill-opacity="1" /><polyline clip-path="url(#clip281)" style="stroke:#0f6a81; stroke-linecap:round; stroke-linejoin:round; stroke-width:4; stroke-opacity:1; fill:none" points="218.489,1039.9 235.326,1005.8 252.164,975.21 269.002,947.356 285.839,921.724 302.677,897.891 319.514,875.594 336.352,854.633 353.189,834.792 370.027,815.954 386.864,798.024 403.702,780.859 420.539,764.403 437.377,748.606 454.214,733.361 471.052,718.639 487.89,704.417 504.727,690.604 521.565,677.189 538.402,664.162 555.24,651.443 572.077,639.03 588.915,627.016 605.752,615.25 622.59,603.833 639.427,592.612 656.265,581.698 673.103,570.936 689.94,560.444 706.778,550.064 723.615,539.923 740.453,530.008 757.29,520.297 774.128,510.766 790.965,501.396 807.803,492.164 824.64,483.051 841.478,474.036 858.316,465.101 875.153,456.226 891.991,447.564 908.828,439.335 925.666,431.229 942.503,423.172 959.341,415.175 976.178,407.25 993.016,399.407 1009.85,391.655 1026.69,384.003 1043.53,376.458 1060.37,369.029 1077.2,361.715 1094.04,354.428 1110.88,347.261 1127.72,340.129 1144.55,333.122 1161.39,326.157 1178.23,319.321 1195.07,312.532 1211.9,305.804 1228.74,299.16 1245.58,292.57 1262.42,286.043 1279.25,279.605 1296.09,273.226 1312.93,266.913 1329.77,260.646 1346.6,254.433 1363.44,248.281 1380.28,242.2 1397.12,236.167 1413.95,230.192 1430.79,224.28 1447.63,218.399 1464.47,212.565 1481.3,206.782 1498.14,201.059 1514.98,195.401 1531.82,189.777 1548.65,184.202 1565.49,178.649 1582.33,173.13 1599.17,167.672 1616.01,162.281 1632.84,156.925 1649.68,151.621 1666.52,146.341 1683.36,141.072 1700.19,135.828 1717.03,130.647 1733.87,125.533 1750.71,120.456 1767.54,115.431 1784.38,110.412 1801.22,105.413 1818.06,100.428 1834.89,95.4696 1851.73,90.5738 1868.57,85.7455 1885.41,80.9482 1902.24,76.1564 "/>
</svg>
