<?xml version="1.0" encoding="utf-8"?>
<svg xmlns="http://www.w3.org/2000/svg" xmlns:xlink="http://www.w3.org/1999/xlink" width="500" height="309" viewBox="0 0 2000 1236">
<defs>
  <clipPath id="clip400">
    <rect x="0" y="0" width="2000" height="1236"/>
  </clipPath>
</defs>
<path clip-path="url(#clip400)" d="M0 1236 L2000 1236 L2000 1.24345e-14 L0 1.24345e-14  Z" fill="#ffffff" fill-rule="evenodd" fill-opacity="1"/>
<defs>
  <clipPath id="clip401">
    <rect x="1189" y="47" width="764" height="1023"/>
  </clipPath>
</defs>
<path clip-path="url(#clip400)" d="M211.564 1068.81 L974.55 1068.81 L974.55 47.2441 L211.564 47.2441  Z" fill="#ffffff" fill-rule="evenodd" fill-opacity="1"/>
<defs>
  <clipPath id="clip402">
    <rect x="211" y="47" width="764" height="1023"/>
  </clipPath>
</defs>
<polyline clip-path="url(#clip400)" style="stroke:#000000; stroke-linecap:round; stroke-linejoin:round; stroke-width:4; stroke-opacity:1; fill:none" points="211.564,1068.81 974.55,1068.81 "/>
<polyline clip-path="url(#clip400)" style="stroke:#000000; stroke-linecap:round; stroke-linejoin:round; stroke-width:4; stroke-opacity:1; fill:none" points="346.81,1068.81 346.81,1049.91 "/>
<polyline clip-path="url(#clip400)" style="stroke:#000000; stroke-linecap:round; stroke-linejoin:round; stroke-width:4; stroke-opacity:1; fill:none" points="498.347,1068.81 498.347,1049.91 "/>
<polyline clip-path="url(#clip400)" style="stroke:#000000; stroke-linecap:round; stroke-linejoin:round; stroke-width:4; stroke-opacity:1; fill:none" points="649.883,1068.81 649.883,1049.91 "/>
<polyline clip-path="url(#clip400)" style="stroke:#000000; stroke-linecap:round; stroke-linejoin:round; stroke-width:4; stroke-opacity:1; fill:none" points="801.419,1068.81 801.419,1049.91 "/>
<polyline clip-path="url(#clip400)" style="stroke:#000000; stroke-linecap:round; stroke-linejoin:round; stroke-width:4; stroke-opacity:1; fill:none" points="952.956,1068.81 952.956,1049.91 "/>
<path clip-path="url(#clip400)" d="M341.463 1124.08 L357.782 1124.08 L357.782 1128.01 L335.838 1128.01 L335.838 1124.08 Q338.5 1121.32 343.083 1116.69 Q347.69 1112.04 348.87 1110.7 Q351.116 1108.17 351.995 1106.44 Q352.898 1104.68 352.898 1102.99 Q352.898 1100.23 350.954 1098.5 Q349.032 1096.76 345.931 1096.76 Q343.732 1096.76 341.278 1097.53 Q338.847 1098.29 336.07 1099.84 L336.07 1095.12 Q338.894 1093.98 341.347 1093.41 Q343.801 1092.83 345.838 1092.83 Q351.208 1092.83 354.403 1095.51 Q357.597 1098.2 357.597 1102.69 Q357.597 1104.82 356.787 1106.74 Q356 1108.64 353.894 1111.23 Q353.315 1111.9 350.213 1115.12 Q347.111 1118.31 341.463 1124.08 Z" fill="#000000" fill-rule="nonzero" fill-opacity="1" /><path clip-path="url(#clip400)" d="M501.356 1097.53 L489.55 1115.97 L501.356 1115.97 L501.356 1097.53 M500.129 1093.45 L506.009 1093.45 L506.009 1115.97 L510.939 1115.97 L510.939 1119.86 L506.009 1119.86 L506.009 1128.01 L501.356 1128.01 L501.356 1119.86 L485.754 1119.86 L485.754 1115.35 L500.129 1093.45 Z" fill="#000000" fill-rule="nonzero" fill-opacity="1" /><path clip-path="url(#clip400)" d="M650.288 1108.87 Q647.14 1108.87 645.288 1111.02 Q643.459 1113.17 643.459 1116.92 Q643.459 1120.65 645.288 1122.83 Q647.14 1124.98 650.288 1124.98 Q653.436 1124.98 655.265 1122.83 Q657.117 1120.65 657.117 1116.92 Q657.117 1113.17 655.265 1111.02 Q653.436 1108.87 650.288 1108.87 M659.57 1094.22 L659.57 1098.47 Q657.811 1097.64 656.006 1097.2 Q654.223 1096.76 652.464 1096.76 Q647.834 1096.76 645.381 1099.89 Q642.95 1103.01 642.603 1109.33 Q643.969 1107.32 646.029 1106.25 Q648.089 1105.16 650.566 1105.16 Q655.774 1105.16 658.783 1108.34 Q661.816 1111.48 661.816 1116.92 Q661.816 1122.25 658.668 1125.47 Q655.52 1128.68 650.288 1128.68 Q644.293 1128.68 641.121 1124.1 Q637.95 1119.49 637.95 1110.77 Q637.95 1102.57 641.839 1097.71 Q645.728 1092.83 652.279 1092.83 Q654.038 1092.83 655.82 1093.17 Q657.626 1093.52 659.57 1094.22 Z" fill="#000000" fill-rule="nonzero" fill-opacity="1" /><path clip-path="url(#clip400)" d="M801.419 1111.6 Q798.086 1111.6 796.165 1113.38 Q794.267 1115.16 794.267 1118.29 Q794.267 1121.41 796.165 1123.2 Q798.086 1124.98 801.419 1124.98 Q804.753 1124.98 806.674 1123.2 Q808.595 1121.39 808.595 1118.29 Q808.595 1115.16 806.674 1113.38 Q804.776 1111.6 801.419 1111.6 M796.744 1109.61 Q793.734 1108.87 792.044 1106.81 Q790.378 1104.75 790.378 1101.78 Q790.378 1097.64 793.318 1095.23 Q796.281 1092.83 801.419 1092.83 Q806.581 1092.83 809.521 1095.23 Q812.461 1097.64 812.461 1101.78 Q812.461 1104.75 810.771 1106.81 Q809.105 1108.87 806.118 1109.61 Q809.498 1110.4 811.373 1112.69 Q813.271 1114.98 813.271 1118.29 Q813.271 1123.31 810.193 1126 Q807.137 1128.68 801.419 1128.68 Q795.702 1128.68 792.623 1126 Q789.568 1123.31 789.568 1118.29 Q789.568 1114.98 791.466 1112.69 Q793.364 1110.4 796.744 1109.61 M795.031 1102.22 Q795.031 1104.91 796.697 1106.41 Q798.387 1107.92 801.419 1107.92 Q804.429 1107.92 806.118 1106.41 Q807.831 1104.91 807.831 1102.22 Q807.831 1099.54 806.118 1098.03 Q804.429 1096.53 801.419 1096.53 Q798.387 1096.53 796.697 1098.03 Q795.031 1099.54 795.031 1102.22 Z" fill="#000000" fill-rule="nonzero" fill-opacity="1" /><path clip-path="url(#clip400)" d="M927.643 1124.08 L935.282 1124.08 L935.282 1097.71 L926.972 1099.38 L926.972 1095.12 L935.236 1093.45 L939.912 1093.45 L939.912 1124.08 L947.551 1124.08 L947.551 1128.01 L927.643 1128.01 L927.643 1124.08 Z" fill="#000000" fill-rule="nonzero" fill-opacity="1" /><path clip-path="url(#clip400)" d="M966.995 1096.53 Q963.384 1096.53 961.555 1100.1 Q959.75 1103.64 959.75 1110.77 Q959.75 1117.87 961.555 1121.44 Q963.384 1124.98 966.995 1124.98 Q970.629 1124.98 972.435 1121.44 Q974.264 1117.87 974.264 1110.77 Q974.264 1103.64 972.435 1100.1 Q970.629 1096.53 966.995 1096.53 M966.995 1092.83 Q972.805 1092.83 975.861 1097.43 Q978.939 1102.02 978.939 1110.77 Q978.939 1119.49 975.861 1124.1 Q972.805 1128.68 966.995 1128.68 Q961.185 1128.68 958.106 1124.1 Q955.051 1119.49 955.051 1110.77 Q955.051 1102.02 958.106 1097.43 Q961.185 1092.83 966.995 1092.83 Z" fill="#000000" fill-rule="nonzero" fill-opacity="1" /><path clip-path="url(#clip400)" d="M491.551 1157.6 L491.551 1164.38 Q488.304 1161.36 484.612 1159.86 Q480.952 1158.37 476.814 1158.37 Q468.666 1158.37 464.337 1163.36 Q460.009 1168.33 460.009 1177.75 Q460.009 1187.14 464.337 1192.14 Q468.666 1197.1 476.814 1197.1 Q480.952 1197.1 484.612 1195.61 Q488.304 1194.11 491.551 1191.09 L491.551 1197.8 Q488.177 1200.09 484.389 1201.24 Q480.634 1202.38 476.432 1202.38 Q465.642 1202.38 459.436 1195.8 Q453.229 1189.18 453.229 1177.75 Q453.229 1166.29 459.436 1159.7 Q465.642 1153.08 476.432 1153.08 Q480.697 1153.08 484.453 1154.23 Q488.241 1155.34 491.551 1157.6 Z" fill="#000000" fill-rule="nonzero" fill-opacity="1" /><path clip-path="url(#clip400)" d="M517.427 1183.54 Q510.33 1183.54 507.592 1185.17 Q504.855 1186.79 504.855 1190.7 Q504.855 1193.82 506.892 1195.67 Q508.961 1197.48 512.494 1197.48 Q517.364 1197.48 520.292 1194.05 Q523.252 1190.58 523.252 1184.85 L523.252 1183.54 L517.427 1183.54 M529.109 1181.12 L529.109 1201.46 L523.252 1201.46 L523.252 1196.05 Q521.247 1199.3 518.255 1200.86 Q515.263 1202.38 510.934 1202.38 Q505.46 1202.38 502.213 1199.33 Q498.999 1196.24 498.999 1191.09 Q498.999 1185.07 503.009 1182.01 Q507.051 1178.96 515.04 1178.96 L523.252 1178.96 L523.252 1178.39 Q523.252 1174.34 520.578 1172.15 Q517.937 1169.92 513.131 1169.92 Q510.075 1169.92 507.179 1170.65 Q504.282 1171.38 501.609 1172.85 L501.609 1167.44 Q504.823 1166.2 507.847 1165.59 Q510.871 1164.95 513.735 1164.95 Q521.47 1164.95 525.289 1168.96 Q529.109 1172.98 529.109 1181.12 Z" fill="#000000" fill-rule="nonzero" fill-opacity="1" /><path clip-path="url(#clip400)" d="M546.837 1196.11 L546.837 1215.02 L540.949 1215.02 L540.949 1165.81 L546.837 1165.81 L546.837 1171.22 Q548.683 1168.04 551.484 1166.51 Q554.317 1164.95 558.232 1164.95 Q564.725 1164.95 568.767 1170.11 Q572.841 1175.27 572.841 1183.67 Q572.841 1192.07 568.767 1197.23 Q564.725 1202.38 558.232 1202.38 Q554.317 1202.38 551.484 1200.86 Q548.683 1199.3 546.837 1196.11 M566.762 1183.67 Q566.762 1177.21 564.088 1173.55 Q561.446 1169.86 556.799 1169.86 Q552.152 1169.86 549.479 1173.55 Q546.837 1177.21 546.837 1183.67 Q546.837 1190.13 549.479 1193.82 Q552.152 1197.48 556.799 1197.48 Q561.446 1197.48 564.088 1193.82 Q566.762 1190.13 566.762 1183.67 Z" fill="#000000" fill-rule="nonzero" fill-opacity="1" /><path clip-path="url(#clip400)" d="M582.549 1165.81 L588.405 1165.81 L588.405 1201.46 L582.549 1201.46 L582.549 1165.81 M582.549 1151.94 L588.405 1151.94 L588.405 1159.35 L582.549 1159.35 L582.549 1151.94 Z" fill="#000000" fill-rule="nonzero" fill-opacity="1" /><path clip-path="url(#clip400)" d="M606.452 1155.69 L606.452 1165.81 L618.515 1165.81 L618.515 1170.37 L606.452 1170.37 L606.452 1189.72 Q606.452 1194.08 607.63 1195.32 Q608.839 1196.56 612.499 1196.56 L618.515 1196.56 L618.515 1201.46 L612.499 1201.46 Q605.72 1201.46 603.142 1198.95 Q600.564 1196.4 600.564 1189.72 L600.564 1170.37 L596.267 1170.37 L596.267 1165.81 L600.564 1165.81 L600.564 1155.69 L606.452 1155.69 Z" fill="#000000" fill-rule="nonzero" fill-opacity="1" /><path clip-path="url(#clip400)" d="M642.418 1183.54 Q635.32 1183.54 632.583 1185.17 Q629.846 1186.79 629.846 1190.7 Q629.846 1193.82 631.883 1195.67 Q633.952 1197.48 637.485 1197.48 Q642.354 1197.48 645.283 1194.05 Q648.243 1190.58 648.243 1184.85 L648.243 1183.54 L642.418 1183.54 M654.099 1181.12 L654.099 1201.46 L648.243 1201.46 L648.243 1196.05 Q646.238 1199.3 643.246 1200.86 Q640.254 1202.38 635.925 1202.38 Q630.451 1202.38 627.204 1199.33 Q623.989 1196.24 623.989 1191.09 Q623.989 1185.07 628 1182.01 Q632.042 1178.96 640.031 1178.96 L648.243 1178.96 L648.243 1178.39 Q648.243 1174.34 645.569 1172.15 Q642.927 1169.92 638.121 1169.92 Q635.066 1169.92 632.169 1170.65 Q629.273 1171.38 626.599 1172.85 L626.599 1167.44 Q629.814 1166.2 632.838 1165.59 Q635.861 1164.95 638.726 1164.95 Q646.46 1164.95 650.28 1168.96 Q654.099 1172.98 654.099 1181.12 Z" fill="#000000" fill-rule="nonzero" fill-opacity="1" /><path clip-path="url(#clip400)" d="M666.162 1151.94 L672.019 1151.94 L672.019 1201.46 L666.162 1201.46 L666.162 1151.94 Z" fill="#000000" fill-rule="nonzero" fill-opacity="1" /><path clip-path="url(#clip400)" d="M728.705 1176.47 Q728.705 1178.31 727.578 1179.4 Q726.483 1180.5 725.098 1180.5 Q723.874 1180.5 723.23 1179.79 Q722.586 1179.08 722.586 1178.18 Q722.586 1177.79 722.747 1177.31 Q722.908 1176.79 723.262 1176.18 Q723.649 1175.57 724.454 1175.12 Q725.259 1174.67 726.354 1174.6 Q726.128 1174.38 726.064 1174.34 Q725.581 1173.96 724.679 1173.83 Q724.55 1173.76 724.099 1173.76 Q721.877 1173.76 719.623 1175.41 Q717.401 1177.02 714.663 1180.08 Q711.217 1183.65 708.995 1184.97 Q718.753 1186.26 718.753 1191.9 Q718.753 1192.83 718.496 1193.96 Q717.98 1196.08 717.98 1197.63 Q717.98 1200.72 720.074 1200.72 Q722.103 1200.72 723.391 1198.66 Q724.711 1196.6 725.806 1192.57 Q725.967 1191.83 726.128 1191.61 Q726.289 1191.38 726.74 1191.38 Q727.546 1191.38 727.546 1192.03 Q726.805 1195.79 725.162 1198.69 Q723.069 1202.2 719.945 1202.2 Q717.336 1202.2 715.597 1200.4 Q713.89 1198.56 713.89 1195.66 Q713.89 1194.96 714.148 1193.35 Q714.341 1192.7 714.341 1191.96 Q714.341 1190.45 713.504 1189.32 Q712.666 1188.16 711.314 1187.58 Q709.961 1187 708.834 1186.74 Q707.739 1186.45 706.676 1186.36 Q703.456 1199.98 703.005 1200.82 Q702.715 1201.4 702.071 1201.78 Q701.427 1202.2 700.75 1202.2 Q700.106 1202.2 699.462 1201.75 Q698.85 1201.33 698.85 1200.33 Q698.85 1199.82 699.108 1198.89 L708.673 1160.88 L708.866 1159.59 Q708.866 1159.21 708.705 1159.01 Q708.576 1158.79 707.803 1158.63 Q707.063 1158.47 705.581 1158.47 Q704.969 1158.47 704.679 1158.43 Q704.422 1158.4 704.196 1158.24 Q703.971 1158.05 703.971 1157.66 Q703.971 1157.11 704.196 1156.82 Q704.454 1156.5 704.647 1156.44 Q704.84 1156.37 705.227 1156.34 Q705.774 1156.31 707.61 1156.15 Q709.446 1155.95 711.024 1155.83 Q712.602 1155.7 713.278 1155.7 Q713.665 1155.7 713.858 1155.89 Q714.083 1156.05 714.116 1156.24 L714.148 1156.41 L707.288 1184.23 Q710.122 1183.1 714.599 1178.11 Q719.784 1172.32 724.228 1172.32 Q726.322 1172.32 727.513 1173.6 Q728.705 1174.86 728.705 1176.47 Z" fill="#000000" fill-rule="nonzero" fill-opacity="1" /><polyline clip-path="url(#clip400)" style="stroke:#000000; stroke-linecap:round; stroke-linejoin:round; stroke-width:4; stroke-opacity:1; fill:none" points="211.564,1068.81 211.564,47.2441 "/>
<polyline clip-path="url(#clip400)" style="stroke:#000000; stroke-linecap:round; stroke-linejoin:round; stroke-width:4; stroke-opacity:1; fill:none" points="211.564,990.547 230.462,990.547 "/>
<polyline clip-path="url(#clip400)" style="stroke:#000000; stroke-linecap:round; stroke-linejoin:round; stroke-width:4; stroke-opacity:1; fill:none" points="211.564,706.323 230.462,706.323 "/>
<polyline clip-path="url(#clip400)" style="stroke:#000000; stroke-linecap:round; stroke-linejoin:round; stroke-width:4; stroke-opacity:1; fill:none" points="211.564,422.098 230.462,422.098 "/>
<polyline clip-path="url(#clip400)" style="stroke:#000000; stroke-linecap:round; stroke-linejoin:round; stroke-width:4; stroke-opacity:1; fill:none" points="211.564,137.873 230.462,137.873 "/>
<path clip-path="url(#clip400)" d="M125.384 976.346 Q121.773 976.346 119.944 979.911 Q118.138 983.453 118.138 990.582 Q118.138 997.689 119.944 1001.25 Q121.773 1004.8 125.384 1004.8 Q129.018 1004.8 130.824 1001.25 Q132.652 997.689 132.652 990.582 Q132.652 983.453 130.824 979.911 Q129.018 976.346 125.384 976.346 M125.384 972.642 Q131.194 972.642 134.249 977.249 Q137.328 981.832 137.328 990.582 Q137.328 999.309 134.249 1003.92 Q131.194 1008.5 125.384 1008.5 Q119.574 1008.5 116.495 1003.92 Q113.439 999.309 113.439 990.582 Q113.439 981.832 116.495 977.249 Q119.574 972.642 125.384 972.642 Z" fill="#000000" fill-rule="nonzero" fill-opacity="1" /><path clip-path="url(#clip400)" d="M145.546 1001.95 L150.43 1001.95 L150.43 1007.83 L145.546 1007.83 L145.546 1001.95 Z" fill="#000000" fill-rule="nonzero" fill-opacity="1" /><path clip-path="url(#clip400)" d="M160.661 973.267 L179.018 973.267 L179.018 977.203 L164.944 977.203 L164.944 985.675 Q165.962 985.328 166.981 985.166 Q167.999 984.98 169.018 984.98 Q174.805 984.98 178.184 988.152 Q181.564 991.323 181.564 996.74 Q181.564 1002.32 178.092 1005.42 Q174.62 1008.5 168.3 1008.5 Q166.124 1008.5 163.856 1008.13 Q161.61 1007.76 159.203 1007.02 L159.203 1002.32 Q161.286 1003.45 163.509 1004.01 Q165.731 1004.56 168.208 1004.56 Q172.212 1004.56 174.55 1002.46 Q176.888 1000.35 176.888 996.74 Q176.888 993.128 174.55 991.022 Q172.212 988.916 168.208 988.916 Q166.333 988.916 164.458 989.332 Q162.606 989.749 160.661 990.628 L160.661 973.267 Z" fill="#000000" fill-rule="nonzero" fill-opacity="1" /><path clip-path="url(#clip400)" d="M115.199 719.668 L122.837 719.668 L122.837 693.302 L114.527 694.969 L114.527 690.709 L122.791 689.043 L127.467 689.043 L127.467 719.668 L135.106 719.668 L135.106 723.603 L115.199 723.603 L115.199 719.668 Z" fill="#000000" fill-rule="nonzero" fill-opacity="1" /><path clip-path="url(#clip400)" d="M144.55 717.723 L149.435 717.723 L149.435 723.603 L144.55 723.603 L144.55 717.723 Z" fill="#000000" fill-rule="nonzero" fill-opacity="1" /><path clip-path="url(#clip400)" d="M169.62 692.121 Q166.009 692.121 164.18 695.686 Q162.374 699.228 162.374 706.357 Q162.374 713.464 164.18 717.029 Q166.009 720.57 169.62 720.57 Q173.254 720.57 175.059 717.029 Q176.888 713.464 176.888 706.357 Q176.888 699.228 175.059 695.686 Q173.254 692.121 169.62 692.121 M169.62 688.418 Q175.43 688.418 178.485 693.024 Q181.564 697.608 181.564 706.357 Q181.564 715.084 178.485 719.691 Q175.43 724.274 169.62 724.274 Q163.809 724.274 160.731 719.691 Q157.675 715.084 157.675 706.357 Q157.675 697.608 160.731 693.024 Q163.809 688.418 169.62 688.418 Z" fill="#000000" fill-rule="nonzero" fill-opacity="1" /><path clip-path="url(#clip400)" d="M116.194 435.443 L123.833 435.443 L123.833 409.077 L115.523 410.744 L115.523 406.485 L123.787 404.818 L128.462 404.818 L128.462 435.443 L136.101 435.443 L136.101 439.378 L116.194 439.378 L116.194 435.443 Z" fill="#000000" fill-rule="nonzero" fill-opacity="1" /><path clip-path="url(#clip400)" d="M145.546 433.498 L150.43 433.498 L150.43 439.378 L145.546 439.378 L145.546 433.498 Z" fill="#000000" fill-rule="nonzero" fill-opacity="1" /><path clip-path="url(#clip400)" d="M160.661 404.818 L179.018 404.818 L179.018 408.753 L164.944 408.753 L164.944 417.225 Q165.962 416.878 166.981 416.716 Q167.999 416.531 169.018 416.531 Q174.805 416.531 178.184 419.702 Q181.564 422.873 181.564 428.29 Q181.564 433.869 178.092 436.971 Q174.62 440.049 168.3 440.049 Q166.124 440.049 163.856 439.679 Q161.61 439.309 159.203 438.568 L159.203 433.869 Q161.286 435.003 163.509 435.559 Q165.731 436.114 168.208 436.114 Q172.212 436.114 174.55 434.008 Q176.888 431.901 176.888 428.29 Q176.888 424.679 174.55 422.573 Q172.212 420.466 168.208 420.466 Q166.333 420.466 164.458 420.883 Q162.606 421.299 160.661 422.179 L160.661 404.818 Z" fill="#000000" fill-rule="nonzero" fill-opacity="1" /><path clip-path="url(#clip400)" d="M118.416 151.218 L134.736 151.218 L134.736 155.153 L112.791 155.153 L112.791 151.218 Q115.453 148.464 120.037 143.834 Q124.643 139.181 125.824 137.839 Q128.069 135.315 128.949 133.579 Q129.851 131.82 129.851 130.13 Q129.851 127.376 127.907 125.64 Q125.986 123.904 122.884 123.904 Q120.685 123.904 118.231 124.667 Q115.8 125.431 113.023 126.982 L113.023 122.26 Q115.847 121.126 118.3 120.547 Q120.754 119.968 122.791 119.968 Q128.161 119.968 131.356 122.654 Q134.55 125.339 134.55 129.829 Q134.55 131.959 133.74 133.88 Q132.953 135.778 130.847 138.371 Q130.268 139.042 127.166 142.26 Q124.064 145.454 118.416 151.218 Z" fill="#000000" fill-rule="nonzero" fill-opacity="1" /><path clip-path="url(#clip400)" d="M144.55 149.274 L149.435 149.274 L149.435 155.153 L144.55 155.153 L144.55 149.274 Z" fill="#000000" fill-rule="nonzero" fill-opacity="1" /><path clip-path="url(#clip400)" d="M169.62 123.672 Q166.009 123.672 164.18 127.237 Q162.374 130.778 162.374 137.908 Q162.374 145.014 164.18 148.579 Q166.009 152.121 169.62 152.121 Q173.254 152.121 175.059 148.579 Q176.888 145.014 176.888 137.908 Q176.888 130.778 175.059 127.237 Q173.254 123.672 169.62 123.672 M169.62 119.968 Q175.43 119.968 178.485 124.575 Q181.564 129.158 181.564 137.908 Q181.564 146.635 178.485 151.241 Q175.43 155.825 169.62 155.825 Q163.809 155.825 160.731 151.241 Q157.675 146.635 157.675 137.908 Q157.675 129.158 160.731 124.575 Q163.809 119.968 169.62 119.968 Z" fill="#000000" fill-rule="nonzero" fill-opacity="1" /><path clip-path="url(#clip400)" d="M24.4885 758.228 L31.268 758.228 Q28.2443 761.474 26.7483 765.167 Q25.2524 768.827 25.2524 772.965 Q25.2524 781.113 30.2495 785.441 Q35.2147 789.77 44.636 789.77 Q54.0254 789.77 59.0224 785.441 Q63.9877 781.113 63.9877 772.965 Q63.9877 768.827 62.4918 765.167 Q60.9958 761.474 57.9721 758.228 L64.6879 758.228 Q66.9796 761.602 68.1254 765.389 Q69.2712 769.145 69.2712 773.347 Q69.2712 784.136 62.6827 790.343 Q56.0624 796.55 44.636 796.55 Q33.1777 796.55 26.5892 790.343 Q19.9688 784.136 19.9688 773.347 Q19.9688 769.081 21.1147 765.326 Q22.2287 761.538 24.4885 758.228 Z" fill="#000000" fill-rule="nonzero" fill-opacity="1" /><path clip-path="url(#clip400)" d="M36.8061 734.739 Q36.8061 739.449 40.4982 742.186 Q44.1585 744.924 50.5561 744.924 Q56.9536 744.924 60.6457 742.218 Q64.306 739.481 64.306 734.739 Q64.306 730.06 60.6139 727.322 Q56.9218 724.585 50.5561 724.585 Q44.2222 724.585 40.5301 727.322 Q36.8061 730.06 36.8061 734.739 M31.8409 734.739 Q31.8409 727.1 36.8061 722.739 Q41.7714 718.379 50.5561 718.379 Q59.3089 718.379 64.306 722.739 Q69.2712 727.1 69.2712 734.739 Q69.2712 742.409 64.306 746.77 Q59.3089 751.098 50.5561 751.098 Q41.7714 751.098 36.8061 746.77 Q31.8409 742.409 31.8409 734.739 Z" fill="#000000" fill-rule="nonzero" fill-opacity="1" /><path clip-path="url(#clip400)" d="M46.8321 679.039 L68.3482 679.039 L68.3482 684.895 L47.0231 684.895 Q41.9624 684.895 39.4479 686.868 Q36.9334 688.842 36.9334 692.789 Q36.9334 697.531 39.9572 700.268 Q42.9809 703.005 48.2007 703.005 L68.3482 703.005 L68.3482 708.894 L32.7003 708.894 L32.7003 703.005 L38.2384 703.005 Q35.0237 700.905 33.4323 698.072 Q31.8409 695.207 31.8409 691.484 Q31.8409 685.341 35.6603 682.19 Q39.4479 679.039 46.8321 679.039 Z" fill="#000000" fill-rule="nonzero" fill-opacity="1" /><path clip-path="url(#clip400)" d="M33.7506 644.632 L39.2888 644.632 Q38.0156 647.115 37.379 649.788 Q36.7425 652.462 36.7425 655.326 Q36.7425 659.687 38.0793 661.883 Q39.4161 664.047 42.0897 664.047 Q44.1267 664.047 45.3043 662.488 Q46.4502 660.928 47.5005 656.218 L47.9461 654.212 Q49.2829 647.974 51.7337 645.364 Q54.1527 642.722 58.5132 642.722 Q63.4784 642.722 66.3748 646.669 Q69.2712 650.584 69.2712 657.459 Q69.2712 660.323 68.6983 663.443 Q68.1572 666.53 67.0432 669.967 L60.9958 669.967 Q62.6827 666.721 63.5421 663.57 Q64.3696 660.419 64.3696 657.332 Q64.3696 653.194 62.9692 650.966 Q61.5369 648.738 58.9588 648.738 Q56.5717 648.738 55.2985 650.361 Q54.0254 651.952 52.8477 657.395 L52.3703 659.432 Q51.2245 664.875 48.8691 667.294 Q46.482 669.713 42.3443 669.713 Q37.3154 669.713 34.5781 666.148 Q31.8409 662.583 31.8409 656.027 Q31.8409 652.78 32.3183 649.915 Q32.7957 647.051 33.7506 644.632 Z" fill="#000000" fill-rule="nonzero" fill-opacity="1" /><path clip-path="url(#clip400)" d="M54.28 634.001 L32.7003 634.001 L32.7003 628.145 L54.0572 628.145 Q59.1179 628.145 61.6642 626.171 Q64.1787 624.198 64.1787 620.251 Q64.1787 615.509 61.155 612.772 Q58.1312 610.002 52.9114 610.002 L32.7003 610.002 L32.7003 604.146 L68.3482 604.146 L68.3482 610.002 L62.8737 610.002 Q66.1202 612.135 67.7116 614.968 Q69.2712 617.769 69.2712 621.493 Q69.2712 627.635 65.4518 630.818 Q61.6324 634.001 54.28 634.001 M31.8409 619.265 L31.8409 619.265 Z" fill="#000000" fill-rule="nonzero" fill-opacity="1" /><path clip-path="url(#clip400)" d="M39.5434 564.329 Q35.5966 562.132 33.7188 559.077 Q31.8409 556.021 31.8409 551.884 Q31.8409 546.314 35.7558 543.29 Q39.6389 540.266 46.8321 540.266 L68.3482 540.266 L68.3482 546.154 L47.0231 546.154 Q41.8987 546.154 39.4161 547.969 Q36.9334 549.783 36.9334 553.507 Q36.9334 558.058 39.9572 560.7 Q42.9809 563.342 48.2007 563.342 L68.3482 563.342 L68.3482 569.23 L47.0231 569.23 Q41.8669 569.23 39.4161 571.044 Q36.9334 572.859 36.9334 576.646 Q36.9334 581.134 39.989 583.776 Q43.0127 586.418 48.2007 586.418 L68.3482 586.418 L68.3482 592.306 L32.7003 592.306 L32.7003 586.418 L38.2384 586.418 Q34.9601 584.412 33.4005 581.611 Q31.8409 578.811 31.8409 574.959 Q31.8409 571.076 33.8142 568.371 Q35.7876 565.634 39.5434 564.329 Z" fill="#000000" fill-rule="nonzero" fill-opacity="1" /><path clip-path="url(#clip400)" d="M63.001 522.92 L81.9072 522.92 L81.9072 528.808 L32.7003 528.808 L32.7003 522.92 L38.1111 522.92 Q34.9282 521.074 33.4005 518.273 Q31.8409 515.44 31.8409 511.525 Q31.8409 505.032 36.9971 500.99 Q42.1533 496.916 50.5561 496.916 Q58.9588 496.916 64.115 500.99 Q69.2712 505.032 69.2712 511.525 Q69.2712 515.44 67.7435 518.273 Q66.1839 521.074 63.001 522.92 M50.5561 502.995 Q44.0949 502.995 40.4346 505.669 Q36.7425 508.31 36.7425 512.957 Q36.7425 517.604 40.4346 520.278 Q44.0949 522.92 50.5561 522.92 Q57.0173 522.92 60.7094 520.278 Q64.3696 517.604 64.3696 512.957 Q64.3696 508.31 60.7094 505.669 Q57.0173 502.995 50.5561 502.995 Z" fill="#000000" fill-rule="nonzero" fill-opacity="1" /><path clip-path="url(#clip400)" d="M22.5788 481.415 L32.7003 481.415 L32.7003 469.352 L37.2517 469.352 L37.2517 481.415 L56.6035 481.415 Q60.964 481.415 62.2053 480.238 Q63.4466 479.028 63.4466 475.368 L63.4466 469.352 L68.3482 469.352 L68.3482 475.368 Q68.3482 482.147 65.8338 484.725 Q63.2875 487.303 56.6035 487.303 L37.2517 487.303 L37.2517 491.6 L32.7003 491.6 L32.7003 487.303 L22.5788 487.303 L22.5788 481.415 Z" fill="#000000" fill-rule="nonzero" fill-opacity="1" /><path clip-path="url(#clip400)" d="M32.7003 461.65 L32.7003 455.793 L68.3482 455.793 L68.3482 461.65 L32.7003 461.65 M18.823 461.65 L18.823 455.793 L26.2391 455.793 L26.2391 461.65 L18.823 461.65 Z" fill="#000000" fill-rule="nonzero" fill-opacity="1" /><path clip-path="url(#clip400)" d="M36.8061 429.726 Q36.8061 434.436 40.4982 437.174 Q44.1585 439.911 50.5561 439.911 Q56.9536 439.911 60.6457 437.205 Q64.306 434.468 64.306 429.726 Q64.306 425.047 60.6139 422.31 Q56.9218 419.572 50.5561 419.572 Q44.2222 419.572 40.5301 422.31 Q36.8061 425.047 36.8061 429.726 M31.8409 429.726 Q31.8409 422.087 36.8061 417.726 Q41.7714 413.366 50.5561 413.366 Q59.3089 413.366 64.306 417.726 Q69.2712 422.087 69.2712 429.726 Q69.2712 437.396 64.306 441.757 Q59.3089 446.086 50.5561 446.086 Q41.7714 446.086 36.8061 441.757 Q31.8409 437.396 31.8409 429.726 Z" fill="#000000" fill-rule="nonzero" fill-opacity="1" /><path clip-path="url(#clip400)" d="M46.8321 374.026 L68.3482 374.026 L68.3482 379.882 L47.0231 379.882 Q41.9624 379.882 39.4479 381.856 Q36.9334 383.829 36.9334 387.776 Q36.9334 392.518 39.9572 395.255 Q42.9809 397.993 48.2007 397.993 L68.3482 397.993 L68.3482 403.881 L32.7003 403.881 L32.7003 397.993 L38.2384 397.993 Q35.0237 395.892 33.4323 393.059 Q31.8409 390.195 31.8409 386.471 Q31.8409 380.328 35.6603 377.177 Q39.4479 374.026 46.8321 374.026 Z" fill="#000000" fill-rule="nonzero" fill-opacity="1" /><path clip-path="url(#clip400)" d="M60.7154 322.357 Q61.0053 322.099 61.2951 322.099 Q61.585 322.099 62.4223 322.743 Q63.2597 323.355 64.3869 324.676 Q65.5141 325.996 66.5769 327.703 Q67.6397 329.41 68.3482 331.922 Q69.0889 334.434 69.0889 337.075 Q69.0889 342.002 65.8362 344.901 Q62.5834 347.767 57.9135 347.767 Q53.3725 347.767 49.0247 345.223 Q44.6447 342.679 41.9394 338.556 Q39.2019 334.434 39.2019 330.086 Q39.2019 326.64 40.8122 324.482 Q42.4225 322.325 44.8701 322.325 Q46.7703 322.325 47.9297 323.42 Q49.0891 324.515 49.0891 325.996 Q49.0891 327.027 48.5094 327.735 Q47.8975 328.444 46.7703 328.444 Q45.321 328.444 44.1938 327.252 Q43.7429 326.801 43.5497 326.286 Q43.3243 325.738 43.3243 325.416 Q43.292 325.094 43.292 324.354 Q42.036 325.03 41.3597 326.64 Q40.6512 328.218 40.6512 330.022 Q40.6512 332.695 42.5191 335.239 Q44.3548 337.783 47.2534 339.329 Q50.0875 340.875 54.1132 341.874 Q58.1067 342.872 60.4256 342.872 Q63.6139 342.872 65.6107 341.39 Q67.6075 339.909 67.6075 336.946 Q67.6075 336.366 67.5753 335.754 Q67.5431 335.11 67.1888 333.5 Q66.8345 331.858 66.2226 330.408 Q65.6107 328.959 64.2903 327.123 Q62.9376 325.255 61.1019 323.774 Q60.4256 323.259 60.4256 322.904 Q60.4256 322.614 60.7154 322.357 Z" fill="#000000" fill-rule="nonzero" fill-opacity="1" /><polyline clip-path="url(#clip402)" style="stroke:#0f6a81; stroke-linecap:round; stroke-linejoin:round; stroke-width:4; stroke-opacity:1; fill:none" points="233.158,1039.9 240.356,1020.36 247.554,1002.06 254.752,984.764 261.95,968.278 269.148,952.473 276.346,937.25 283.544,922.532 290.742,908.259 297.94,894.379 305.138,880.851 312.336,867.646 319.534,854.73 326.732,842.076 333.93,829.676 341.128,817.498 348.326,805.527 355.524,793.748 362.722,782.15 369.92,770.721 377.117,759.45 384.315,748.33 391.513,737.354 398.711,726.511 405.909,715.8 413.107,705.212 420.305,694.736 427.503,684.369 434.701,674.106 441.899,663.942 449.097,653.874 456.295,643.899 463.493,634.015 470.691,624.221 477.889,614.507 485.087,604.869 492.285,595.304 499.483,585.81 506.681,576.384 513.879,567.025 521.077,557.732 528.275,548.522 535.473,539.372 542.671,530.28 549.869,521.245 557.067,512.263 564.265,503.335 571.463,494.458 578.661,485.633 585.859,476.863 593.057,468.142 600.255,459.469 607.453,450.842 614.651,442.26 621.849,433.722 629.047,425.226 636.245,416.776 643.443,408.366 650.641,399.997 657.839,391.667 665.037,383.375 672.235,375.12 679.433,366.902 686.631,358.723 693.829,350.578 701.027,342.467 708.225,334.39 715.423,326.347 722.62,318.335 729.818,310.355 737.016,302.409 744.214,294.493 751.412,286.607 758.61,278.749 765.808,270.92 773.006,263.12 780.204,255.349 787.402,247.607 794.6,239.891 801.798,232.2 808.996,224.536 816.194,216.897 823.392,209.283 830.59,201.696 837.788,194.134 844.986,186.595 852.184,179.079 859.382,171.586 866.58,164.115 873.778,156.666 880.976,149.243 888.174,141.843 895.372,134.463 902.57,127.103 909.768,119.764 916.966,112.444 924.164,105.144 931.362,97.8665 938.56,90.6102 945.758,83.374 952.956,76.1564 "/>
<path clip-path="url(#clip400)" d="M1189.77 1068.81 L1952.76 1068.81 L1952.76 47.2441 L1189.77 47.2441  Z" fill="#ffffff" fill-rule="evenodd" fill-opacity="1"/>
<polyline clip-path="url(#clip400)" style="stroke:#000000; stroke-linecap:round; stroke-linejoin:round; stroke-width:4; stroke-opacity:1; fill:none" points="1189.77,1068.81 1952.76,1068.81 "/>
<polyline clip-path="url(#clip400)" style="stroke:#000000; stroke-linecap:round; stroke-linejoin:round; stroke-width:4; stroke-opacity:1; fill:none" points="1325.02,1068.81 1325.02,1049.91 "/>
<polyline clip-path="url(#clip400)" style="stroke:#000000; stroke-linecap:round; stroke-linejoin:round; stroke-width:4; stroke-opacity:1; fill:none" points="1476.55,1068.81 1476.55,1049.91 "/>
<polyline clip-path="url(#clip400)" style="stroke:#000000; stroke-linecap:round; stroke-linejoin:round; stroke-width:4; stroke-opacity:1; fill:none" points="1628.09,1068.81 1628.09,1049.91 "/>
<polyline clip-path="url(#clip400)" style="stroke:#000000; stroke-linecap:round; stroke-linejoin:round; stroke-width:4; stroke-opacity:1; fill:none" points="1779.63,1068.81 1779.63,1049.91 "/>
<polyline clip-path="url(#clip400)" style="stroke:#000000; stroke-linecap:round; stroke-linejoin:round; stroke-width:4; stroke-opacity:1; fill:none" points="1931.16,1068.81 1931.16,1049.91 "/>
<path clip-path="url(#clip400)" d="M1319.67 1124.08 L1335.99 1124.08 L1335.99 1128.01 L1314.04 1128.01 L1314.04 1124.08 Q1316.71 1121.32 1321.29 1116.69 Q1325.9 1112.04 1327.08 1110.7 Q1329.32 1108.17 1330.2 1106.44 Q1331.1 1104.68 1331.1 1102.99 Q1331.1 1100.23 1329.16 1098.5 Q1327.24 1096.76 1324.14 1096.76 Q1321.94 1096.76 1319.48 1097.53 Q1317.05 1098.29 1314.28 1099.84 L1314.28 1095.12 Q1317.1 1093.98 1319.55 1093.41 Q1322.01 1092.83 1324.04 1092.83 Q1329.41 1092.83 1332.61 1095.51 Q1335.8 1098.2 1335.8 1102.69 Q1335.8 1104.82 1334.99 1106.74 Q1334.21 1108.64 1332.1 1111.23 Q1331.52 1111.9 1328.42 1115.12 Q1325.32 1118.31 1319.67 1124.08 Z" fill="#000000" fill-rule="nonzero" fill-opacity="1" /><path clip-path="url(#clip400)" d="M1479.56 1097.53 L1467.76 1115.97 L1479.56 1115.97 L1479.56 1097.53 M1478.34 1093.45 L1484.21 1093.45 L1484.21 1115.97 L1489.15 1115.97 L1489.15 1119.86 L1484.21 1119.86 L1484.21 1128.01 L1479.56 1128.01 L1479.56 1119.86 L1463.96 1119.86 L1463.96 1115.35 L1478.34 1093.45 Z" fill="#000000" fill-rule="nonzero" fill-opacity="1" /><path clip-path="url(#clip400)" d="M1628.49 1108.87 Q1625.35 1108.87 1623.49 1111.02 Q1621.67 1113.17 1621.67 1116.92 Q1621.67 1120.65 1623.49 1122.83 Q1625.35 1124.98 1628.49 1124.98 Q1631.64 1124.98 1633.47 1122.83 Q1635.32 1120.65 1635.32 1116.92 Q1635.32 1113.17 1633.47 1111.02 Q1631.64 1108.87 1628.49 1108.87 M1637.78 1094.22 L1637.78 1098.47 Q1636.02 1097.64 1634.21 1097.2 Q1632.43 1096.76 1630.67 1096.76 Q1626.04 1096.76 1623.59 1099.89 Q1621.16 1103.01 1620.81 1109.33 Q1622.17 1107.32 1624.24 1106.25 Q1626.3 1105.16 1628.77 1105.16 Q1633.98 1105.16 1636.99 1108.34 Q1640.02 1111.48 1640.02 1116.92 Q1640.02 1122.25 1636.87 1125.47 Q1633.73 1128.68 1628.49 1128.68 Q1622.5 1128.68 1619.33 1124.1 Q1616.16 1119.49 1616.16 1110.77 Q1616.16 1102.57 1620.05 1097.71 Q1623.93 1092.83 1630.48 1092.83 Q1632.24 1092.83 1634.03 1093.17 Q1635.83 1093.52 1637.78 1094.22 Z" fill="#000000" fill-rule="nonzero" fill-opacity="1" /><path clip-path="url(#clip400)" d="M1779.63 1111.6 Q1776.29 1111.6 1774.37 1113.38 Q1772.47 1115.16 1772.47 1118.29 Q1772.47 1121.41 1774.37 1123.2 Q1776.29 1124.98 1779.63 1124.98 Q1782.96 1124.98 1784.88 1123.2 Q1786.8 1121.39 1786.8 1118.29 Q1786.8 1115.16 1784.88 1113.38 Q1782.98 1111.6 1779.63 1111.6 M1774.95 1109.61 Q1771.94 1108.87 1770.25 1106.81 Q1768.58 1104.75 1768.58 1101.78 Q1768.58 1097.64 1771.52 1095.23 Q1774.49 1092.83 1779.63 1092.83 Q1784.79 1092.83 1787.73 1095.23 Q1790.67 1097.64 1790.67 1101.78 Q1790.67 1104.75 1788.98 1106.81 Q1787.31 1108.87 1784.32 1109.61 Q1787.7 1110.4 1789.58 1112.69 Q1791.48 1114.98 1791.48 1118.29 Q1791.48 1123.31 1788.4 1126 Q1785.34 1128.68 1779.63 1128.68 Q1773.91 1128.68 1770.83 1126 Q1767.77 1123.31 1767.77 1118.29 Q1767.77 1114.98 1769.67 1112.69 Q1771.57 1110.4 1774.95 1109.61 M1773.24 1102.22 Q1773.24 1104.91 1774.9 1106.41 Q1776.59 1107.92 1779.63 1107.92 Q1782.63 1107.92 1784.32 1106.41 Q1786.04 1104.91 1786.04 1102.22 Q1786.04 1099.54 1784.32 1098.03 Q1782.63 1096.53 1779.63 1096.53 Q1776.59 1096.53 1774.9 1098.03 Q1773.24 1099.54 1773.24 1102.22 Z" fill="#000000" fill-rule="nonzero" fill-opacity="1" /><path clip-path="url(#clip400)" d="M1905.85 1124.08 L1913.49 1124.08 L1913.49 1097.71 L1905.18 1099.38 L1905.18 1095.12 L1913.44 1093.45 L1918.12 1093.45 L1918.12 1124.08 L1925.76 1124.08 L1925.76 1128.01 L1905.85 1128.01 L1905.85 1124.08 Z" fill="#000000" fill-rule="nonzero" fill-opacity="1" /><path clip-path="url(#clip400)" d="M1945.2 1096.53 Q1941.59 1096.53 1939.76 1100.1 Q1937.96 1103.64 1937.96 1110.77 Q1937.96 1117.87 1939.76 1121.44 Q1941.59 1124.98 1945.2 1124.98 Q1948.84 1124.98 1950.64 1121.44 Q1952.47 1117.87 1952.47 1110.77 Q1952.47 1103.64 1950.64 1100.1 Q1948.84 1096.53 1945.2 1096.53 M1945.2 1092.83 Q1951.01 1092.83 1954.07 1097.43 Q1957.15 1102.02 1957.15 1110.77 Q1957.15 1119.49 1954.07 1124.1 Q1951.01 1128.68 1945.2 1128.68 Q1939.39 1128.68 1936.31 1124.1 Q1933.26 1119.49 1933.26 1110.77 Q1933.26 1102.02 1936.31 1097.43 Q1939.39 1092.83 1945.2 1092.83 Z" fill="#000000" fill-rule="nonzero" fill-opacity="1" /><path clip-path="url(#clip400)" d="M1469.76 1157.6 L1469.76 1164.38 Q1466.51 1161.36 1462.82 1159.86 Q1459.16 1158.37 1455.02 1158.37 Q1446.87 1158.37 1442.54 1163.36 Q1438.21 1168.33 1438.21 1177.75 Q1438.21 1187.14 1442.54 1192.14 Q1446.87 1197.1 1455.02 1197.1 Q1459.16 1197.1 1462.82 1195.61 Q1466.51 1194.11 1469.76 1191.09 L1469.76 1197.8 Q1466.38 1200.09 1462.6 1201.24 Q1458.84 1202.38 1454.64 1202.38 Q1443.85 1202.38 1437.64 1195.8 Q1431.44 1189.18 1431.44 1177.75 Q1431.44 1166.29 1437.64 1159.7 Q1443.85 1153.08 1454.64 1153.08 Q1458.9 1153.08 1462.66 1154.23 Q1466.45 1155.34 1469.76 1157.6 Z" fill="#000000" fill-rule="nonzero" fill-opacity="1" /><path clip-path="url(#clip400)" d="M1495.63 1183.54 Q1488.54 1183.54 1485.8 1185.17 Q1483.06 1186.79 1483.06 1190.7 Q1483.06 1193.82 1485.1 1195.67 Q1487.17 1197.48 1490.7 1197.48 Q1495.57 1197.48 1498.5 1194.05 Q1501.46 1190.58 1501.46 1184.85 L1501.46 1183.54 L1495.63 1183.54 M1507.31 1181.12 L1507.31 1201.46 L1501.46 1201.46 L1501.46 1196.05 Q1499.45 1199.3 1496.46 1200.86 Q1493.47 1202.38 1489.14 1202.38 Q1483.67 1202.38 1480.42 1199.33 Q1477.2 1196.24 1477.2 1191.09 Q1477.2 1185.07 1481.22 1182.01 Q1485.26 1178.96 1493.25 1178.96 L1501.46 1178.96 L1501.46 1178.39 Q1501.46 1174.34 1498.78 1172.15 Q1496.14 1169.92 1491.34 1169.92 Q1488.28 1169.92 1485.38 1170.65 Q1482.49 1171.38 1479.81 1172.85 L1479.81 1167.44 Q1483.03 1166.2 1486.05 1165.59 Q1489.08 1164.95 1491.94 1164.95 Q1499.68 1164.95 1503.5 1168.96 Q1507.31 1172.98 1507.31 1181.12 Z" fill="#000000" fill-rule="nonzero" fill-opacity="1" /><path clip-path="url(#clip400)" d="M1525.04 1196.11 L1525.04 1215.02 L1519.15 1215.02 L1519.15 1165.81 L1525.04 1165.81 L1525.04 1171.22 Q1526.89 1168.04 1529.69 1166.51 Q1532.52 1164.95 1536.44 1164.95 Q1542.93 1164.95 1546.97 1170.11 Q1551.05 1175.27 1551.05 1183.67 Q1551.05 1192.07 1546.97 1197.23 Q1542.93 1202.38 1536.44 1202.38 Q1532.52 1202.38 1529.69 1200.86 Q1526.89 1199.3 1525.04 1196.11 M1544.97 1183.67 Q1544.97 1177.21 1542.29 1173.55 Q1539.65 1169.86 1535.01 1169.86 Q1530.36 1169.86 1527.68 1173.55 Q1525.04 1177.21 1525.04 1183.67 Q1525.04 1190.13 1527.68 1193.82 Q1530.36 1197.48 1535.01 1197.48 Q1539.65 1197.48 1542.29 1193.82 Q1544.97 1190.13 1544.97 1183.67 Z" fill="#000000" fill-rule="nonzero" fill-opacity="1" /><path clip-path="url(#clip400)" d="M1560.75 1165.81 L1566.61 1165.81 L1566.61 1201.46 L1560.75 1201.46 L1560.75 1165.81 M1560.75 1151.94 L1566.61 1151.94 L1566.61 1159.35 L1560.75 1159.35 L1560.75 1151.94 Z" fill="#000000" fill-rule="nonzero" fill-opacity="1" /><path clip-path="url(#clip400)" d="M1584.66 1155.69 L1584.66 1165.81 L1596.72 1165.81 L1596.72 1170.37 L1584.66 1170.37 L1584.66 1189.72 Q1584.66 1194.08 1585.84 1195.32 Q1587.05 1196.56 1590.71 1196.56 L1596.72 1196.56 L1596.72 1201.46 L1590.71 1201.46 Q1583.93 1201.46 1581.35 1198.95 Q1578.77 1196.4 1578.77 1189.72 L1578.77 1170.37 L1574.47 1170.37 L1574.47 1165.81 L1578.77 1165.81 L1578.77 1155.69 L1584.66 1155.69 Z" fill="#000000" fill-rule="nonzero" fill-opacity="1" /><path clip-path="url(#clip400)" d="M1620.62 1183.54 Q1613.53 1183.54 1610.79 1185.17 Q1608.05 1186.79 1608.05 1190.7 Q1608.05 1193.82 1610.09 1195.67 Q1612.16 1197.48 1615.69 1197.48 Q1620.56 1197.48 1623.49 1194.05 Q1626.45 1190.58 1626.45 1184.85 L1626.45 1183.54 L1620.62 1183.54 M1632.31 1181.12 L1632.31 1201.46 L1626.45 1201.46 L1626.45 1196.05 Q1624.44 1199.3 1621.45 1200.86 Q1618.46 1202.38 1614.13 1202.38 Q1608.66 1202.38 1605.41 1199.33 Q1602.2 1196.24 1602.2 1191.09 Q1602.2 1185.07 1606.21 1182.01 Q1610.25 1178.96 1618.24 1178.96 L1626.45 1178.96 L1626.45 1178.39 Q1626.45 1174.34 1623.78 1172.15 Q1621.13 1169.92 1616.33 1169.92 Q1613.27 1169.92 1610.38 1170.65 Q1607.48 1171.38 1604.81 1172.85 L1604.81 1167.44 Q1608.02 1166.2 1611.04 1165.59 Q1614.07 1164.95 1616.93 1164.95 Q1624.67 1164.95 1628.49 1168.96 Q1632.31 1172.98 1632.31 1181.12 Z" fill="#000000" fill-rule="nonzero" fill-opacity="1" /><path clip-path="url(#clip400)" d="M1644.37 1151.94 L1650.22 1151.94 L1650.22 1201.46 L1644.37 1201.46 L1644.37 1151.94 Z" fill="#000000" fill-rule="nonzero" fill-opacity="1" /><path clip-path="url(#clip400)" d="M1706.91 1176.47 Q1706.91 1178.31 1705.78 1179.4 Q1704.69 1180.5 1703.3 1180.5 Q1702.08 1180.5 1701.44 1179.79 Q1700.79 1179.08 1700.79 1178.18 Q1700.79 1177.79 1700.95 1177.31 Q1701.11 1176.79 1701.47 1176.18 Q1701.85 1175.57 1702.66 1175.12 Q1703.47 1174.67 1704.56 1174.6 Q1704.33 1174.38 1704.27 1174.34 Q1703.79 1173.96 1702.89 1173.83 Q1702.76 1173.76 1702.31 1173.76 Q1700.08 1173.76 1697.83 1175.41 Q1695.61 1177.02 1692.87 1180.08 Q1689.42 1183.65 1687.2 1184.97 Q1696.96 1186.26 1696.96 1191.9 Q1696.96 1192.83 1696.7 1193.96 Q1696.19 1196.08 1696.19 1197.63 Q1696.19 1200.72 1698.28 1200.72 Q1700.31 1200.72 1701.6 1198.66 Q1702.92 1196.6 1704.01 1192.57 Q1704.17 1191.83 1704.33 1191.61 Q1704.5 1191.38 1704.95 1191.38 Q1705.75 1191.38 1705.75 1192.03 Q1705.01 1195.79 1703.37 1198.69 Q1701.28 1202.2 1698.15 1202.2 Q1695.54 1202.2 1693.8 1200.4 Q1692.1 1198.56 1692.1 1195.66 Q1692.1 1194.96 1692.35 1193.35 Q1692.55 1192.7 1692.55 1191.96 Q1692.55 1190.45 1691.71 1189.32 Q1690.87 1188.16 1689.52 1187.58 Q1688.17 1187 1687.04 1186.74 Q1685.95 1186.45 1684.88 1186.36 Q1681.66 1199.98 1681.21 1200.82 Q1680.92 1201.4 1680.28 1201.78 Q1679.63 1202.2 1678.96 1202.2 Q1678.31 1202.2 1677.67 1201.75 Q1677.06 1201.33 1677.06 1200.33 Q1677.06 1199.82 1677.31 1198.89 L1686.88 1160.88 L1687.07 1159.59 Q1687.07 1159.21 1686.91 1159.01 Q1686.78 1158.79 1686.01 1158.63 Q1685.27 1158.47 1683.79 1158.47 Q1683.18 1158.47 1682.89 1158.43 Q1682.63 1158.4 1682.4 1158.24 Q1682.18 1158.05 1682.18 1157.66 Q1682.18 1157.11 1682.4 1156.82 Q1682.66 1156.5 1682.85 1156.44 Q1683.05 1156.37 1683.43 1156.34 Q1683.98 1156.31 1685.82 1156.15 Q1687.65 1155.95 1689.23 1155.83 Q1690.81 1155.7 1691.48 1155.7 Q1691.87 1155.7 1692.06 1155.89 Q1692.29 1156.05 1692.32 1156.24 L1692.35 1156.41 L1685.49 1184.23 Q1688.33 1183.1 1692.8 1178.11 Q1697.99 1172.32 1702.43 1172.32 Q1704.53 1172.32 1705.72 1173.6 Q1706.91 1174.86 1706.91 1176.47 Z" fill="#000000" fill-rule="nonzero" fill-opacity="1" /><polyline clip-path="url(#clip400)" style="stroke:#000000; stroke-linecap:round; stroke-linejoin:round; stroke-width:4; stroke-opacity:1; fill:none" points="1189.77,1068.81 1189.77,47.2441 "/>
<polyline clip-path="url(#clip400)" style="stroke:#000000; stroke-linecap:round; stroke-linejoin:round; stroke-width:4; stroke-opacity:1; fill:none" points="1189.77,903.509 1208.67,903.509 "/>
<polyline clip-path="url(#clip400)" style="stroke:#000000; stroke-linecap:round; stroke-linejoin:round; stroke-width:4; stroke-opacity:1; fill:none" points="1189.77,673.122 1208.67,673.122 "/>
<polyline clip-path="url(#clip400)" style="stroke:#000000; stroke-linecap:round; stroke-linejoin:round; stroke-width:4; stroke-opacity:1; fill:none" points="1189.77,442.736 1208.67,442.736 "/>
<polyline clip-path="url(#clip400)" style="stroke:#000000; stroke-linecap:round; stroke-linejoin:round; stroke-width:4; stroke-opacity:1; fill:none" points="1189.77,212.349 1208.67,212.349 "/>
<path clip-path="url(#clip400)" d="M1143.45 916.853 L1159.77 916.853 L1159.77 920.789 L1137.83 920.789 L1137.83 916.853 Q1140.49 914.099 1145.07 909.469 Q1149.68 904.816 1150.86 903.474 Q1153.1 900.951 1153.98 899.215 Q1154.89 897.455 1154.89 895.766 Q1154.89 893.011 1152.94 891.275 Q1151.02 889.539 1147.92 889.539 Q1145.72 889.539 1143.27 890.303 Q1140.84 891.067 1138.06 892.617 L1138.06 887.895 Q1140.88 886.761 1143.34 886.182 Q1145.79 885.604 1147.83 885.604 Q1153.2 885.604 1156.39 888.289 Q1159.58 890.974 1159.58 895.465 Q1159.58 897.594 1158.77 899.516 Q1157.99 901.414 1155.88 904.006 Q1155.3 904.678 1152.2 907.895 Q1149.1 911.09 1143.45 916.853 Z" fill="#000000" fill-rule="nonzero" fill-opacity="1" /><path clip-path="url(#clip400)" d="M1150.19 659.916 L1138.38 678.365 L1150.19 678.365 L1150.19 659.916 M1148.96 655.842 L1154.84 655.842 L1154.84 678.365 L1159.77 678.365 L1159.77 682.254 L1154.84 682.254 L1154.84 690.402 L1150.19 690.402 L1150.19 682.254 L1134.59 682.254 L1134.59 677.74 L1148.96 655.842 Z" fill="#000000" fill-rule="nonzero" fill-opacity="1" /><path clip-path="url(#clip400)" d="M1148.24 440.872 Q1145.09 440.872 1143.24 443.025 Q1141.41 445.178 1141.41 448.928 Q1141.41 452.654 1143.24 454.83 Q1145.09 456.983 1148.24 456.983 Q1151.39 456.983 1153.22 454.83 Q1155.07 452.654 1155.07 448.928 Q1155.07 445.178 1153.22 443.025 Q1151.39 440.872 1148.24 440.872 M1157.52 426.219 L1157.52 430.479 Q1155.77 429.645 1153.96 429.206 Q1152.18 428.766 1150.42 428.766 Q1145.79 428.766 1143.34 431.891 Q1140.9 435.016 1140.56 441.335 Q1141.92 439.321 1143.98 438.256 Q1146.04 437.168 1148.52 437.168 Q1153.73 437.168 1156.74 440.34 Q1159.77 443.488 1159.77 448.928 Q1159.77 454.252 1156.62 457.469 Q1153.47 460.687 1148.24 460.687 Q1142.25 460.687 1139.08 456.104 Q1135.9 451.497 1135.9 442.77 Q1135.9 434.576 1139.79 429.715 Q1143.68 424.831 1150.23 424.831 Q1151.99 424.831 1153.77 425.178 Q1155.58 425.525 1157.52 426.219 Z" fill="#000000" fill-rule="nonzero" fill-opacity="1" /><path clip-path="url(#clip400)" d="M1147.92 213.217 Q1144.59 213.217 1142.66 214.999 Q1140.77 216.782 1140.77 219.907 Q1140.77 223.032 1142.66 224.814 Q1144.59 226.597 1147.92 226.597 Q1151.25 226.597 1153.17 224.814 Q1155.09 223.009 1155.09 219.907 Q1155.09 216.782 1153.17 214.999 Q1151.27 213.217 1147.92 213.217 M1143.24 211.226 Q1140.23 210.486 1138.54 208.425 Q1136.88 206.365 1136.88 203.402 Q1136.88 199.259 1139.82 196.851 Q1142.78 194.444 1147.92 194.444 Q1153.08 194.444 1156.02 196.851 Q1158.96 199.259 1158.96 203.402 Q1158.96 206.365 1157.27 208.425 Q1155.6 210.486 1152.62 211.226 Q1156 212.013 1157.87 214.305 Q1159.77 216.597 1159.77 219.907 Q1159.77 224.93 1156.69 227.615 Q1153.64 230.3 1147.92 230.3 Q1142.2 230.3 1139.12 227.615 Q1136.07 224.93 1136.07 219.907 Q1136.07 216.597 1137.96 214.305 Q1139.86 212.013 1143.24 211.226 M1141.53 203.842 Q1141.53 206.527 1143.2 208.032 Q1144.89 209.537 1147.92 209.537 Q1150.93 209.537 1152.62 208.032 Q1154.33 206.527 1154.33 203.842 Q1154.33 201.157 1152.62 199.652 Q1150.93 198.148 1147.92 198.148 Q1144.89 198.148 1143.2 199.652 Q1141.53 201.157 1141.53 203.842 Z" fill="#000000" fill-rule="nonzero" fill-opacity="1" /><path clip-path="url(#clip400)" d="M1051.38 794.463 L1051.38 785.806 L1091.13 764.735 L1051.38 764.735 L1051.38 758.497 L1098.9 758.497 L1098.9 767.154 L1059.14 788.225 L1098.9 788.225 L1098.9 794.463 L1051.38 794.463 Z" fill="#000000" fill-rule="nonzero" fill-opacity="1" /><path clip-path="url(#clip400)" d="M1079.61 715.465 L1082.48 715.465 L1082.48 742.392 Q1088.52 742.01 1091.71 738.763 Q1094.86 735.485 1094.86 729.66 Q1094.86 726.286 1094.03 723.135 Q1093.2 719.953 1091.55 716.833 L1097.08 716.833 Q1098.42 719.984 1099.12 723.295 Q1099.82 726.605 1099.82 730.01 Q1099.82 738.54 1094.86 743.538 Q1089.89 748.503 1081.42 748.503 Q1072.67 748.503 1067.55 743.792 Q1062.39 739.05 1062.39 731.029 Q1062.39 723.836 1067.04 719.666 Q1071.65 715.465 1079.61 715.465 M1077.89 721.321 Q1073.09 721.385 1070.22 724.027 Q1067.36 726.637 1067.36 730.965 Q1067.36 735.867 1070.13 738.827 Q1072.89 741.755 1077.92 742.201 L1077.89 721.321 Z" fill="#000000" fill-rule="nonzero" fill-opacity="1" /><path clip-path="url(#clip400)" d="M1063.25 677.366 L1080.6 690.257 L1098.9 676.698 L1098.9 683.604 L1084.89 693.98 L1098.9 704.357 L1098.9 711.263 L1080.25 697.418 L1063.25 710.086 L1063.25 703.179 L1075.95 693.726 L1063.25 684.273 L1063.25 677.366 Z" fill="#000000" fill-rule="nonzero" fill-opacity="1" /><path clip-path="url(#clip400)" d="M1053.13 662.629 L1063.25 662.629 L1063.25 650.566 L1067.8 650.566 L1067.8 662.629 L1087.15 662.629 Q1091.51 662.629 1092.76 661.452 Q1094 660.242 1094 656.582 L1094 650.566 L1098.9 650.566 L1098.9 656.582 Q1098.9 663.361 1096.38 665.94 Q1093.84 668.518 1087.15 668.518 L1067.8 668.518 L1067.8 672.815 L1063.25 672.815 L1063.25 668.518 L1053.13 668.518 L1053.13 662.629 Z" fill="#000000" fill-rule="nonzero" fill-opacity="1" /><path clip-path="url(#clip400)" d="M1055.04 586.305 L1061.82 586.305 Q1058.79 589.551 1057.3 593.243 Q1055.8 596.903 1055.8 601.041 Q1055.8 609.189 1060.8 613.518 Q1065.77 617.847 1075.19 617.847 Q1084.58 617.847 1089.57 613.518 Q1094.54 609.189 1094.54 601.041 Q1094.54 596.903 1093.04 593.243 Q1091.55 589.551 1088.52 586.305 L1095.24 586.305 Q1097.53 589.678 1098.68 593.466 Q1099.82 597.222 1099.82 601.423 Q1099.82 612.213 1093.23 618.42 Q1086.61 624.626 1075.19 624.626 Q1063.73 624.626 1057.14 618.42 Q1050.52 612.213 1050.52 601.423 Q1050.52 597.158 1051.67 593.402 Q1052.78 589.615 1055.04 586.305 Z" fill="#000000" fill-rule="nonzero" fill-opacity="1" /><path clip-path="url(#clip400)" d="M1080.98 560.428 Q1080.98 567.526 1082.6 570.263 Q1084.23 573 1088.14 573 Q1091.26 573 1093.11 570.963 Q1094.92 568.894 1094.92 565.361 Q1094.92 560.492 1091.48 557.563 Q1088.01 554.603 1082.28 554.603 L1080.98 554.603 L1080.98 560.428 M1078.56 548.747 L1098.9 548.747 L1098.9 554.603 L1093.49 554.603 Q1096.73 556.609 1098.29 559.6 Q1099.82 562.592 1099.82 566.921 Q1099.82 572.395 1096.77 575.642 Q1093.68 578.857 1088.52 578.857 Q1082.51 578.857 1079.45 574.846 Q1076.4 570.804 1076.4 562.815 L1076.4 554.603 L1075.82 554.603 Q1071.78 554.603 1069.58 557.277 Q1067.36 559.919 1067.36 564.725 Q1067.36 567.78 1068.09 570.677 Q1068.82 573.573 1070.28 576.247 L1064.87 576.247 Q1063.63 573.032 1063.03 570.008 Q1062.39 566.985 1062.39 564.12 Q1062.39 556.386 1066.4 552.566 Q1070.41 548.747 1078.56 548.747 Z" fill="#000000" fill-rule="nonzero" fill-opacity="1" /><path clip-path="url(#clip400)" d="M1093.55 531.018 L1112.46 531.018 L1112.46 536.907 L1063.25 536.907 L1063.25 531.018 L1068.66 531.018 Q1065.48 529.172 1063.95 526.371 Q1062.39 523.539 1062.39 519.624 Q1062.39 513.131 1067.55 509.089 Q1072.7 505.014 1081.11 505.014 Q1089.51 505.014 1094.67 509.089 Q1099.82 513.131 1099.82 519.624 Q1099.82 523.539 1098.29 526.371 Q1096.73 529.172 1093.55 531.018 M1081.11 511.094 Q1074.65 511.094 1070.98 513.767 Q1067.29 516.409 1067.29 521.056 Q1067.29 525.703 1070.98 528.377 Q1074.65 531.018 1081.11 531.018 Q1087.57 531.018 1091.26 528.377 Q1094.92 525.703 1094.92 521.056 Q1094.92 516.409 1091.26 513.767 Q1087.57 511.094 1081.11 511.094 Z" fill="#000000" fill-rule="nonzero" fill-opacity="1" /><path clip-path="url(#clip400)" d="M1063.25 495.307 L1063.25 489.45 L1098.9 489.45 L1098.9 495.307 L1063.25 495.307 M1049.37 495.307 L1049.37 489.45 L1056.79 489.45 L1056.79 495.307 L1049.37 495.307 Z" fill="#000000" fill-rule="nonzero" fill-opacity="1" /><path clip-path="url(#clip400)" d="M1053.13 471.404 L1063.25 471.404 L1063.25 459.341 L1067.8 459.341 L1067.8 471.404 L1087.15 471.404 Q1091.51 471.404 1092.76 470.226 Q1094 469.016 1094 465.356 L1094 459.341 L1098.9 459.341 L1098.9 465.356 Q1098.9 472.136 1096.38 474.714 Q1093.84 477.292 1087.15 477.292 L1067.8 477.292 L1067.8 481.589 L1063.25 481.589 L1063.25 477.292 L1053.13 477.292 L1053.13 471.404 Z" fill="#000000" fill-rule="nonzero" fill-opacity="1" /><path clip-path="url(#clip400)" d="M1080.98 435.437 Q1080.98 442.535 1082.6 445.272 Q1084.23 448.01 1088.14 448.01 Q1091.26 448.01 1093.11 445.973 Q1094.92 443.904 1094.92 440.371 Q1094.92 435.501 1091.48 432.573 Q1088.01 429.613 1082.28 429.613 L1080.98 429.613 L1080.98 435.437 M1078.56 423.756 L1098.9 423.756 L1098.9 429.613 L1093.49 429.613 Q1096.73 431.618 1098.29 434.61 Q1099.82 437.602 1099.82 441.93 Q1099.82 447.405 1096.77 450.651 Q1093.68 453.866 1088.52 453.866 Q1082.51 453.866 1079.45 449.856 Q1076.4 445.813 1076.4 437.824 L1076.4 429.613 L1075.82 429.613 Q1071.78 429.613 1069.58 432.286 Q1067.36 434.928 1067.36 439.734 Q1067.36 442.79 1068.09 445.686 Q1068.82 448.582 1070.28 451.256 L1064.87 451.256 Q1063.63 448.041 1063.03 445.018 Q1062.39 441.994 1062.39 439.129 Q1062.39 431.395 1066.4 427.576 Q1070.41 423.756 1078.56 423.756 Z" fill="#000000" fill-rule="nonzero" fill-opacity="1" /><path clip-path="url(#clip400)" d="M1049.37 411.693 L1049.37 405.837 L1098.9 405.837 L1098.9 411.693 L1049.37 411.693 Z" fill="#000000" fill-rule="nonzero" fill-opacity="1" /><path clip-path="url(#clip400)" d="M1073.91 349.15 Q1075.74 349.15 1076.84 350.278 Q1077.93 351.373 1077.93 352.758 Q1077.93 353.981 1077.22 354.625 Q1076.52 355.27 1075.61 355.27 Q1075.23 355.27 1074.74 355.109 Q1074.23 354.948 1073.62 354.593 Q1073.01 354.207 1072.55 353.402 Q1072.1 352.597 1072.04 351.502 Q1071.81 351.727 1071.78 351.791 Q1071.39 352.274 1071.27 353.176 Q1071.2 353.305 1071.2 353.756 Q1071.2 355.978 1072.84 358.233 Q1074.45 360.455 1077.51 363.192 Q1081.09 366.638 1082.41 368.86 Q1083.7 359.102 1089.33 359.102 Q1090.27 359.102 1091.39 359.36 Q1093.52 359.875 1095.07 359.875 Q1098.16 359.875 1098.16 357.782 Q1098.16 355.753 1096.1 354.464 Q1094.04 353.144 1090.01 352.049 Q1089.27 351.888 1089.04 351.727 Q1088.82 351.566 1088.82 351.115 Q1088.82 350.31 1089.46 350.31 Q1093.23 351.051 1096.13 352.693 Q1099.64 354.787 1099.64 357.91 Q1099.64 360.519 1097.84 362.258 Q1096 363.965 1093.1 363.965 Q1092.39 363.965 1090.78 363.708 Q1090.14 363.514 1089.4 363.514 Q1087.88 363.514 1086.76 364.352 Q1085.6 365.189 1085.02 366.542 Q1084.44 367.894 1084.18 369.021 Q1083.89 370.116 1083.79 371.179 Q1097.42 374.4 1098.25 374.851 Q1098.83 375.141 1099.22 375.785 Q1099.64 376.429 1099.64 377.105 Q1099.64 377.749 1099.19 378.393 Q1098.77 379.005 1097.77 379.005 Q1097.26 379.005 1096.32 378.748 L1058.32 369.183 L1057.03 368.989 Q1056.64 368.989 1056.45 369.15 Q1056.23 369.279 1056.06 370.052 Q1055.9 370.793 1055.9 372.274 Q1055.9 372.886 1055.87 373.176 Q1055.84 373.434 1055.68 373.659 Q1055.49 373.885 1055.1 373.885 Q1054.55 373.885 1054.26 373.659 Q1053.94 373.401 1053.87 373.208 Q1053.81 373.015 1053.78 372.629 Q1053.75 372.081 1053.58 370.245 Q1053.39 368.41 1053.26 366.831 Q1053.13 365.253 1053.13 364.577 Q1053.13 364.191 1053.33 363.997 Q1053.49 363.772 1053.68 363.74 L1053.84 363.708 L1081.67 370.567 Q1080.54 367.733 1075.55 363.257 Q1069.75 358.072 1069.75 353.627 Q1069.75 351.534 1071.04 350.342 Q1072.3 349.15 1073.91 349.15 Z" fill="#000000" fill-rule="nonzero" fill-opacity="1" /><path clip-path="url(#clip400)" d="M1055.1 339.742 Q1053.46 339.742 1052.78 338.744 Q1052.07 337.745 1052.07 336.683 Q1052.07 335.362 1052.88 334.525 Q1053.65 333.655 1055.1 333.655 Q1055.74 333.655 1056.1 333.72 L1076 335.91 L1076 337.423 L1056.1 339.678 Q1055.74 339.742 1055.1 339.742 Z" fill="#000000" fill-rule="nonzero" fill-opacity="1" /><polyline clip-path="url(#clip401)" style="stroke:#0f6a81; stroke-linecap:round; stroke-linejoin:round; stroke-width:4; stroke-opacity:1; fill:none" points="1211.36,1039.9 1218.56,1028.21 1225.76,1016.83 1232.96,1005.7 1240.16,994.759 1247.35,983.977 1254.55,973.328 1261.75,962.791 1268.95,952.351 1276.15,941.995 1283.34,931.714 1290.54,921.498 1297.74,911.341 1304.94,901.237 1312.14,891.179 1319.33,881.165 1326.53,871.191 1333.73,861.254 1340.93,851.35 1348.13,841.478 1355.32,831.634 1362.52,821.816 1369.72,812.023 1376.92,802.254 1384.12,792.505 1391.31,782.776 1398.51,773.066 1405.71,763.375 1412.91,753.701 1420.11,744.043 1427.3,734.4 1434.5,724.771 1441.7,715.155 1448.9,705.552 1456.1,695.961 1463.29,686.382 1470.49,676.815 1477.69,667.259 1484.89,657.713 1492.09,648.178 1499.28,638.652 1506.48,629.132 1513.68,619.62 1520.88,610.117 1528.08,600.622 1535.27,591.135 1542.47,581.656 1549.67,572.184 1556.87,562.719 1564.07,553.26 1571.26,543.807 1578.46,534.36 1585.66,524.919 1592.86,515.484 1600.05,506.055 1607.25,496.631 1614.45,487.211 1621.65,477.797 1628.85,468.387 1636.04,458.983 1643.24,449.582 1650.44,440.186 1657.64,430.795 1664.84,421.407 1672.03,412.023 1679.23,402.644 1686.43,393.268 1693.63,383.895 1700.83,374.527 1708.02,365.162 1715.22,355.799 1722.42,346.44 1729.62,337.085 1736.82,327.733 1744.01,318.384 1751.21,309.037 1758.41,299.694 1765.61,290.353 1772.81,281.015 1780,271.679 1787.2,262.347 1794.4,253.017 1801.6,243.689 1808.8,234.364 1815.99,225.041 1823.19,215.72 1830.39,206.402 1837.59,197.086 1844.79,187.772 1851.98,178.461 1859.18,169.151 1866.38,159.843 1873.58,150.536 1880.78,141.233 1887.97,131.931 1895.17,122.631 1902.37,113.333 1909.57,104.037 1916.77,94.7416 1923.96,85.4481 1931.16,76.1564 "/>
</svg>
