<?xml version="1.0" encoding="utf-8"?>
<svg xmlns="http://www.w3.org/2000/svg" xmlns:xlink="http://www.w3.org/1999/xlink" width="500" height="309" viewBox="0 0 2000 1236">
<defs>
  <clipPath id="clip950">
    <rect x="0" y="0" width="2000" height="1236"/>
  </clipPath>
</defs>
<path clip-path="url(#clip950)" d="M0 1236 L2000 1236 L2000 1.24345e-14 L0 1.24345e-14  Z" fill="#ffffff" fill-rule="evenodd" fill-opacity="1"/>
<defs>
  <clipPath id="clip951">
    <rect x="234" y="47" width="1719" height="1023"/>
  </clipPath>
</defs>
<path clip-path="url(#clip950)" d="M234.666 1068.81 L1952.76 1068.81 L1952.76 47.2441 L234.666 47.2441  Z" fill="#ffffff" fill-rule="evenodd" fill-opacity="1"/>
<polyline clip-path="url(#clip950)" style="stroke:#000000; stroke-linecap:round; stroke-linejoin:round; stroke-width:4; stroke-opacity:1; fill:none" points="234.666,1068.81 1952.76,1068.81 "/>
<polyline clip-path="url(#clip950)" style="stroke:#000000; stroke-linecap:round; stroke-linejoin:round; stroke-width:4; stroke-opacity:1; fill:none" points="539.213,1068.81 539.213,1049.91 "/>
<polyline clip-path="url(#clip950)" style="stroke:#000000; stroke-linecap:round; stroke-linejoin:round; stroke-width:4; stroke-opacity:1; fill:none" points="880.442,1068.81 880.442,1049.91 "/>
<polyline clip-path="url(#clip950)" style="stroke:#000000; stroke-linecap:round; stroke-linejoin:round; stroke-width:4; stroke-opacity:1; fill:none" points="1221.67,1068.81 1221.67,1049.91 "/>
<polyline clip-path="url(#clip950)" style="stroke:#000000; stroke-linecap:round; stroke-linejoin:round; stroke-width:4; stroke-opacity:1; fill:none" points="1562.9,1068.81 1562.9,1049.91 "/>
<polyline clip-path="url(#clip950)" style="stroke:#000000; stroke-linecap:round; stroke-linejoin:round; stroke-width:4; stroke-opacity:1; fill:none" points="1904.13,1068.81 1904.13,1049.91 "/>
<path clip-path="url(#clip950)" d="M533.866 1124.08 L550.185 1124.08 L550.185 1128.01 L528.241 1128.01 L528.241 1124.08 Q530.903 1121.32 535.486 1116.69 Q540.093 1112.04 541.273 1110.7 Q543.519 1108.17 544.398 1106.44 Q545.301 1104.68 545.301 1102.99 Q545.301 1100.23 543.356 1098.5 Q541.435 1096.76 538.333 1096.76 Q536.134 1096.76 533.681 1097.53 Q531.25 1098.29 528.472 1099.84 L528.472 1095.12 Q531.296 1093.98 533.75 1093.41 Q536.204 1092.83 538.241 1092.83 Q543.611 1092.83 546.806 1095.51 Q550 1098.2 550 1102.69 Q550 1104.82 549.19 1106.74 Q548.403 1108.64 546.296 1111.23 Q545.718 1111.9 542.616 1115.12 Q539.514 1118.31 533.866 1124.08 Z" fill="#000000" fill-rule="nonzero" fill-opacity="1" /><path clip-path="url(#clip950)" d="M883.452 1097.53 L871.646 1115.97 L883.452 1115.97 L883.452 1097.53 M882.225 1093.45 L888.104 1093.45 L888.104 1115.97 L893.035 1115.97 L893.035 1119.86 L888.104 1119.86 L888.104 1128.01 L883.452 1128.01 L883.452 1119.86 L867.85 1119.86 L867.85 1115.35 L882.225 1093.45 Z" fill="#000000" fill-rule="nonzero" fill-opacity="1" /><path clip-path="url(#clip950)" d="M1222.08 1108.87 Q1218.93 1108.87 1217.08 1111.02 Q1215.25 1113.17 1215.25 1116.92 Q1215.25 1120.65 1217.08 1122.83 Q1218.93 1124.98 1222.08 1124.98 Q1225.23 1124.98 1227.05 1122.83 Q1228.91 1120.65 1228.91 1116.92 Q1228.91 1113.17 1227.05 1111.02 Q1225.23 1108.87 1222.08 1108.87 M1231.36 1094.22 L1231.36 1098.47 Q1229.6 1097.64 1227.79 1097.2 Q1226.01 1096.76 1224.25 1096.76 Q1219.62 1096.76 1217.17 1099.89 Q1214.74 1103.01 1214.39 1109.33 Q1215.76 1107.32 1217.82 1106.25 Q1219.88 1105.16 1222.35 1105.16 Q1227.56 1105.16 1230.57 1108.34 Q1233.6 1111.48 1233.6 1116.92 Q1233.6 1122.25 1230.46 1125.47 Q1227.31 1128.68 1222.08 1128.68 Q1216.08 1128.68 1212.91 1124.1 Q1209.74 1119.49 1209.74 1110.77 Q1209.74 1102.57 1213.63 1097.71 Q1217.52 1092.83 1224.07 1092.83 Q1225.83 1092.83 1227.61 1093.17 Q1229.41 1093.52 1231.36 1094.22 Z" fill="#000000" fill-rule="nonzero" fill-opacity="1" /><path clip-path="url(#clip950)" d="M1562.9 1111.6 Q1559.57 1111.6 1557.65 1113.38 Q1555.75 1115.16 1555.75 1118.29 Q1555.75 1121.41 1557.65 1123.2 Q1559.57 1124.98 1562.9 1124.98 Q1566.23 1124.98 1568.16 1123.2 Q1570.08 1121.39 1570.08 1118.29 Q1570.08 1115.16 1568.16 1113.38 Q1566.26 1111.6 1562.9 1111.6 M1558.23 1109.61 Q1555.22 1108.87 1553.53 1106.81 Q1551.86 1104.75 1551.86 1101.78 Q1551.86 1097.64 1554.8 1095.23 Q1557.76 1092.83 1562.9 1092.83 Q1568.06 1092.83 1571 1095.23 Q1573.94 1097.64 1573.94 1101.78 Q1573.94 1104.75 1572.25 1106.81 Q1570.59 1108.87 1567.6 1109.61 Q1570.98 1110.4 1572.85 1112.69 Q1574.75 1114.98 1574.75 1118.29 Q1574.75 1123.31 1571.67 1126 Q1568.62 1128.68 1562.9 1128.68 Q1557.18 1128.68 1554.11 1126 Q1551.05 1123.31 1551.05 1118.29 Q1551.05 1114.98 1552.95 1112.69 Q1554.85 1110.4 1558.23 1109.61 M1556.51 1102.22 Q1556.51 1104.91 1558.18 1106.41 Q1559.87 1107.92 1562.9 1107.92 Q1565.91 1107.92 1567.6 1106.41 Q1569.31 1104.91 1569.31 1102.22 Q1569.31 1099.54 1567.6 1098.03 Q1565.91 1096.53 1562.9 1096.53 Q1559.87 1096.53 1558.18 1098.03 Q1556.51 1099.54 1556.51 1102.22 Z" fill="#000000" fill-rule="nonzero" fill-opacity="1" /><path clip-path="url(#clip950)" d="M1878.82 1124.08 L1886.46 1124.08 L1886.46 1097.71 L1878.15 1099.38 L1878.15 1095.12 L1886.41 1093.45 L1891.09 1093.45 L1891.09 1124.08 L1898.73 1124.08 L1898.73 1128.01 L1878.82 1128.01 L1878.82 1124.08 Z" fill="#000000" fill-rule="nonzero" fill-opacity="1" /><path clip-path="url(#clip950)" d="M1918.17 1096.53 Q1914.56 1096.53 1912.73 1100.1 Q1910.92 1103.64 1910.92 1110.77 Q1910.92 1117.87 1912.73 1121.44 Q1914.56 1124.98 1918.17 1124.98 Q1921.8 1124.98 1923.61 1121.44 Q1925.44 1117.87 1925.44 1110.77 Q1925.44 1103.64 1923.61 1100.1 Q1921.8 1096.53 1918.17 1096.53 M1918.17 1092.83 Q1923.98 1092.83 1927.04 1097.43 Q1930.11 1102.02 1930.11 1110.77 Q1930.11 1119.49 1927.04 1124.1 Q1923.98 1128.68 1918.17 1128.68 Q1912.36 1128.68 1909.28 1124.1 Q1906.23 1119.49 1906.23 1110.77 Q1906.23 1102.02 1909.28 1097.43 Q1912.36 1092.83 1918.17 1092.83 Z" fill="#000000" fill-rule="nonzero" fill-opacity="1" /><path clip-path="url(#clip950)" d="M992.205 1157.6 L992.205 1164.38 Q988.958 1161.36 985.266 1159.86 Q981.606 1158.37 977.468 1158.37 Q969.32 1158.37 964.991 1163.36 Q960.663 1168.33 960.663 1177.75 Q960.663 1187.14 964.991 1192.14 Q969.32 1197.1 977.468 1197.1 Q981.606 1197.1 985.266 1195.61 Q988.958 1194.11 992.205 1191.09 L992.205 1197.8 Q988.831 1200.09 985.043 1201.24 Q981.288 1202.38 977.086 1202.38 Q966.296 1202.38 960.09 1195.8 Q953.883 1189.18 953.883 1177.75 Q953.883 1166.29 960.09 1159.7 Q966.296 1153.08 977.086 1153.08 Q981.351 1153.08 985.107 1154.23 Q988.895 1155.34 992.205 1157.6 Z" fill="#000000" fill-rule="nonzero" fill-opacity="1" /><path clip-path="url(#clip950)" d="M1018.08 1183.54 Q1010.98 1183.54 1008.25 1185.17 Q1005.51 1186.79 1005.51 1190.7 Q1005.51 1193.82 1007.55 1195.67 Q1009.62 1197.48 1013.15 1197.48 Q1018.02 1197.48 1020.95 1194.05 Q1023.91 1190.58 1023.91 1184.85 L1023.91 1183.54 L1018.08 1183.54 M1029.76 1181.12 L1029.76 1201.46 L1023.91 1201.46 L1023.91 1196.05 Q1021.9 1199.3 1018.91 1200.86 Q1015.92 1202.38 1011.59 1202.38 Q1006.11 1202.38 1002.87 1199.33 Q999.653 1196.24 999.653 1191.09 Q999.653 1185.07 1003.66 1182.01 Q1007.71 1178.96 1015.69 1178.96 L1023.91 1178.96 L1023.91 1178.39 Q1023.91 1174.34 1021.23 1172.15 Q1018.59 1169.92 1013.78 1169.92 Q1010.73 1169.92 1007.83 1170.65 Q1004.94 1171.38 1002.26 1172.85 L1002.26 1167.44 Q1005.48 1166.2 1008.5 1165.59 Q1011.52 1164.95 1014.39 1164.95 Q1022.12 1164.95 1025.94 1168.96 Q1029.76 1172.98 1029.76 1181.12 Z" fill="#000000" fill-rule="nonzero" fill-opacity="1" /><path clip-path="url(#clip950)" d="M1047.49 1196.11 L1047.49 1215.02 L1041.6 1215.02 L1041.6 1165.81 L1047.49 1165.81 L1047.49 1171.22 Q1049.34 1168.04 1052.14 1166.51 Q1054.97 1164.95 1058.89 1164.95 Q1065.38 1164.95 1069.42 1170.11 Q1073.49 1175.27 1073.49 1183.67 Q1073.49 1192.07 1069.42 1197.23 Q1065.38 1202.38 1058.89 1202.38 Q1054.97 1202.38 1052.14 1200.86 Q1049.34 1199.3 1047.49 1196.11 M1067.42 1183.67 Q1067.42 1177.21 1064.74 1173.55 Q1062.1 1169.86 1057.45 1169.86 Q1052.81 1169.86 1050.13 1173.55 Q1047.49 1177.21 1047.49 1183.67 Q1047.49 1190.13 1050.13 1193.82 Q1052.81 1197.48 1057.45 1197.48 Q1062.1 1197.48 1064.74 1193.82 Q1067.42 1190.13 1067.42 1183.67 Z" fill="#000000" fill-rule="nonzero" fill-opacity="1" /><path clip-path="url(#clip950)" d="M1083.2 1165.81 L1089.06 1165.81 L1089.06 1201.46 L1083.2 1201.46 L1083.2 1165.81 M1083.2 1151.94 L1089.06 1151.94 L1089.06 1159.35 L1083.2 1159.35 L1083.2 1151.94 Z" fill="#000000" fill-rule="nonzero" fill-opacity="1" /><path clip-path="url(#clip950)" d="M1107.11 1155.69 L1107.11 1165.81 L1119.17 1165.81 L1119.17 1170.37 L1107.11 1170.37 L1107.11 1189.72 Q1107.11 1194.08 1108.28 1195.32 Q1109.49 1196.56 1113.15 1196.56 L1119.17 1196.56 L1119.17 1201.46 L1113.15 1201.46 Q1106.37 1201.46 1103.8 1198.95 Q1101.22 1196.4 1101.22 1189.72 L1101.22 1170.37 L1096.92 1170.37 L1096.92 1165.81 L1101.22 1165.81 L1101.22 1155.69 L1107.11 1155.69 Z" fill="#000000" fill-rule="nonzero" fill-opacity="1" /><path clip-path="url(#clip950)" d="M1143.07 1183.54 Q1135.97 1183.54 1133.24 1185.17 Q1130.5 1186.79 1130.5 1190.7 Q1130.5 1193.82 1132.54 1195.67 Q1134.61 1197.48 1138.14 1197.48 Q1143.01 1197.48 1145.94 1194.05 Q1148.9 1190.58 1148.9 1184.85 L1148.9 1183.54 L1143.07 1183.54 M1154.75 1181.12 L1154.75 1201.46 L1148.9 1201.46 L1148.9 1196.05 Q1146.89 1199.3 1143.9 1200.86 Q1140.91 1202.38 1136.58 1202.38 Q1131.1 1202.38 1127.86 1199.33 Q1124.64 1196.24 1124.64 1191.09 Q1124.64 1185.07 1128.65 1182.01 Q1132.7 1178.96 1140.68 1178.96 L1148.9 1178.96 L1148.9 1178.39 Q1148.9 1174.34 1146.22 1172.15 Q1143.58 1169.92 1138.78 1169.92 Q1135.72 1169.92 1132.82 1170.65 Q1129.93 1171.38 1127.25 1172.85 L1127.25 1167.44 Q1130.47 1166.2 1133.49 1165.59 Q1136.52 1164.95 1139.38 1164.95 Q1147.11 1164.95 1150.93 1168.96 Q1154.75 1172.98 1154.75 1181.12 Z" fill="#000000" fill-rule="nonzero" fill-opacity="1" /><path clip-path="url(#clip950)" d="M1166.82 1151.94 L1172.67 1151.94 L1172.67 1201.46 L1166.82 1201.46 L1166.82 1151.94 Z" fill="#000000" fill-rule="nonzero" fill-opacity="1" /><path clip-path="url(#clip950)" d="M1229.36 1176.47 Q1229.36 1178.31 1228.23 1179.4 Q1227.14 1180.5 1225.75 1180.5 Q1224.53 1180.5 1223.88 1179.79 Q1223.24 1179.08 1223.24 1178.18 Q1223.24 1177.79 1223.4 1177.31 Q1223.56 1176.79 1223.92 1176.18 Q1224.3 1175.57 1225.11 1175.12 Q1225.91 1174.67 1227.01 1174.6 Q1226.78 1174.38 1226.72 1174.34 Q1226.23 1173.96 1225.33 1173.83 Q1225.2 1173.76 1224.75 1173.76 Q1222.53 1173.76 1220.28 1175.41 Q1218.05 1177.02 1215.32 1180.08 Q1211.87 1183.65 1209.65 1184.97 Q1219.41 1186.26 1219.41 1191.9 Q1219.41 1192.83 1219.15 1193.96 Q1218.63 1196.08 1218.63 1197.63 Q1218.63 1200.72 1220.73 1200.72 Q1222.76 1200.72 1224.04 1198.66 Q1225.37 1196.6 1226.46 1192.57 Q1226.62 1191.83 1226.78 1191.61 Q1226.94 1191.38 1227.39 1191.38 Q1228.2 1191.38 1228.2 1192.03 Q1227.46 1195.79 1225.82 1198.69 Q1223.72 1202.2 1220.6 1202.2 Q1217.99 1202.2 1216.25 1200.4 Q1214.54 1198.56 1214.54 1195.66 Q1214.54 1194.96 1214.8 1193.35 Q1215 1192.7 1215 1191.96 Q1215 1190.45 1214.16 1189.32 Q1213.32 1188.16 1211.97 1187.58 Q1210.62 1187 1209.49 1186.74 Q1208.39 1186.45 1207.33 1186.36 Q1204.11 1199.98 1203.66 1200.82 Q1203.37 1201.4 1202.72 1201.78 Q1202.08 1202.2 1201.4 1202.2 Q1200.76 1202.2 1200.12 1201.75 Q1199.5 1201.33 1199.5 1200.33 Q1199.5 1199.82 1199.76 1198.89 L1209.33 1160.88 L1209.52 1159.59 Q1209.52 1159.21 1209.36 1159.01 Q1209.23 1158.79 1208.46 1158.63 Q1207.72 1158.47 1206.24 1158.47 Q1205.62 1158.47 1205.33 1158.43 Q1205.08 1158.4 1204.85 1158.24 Q1204.62 1158.05 1204.62 1157.66 Q1204.62 1157.11 1204.85 1156.82 Q1205.11 1156.5 1205.3 1156.44 Q1205.49 1156.37 1205.88 1156.34 Q1206.43 1156.31 1208.26 1156.15 Q1210.1 1155.95 1211.68 1155.83 Q1213.26 1155.7 1213.93 1155.7 Q1214.32 1155.7 1214.51 1155.89 Q1214.74 1156.05 1214.77 1156.24 L1214.8 1156.41 L1207.94 1184.23 Q1210.78 1183.1 1215.25 1178.11 Q1220.44 1172.32 1224.88 1172.32 Q1226.98 1172.32 1228.17 1173.6 Q1229.36 1174.86 1229.36 1176.47 Z" fill="#000000" fill-rule="nonzero" fill-opacity="1" /><polyline clip-path="url(#clip950)" style="stroke:#000000; stroke-linecap:round; stroke-linejoin:round; stroke-width:4; stroke-opacity:1; fill:none" points="234.666,1068.81 234.666,47.2441 "/>
<polyline clip-path="url(#clip950)" style="stroke:#000000; stroke-linecap:round; stroke-linejoin:round; stroke-width:4; stroke-opacity:1; fill:none" points="234.666,955.256 253.563,955.256 "/>
<polyline clip-path="url(#clip950)" style="stroke:#000000; stroke-linecap:round; stroke-linejoin:round; stroke-width:4; stroke-opacity:1; fill:none" points="234.666,672.364 253.563,672.364 "/>
<polyline clip-path="url(#clip950)" style="stroke:#000000; stroke-linecap:round; stroke-linejoin:round; stroke-width:4; stroke-opacity:1; fill:none" points="234.666,389.473 253.563,389.473 "/>
<polyline clip-path="url(#clip950)" style="stroke:#000000; stroke-linecap:round; stroke-linejoin:round; stroke-width:4; stroke-opacity:1; fill:none" points="234.666,106.582 253.563,106.582 "/>
<path clip-path="url(#clip950)" d="M112.791 955.707 L142.467 955.707 L142.467 959.642 L112.791 959.642 L112.791 955.707 Z" fill="#000000" fill-rule="nonzero" fill-opacity="1" /><path clip-path="url(#clip950)" d="M153.37 968.601 L161.009 968.601 L161.009 942.235 L152.698 943.902 L152.698 939.642 L160.962 937.976 L165.638 937.976 L165.638 968.601 L173.277 968.601 L173.277 972.536 L153.37 972.536 L153.37 968.601 Z" fill="#000000" fill-rule="nonzero" fill-opacity="1" /><path clip-path="url(#clip950)" d="M192.721 941.054 Q189.11 941.054 187.282 944.619 Q185.476 948.161 185.476 955.29 Q185.476 962.397 187.282 965.962 Q189.11 969.503 192.721 969.503 Q196.356 969.503 198.161 965.962 Q199.99 962.397 199.99 955.29 Q199.99 948.161 198.161 944.619 Q196.356 941.054 192.721 941.054 M192.721 937.351 Q198.531 937.351 201.587 941.957 Q204.666 946.54 204.666 955.29 Q204.666 964.017 201.587 968.624 Q198.531 973.207 192.721 973.207 Q186.911 973.207 183.832 968.624 Q180.777 964.017 180.777 955.29 Q180.777 946.54 183.832 941.957 Q186.911 937.351 192.721 937.351 Z" fill="#000000" fill-rule="nonzero" fill-opacity="1" /><path clip-path="url(#clip950)" d="M192.721 658.163 Q189.11 658.163 187.282 661.728 Q185.476 665.269 185.476 672.399 Q185.476 679.505 187.282 683.07 Q189.11 686.612 192.721 686.612 Q196.356 686.612 198.161 683.07 Q199.99 679.505 199.99 672.399 Q199.99 665.269 198.161 661.728 Q196.356 658.163 192.721 658.163 M192.721 654.459 Q198.531 654.459 201.587 659.066 Q204.666 663.649 204.666 672.399 Q204.666 681.126 201.587 685.732 Q198.531 690.316 192.721 690.316 Q186.911 690.316 183.832 685.732 Q180.777 681.126 180.777 672.399 Q180.777 663.649 183.832 659.066 Q186.911 654.459 192.721 654.459 Z" fill="#000000" fill-rule="nonzero" fill-opacity="1" /><path clip-path="url(#clip950)" d="M153.37 402.818 L161.009 402.818 L161.009 376.452 L152.698 378.119 L152.698 373.86 L160.962 372.193 L165.638 372.193 L165.638 402.818 L173.277 402.818 L173.277 406.753 L153.37 406.753 L153.37 402.818 Z" fill="#000000" fill-rule="nonzero" fill-opacity="1" /><path clip-path="url(#clip950)" d="M192.721 375.272 Q189.11 375.272 187.282 378.836 Q185.476 382.378 185.476 389.508 Q185.476 396.614 187.282 400.179 Q189.11 403.721 192.721 403.721 Q196.356 403.721 198.161 400.179 Q199.99 396.614 199.99 389.508 Q199.99 382.378 198.161 378.836 Q196.356 375.272 192.721 375.272 M192.721 371.568 Q198.531 371.568 201.587 376.174 Q204.666 380.758 204.666 389.508 Q204.666 398.234 201.587 402.841 Q198.531 407.424 192.721 407.424 Q186.911 407.424 183.832 402.841 Q180.777 398.234 180.777 389.508 Q180.777 380.758 183.832 376.174 Q186.911 371.568 192.721 371.568 Z" fill="#000000" fill-rule="nonzero" fill-opacity="1" /><path clip-path="url(#clip950)" d="M156.587 119.926 L172.907 119.926 L172.907 123.862 L150.962 123.862 L150.962 119.926 Q153.624 117.172 158.208 112.542 Q162.814 107.889 163.995 106.547 Q166.24 104.024 167.12 102.288 Q168.022 100.528 168.022 98.8386 Q168.022 96.084 166.078 94.3479 Q164.157 92.6118 161.055 92.6118 Q158.856 92.6118 156.402 93.3756 Q153.972 94.1395 151.194 95.6904 L151.194 90.9682 Q154.018 89.834 156.472 89.2553 Q158.925 88.6766 160.962 88.6766 Q166.333 88.6766 169.527 91.3618 Q172.721 94.0469 172.721 98.5377 Q172.721 100.667 171.911 102.589 Q171.124 104.487 169.018 107.079 Q168.439 107.751 165.337 110.968 Q162.235 114.163 156.587 119.926 Z" fill="#000000" fill-rule="nonzero" fill-opacity="1" /><path clip-path="url(#clip950)" d="M192.721 92.3803 Q189.11 92.3803 187.282 95.9451 Q185.476 99.4867 185.476 106.616 Q185.476 113.723 187.282 117.288 Q189.11 120.829 192.721 120.829 Q196.356 120.829 198.161 117.288 Q199.99 113.723 199.99 106.616 Q199.99 99.4867 198.161 95.9451 Q196.356 92.3803 192.721 92.3803 M192.721 88.6766 Q198.531 88.6766 201.587 93.283 Q204.666 97.8664 204.666 106.616 Q204.666 115.343 201.587 119.95 Q198.531 124.533 192.721 124.533 Q186.911 124.533 183.832 119.95 Q180.777 115.343 180.777 106.616 Q180.777 97.8664 183.832 93.283 Q186.911 88.6766 192.721 88.6766 Z" fill="#000000" fill-rule="nonzero" fill-opacity="1" /><path clip-path="url(#clip950)" d="M70.6138 739.162 L23.0938 757.304 L23.0938 750.589 L63.1023 735.534 L23.0938 720.447 L23.0938 713.763 L70.6138 731.873 L70.6138 739.162 Z" fill="#000000" fill-rule="nonzero" fill-opacity="1" /><path clip-path="url(#clip950)" d="M52.6944 695.939 Q52.6944 703.037 54.3176 705.774 Q55.9409 708.511 59.8558 708.511 Q62.975 708.511 64.821 706.474 Q66.6353 704.405 66.6353 700.872 Q66.6353 696.003 63.1978 693.074 Q59.7285 690.114 53.9993 690.114 L52.6944 690.114 L52.6944 695.939 M50.2754 684.258 L70.6138 684.258 L70.6138 690.114 L65.203 690.114 Q68.4495 692.119 70.0091 695.111 Q71.5369 698.103 71.5369 702.432 Q71.5369 707.906 68.4813 711.153 Q65.394 714.368 60.2377 714.368 Q54.2221 714.368 51.1666 710.357 Q48.1111 706.315 48.1111 698.326 L48.1111 690.114 L47.5381 690.114 Q43.4959 690.114 41.2998 692.788 Q39.0718 695.43 39.0718 700.236 Q39.0718 703.291 39.8038 706.188 Q40.5359 709.084 42 711.758 L36.5891 711.758 Q35.3478 708.543 34.7431 705.519 Q34.1065 702.496 34.1065 699.631 Q34.1065 691.897 38.1169 688.077 Q42.1273 684.258 50.2754 684.258 Z" fill="#000000" fill-rule="nonzero" fill-opacity="1" /><path clip-path="url(#clip950)" d="M21.0886 672.195 L21.0886 666.338 L70.6138 666.338 L70.6138 672.195 L21.0886 672.195 Z" fill="#000000" fill-rule="nonzero" fill-opacity="1" /><path clip-path="url(#clip950)" d="M56.5456 654.689 L34.9659 654.689 L34.9659 648.833 L56.3228 648.833 Q61.3836 648.833 63.9298 646.859 Q66.4443 644.886 66.4443 640.939 Q66.4443 636.197 63.4206 633.46 Q60.3969 630.69 55.177 630.69 L34.9659 630.69 L34.9659 624.834 L70.6138 624.834 L70.6138 630.69 L65.1393 630.69 Q68.3858 632.823 69.9773 635.656 Q71.5369 638.457 71.5369 642.181 Q71.5369 648.323 67.7174 651.506 Q63.898 654.689 56.5456 654.689 M34.1065 639.953 L34.1065 639.953 Z" fill="#000000" fill-rule="nonzero" fill-opacity="1" /><path clip-path="url(#clip950)" d="M51.3257 582.279 L54.1903 582.279 L54.1903 609.206 Q60.2377 608.824 63.4206 605.578 Q66.5716 602.299 66.5716 596.475 Q66.5716 593.101 65.7441 589.95 Q64.9165 586.767 63.2614 583.648 L68.7996 583.648 Q70.1364 586.799 70.8366 590.109 Q71.5369 593.419 71.5369 596.825 Q71.5369 605.355 66.5716 610.352 Q61.6064 615.317 53.14 615.317 Q44.3871 615.317 39.2627 610.607 Q34.1065 605.864 34.1065 597.843 Q34.1065 590.65 38.7535 586.481 Q43.3686 582.279 51.3257 582.279 M49.607 588.136 Q44.8009 588.199 41.9363 590.841 Q39.0718 593.451 39.0718 597.78 Q39.0718 602.681 41.8408 605.641 Q44.6099 608.57 49.6388 609.015 L49.607 588.136 Z" fill="#000000" fill-rule="nonzero" fill-opacity="1" /><path clip-path="url(#clip950)" d="M26.363 511.069 Q27.5546 511.133 27.619 511.939 Q27.6834 513.162 27.8444 513.903 Q27.9733 514.644 28.4564 515.803 Q28.9394 516.963 30.0989 518.09 Q31.2583 519.217 33.094 520.376 L70.8715 544.112 Q71.58 544.531 71.8054 544.885 Q72.0631 545.207 72.0631 545.948 Q72.0631 546.624 71.7732 546.882 Q71.5156 547.14 70.5494 547.268 L29.8412 552.486 Q29.1005 552.582 28.7784 552.679 Q28.4564 552.776 28.1343 553.162 Q27.8122 553.516 27.7156 554.289 Q27.619 555.062 27.619 556.447 Q27.619 557.091 27.5868 557.381 Q27.5546 557.639 27.3936 557.864 Q27.2003 558.09 26.8139 558.09 Q26.2342 558.09 25.9443 557.864 Q25.6222 557.606 25.59 557.413 Q25.5578 557.188 25.5578 556.834 Q25.5578 556.286 25.6222 555.094 Q25.6867 553.903 25.6867 553.291 Q25.6867 552.711 25.7189 551.487 Q25.7511 550.264 25.7511 549.652 Q25.7511 548.299 25.6545 545.561 Q25.5578 542.792 25.5578 541.471 Q25.5578 540.57 26.2986 540.57 Q27.2003 540.57 27.4258 540.956 Q27.619 541.342 27.619 542.212 Q27.619 544.402 28.1665 545.594 Q28.714 546.753 29.5836 546.753 L64.4947 542.276 L32.2889 522.019 Q30.7752 521.021 29.7768 521.021 Q27.8444 521.021 27.619 524.08 Q27.619 525.111 26.8139 525.111 Q26.2342 525.111 25.9443 524.853 Q25.6222 524.595 25.59 524.402 Q25.5578 524.177 25.5578 523.855 Q25.5578 522.792 25.6545 520.634 Q25.7511 518.444 25.7511 517.349 Q25.7511 516.447 25.6545 514.612 Q25.5578 512.776 25.5578 511.939 Q25.5578 511.069 26.363 511.069 Z" fill="#000000" fill-rule="nonzero" fill-opacity="1" /><path clip-path="url(#clip950)" d="M54.1244 502.348 Q42.9812 502.348 33.9958 498.194 Q30.2277 496.422 27.0715 493.942 Q23.9153 491.463 22.5305 489.82 Q21.1456 488.178 21.1456 487.727 Q21.1456 487.083 21.7897 487.05 Q22.1118 487.05 22.917 487.92 Q33.7381 498.548 54.1244 498.516 Q74.5752 498.516 84.9776 488.178 Q86.1049 487.05 86.4591 487.05 Q87.1032 487.05 87.1032 487.727 Q87.1032 488.178 85.7828 489.756 Q84.4624 491.334 81.435 493.781 Q78.4077 496.229 74.704 498 Q65.7185 502.348 54.1244 502.348 Z" fill="#000000" fill-rule="nonzero" fill-opacity="1" /><path clip-path="url(#clip950)" d="M45.6221 451.127 Q47.4578 451.127 48.5528 452.254 Q49.6478 453.349 49.6478 454.734 Q49.6478 455.958 48.9393 456.602 Q48.2308 457.246 47.329 457.246 Q46.9425 457.246 46.4594 457.085 Q45.9441 456.924 45.3322 456.57 Q44.7203 456.183 44.2694 455.378 Q43.8186 454.573 43.7541 453.478 Q43.5287 453.703 43.4965 453.768 Q43.11 454.251 42.9812 455.153 Q42.9168 455.281 42.9168 455.732 Q42.9168 457.955 44.5593 460.209 Q46.1696 462.431 49.2291 465.169 Q52.804 468.615 54.1244 470.837 Q55.4127 461.079 61.0487 461.079 Q61.9827 461.079 63.1099 461.336 Q65.2355 461.851 66.7813 461.851 Q69.8731 461.851 69.8731 459.758 Q69.8731 457.729 67.8119 456.441 Q65.7507 455.12 61.725 454.025 Q60.9843 453.864 60.7588 453.703 Q60.5334 453.542 60.5334 453.091 Q60.5334 452.286 61.1775 452.286 Q64.9456 453.027 67.8441 454.67 Q71.3546 456.763 71.3546 459.887 Q71.3546 462.496 69.551 464.235 Q67.7153 465.942 64.8168 465.942 Q64.1082 465.942 62.498 465.684 Q61.8538 465.491 61.1131 465.491 Q59.5994 465.491 58.4722 466.328 Q57.3128 467.165 56.7331 468.518 Q56.1534 469.871 55.8958 470.998 Q55.6059 472.093 55.5093 473.156 Q69.1324 476.376 69.9697 476.827 Q70.5494 477.117 70.9359 477.761 Q71.3546 478.405 71.3546 479.082 Q71.3546 479.726 70.9037 480.37 Q70.485 480.982 69.4866 480.982 Q68.9713 480.982 68.0374 480.724 L30.0344 471.159 L28.7462 470.966 Q28.3597 470.966 28.1665 471.127 Q27.9411 471.256 27.78 472.029 Q27.619 472.769 27.619 474.251 Q27.619 474.863 27.5868 475.152 Q27.5546 475.41 27.3936 475.636 Q27.2003 475.861 26.8139 475.861 Q26.2664 475.861 25.9765 475.636 Q25.6545 475.378 25.59 475.185 Q25.5256 474.991 25.4934 474.605 Q25.4612 474.057 25.3002 472.222 Q25.107 470.386 24.9781 468.808 Q24.8493 467.23 24.8493 466.554 Q24.8493 466.167 25.0425 465.974 Q25.2036 465.748 25.3968 465.716 L25.5578 465.684 L53.3837 472.544 Q52.2565 469.71 47.2646 465.233 Q41.4675 460.048 41.4675 455.604 Q41.4675 453.51 42.7558 452.319 Q44.0118 451.127 45.6221 451.127 Z" fill="#000000" fill-rule="nonzero" fill-opacity="1" /><path clip-path="url(#clip950)" d="M69.551 446.013 Q68.4882 446.947 67.1034 446.947 Q65.7185 446.947 64.688 446.046 Q63.6252 445.112 63.6252 443.437 Q63.6252 441.472 65.5253 440.345 Q67.3932 439.218 70.5494 439.218 Q73.9632 439.218 77.1194 440.603 Q80.3078 441.988 81.8215 443.34 Q83.3351 444.693 83.3351 445.241 Q83.3351 445.885 82.6266 445.885 Q82.369 445.885 81.8859 445.434 Q76.7974 440.699 70.5494 440.667 Q69.551 440.667 69.551 440.796 L69.6799 440.957 Q70.6138 442.084 70.6138 443.437 Q70.6138 445.079 69.551 446.013 Z" fill="#000000" fill-rule="nonzero" fill-opacity="1" /><path clip-path="url(#clip950)" d="M42.1116 390.449 Q42.3371 390.449 43.3033 390.997 Q44.2372 391.512 46.5883 393.412 Q48.9393 395.312 51.6768 398.147 Q52.7396 399.209 54.221 400.82 Q55.7025 402.43 56.6687 403.525 L57.6349 404.62 Q61.1775 408.807 65.1388 412.478 Q65.0422 412.22 65.01 411.77 Q64.9456 411.319 64.9456 410.997 L64.9456 410.675 Q64.9456 409 66.0728 406.069 Q66.9102 403.493 66.9102 402.172 Q66.9102 400.884 66.4593 399.467 Q66.0084 398.05 64.688 396.504 Q63.3675 394.958 61.3708 394.25 Q61.0487 394.121 60.9521 394.056 Q60.8233 393.992 60.6944 393.799 Q60.5334 393.605 60.5334 393.348 Q60.5334 392.994 60.7266 392.768 Q60.9199 392.543 61.1775 392.543 Q61.7572 392.543 62.9166 392.994 Q64.076 393.412 65.5253 394.346 Q66.9746 395.248 68.295 396.44 Q69.5832 397.599 70.485 399.338 Q71.3546 401.077 71.3546 402.913 Q71.3546 404.233 70.7105 405.2 Q70.0985 406.166 68.9069 407.132 Q67.3932 408.452 66.9102 409.161 Q66.3949 409.869 66.3949 410.964 Q66.3949 413.895 70.485 416.568 Q71.0647 416.858 71.1935 417.051 Q71.3546 417.212 71.3546 417.599 Q71.3224 418.404 70.6782 418.404 Q70.4206 418.404 69.2934 417.695 Q68.134 416.955 66.105 415.312 Q64.076 413.638 62.0471 411.609 L56.5077 405.683 Q50.9683 399.113 47.8443 396.504 Q47.8443 397.599 47.8121 398.082 Q47.7799 398.533 47.5866 399.435 Q47.3612 400.337 46.8781 401.593 Q45.8797 404.523 45.8797 405.747 Q45.8797 406.069 45.9119 406.423 Q45.9441 406.778 46.1052 407.583 Q46.2662 408.356 46.5883 409 Q46.8781 409.644 47.5222 410.32 Q48.1341 410.997 48.9715 411.351 Q49.2291 411.448 49.358 411.512 Q49.4868 411.576 49.6156 411.77 Q49.7122 411.931 49.7122 412.188 Q49.7122 412.575 49.4868 412.8 Q49.2613 412.993 48.9715 412.993 Q48.3918 412.993 47.2002 412.414 Q46.0086 411.834 44.7203 410.868 Q43.3999 409.902 42.4337 408.324 Q41.4675 406.745 41.4675 405.006 Q41.4675 403.976 41.9184 403.106 Q42.3693 402.204 42.8524 401.754 Q43.3033 401.27 44.3016 400.465 Q45.0746 399.789 45.3966 399.467 Q45.7187 399.145 46.073 398.501 Q46.395 397.824 46.395 397.084 Q46.395 395.86 45.4611 394.733 Q44.4949 393.605 42.1761 392.156 Q41.4675 391.77 41.4675 391.158 Q41.4675 390.449 42.1116 390.449 Z" fill="#000000" fill-rule="nonzero" fill-opacity="1" /><path clip-path="url(#clip950)" d="M86.4591 384.078 Q86.1371 384.078 85.3319 383.24 Q74.5107 372.613 54.1244 372.613 Q33.6737 372.613 23.3356 382.822 Q22.144 384.078 21.7897 384.078 Q21.1456 384.078 21.1456 383.434 Q21.1456 382.983 22.4661 381.405 Q23.7865 379.794 26.8139 377.379 Q29.8412 374.931 33.5449 373.128 Q42.5303 368.78 54.1244 368.78 Q65.2677 368.78 74.2531 372.935 Q78.0212 374.706 81.1774 377.186 Q84.3335 379.666 85.7184 381.308 Q87.1032 382.951 87.1032 383.434 Q87.1032 384.078 86.4591 384.078 Z" fill="#000000" fill-rule="nonzero" fill-opacity="1" /><polyline clip-path="url(#clip951)" style="stroke:#0f6a81; stroke-linecap:round; stroke-linejoin:round; stroke-width:4; stroke-opacity:1; fill:none" points="283.291,277.174 299.499,269.902 315.708,263.416 331.916,257.538 348.124,252.145 364.333,247.157 380.541,242.505 396.75,238.131 412.958,233.997 429.166,230.072 445.375,226.332 461.583,222.756 477.792,219.328 494,216.033 510.208,212.859 526.417,209.796 542.625,206.833 558.834,203.962 575.042,201.177 591.25,198.472 607.459,195.841 623.667,193.28 639.876,190.784 656.084,188.349 672.292,185.97 688.501,183.645 704.709,181.37 720.918,179.144 737.126,176.965 753.334,174.83 769.543,172.735 785.751,170.68 801.96,168.661 818.168,166.678 834.376,164.73 850.585,162.815 866.793,160.932 883.002,159.078 899.21,157.253 915.418,155.455 931.627,153.684 947.835,151.94 964.044,150.222 980.252,148.527 996.46,146.855 1012.67,145.206 1028.88,143.578 1045.09,141.971 1061.29,140.385 1077.5,138.818 1093.71,137.27 1109.92,135.74 1126.13,134.229 1142.34,132.736 1158.54,131.259 1174.75,129.799 1190.96,128.355 1207.17,126.926 1223.38,125.513 1239.59,124.114 1255.79,122.73 1272,121.359 1288.21,120.003 1304.42,118.661 1320.63,117.331 1336.84,116.013 1353.05,114.708 1369.25,113.415 1385.46,112.135 1401.67,110.865 1417.88,109.607 1434.09,108.361 1450.3,107.125 1466.5,105.899 1482.71,104.684 1498.92,103.479 1515.13,102.284 1531.34,101.099 1547.55,99.9236 1563.75,98.7579 1579.96,97.6012 1596.17,96.4534 1612.38,95.3142 1628.59,94.1836 1644.8,93.0615 1661,91.9478 1677.21,90.8426 1693.42,89.7458 1709.63,88.6568 1725.84,87.5752 1742.05,86.5009 1758.26,85.4338 1774.46,84.3737 1790.67,83.3207 1806.88,82.2746 1823.09,81.2383 1839.3,80.2092 1855.51,79.1865 1871.71,78.1703 1887.92,77.1602 1904.13,76.1564 "/>
<polyline clip-path="url(#clip951)" style="stroke:#c2676d; stroke-linecap:round; stroke-linejoin:round; stroke-width:4; stroke-opacity:1; fill:none" points="283.291,465.009 299.499,456.961 315.708,449.778 331.916,443.262 348.124,437.276 364.333,431.728 380.541,426.541 396.75,421.661 412.958,417.046 429.166,412.662 445.375,408.48 461.583,404.48 477.792,400.643 494,396.955 510.208,393.4 526.417,389.967 542.625,386.645 558.834,383.426 575.042,380.303 591.25,377.268 607.459,374.315 623.667,371.439 639.876,368.635 656.084,365.9 672.292,363.229 688.501,360.617 704.709,358.062 720.918,355.562 737.126,353.114 753.334,350.715 769.543,348.361 785.751,346.051 801.96,343.783 818.168,341.555 834.376,339.366 850.585,337.213 866.793,335.096 883.002,333.013 899.21,330.964 915.418,328.946 931.627,326.957 947.835,324.997 964.044,323.065 980.252,321.161 996.46,319.282 1012.67,317.429 1028.88,315.6 1045.09,313.796 1061.29,312.015 1077.5,310.255 1093.71,308.516 1109.92,306.798 1126.13,305.1 1142.34,303.423 1158.54,301.765 1174.75,300.127 1190.96,298.505 1207.17,296.901 1223.38,295.312 1239.59,293.74 1255.79,292.184 1272,290.643 1288.21,289.12 1304.42,287.616 1320.63,286.126 1336.84,284.65 1353.05,283.188 1369.25,281.738 1385.46,280.301 1401.67,278.877 1417.88,277.465 1434.09,276.067 1450.3,274.682 1466.5,273.308 1482.71,271.946 1498.92,270.595 1515.13,269.255 1531.34,267.926 1547.55,266.609 1563.75,265.302 1579.96,264.005 1596.17,262.719 1612.38,261.443 1628.59,260.176 1644.8,258.918 1661,257.671 1677.21,256.433 1693.42,255.204 1709.63,253.984 1725.84,252.773 1742.05,251.57 1758.26,250.375 1774.46,249.189 1790.67,248.012 1806.88,246.843 1823.09,245.681 1839.3,244.527 1855.51,243.38 1871.71,242.242 1887.92,241.111 1904.13,239.987 "/>
<polyline clip-path="url(#clip951)" style="stroke:#995041; stroke-linecap:round; stroke-linejoin:round; stroke-width:4; stroke-opacity:1; fill:none" points="283.291,662.791 299.499,653.841 315.708,645.833 331.916,638.553 348.124,631.855 364.333,625.633 380.541,619.81 396.75,614.328 412.958,609.142 429.166,604.211 445.375,599.507 461.583,595.01 477.792,590.693 494,586.539 510.208,582.542 526.417,578.679 542.625,574.941 558.834,571.317 575.042,567.799 591.25,564.38 607.459,561.054 623.667,557.815 639.876,554.657 656.084,551.577 672.292,548.57 688.501,545.632 704.709,542.757 720.918,539.942 737.126,537.183 753.334,534.479 769.543,531.827 785.751,529.225 801.96,526.672 818.168,524.167 834.376,521.704 850.585,519.281 866.793,516.895 883.002,514.546 899.21,512.233 915.418,509.953 931.627,507.706 947.835,505.512 964.044,503.347 980.252,501.212 996.46,499.104 1012.67,497.023 1028.88,494.968 1045.09,492.938 1061.29,490.934 1077.5,488.957 1093.71,487.005 1109.92,485.076 1126.13,483.17 1142.34,481.285 1158.54,479.422 1174.75,477.58 1190.96,475.759 1207.17,473.958 1223.38,472.177 1239.59,470.415 1255.79,468.67 1272,466.943 1288.21,465.234 1304.42,463.543 1320.63,461.868 1336.84,460.209 1353.05,458.567 1369.25,456.94 1385.46,455.327 1401.67,453.729 1417.88,452.148 1434.09,450.58 1450.3,449.026 1466.5,447.484 1482.71,445.956 1498.92,444.442 1515.13,442.94 1531.34,441.452 1547.55,439.975 1563.75,438.51 1579.96,437.056 1596.17,435.615 1612.38,434.184 1628.59,432.766 1644.8,431.359 1661,429.961 1677.21,428.575 1693.42,427.198 1709.63,425.831 1725.84,424.474 1742.05,423.128 1758.26,421.792 1774.46,420.465 1790.67,419.147 1806.88,417.838 1823.09,416.538 1839.3,415.246 1855.51,413.963 1871.71,412.69 1887.92,411.426 1904.13,410.169 "/>
<polyline clip-path="url(#clip951)" style="stroke:#5c363a; stroke-linecap:round; stroke-linejoin:round; stroke-width:4; stroke-opacity:1; fill:none" points="283.291,858.373 299.499,848.353 315.708,839.376 331.916,831.206 348.124,823.683 364.333,816.691 380.541,810.146 396.75,803.984 412.958,798.153 429.166,792.616 445.375,787.329 461.583,782.265 477.792,777.403 494,772.724 510.208,768.212 526.417,763.855 542.625,759.641 558.834,755.56 575.042,751.606 591.25,747.763 607.459,744.02 623.667,740.37 639.876,736.809 656.084,733.331 672.292,729.933 688.501,726.611 704.709,723.383 720.918,720.231 737.126,717.141 753.334,714.111 769.543,711.137 785.751,708.215 801.96,705.345 818.168,702.524 834.376,699.757 850.585,697.037 866.793,694.363 883.002,691.732 899.21,689.141 915.418,686.59 931.627,684.077 947.835,681.604 964.044,679.165 980.252,676.763 996.46,674.393 1012.67,672.055 1028.88,669.749 1045.09,667.472 1061.29,665.227 1077.5,663.01 1093.71,660.82 1109.92,658.657 1126.13,656.52 1142.34,654.407 1158.54,652.319 1174.75,650.258 1190.96,648.218 1207.17,646.201 1223.38,644.205 1239.59,642.23 1255.79,640.277 1272,638.346 1288.21,636.434 1304.42,634.541 1320.63,632.666 1336.84,630.81 1353.05,628.971 1369.25,627.151 1385.46,625.35 1401.67,623.565 1417.88,621.796 1434.09,620.042 1450.3,618.303 1466.5,616.58 1482.71,614.873 1498.92,613.183 1515.13,611.507 1531.34,609.843 1547.55,608.193 1563.75,606.556 1579.96,604.932 1596.17,603.322 1612.38,601.726 1628.59,600.143 1644.8,598.573 1661,597.014 1677.21,595.466 1693.42,593.93 1709.63,592.406 1725.84,590.892 1742.05,589.389 1758.26,587.898 1774.46,586.418 1790.67,584.949 1806.88,583.492 1823.09,582.044 1839.3,580.605 1855.51,579.175 1871.71,577.755 1887.92,576.344 1904.13,574.944 "/>
<polyline clip-path="url(#clip951)" style="stroke:#d5968c; stroke-linecap:round; stroke-linejoin:round; stroke-width:4; stroke-opacity:1; fill:none" points="283.291,1039.9 299.499,1028.65 315.708,1018.57 331.916,1009.39 348.124,1000.93 364.333,993.065 380.541,985.708 396.75,978.788 412.958,972.253 429.166,966.032 445.375,960.085 461.583,954.384 477.792,948.905 494,943.628 510.208,938.537 526.417,933.621 542.625,928.91 558.834,924.36 575.042,919.942 591.25,915.644 607.459,911.458 623.667,907.375 639.876,903.391 656.084,899.503 672.292,895.713 688.501,892.011 704.709,888.391 720.918,884.847 737.126,881.376 753.334,877.973 769.543,874.639 785.751,871.372 801.96,868.164 818.168,865.015 834.376,861.921 850.585,858.879 866.793,855.886 883.002,852.948 899.21,850.056 915.418,847.208 931.627,844.404 947.835,841.642 964.044,838.921 980.252,836.237 996.46,833.595 1012.67,830.99 1028.88,828.419 1045.09,825.88 1061.29,823.375 1077.5,820.903 1093.71,818.465 1109.92,816.057 1126.13,813.677 1142.34,811.324 1158.54,808.998 1174.75,806.7 1190.96,804.43 1207.17,802.188 1223.38,799.97 1239.59,797.773 1255.79,795.6 1272,793.448 1288.21,791.319 1304.42,789.216 1320.63,787.136 1336.84,785.076 1353.05,783.034 1369.25,781.011 1385.46,779.006 1401.67,777.021 1417.88,775.055 1434.09,773.109 1450.3,771.183 1466.5,769.273 1482.71,767.379 1498.92,765.501 1515.13,763.64 1531.34,761.793 1547.55,759.962 1563.75,758.147 1579.96,756.346 1596.17,754.562 1612.38,752.795 1628.59,751.041 1644.8,749.3 1661,747.572 1677.21,745.857 1693.42,744.155 1709.63,742.466 1725.84,740.791 1742.05,739.127 1758.26,737.475 1774.46,735.835 1790.67,734.208 1806.88,732.595 1823.09,730.994 1839.3,729.403 1855.51,727.822 1871.71,726.252 1887.92,724.691 1904.13,723.141 "/>
<path clip-path="url(#clip950)" d="M1678.57 1034.76 L1895.49 1034.76 L1895.49 723.719 L1678.57 723.719  Z" fill="#ffffff" fill-rule="evenodd" fill-opacity="1"/>
<polyline clip-path="url(#clip950)" style="stroke:#000000; stroke-linecap:round; stroke-linejoin:round; stroke-width:4; stroke-opacity:0; fill:none" points="1678.57,1034.76 1895.49,1034.76 1895.49,723.719 1678.57,723.719 1678.57,1034.76 "/>
<polyline clip-path="url(#clip950)" style="stroke:#0f6a81; stroke-linecap:round; stroke-linejoin:round; stroke-width:4; stroke-opacity:1; fill:none" points="1697.66,775.559 1812.2,775.559 "/>
<path clip-path="url(#clip950)" d="M1851.62 758.049 Q1851.62 758.213 1851.22 758.916 Q1850.85 759.595 1849.46 761.305 Q1848.08 763.015 1846.02 765.006 Q1845.25 765.779 1844.08 766.856 Q1842.91 767.934 1842.11 768.636 L1841.31 769.339 Q1838.27 771.915 1835.6 774.796 Q1835.78 774.726 1836.11 774.703 Q1836.44 774.656 1836.68 774.656 L1836.91 774.656 Q1838.13 774.656 1840.26 775.476 Q1842.13 776.085 1843.09 776.085 Q1844.03 776.085 1845.06 775.757 Q1846.09 775.429 1847.22 774.468 Q1848.34 773.508 1848.85 772.056 Q1848.95 771.822 1849 771.751 Q1849.04 771.658 1849.18 771.564 Q1849.32 771.447 1849.51 771.447 Q1849.77 771.447 1849.93 771.587 Q1850.1 771.728 1850.1 771.915 Q1850.1 772.337 1849.77 773.18 Q1849.46 774.023 1848.78 775.077 Q1848.13 776.131 1847.26 777.092 Q1846.42 778.029 1845.15 778.684 Q1843.89 779.317 1842.55 779.317 Q1841.59 779.317 1840.89 778.848 Q1840.19 778.403 1839.49 777.537 Q1838.53 776.436 1838.01 776.085 Q1837.49 775.71 1836.7 775.71 Q1834.57 775.71 1832.62 778.684 Q1832.41 779.106 1832.27 779.2 Q1832.15 779.317 1831.87 779.317 Q1831.29 779.293 1831.29 778.825 Q1831.29 778.638 1831.8 777.818 Q1832.34 776.975 1833.54 775.499 Q1834.75 774.023 1836.23 772.548 L1840.54 768.519 Q1845.32 764.49 1847.22 762.219 Q1846.42 762.219 1846.07 762.195 Q1845.74 762.172 1845.08 762.031 Q1844.43 761.867 1843.51 761.516 Q1841.38 760.79 1840.49 760.79 Q1840.26 760.79 1840 760.813 Q1839.74 760.837 1839.16 760.954 Q1838.6 761.071 1838.13 761.305 Q1837.66 761.516 1837.17 761.984 Q1836.68 762.429 1836.42 763.038 Q1836.35 763.226 1836.3 763.319 Q1836.25 763.413 1836.11 763.507 Q1836 763.577 1835.81 763.577 Q1835.53 763.577 1835.36 763.413 Q1835.22 763.249 1835.22 763.038 Q1835.22 762.617 1835.64 761.75 Q1836.07 760.883 1836.77 759.947 Q1837.47 758.986 1838.62 758.284 Q1839.77 757.581 1841.03 757.581 Q1841.78 757.581 1842.41 757.909 Q1843.07 758.237 1843.4 758.588 Q1843.75 758.916 1844.33 759.642 Q1844.83 760.204 1845.06 760.438 Q1845.29 760.673 1845.76 760.93 Q1846.25 761.165 1846.79 761.165 Q1847.68 761.165 1848.5 760.485 Q1849.32 759.783 1850.38 758.096 Q1850.66 757.581 1851.1 757.581 Q1851.62 757.581 1851.62 758.049 Z" fill="#000000" fill-rule="nonzero" fill-opacity="1" /><path clip-path="url(#clip950)" d="M1856.54 787.191 Q1856.54 786.19 1857.08 785.813 Q1857.62 785.42 1858.19 785.42 Q1858.96 785.42 1859.41 785.912 Q1859.87 786.387 1859.87 787.059 Q1859.87 787.732 1859.41 788.223 Q1858.96 788.699 1858.19 788.699 Q1857.82 788.699 1857.62 788.633 Q1858.06 790.175 1859.41 791.289 Q1860.77 792.404 1862.56 792.404 Q1864.8 792.404 1866.15 790.224 Q1866.95 788.814 1866.95 785.617 Q1866.95 782.796 1866.34 781.386 Q1865.41 779.239 1863.49 779.239 Q1860.77 779.239 1859.16 781.583 Q1858.96 781.878 1858.74 781.895 Q1858.41 781.895 1858.33 781.714 Q1858.26 781.518 1858.26 781.009 L1858.26 771.074 Q1858.26 770.27 1858.59 770.27 Q1858.72 770.27 1859 770.369 Q1861.11 771.303 1863.46 771.319 Q1865.87 771.319 1868.03 770.336 Q1868.2 770.237 1868.29 770.237 Q1868.62 770.237 1868.64 770.614 Q1868.64 770.746 1868.36 771.139 Q1868.1 771.516 1867.52 772.024 Q1866.95 772.516 1866.21 772.992 Q1865.47 773.467 1864.39 773.795 Q1863.33 774.107 1862.15 774.107 Q1860.74 774.107 1859.29 773.664 L1859.29 780.206 Q1861.03 778.501 1863.56 778.501 Q1866.24 778.501 1868.1 780.665 Q1869.95 782.829 1869.95 785.846 Q1869.95 789.01 1867.75 791.175 Q1865.57 793.339 1862.62 793.339 Q1859.93 793.339 1858.23 791.421 Q1856.54 789.502 1856.54 787.191 Z" fill="#000000" fill-rule="nonzero" fill-opacity="1" /><polyline clip-path="url(#clip950)" style="stroke:#c2676d; stroke-linecap:round; stroke-linejoin:round; stroke-width:4; stroke-opacity:1; fill:none" points="1697.66,827.399 1812.2,827.399 "/>
<path clip-path="url(#clip950)" d="M1851.62 810.142 Q1851.62 810.306 1851.22 811.008 Q1850.85 811.688 1849.46 813.398 Q1848.08 815.107 1846.02 817.098 Q1845.25 817.871 1844.08 818.949 Q1842.91 820.026 1842.11 820.729 L1841.31 821.431 Q1838.27 824.008 1835.6 826.889 Q1835.78 826.819 1836.11 826.795 Q1836.44 826.748 1836.68 826.748 L1836.91 826.748 Q1838.13 826.748 1840.26 827.568 Q1842.13 828.177 1843.09 828.177 Q1844.03 828.177 1845.06 827.849 Q1846.09 827.521 1847.22 826.561 Q1848.34 825.601 1848.85 824.148 Q1848.95 823.914 1849 823.844 Q1849.04 823.75 1849.18 823.657 Q1849.32 823.539 1849.51 823.539 Q1849.77 823.539 1849.93 823.68 Q1850.1 823.82 1850.1 824.008 Q1850.1 824.429 1849.77 825.273 Q1849.46 826.116 1848.78 827.17 Q1848.13 828.224 1847.26 829.184 Q1846.42 830.121 1845.15 830.777 Q1843.89 831.409 1842.55 831.409 Q1841.59 831.409 1840.89 830.941 Q1840.19 830.496 1839.49 829.629 Q1838.53 828.528 1838.01 828.177 Q1837.49 827.802 1836.7 827.802 Q1834.57 827.802 1832.62 830.777 Q1832.41 831.199 1832.27 831.292 Q1832.15 831.409 1831.87 831.409 Q1831.29 831.386 1831.29 830.917 Q1831.29 830.73 1831.8 829.91 Q1832.34 829.067 1833.54 827.592 Q1834.75 826.116 1836.23 824.64 L1840.54 820.612 Q1845.32 816.583 1847.22 814.311 Q1846.42 814.311 1846.07 814.288 Q1845.74 814.264 1845.08 814.124 Q1844.43 813.96 1843.51 813.608 Q1841.38 812.882 1840.49 812.882 Q1840.26 812.882 1840 812.906 Q1839.74 812.929 1839.16 813.046 Q1838.6 813.163 1838.13 813.398 Q1837.66 813.608 1837.17 814.077 Q1836.68 814.522 1836.42 815.131 Q1836.35 815.318 1836.3 815.412 Q1836.25 815.506 1836.11 815.599 Q1836 815.669 1835.81 815.669 Q1835.53 815.669 1835.36 815.506 Q1835.22 815.342 1835.22 815.131 Q1835.22 814.709 1835.64 813.843 Q1836.07 812.976 1836.77 812.039 Q1837.47 811.079 1838.62 810.376 Q1839.77 809.673 1841.03 809.673 Q1841.78 809.673 1842.41 810.001 Q1843.07 810.329 1843.4 810.681 Q1843.75 811.008 1844.33 811.735 Q1844.83 812.297 1845.06 812.531 Q1845.29 812.765 1845.76 813.023 Q1846.25 813.257 1846.79 813.257 Q1847.68 813.257 1848.5 812.578 Q1849.32 811.875 1850.38 810.189 Q1850.66 809.673 1851.1 809.673 Q1851.62 809.673 1851.62 810.142 Z" fill="#000000" fill-rule="nonzero" fill-opacity="1" /><path clip-path="url(#clip950)" d="M1856.54 839.376 L1856.54 838.343 L1866.85 822.587 Q1867.11 822.177 1867.52 822.193 Q1867.9 822.193 1867.98 822.341 Q1868.06 822.488 1868.06 823.062 L1868.06 838.343 L1871.43 838.343 L1871.43 839.376 L1868.06 839.376 L1868.06 842.294 Q1868.06 843.262 1868.46 843.573 Q1868.87 843.885 1870.61 843.885 L1871.31 843.885 L1871.31 844.918 Q1869.93 844.819 1866.75 844.819 Q1863.59 844.819 1862.21 844.918 L1862.21 843.885 L1862.92 843.885 Q1864.65 843.885 1865.06 843.59 Q1865.47 843.278 1865.47 842.294 L1865.47 839.376 L1856.54 839.376 M1857.49 838.343 L1865.67 838.343 L1865.67 825.817 L1857.49 838.343 Z" fill="#000000" fill-rule="nonzero" fill-opacity="1" /><polyline clip-path="url(#clip950)" style="stroke:#995041; stroke-linecap:round; stroke-linejoin:round; stroke-width:4; stroke-opacity:1; fill:none" points="1697.66,879.239 1812.2,879.239 "/>
<path clip-path="url(#clip950)" d="M1851.62 861.729 Q1851.62 861.893 1851.22 862.596 Q1850.85 863.275 1849.46 864.985 Q1848.08 866.695 1846.02 868.686 Q1845.25 869.459 1844.08 870.536 Q1842.91 871.614 1842.11 872.316 L1841.31 873.019 Q1838.27 875.595 1835.6 878.476 Q1835.78 878.406 1836.11 878.383 Q1836.44 878.336 1836.68 878.336 L1836.91 878.336 Q1838.13 878.336 1840.26 879.156 Q1842.13 879.765 1843.09 879.765 Q1844.03 879.765 1845.06 879.437 Q1846.09 879.109 1847.22 878.148 Q1848.34 877.188 1848.85 875.736 Q1848.95 875.502 1849 875.431 Q1849.04 875.338 1849.18 875.244 Q1849.32 875.127 1849.51 875.127 Q1849.77 875.127 1849.93 875.267 Q1850.1 875.408 1850.1 875.595 Q1850.1 876.017 1849.77 876.86 Q1849.46 877.703 1848.78 878.757 Q1848.13 879.811 1847.26 880.772 Q1846.42 881.709 1845.15 882.364 Q1843.89 882.997 1842.55 882.997 Q1841.59 882.997 1840.89 882.528 Q1840.19 882.083 1839.49 881.217 Q1838.53 880.116 1838.01 879.765 Q1837.49 879.39 1836.7 879.39 Q1834.57 879.39 1832.62 882.364 Q1832.41 882.786 1832.27 882.88 Q1832.15 882.997 1831.87 882.997 Q1831.29 882.973 1831.29 882.505 Q1831.29 882.318 1831.8 881.498 Q1832.34 880.655 1833.54 879.179 Q1834.75 877.703 1836.23 876.228 L1840.54 872.199 Q1845.32 868.17 1847.22 865.899 Q1846.42 865.899 1846.07 865.875 Q1845.74 865.852 1845.08 865.711 Q1844.43 865.547 1843.51 865.196 Q1841.38 864.47 1840.49 864.47 Q1840.26 864.47 1840 864.493 Q1839.74 864.517 1839.16 864.634 Q1838.6 864.751 1838.13 864.985 Q1837.66 865.196 1837.17 865.664 Q1836.68 866.109 1836.42 866.718 Q1836.35 866.906 1836.3 866.999 Q1836.25 867.093 1836.11 867.187 Q1836 867.257 1835.81 867.257 Q1835.53 867.257 1835.36 867.093 Q1835.22 866.929 1835.22 866.718 Q1835.22 866.297 1835.64 865.43 Q1836.07 864.563 1836.77 863.627 Q1837.47 862.666 1838.62 861.964 Q1839.77 861.261 1841.03 861.261 Q1841.78 861.261 1842.41 861.589 Q1843.07 861.917 1843.4 862.268 Q1843.75 862.596 1844.33 863.322 Q1844.83 863.884 1845.06 864.118 Q1845.29 864.353 1845.76 864.61 Q1846.25 864.845 1846.79 864.845 Q1847.68 864.845 1848.5 864.165 Q1849.32 863.463 1850.38 861.776 Q1850.66 861.261 1851.1 861.261 Q1851.62 861.261 1851.62 861.729 Z" fill="#000000" fill-rule="nonzero" fill-opacity="1" /><path clip-path="url(#clip950)" d="M1856.54 891.756 Q1856.54 890.756 1857.11 890.28 Q1857.69 889.805 1858.42 889.805 Q1859.19 889.805 1859.74 890.313 Q1860.29 890.805 1860.29 891.674 Q1860.29 892.608 1859.64 893.133 Q1859 893.658 1858.08 893.527 Q1858.88 894.871 1860.36 895.478 Q1861.85 896.084 1863.23 896.084 Q1864.67 896.084 1865.83 894.838 Q1867.01 893.592 1867.01 890.543 Q1867.01 887.952 1866 886.46 Q1865 884.968 1863.01 884.968 L1861.54 884.968 Q1861.03 884.968 1860.88 884.919 Q1860.74 884.87 1860.74 884.591 Q1860.74 884.263 1861.24 884.197 Q1861.75 884.197 1862.56 884.099 Q1864.51 884.033 1865.54 882.345 Q1866.47 880.771 1866.47 878.525 Q1866.47 876.475 1865.49 875.623 Q1864.52 874.754 1863.26 874.754 Q1862.08 874.754 1860.78 875.245 Q1859.49 875.737 1858.78 876.836 Q1860.87 876.836 1860.87 878.525 Q1860.87 879.262 1860.39 879.754 Q1859.93 880.23 1859.16 880.23 Q1858.42 880.23 1857.93 879.771 Q1857.44 879.295 1857.44 878.492 Q1857.44 876.573 1859.14 875.245 Q1860.87 873.917 1863.39 873.917 Q1865.88 873.917 1867.72 875.229 Q1869.57 876.541 1869.57 878.557 Q1869.57 880.541 1868.26 882.164 Q1866.95 883.788 1864.87 884.46 Q1867.42 884.968 1868.95 886.706 Q1870.47 888.428 1870.47 890.543 Q1870.47 893.166 1868.41 895.101 Q1866.34 897.019 1863.33 897.019 Q1860.54 897.019 1858.54 895.51 Q1856.54 894.002 1856.54 891.756 Z" fill="#000000" fill-rule="nonzero" fill-opacity="1" /><polyline clip-path="url(#clip950)" style="stroke:#5c363a; stroke-linecap:round; stroke-linejoin:round; stroke-width:4; stroke-opacity:1; fill:none" points="1697.66,931.079 1812.2,931.079 "/>
<path clip-path="url(#clip950)" d="M1851.62 913.934 Q1851.62 914.098 1851.22 914.801 Q1850.85 915.48 1849.46 917.19 Q1848.08 918.899 1846.02 920.89 Q1845.25 921.663 1844.08 922.741 Q1842.91 923.818 1842.11 924.521 L1841.31 925.224 Q1838.27 927.8 1835.6 930.681 Q1835.78 930.611 1836.11 930.587 Q1836.44 930.54 1836.68 930.54 L1836.91 930.54 Q1838.13 930.54 1840.26 931.36 Q1842.13 931.969 1843.09 931.969 Q1844.03 931.969 1845.06 931.641 Q1846.09 931.313 1847.22 930.353 Q1848.34 929.393 1848.85 927.941 Q1848.95 927.706 1849 927.636 Q1849.04 927.542 1849.18 927.449 Q1849.32 927.332 1849.51 927.332 Q1849.77 927.332 1849.93 927.472 Q1850.1 927.613 1850.1 927.8 Q1850.1 928.222 1849.77 929.065 Q1849.46 929.908 1848.78 930.962 Q1848.13 932.016 1847.26 932.976 Q1846.42 933.913 1845.15 934.569 Q1843.89 935.201 1842.55 935.201 Q1841.59 935.201 1840.89 934.733 Q1840.19 934.288 1839.49 933.421 Q1838.53 932.321 1838.01 931.969 Q1837.49 931.594 1836.7 931.594 Q1834.57 931.594 1832.62 934.569 Q1832.41 934.991 1832.27 935.084 Q1832.15 935.201 1831.87 935.201 Q1831.29 935.178 1831.29 934.71 Q1831.29 934.522 1831.8 933.702 Q1832.34 932.859 1833.54 931.384 Q1834.75 929.908 1836.23 928.432 L1840.54 924.404 Q1845.32 920.375 1847.22 918.103 Q1846.42 918.103 1846.07 918.08 Q1845.74 918.056 1845.08 917.916 Q1844.43 917.752 1843.51 917.4 Q1841.38 916.674 1840.49 916.674 Q1840.26 916.674 1840 916.698 Q1839.74 916.721 1839.16 916.838 Q1838.6 916.955 1838.13 917.19 Q1837.66 917.4 1837.17 917.869 Q1836.68 918.314 1836.42 918.923 Q1836.35 919.11 1836.3 919.204 Q1836.25 919.298 1836.11 919.391 Q1836 919.462 1835.81 919.462 Q1835.53 919.462 1835.36 919.298 Q1835.22 919.134 1835.22 918.923 Q1835.22 918.501 1835.64 917.635 Q1836.07 916.768 1836.77 915.831 Q1837.47 914.871 1838.62 914.168 Q1839.77 913.465 1841.03 913.465 Q1841.78 913.465 1842.41 913.793 Q1843.07 914.121 1843.4 914.473 Q1843.75 914.801 1844.33 915.527 Q1844.83 916.089 1845.06 916.323 Q1845.29 916.557 1845.76 916.815 Q1846.25 917.049 1846.79 917.049 Q1847.68 917.049 1848.5 916.37 Q1849.32 915.667 1850.38 913.981 Q1850.66 913.465 1851.1 913.465 Q1851.62 913.465 1851.62 913.934 Z" fill="#000000" fill-rule="nonzero" fill-opacity="1" /><path clip-path="url(#clip950)" d="M1856.54 948.486 Q1856.54 947.879 1856.59 947.699 Q1856.65 947.518 1856.92 947.24 L1863.36 940.058 Q1866.88 936.091 1866.88 932.631 Q1866.88 930.385 1865.7 928.778 Q1864.54 927.171 1862.39 927.171 Q1860.92 927.171 1859.67 928.073 Q1858.42 928.975 1857.85 930.582 Q1857.95 930.549 1858.29 930.549 Q1859.13 930.549 1859.59 931.073 Q1860.06 931.598 1860.06 932.303 Q1860.06 933.205 1859.47 933.648 Q1858.9 934.074 1858.33 934.074 Q1858.1 934.074 1857.78 934.025 Q1857.49 933.975 1857.01 933.516 Q1856.54 933.041 1856.54 932.205 Q1856.54 929.86 1858.31 927.991 Q1860.1 926.122 1862.82 926.122 Q1865.9 926.122 1867.92 927.958 Q1869.95 929.778 1869.95 932.631 Q1869.95 933.631 1869.64 934.549 Q1869.34 935.451 1868.93 936.156 Q1868.54 936.861 1867.46 937.992 Q1866.38 939.124 1865.51 939.927 Q1864.64 940.731 1862.69 942.436 L1859.13 945.895 L1865.18 945.895 Q1868.13 945.895 1868.36 945.633 Q1868.69 945.157 1869.1 942.649 L1869.95 942.649 L1869 948.486 L1856.54 948.486 Z" fill="#000000" fill-rule="nonzero" fill-opacity="1" /><polyline clip-path="url(#clip950)" style="stroke:#d5968c; stroke-linecap:round; stroke-linejoin:round; stroke-width:4; stroke-opacity:1; fill:none" points="1697.66,982.919 1812.2,982.919 "/>
<path clip-path="url(#clip950)" d="M1851.62 965.774 Q1851.62 965.938 1851.22 966.641 Q1850.85 967.32 1849.46 969.03 Q1848.08 970.739 1846.02 972.73 Q1845.25 973.503 1844.08 974.581 Q1842.91 975.658 1842.11 976.361 L1841.31 977.064 Q1838.27 979.64 1835.6 982.521 Q1835.78 982.451 1836.11 982.427 Q1836.44 982.38 1836.68 982.38 L1836.91 982.38 Q1838.13 982.38 1840.26 983.2 Q1842.13 983.809 1843.09 983.809 Q1844.03 983.809 1845.06 983.481 Q1846.09 983.153 1847.22 982.193 Q1848.34 981.233 1848.85 979.781 Q1848.95 979.546 1849 979.476 Q1849.04 979.382 1849.18 979.289 Q1849.32 979.172 1849.51 979.172 Q1849.77 979.172 1849.93 979.312 Q1850.1 979.453 1850.1 979.64 Q1850.1 980.062 1849.77 980.905 Q1849.46 981.748 1848.78 982.802 Q1848.13 983.856 1847.26 984.816 Q1846.42 985.753 1845.15 986.409 Q1843.89 987.041 1842.55 987.041 Q1841.59 987.041 1840.89 986.573 Q1840.19 986.128 1839.49 985.261 Q1838.53 984.161 1838.01 983.809 Q1837.49 983.434 1836.7 983.434 Q1834.57 983.434 1832.62 986.409 Q1832.41 986.831 1832.27 986.924 Q1832.15 987.041 1831.87 987.041 Q1831.29 987.018 1831.29 986.55 Q1831.29 986.362 1831.8 985.542 Q1832.34 984.699 1833.54 983.224 Q1834.75 981.748 1836.23 980.272 L1840.54 976.244 Q1845.32 972.215 1847.22 969.943 Q1846.42 969.943 1846.07 969.92 Q1845.74 969.896 1845.08 969.756 Q1844.43 969.592 1843.51 969.24 Q1841.38 968.514 1840.49 968.514 Q1840.26 968.514 1840 968.538 Q1839.74 968.561 1839.16 968.678 Q1838.6 968.795 1838.13 969.03 Q1837.66 969.24 1837.17 969.709 Q1836.68 970.154 1836.42 970.763 Q1836.35 970.95 1836.3 971.044 Q1836.25 971.138 1836.11 971.231 Q1836 971.302 1835.81 971.302 Q1835.53 971.302 1835.36 971.138 Q1835.22 970.974 1835.22 970.763 Q1835.22 970.341 1835.64 969.475 Q1836.07 968.608 1836.77 967.671 Q1837.47 966.711 1838.62 966.008 Q1839.77 965.305 1841.03 965.305 Q1841.78 965.305 1842.41 965.633 Q1843.07 965.961 1843.4 966.313 Q1843.75 966.641 1844.33 967.367 Q1844.83 967.929 1845.06 968.163 Q1845.29 968.397 1845.76 968.655 Q1846.25 968.889 1846.79 968.889 Q1847.68 968.889 1848.5 968.21 Q1849.32 967.507 1850.38 965.821 Q1850.66 965.305 1851.1 965.305 Q1851.62 965.305 1851.62 965.774 Z" fill="#000000" fill-rule="nonzero" fill-opacity="1" /><path clip-path="url(#clip950)" d="M1856.54 981.159 L1856.54 980.11 Q1860.57 980.11 1862.65 977.962 Q1863.23 977.962 1863.33 978.093 Q1863.42 978.224 1863.42 978.831 L1863.42 997.67 Q1863.42 998.67 1863.92 998.981 Q1864.41 999.293 1866.56 999.293 L1867.62 999.293 L1867.62 1000.33 Q1866.44 1000.23 1862.18 1000.23 Q1857.92 1000.23 1856.75 1000.33 L1856.75 999.293 L1857.82 999.293 Q1859.93 999.293 1860.44 998.998 Q1860.95 998.686 1860.95 997.67 L1860.95 980.274 Q1859.19 981.159 1856.54 981.159 Z" fill="#000000" fill-rule="nonzero" fill-opacity="1" /></svg>
