<?xml version="1.0" encoding="UTF-8"?>
<svg xmlns="http://www.w3.org/2000/svg" xmlns:xlink="http://www.w3.org/1999/xlink" width="245.2109pt" height="193.9557pt" viewBox="0 0 245.2109 193.9557">
<rect x="-24.52109" y="-19.39557" width="294.25308" height="232.74684" fill="rgb(100%, 100%, 100%)" fill-opacity="1"/>
<rect x="-24.52109" y="-19.39557" width="294.25308" height="232.74684" fill="rgb(100%, 100%, 100%)" fill-opacity="1"/>
<path fill-rule="nonzero" fill="rgb(100%, 100%, 100%)" fill-opacity="1" d="M 17.488281 179.105469 L 234.3125 179.105469 L 234.3125 5.855469 L 17.488281 5.855469 Z M 17.488281 179.105469 "/>
<path fill="none" stroke-width="0.5" stroke-linecap="square" stroke-linejoin="round" stroke="rgb(14.901733%, 14.901733%, 14.901733%)" stroke-opacity="1" stroke-miterlimit="10" d="M 0.0026875 -0.0008125 L 309.751571 -0.0008125 " transform="matrix(0.7, 0, 0, -0.7, 17.4864, 179.1049)"/>
<path fill="none" stroke-width="0.5" stroke-linecap="square" stroke-linejoin="round" stroke="rgb(14.901733%, 14.901733%, 14.901733%)" stroke-opacity="1" stroke-miterlimit="10" d="M 0.0026875 -0.0008125 L 0.0026875 247.499187 " transform="matrix(0.7, 0, 0, -0.7, 17.4864, 179.1049)"/>
<path fill="none" stroke-width="3" stroke-linecap="butt" stroke-linejoin="round" stroke="rgb(31.37207%, 31.37207%, 31.37207%)" stroke-opacity="1" stroke-miterlimit="10" d="M 0.00253571 -0.00191071 L 1.442268 -11.888071 L 4.539366 -25.732937 C 36.358562 -143.986286 158.523741 -211.876911 274.020393 -221.307714 L 276.844054 -221.542089 " transform="matrix(0.7, 0, 0, -0.7, 40.5451, 5.8346)"/>
<path fill-rule="nonzero" fill="rgb(0%, 0%, 0%)" fill-opacity="1" d="M 44.058594 13.832031 C 43.988281 13.832031 43.953125 13.78125 43.953125 13.683594 C 43.953125 13.667969 43.957031 13.636719 43.96875 13.59375 C 43.980469 13.550781 43.996094 13.511719 44.011719 13.484375 C 44.03125 13.460938 44.0625 13.445312 44.101562 13.445312 C 44.308594 13.445312 44.488281 13.4375 44.640625 13.429688 C 44.792969 13.417969 44.925781 13.398438 45.035156 13.371094 C 45.117188 13.339844 45.183594 13.238281 45.242188 13.066406 L 46.75 7.015625 C 46.765625 6.941406 46.773438 6.894531 46.773438 6.867188 C 46.773438 6.785156 46.730469 6.738281 46.644531 6.726562 C 46.5 6.699219 46.234375 6.6875 45.847656 6.6875 C 45.777344 6.6875 45.742188 6.636719 45.742188 6.539062 C 45.742188 6.519531 45.746094 6.492188 45.757812 6.449219 C 45.769531 6.402344 45.785156 6.367188 45.804688 6.339844 C 45.828125 6.3125 45.851562 6.300781 45.878906 6.300781 L 49.824219 6.300781 C 50.066406 6.300781 50.304688 6.332031 50.539062 6.390625 C 50.773438 6.449219 50.992188 6.546875 51.191406 6.671875 C 51.390625 6.800781 51.550781 6.960938 51.667969 7.152344 C 51.785156 7.34375 51.84375 7.570312 51.84375 7.824219 C 51.84375 8.097656 51.773438 8.355469 51.632812 8.59375 C 51.488281 8.832031 51.304688 9.035156 51.082031 9.210938 C 50.855469 9.386719 50.613281 9.53125 50.355469 9.644531 C 50.09375 9.753906 49.824219 9.839844 49.539062 9.894531 C 49.742188 9.894531 49.945312 9.933594 50.148438 10.011719 C 50.355469 10.089844 50.539062 10.199219 50.699219 10.335938 C 50.859375 10.472656 50.992188 10.636719 51.089844 10.828125 C 51.1875 11.019531 51.238281 11.222656 51.238281 11.445312 C 51.238281 11.882812 51.082031 12.28125 50.777344 12.648438 C 50.472656 13.015625 50.082031 13.304688 49.613281 13.515625 C 49.140625 13.726562 48.6875 13.832031 48.25 13.832031 Z M 46.085938 13.355469 C 46.085938 13.414062 46.210938 13.445312 46.464844 13.445312 L 48.046875 13.445312 C 48.402344 13.445312 48.746094 13.34375 49.074219 13.144531 C 49.40625 12.945312 49.671875 12.679688 49.871094 12.351562 C 50.070312 12.019531 50.171875 11.675781 50.171875 11.320312 C 50.171875 11.097656 50.125 10.886719 50.03125 10.691406 C 49.9375 10.5 49.804688 10.34375 49.632812 10.234375 C 49.460938 10.121094 49.265625 10.066406 49.046875 10.066406 L 46.898438 10.066406 L 46.132812 13.117188 C 46.101562 13.214844 46.085938 13.292969 46.085938 13.355469 Z M 46.972656 9.769531 L 48.644531 9.769531 C 48.992188 9.769531 49.335938 9.683594 49.667969 9.503906 C 50.003906 9.328125 50.277344 9.082031 50.488281 8.773438 C 50.695312 8.464844 50.800781 8.136719 50.800781 7.792969 C 50.800781 7.46875 50.703125 7.207031 50.503906 6.996094 C 50.304688 6.789062 50.042969 6.6875 49.726562 6.6875 L 48.21875 6.6875 C 48.015625 6.6875 47.882812 6.703125 47.816406 6.738281 C 47.75 6.773438 47.695312 6.882812 47.644531 7.0625 L 46.972656 9.769531 "/>
<path fill-rule="nonzero" fill="rgb(0%, 0%, 0%)" fill-opacity="1" d="M 54.175781 11.453125 C 54.175781 11.894531 54.261719 12.28125 54.433594 12.617188 C 54.605469 12.949219 54.851562 13.210938 55.175781 13.398438 C 55.496094 13.589844 55.878906 13.683594 56.324219 13.683594 C 56.789062 13.683594 57.234375 13.566406 57.664062 13.332031 C 58.09375 13.09375 58.457031 12.78125 58.761719 12.382812 C 59.0625 11.984375 59.269531 11.5625 59.382812 11.117188 C 59.394531 11.070312 59.421875 11.050781 59.464844 11.050781 L 59.605469 11.050781 C 59.632812 11.050781 59.65625 11.0625 59.675781 11.082031 C 59.695312 11.105469 59.703125 11.125 59.703125 11.148438 C 59.703125 11.152344 59.699219 11.164062 59.6875 11.179688 C 59.5625 11.691406 59.316406 12.167969 58.957031 12.617188 C 58.59375 13.066406 58.164062 13.421875 57.664062 13.683594 C 57.164062 13.945312 56.644531 14.078125 56.109375 14.078125 C 55.535156 14.078125 55.023438 13.945312 54.566406 13.6875 C 54.113281 13.425781 53.757812 13.066406 53.503906 12.609375 C 53.25 12.148438 53.125 11.628906 53.125 11.050781 C 53.125 10.429688 53.261719 9.820312 53.539062 9.214844 C 53.8125 8.613281 54.1875 8.074219 54.652344 7.605469 C 55.121094 7.132812 55.652344 6.757812 56.25 6.476562 C 56.847656 6.195312 57.453125 6.054688 58.070312 6.054688 C 58.3125 6.054688 58.542969 6.089844 58.769531 6.164062 C 58.992188 6.238281 59.199219 6.351562 59.386719 6.5 C 59.574219 6.652344 59.734375 6.824219 59.859375 7.023438 L 60.730469 6.078125 C 60.730469 6.0625 60.746094 6.054688 60.777344 6.054688 L 60.84375 6.054688 C 60.875 6.054688 60.902344 6.066406 60.917969 6.09375 C 60.933594 6.121094 60.941406 6.148438 60.941406 6.167969 L 60.195312 9.148438 C 60.195312 9.195312 60.164062 9.21875 60.105469 9.21875 L 59.90625 9.21875 C 59.851562 9.21875 59.824219 9.179688 59.824219 9.097656 C 59.851562 8.9375 59.867188 8.746094 59.867188 8.515625 C 59.867188 8.160156 59.804688 7.820312 59.683594 7.503906 C 59.558594 7.183594 59.371094 6.925781 59.113281 6.734375 C 58.855469 6.542969 58.542969 6.449219 58.175781 6.449219 C 57.574219 6.449219 57.027344 6.597656 56.527344 6.898438 C 56.03125 7.199219 55.609375 7.59375 55.261719 8.085938 C 54.914062 8.574219 54.644531 9.117188 54.457031 9.71875 C 54.269531 10.316406 54.175781 10.894531 54.175781 11.453125 "/>
<path fill="none" stroke-width="2" stroke-linecap="butt" stroke-linejoin="round" stroke="rgb(0%, 0%, 0%)" stroke-opacity="1" stroke-miterlimit="10" d="M 0.00253571 -0.00139286 L 92.647625 -80.844027 " transform="matrix(0.7, 0, 0, -0.7, 100.0451, 46.1084)"/>
<path fill="none" stroke-width="0.5" stroke-linecap="butt" stroke-linejoin="round" stroke="rgb(0%, 0%, 0%)" stroke-opacity="1" stroke-miterlimit="10" d="M -0.00136607 -0.00167857 L 5.071179 -9.399 L 0.171625 -5.124446 L -0.00136607 -0.00167857 " transform="matrix(0.7, 0, 0, -0.7, 164.7783, 99.1082)"/>
<path fill="none" stroke-width="0.5" stroke-linecap="butt" stroke-linejoin="round" stroke="rgb(0%, 0%, 0%)" stroke-opacity="1" stroke-miterlimit="10" d="M 0.00217857 0.001 L -10.003402 3.751 L -4.897375 4.275554 L 0.00217857 0.001 " transform="matrix(0.7, 0, 0, -0.7, 168.3266, 105.6882)"/>
<path fill-rule="nonzero" fill="rgb(0%, 0%, 0%)" fill-opacity="1" d="M 168.328125 105.6875 L 164.777344 99.109375 L 164.898438 102.699219 L 161.324219 103.066406 "/>
<path fill-rule="nonzero" fill="rgb(0%, 0%, 0%)" fill-opacity="1" d="M 193.894531 88.261719 C 193.96875 88.46875 194.097656 88.625 194.292969 88.726562 C 194.488281 88.832031 194.699219 88.882812 194.929688 88.882812 C 195.160156 88.882812 195.378906 88.804688 195.59375 88.640625 C 195.808594 88.480469 195.988281 88.277344 196.136719 88.039062 C 196.28125 87.796875 196.386719 87.558594 196.445312 87.324219 L 197.75 82.109375 C 197.757812 82.082031 197.761719 82.058594 197.761719 82.046875 C 197.765625 82.03125 197.765625 82.019531 197.765625 82 C 197.765625 81.925781 197.738281 81.875 197.683594 81.855469 C 197.488281 81.804688 197.09375 81.78125 196.503906 81.78125 C 196.425781 81.78125 196.390625 81.730469 196.390625 81.632812 C 196.40625 81.578125 196.417969 81.535156 196.425781 81.5 C 196.433594 81.46875 196.453125 81.441406 196.476562 81.421875 C 196.5 81.402344 196.535156 81.394531 196.578125 81.394531 L 199.5625 81.394531 C 199.640625 81.394531 199.679688 81.445312 199.679688 81.542969 C 199.644531 81.699219 199.597656 81.78125 199.53125 81.78125 C 199.273438 81.78125 199.078125 81.800781 198.949219 81.839844 C 198.816406 81.882812 198.722656 81.988281 198.667969 82.15625 L 197.375 87.367188 C 197.292969 87.710938 197.125 88.019531 196.867188 88.292969 C 196.613281 88.566406 196.316406 88.78125 195.96875 88.9375 C 195.621094 89.09375 195.269531 89.171875 194.914062 89.171875 C 194.53125 89.171875 194.191406 89.0625 193.898438 88.847656 C 193.605469 88.628906 193.460938 88.335938 193.460938 87.964844 C 193.460938 87.722656 193.527344 87.515625 193.65625 87.335938 C 193.789062 87.160156 193.976562 87.070312 194.222656 87.070312 C 194.359375 87.070312 194.476562 87.113281 194.574219 87.203125 C 194.667969 87.289062 194.714844 87.402344 194.714844 87.539062 C 194.714844 87.734375 194.640625 87.90625 194.496094 88.054688 C 194.347656 88.203125 194.175781 88.277344 193.976562 88.277344 C 193.941406 88.277344 193.910156 88.273438 193.894531 88.261719 "/>
<path fill-rule="nonzero" fill="rgb(0%, 0%, 0%)" fill-opacity="1" d="M 201.59375 86.546875 C 201.59375 86.988281 201.679688 87.375 201.851562 87.710938 C 202.023438 88.042969 202.273438 88.304688 202.59375 88.492188 C 202.917969 88.683594 203.300781 88.777344 203.742188 88.777344 C 204.207031 88.777344 204.65625 88.660156 205.082031 88.425781 C 205.511719 88.191406 205.878906 87.875 206.179688 87.476562 C 206.480469 87.082031 206.6875 86.65625 206.800781 86.210938 C 206.8125 86.164062 206.839844 86.144531 206.882812 86.144531 L 207.023438 86.144531 C 207.050781 86.144531 207.074219 86.15625 207.09375 86.175781 C 207.113281 86.199219 207.121094 86.21875 207.121094 86.242188 C 207.121094 86.246094 207.117188 86.257812 207.105469 86.273438 C 206.980469 86.785156 206.738281 87.261719 206.375 87.710938 C 206.015625 88.160156 205.585938 88.515625 205.082031 88.777344 C 204.582031 89.039062 204.066406 89.171875 203.527344 89.171875 C 202.953125 89.171875 202.441406 89.039062 201.988281 88.78125 C 201.53125 88.519531 201.179688 88.160156 200.925781 87.703125 C 200.671875 87.242188 200.542969 86.722656 200.542969 86.144531 C 200.542969 85.527344 200.679688 84.914062 200.957031 84.3125 C 201.234375 83.707031 201.605469 83.167969 202.074219 82.699219 C 202.542969 82.226562 203.074219 81.851562 203.667969 81.570312 C 204.265625 81.289062 204.871094 81.148438 205.488281 81.148438 C 205.730469 81.148438 205.960938 81.183594 206.1875 81.257812 C 206.410156 81.332031 206.617188 81.445312 206.808594 81.59375 C 206.996094 81.746094 207.152344 81.917969 207.277344 82.117188 L 208.148438 81.171875 C 208.148438 81.15625 208.164062 81.148438 208.195312 81.148438 L 208.261719 81.148438 C 208.296875 81.148438 208.320312 81.160156 208.335938 81.191406 C 208.351562 81.21875 208.359375 81.242188 208.359375 81.261719 L 207.613281 84.242188 C 207.613281 84.289062 207.585938 84.3125 207.523438 84.3125 L 207.328125 84.3125 C 207.273438 84.3125 207.246094 84.273438 207.246094 84.191406 C 207.273438 84.03125 207.285156 83.839844 207.285156 83.609375 C 207.285156 83.253906 207.226562 82.914062 207.101562 82.597656 C 206.976562 82.277344 206.789062 82.019531 206.53125 81.828125 C 206.273438 81.636719 205.960938 81.542969 205.597656 81.542969 C 204.996094 81.542969 204.445312 81.691406 203.949219 81.992188 C 203.449219 82.292969 203.027344 82.6875 202.679688 83.179688 C 202.332031 83.667969 202.066406 84.210938 201.875 84.8125 C 201.6875 85.410156 201.59375 85.988281 201.59375 86.546875 "/>
<path fill-rule="nonzero" fill="rgb(0%, 0%, 0%)" fill-opacity="1" d="M 209.339844 88.925781 L 209.339844 88.628906 C 209.339844 88.613281 209.347656 88.59375 209.367188 88.570312 L 211.070312 86.675781 C 211.335938 86.394531 211.546875 86.15625 211.707031 85.96875 C 211.867188 85.777344 212.027344 85.558594 212.183594 85.3125 C 212.339844 85.0625 212.464844 84.8125 212.558594 84.554688 C 212.648438 84.300781 212.695312 84.03125 212.695312 83.742188 C 212.695312 83.4375 212.640625 83.152344 212.527344 82.875 C 212.417969 82.597656 212.25 82.378906 212.027344 82.214844 C 211.804688 82.050781 211.539062 81.96875 211.226562 81.96875 C 210.910156 81.96875 210.625 82.0625 210.371094 82.253906 C 210.117188 82.445312 209.9375 82.695312 209.832031 83 C 209.859375 82.996094 209.898438 82.992188 209.949219 82.992188 C 210.113281 82.992188 210.253906 83.046875 210.371094 83.15625 C 210.488281 83.265625 210.546875 83.410156 210.546875 83.59375 C 210.546875 83.757812 210.488281 83.898438 210.371094 84.015625 C 210.253906 84.132812 210.113281 84.191406 209.949219 84.191406 C 209.777344 84.191406 209.636719 84.132812 209.515625 84.011719 C 209.398438 83.890625 209.339844 83.75 209.339844 83.59375 C 209.339844 83.3125 209.394531 83.054688 209.496094 82.8125 C 209.601562 82.574219 209.75 82.359375 209.949219 82.167969 C 210.144531 81.980469 210.363281 81.835938 210.609375 81.734375 C 210.851562 81.632812 211.113281 81.582031 211.390625 81.582031 C 211.8125 81.582031 212.203125 81.671875 212.566406 81.847656 C 212.925781 82.027344 213.210938 82.277344 213.425781 82.605469 C 213.640625 82.929688 213.746094 83.308594 213.746094 83.742188 C 213.746094 84.058594 213.675781 84.359375 213.535156 84.644531 C 213.398438 84.933594 213.21875 85.195312 213 85.429688 C 212.78125 85.664062 212.5 85.933594 212.160156 86.230469 C 211.816406 86.527344 211.589844 86.730469 211.480469 86.832031 L 210.234375 88.03125 L 211.292969 88.03125 C 211.8125 88.03125 212.246094 88.027344 212.597656 88.019531 C 212.949219 88.007812 213.132812 87.996094 213.15625 87.972656 C 213.242188 87.878906 213.332031 87.539062 213.417969 86.957031 L 213.746094 86.957031 L 213.433594 88.925781 L 209.339844 88.925781 "/>
<path fill-rule="nonzero" fill="rgb(0%, 0%, 0%)" fill-opacity="1" d="M 114.535156 16.226562 C 114.605469 16.433594 114.738281 16.589844 114.933594 16.695312 C 115.125 16.796875 115.339844 16.851562 115.566406 16.851562 C 115.796875 16.851562 116.019531 16.769531 116.234375 16.609375 C 116.445312 16.445312 116.625 16.246094 116.773438 16.003906 C 116.921875 15.765625 117.027344 15.527344 117.085938 15.289062 L 118.390625 10.074219 C 118.394531 10.046875 118.398438 10.027344 118.402344 10.011719 C 118.40625 10 118.40625 9.984375 118.40625 9.96875 C 118.40625 9.890625 118.378906 9.839844 118.324219 9.820312 C 118.128906 9.769531 117.734375 9.746094 117.144531 9.746094 C 117.066406 9.746094 117.027344 9.695312 117.027344 9.597656 C 117.042969 9.542969 117.058594 9.5 117.066406 9.46875 C 117.074219 9.433594 117.089844 9.40625 117.113281 9.390625 C 117.140625 9.371094 117.171875 9.359375 117.21875 9.359375 L 120.203125 9.359375 C 120.28125 9.359375 120.316406 9.410156 120.316406 9.507812 C 120.285156 9.667969 120.234375 9.746094 120.171875 9.746094 C 119.914062 9.746094 119.71875 9.765625 119.585938 9.808594 C 119.457031 9.847656 119.363281 9.953125 119.308594 10.121094 L 118.011719 15.332031 C 117.929688 15.675781 117.761719 15.984375 117.507812 16.257812 C 117.253906 16.53125 116.953125 16.746094 116.605469 16.902344 C 116.257812 17.058594 115.90625 17.136719 115.550781 17.136719 C 115.167969 17.136719 114.832031 17.027344 114.539062 16.8125 C 114.246094 16.597656 114.101562 16.300781 114.101562 15.929688 C 114.101562 15.691406 114.164062 15.480469 114.296875 15.304688 C 114.429688 15.125 114.617188 15.035156 114.863281 15.035156 C 115 15.035156 115.117188 15.082031 115.210938 15.167969 C 115.308594 15.257812 115.355469 15.367188 115.355469 15.503906 C 115.355469 15.699219 115.28125 15.875 115.132812 16.019531 C 114.984375 16.167969 114.8125 16.242188 114.617188 16.242188 C 114.578125 16.242188 114.550781 16.238281 114.535156 16.226562 "/>
<path fill-rule="nonzero" fill="rgb(0%, 0%, 0%)" fill-opacity="1" d="M 122.230469 14.511719 C 122.230469 14.953125 122.320312 15.34375 122.492188 15.675781 C 122.664062 16.011719 122.910156 16.273438 123.234375 16.460938 C 123.554688 16.648438 123.9375 16.742188 124.382812 16.742188 C 124.847656 16.742188 125.292969 16.625 125.722656 16.390625 C 126.152344 16.15625 126.515625 15.839844 126.816406 15.441406 C 127.117188 15.046875 127.328125 14.625 127.441406 14.175781 C 127.453125 14.132812 127.480469 14.109375 127.523438 14.109375 L 127.664062 14.109375 C 127.691406 14.109375 127.714844 14.121094 127.734375 14.144531 C 127.75 14.164062 127.761719 14.1875 127.761719 14.207031 C 127.761719 14.214844 127.757812 14.226562 127.746094 14.242188 C 127.617188 14.75 127.375 15.226562 127.015625 15.675781 C 126.652344 16.125 126.222656 16.480469 125.722656 16.742188 C 125.222656 17.003906 124.703125 17.136719 124.167969 17.136719 C 123.59375 17.136719 123.078125 17.007812 122.625 16.746094 C 122.171875 16.488281 121.816406 16.128906 121.5625 15.667969 C 121.308594 15.210938 121.183594 14.691406 121.183594 14.109375 C 121.183594 13.492188 121.320312 12.878906 121.597656 12.277344 C 121.871094 11.671875 122.246094 11.136719 122.710938 10.664062 C 123.179688 10.195312 123.710938 9.816406 124.308594 9.535156 C 124.902344 9.253906 125.511719 9.113281 126.128906 9.113281 C 126.371094 9.113281 126.601562 9.152344 126.828125 9.226562 C 127.050781 9.296875 127.257812 9.410156 127.445312 9.5625 C 127.632812 9.710938 127.789062 9.886719 127.917969 10.082031 L 128.785156 9.136719 C 128.785156 9.121094 128.804688 9.113281 128.835938 9.113281 L 128.902344 9.113281 C 128.933594 9.113281 128.957031 9.128906 128.976562 9.15625 C 128.992188 9.183594 129 9.207031 129 9.230469 L 128.253906 12.207031 C 128.253906 12.253906 128.222656 12.28125 128.164062 12.28125 L 127.964844 12.28125 C 127.910156 12.28125 127.886719 12.238281 127.886719 12.15625 C 127.910156 12 127.925781 11.804688 127.925781 11.574219 C 127.925781 11.21875 127.863281 10.882812 127.742188 10.5625 C 127.617188 10.242188 127.425781 9.984375 127.171875 9.792969 C 126.914062 9.601562 126.601562 9.507812 126.234375 9.507812 C 125.632812 9.507812 125.085938 9.65625 124.585938 9.960938 C 124.089844 10.261719 123.667969 10.65625 123.320312 11.144531 C 122.972656 11.632812 122.703125 12.179688 122.515625 12.777344 C 122.328125 13.375 122.230469 13.953125 122.230469 14.511719 "/>
<path fill-rule="nonzero" fill="rgb(0%, 0%, 0%)" fill-opacity="1" d="M 130.457031 16.890625 L 130.457031 16.503906 C 131.375 16.503906 131.835938 16.386719 131.835938 16.152344 L 131.835938 10.371094 C 131.453125 10.550781 130.96875 10.640625 130.390625 10.640625 L 130.390625 10.253906 C 131.292969 10.253906 131.972656 10.019531 132.433594 9.550781 L 132.589844 9.550781 C 132.609375 9.550781 132.632812 9.558594 132.65625 9.578125 C 132.683594 9.597656 132.695312 9.621094 132.695312 9.648438 L 132.695312 16.152344 C 132.695312 16.386719 133.15625 16.503906 134.074219 16.503906 L 134.074219 16.890625 L 130.457031 16.890625 "/>
<path fill-rule="nonzero" fill="rgb(0%, 0%, 0%)" fill-opacity="1" d="M 6.554688 8.816406 C 6.554688 8.652344 6.574219 8.472656 6.613281 8.277344 C 6.652344 8.078125 6.691406 7.917969 6.730469 7.789062 C 6.773438 7.660156 6.863281 7.410156 7.003906 7.042969 C 7.140625 6.671875 7.210938 6.480469 7.210938 6.472656 C 7.308594 6.199219 7.359375 5.976562 7.359375 5.804688 C 7.359375 5.589844 7.28125 5.480469 7.121094 5.480469 C 6.824219 5.480469 6.585938 5.628906 6.398438 5.925781 C 6.214844 6.222656 6.074219 6.558594 5.980469 6.929688 C 5.96875 6.980469 5.941406 7.003906 5.890625 7.003906 L 5.761719 7.003906 C 5.699219 7.003906 5.671875 6.96875 5.671875 6.898438 L 5.671875 6.863281 C 5.789062 6.425781 5.972656 6.039062 6.214844 5.699219 C 6.457031 5.359375 6.765625 5.191406 7.136719 5.191406 C 7.402344 5.191406 7.621094 5.277344 7.800781 5.449219 C 7.984375 5.621094 8.074219 5.84375 8.074219 6.109375 C 8.074219 6.246094 8.042969 6.390625 7.984375 6.535156 C 7.839844 6.910156 7.730469 7.207031 7.648438 7.429688 C 7.566406 7.65625 7.488281 7.90625 7.417969 8.1875 C 7.347656 8.464844 7.3125 8.722656 7.3125 8.957031 C 7.3125 9.234375 7.375 9.460938 7.503906 9.636719 C 7.632812 9.8125 7.828125 9.898438 8.097656 9.898438 C 8.605469 9.898438 9.066406 9.507812 9.476562 8.71875 C 9.609375 8.460938 9.730469 8.160156 9.84375 7.816406 C 9.960938 7.472656 10.015625 7.191406 10.015625 6.980469 C 10.015625 6.753906 9.980469 6.582031 9.90625 6.460938 C 9.832031 6.335938 9.738281 6.207031 9.625 6.074219 C 9.507812 5.941406 9.453125 5.832031 9.453125 5.75 C 9.453125 5.605469 9.511719 5.476562 9.632812 5.359375 C 9.753906 5.242188 9.882812 5.183594 10.027344 5.183594 C 10.199219 5.183594 10.324219 5.265625 10.402344 5.425781 C 10.480469 5.585938 10.519531 5.769531 10.519531 5.972656 C 10.519531 6.21875 10.484375 6.507812 10.414062 6.84375 C 10.347656 7.179688 10.25 7.53125 10.128906 7.894531 C 10.003906 8.257812 9.890625 8.542969 9.78125 8.75 C 9.296875 9.707031 8.734375 10.1875 8.089844 10.1875 C 7.625 10.1875 7.253906 10.070312 6.972656 9.839844 C 6.695312 9.605469 6.554688 9.265625 6.554688 8.816406 "/>
<path fill-rule="nonzero" fill="rgb(0%, 0%, 0%)" fill-opacity="1" d="M 234.058594 187.304688 C 234.058594 187.0625 234.089844 186.816406 234.15625 186.5625 C 234.222656 186.308594 234.3125 186.027344 234.433594 185.714844 C 234.550781 185.40625 234.648438 185.136719 234.730469 184.910156 C 234.828125 184.636719 234.878906 184.414062 234.878906 184.246094 C 234.878906 184.027344 234.800781 183.914062 234.640625 183.914062 C 234.34375 183.914062 234.105469 184.066406 233.917969 184.363281 C 233.734375 184.660156 233.59375 184.996094 233.5 185.367188 C 233.488281 185.417969 233.460938 185.441406 233.410156 185.441406 L 233.277344 185.441406 C 233.21875 185.441406 233.1875 185.40625 233.1875 185.335938 L 233.1875 185.300781 C 233.308594 184.863281 233.492188 184.476562 233.734375 184.136719 C 233.976562 183.796875 234.285156 183.628906 234.65625 183.628906 C 234.917969 183.628906 235.140625 183.714844 235.320312 183.886719 C 235.503906 184.058594 235.59375 184.28125 235.59375 184.546875 C 235.59375 184.683594 235.5625 184.828125 235.503906 184.972656 C 235.46875 185.066406 235.394531 185.265625 235.28125 185.566406 C 235.167969 185.867188 235.078125 186.113281 235.019531 186.3125 C 234.957031 186.507812 234.910156 186.703125 234.871094 186.894531 C 234.832031 187.085938 234.8125 187.273438 234.8125 187.460938 C 234.8125 187.707031 234.863281 187.914062 234.96875 188.082031 C 235.074219 188.253906 235.238281 188.335938 235.46875 188.335938 C 235.941406 188.335938 236.351562 188.042969 236.707031 187.460938 C 236.71875 187.433594 236.726562 187.40625 236.734375 187.378906 C 236.738281 187.351562 236.742188 187.324219 236.742188 187.304688 L 237.535156 184.105469 C 237.558594 184.007812 237.613281 183.921875 237.703125 183.855469 C 237.796875 183.785156 237.894531 183.753906 237.996094 183.753906 C 238.089844 183.753906 238.167969 183.78125 238.234375 183.835938 C 238.300781 183.894531 238.332031 183.96875 238.332031 184.0625 C 238.332031 184.101562 238.328125 184.128906 238.324219 184.144531 L 237.519531 187.320312 C 237.472656 187.539062 237.445312 187.71875 237.445312 187.859375 C 237.445312 188.179688 237.554688 188.335938 237.765625 188.335938 C 238 188.335938 238.179688 188.191406 238.296875 187.898438 C 238.414062 187.605469 238.511719 187.265625 238.59375 186.878906 C 238.613281 186.839844 238.640625 186.820312 238.675781 186.820312 L 238.816406 186.820312 C 238.84375 186.820312 238.867188 186.832031 238.886719 186.855469 C 238.90625 186.882812 238.914062 186.90625 238.914062 186.925781 C 238.832031 187.238281 238.753906 187.507812 238.679688 187.734375 C 238.605469 187.960938 238.492188 188.167969 238.335938 188.351562 C 238.179688 188.53125 237.980469 188.625 237.742188 188.625 C 237.511719 188.625 237.304688 188.558594 237.117188 188.433594 C 236.933594 188.304688 236.808594 188.128906 236.742188 187.910156 C 236.570312 188.128906 236.375 188.304688 236.15625 188.433594 C 235.933594 188.558594 235.699219 188.625 235.453125 188.625 C 235.027344 188.625 234.6875 188.507812 234.4375 188.277344 C 234.183594 188.042969 234.058594 187.71875 234.058594 187.304688 "/>
<path fill-rule="nonzero" fill="rgb(0%, 0%, 0%)" fill-opacity="1" d="M 119.164062 143.785156 C 119.140625 143.785156 119.121094 143.769531 119.105469 143.742188 C 119.089844 143.714844 119.082031 143.691406 119.082031 143.671875 L 119.710938 141.101562 C 119.730469 141.058594 119.757812 141.035156 119.800781 141.035156 L 119.933594 141.035156 C 119.960938 141.035156 119.984375 141.046875 120 141.070312 C 120.015625 141.089844 120.023438 141.117188 120.023438 141.152344 C 119.964844 141.402344 119.933594 141.628906 119.933594 141.824219 C 119.933594 142.355469 120.117188 142.75 120.484375 143.003906 C 120.851562 143.261719 121.308594 143.390625 121.863281 143.390625 C 122.101562 143.390625 122.339844 143.332031 122.574219 143.214844 C 122.808594 143.097656 123.015625 142.941406 123.1875 142.75 C 123.359375 142.558594 123.496094 142.347656 123.601562 142.109375 C 123.703125 141.875 123.757812 141.636719 123.757812 141.398438 C 123.757812 141.140625 123.691406 140.910156 123.554688 140.707031 C 123.421875 140.507812 123.234375 140.378906 122.992188 140.324219 L 121.648438 139.960938 C 121.28125 139.871094 120.992188 139.675781 120.777344 139.382812 C 120.566406 139.089844 120.460938 138.761719 120.460938 138.394531 C 120.460938 137.953125 120.589844 137.527344 120.847656 137.117188 C 121.109375 136.707031 121.449219 136.378906 121.875 136.132812 C 122.296875 135.886719 122.730469 135.761719 123.167969 135.761719 C 123.5 135.761719 123.808594 135.824219 124.089844 135.949219 C 124.371094 136.078125 124.585938 136.273438 124.742188 136.542969 L 125.371094 135.796875 C 125.414062 135.773438 125.441406 135.761719 125.445312 135.761719 L 125.511719 135.761719 C 125.542969 135.761719 125.570312 135.777344 125.585938 135.804688 C 125.601562 135.832031 125.609375 135.855469 125.609375 135.878906 L 124.96875 138.4375 C 124.960938 138.484375 124.933594 138.511719 124.890625 138.511719 L 124.75 138.511719 C 124.683594 138.511719 124.652344 138.472656 124.652344 138.394531 C 124.6875 138.160156 124.707031 137.953125 124.707031 137.78125 C 124.707031 137.441406 124.648438 137.144531 124.53125 136.894531 C 124.414062 136.644531 124.238281 136.449219 124.003906 136.320312 C 123.765625 136.1875 123.476562 136.121094 123.132812 136.121094 C 122.835938 136.121094 122.546875 136.207031 122.253906 136.371094 C 121.964844 136.539062 121.730469 136.765625 121.550781 137.046875 C 121.371094 137.328125 121.28125 137.617188 121.28125 137.917969 C 121.28125 138.15625 121.347656 138.363281 121.484375 138.546875 C 121.621094 138.730469 121.804688 138.855469 122.035156 138.921875 L 123.386719 139.273438 C 123.628906 139.332031 123.839844 139.445312 124.019531 139.609375 C 124.199219 139.773438 124.339844 139.96875 124.433594 140.191406 C 124.527344 140.414062 124.578125 140.664062 124.578125 140.929688 C 124.578125 141.273438 124.503906 141.617188 124.355469 141.957031 C 124.207031 142.292969 124 142.605469 123.734375 142.886719 C 123.46875 143.167969 123.171875 143.386719 122.835938 143.546875 C 122.503906 143.707031 122.164062 143.785156 121.820312 143.785156 C 120.941406 143.785156 120.3125 143.527344 119.933594 143.011719 L 119.320312 143.753906 C 119.273438 143.773438 119.246094 143.785156 119.238281 143.785156 L 119.164062 143.785156 "/>
<path fill-rule="nonzero" fill="rgb(0%, 0%, 0%)" fill-opacity="1" d="M 126.675781 143.785156 C 126.652344 143.785156 126.636719 143.769531 126.617188 143.742188 C 126.601562 143.714844 126.59375 143.691406 126.59375 143.671875 L 127.226562 141.101562 C 127.242188 141.058594 127.273438 141.035156 127.316406 141.035156 L 127.449219 141.035156 C 127.472656 141.035156 127.496094 141.046875 127.511719 141.070312 C 127.527344 141.089844 127.539062 141.117188 127.539062 141.152344 C 127.476562 141.402344 127.449219 141.628906 127.449219 141.824219 C 127.449219 142.355469 127.628906 142.75 127.996094 143.003906 C 128.363281 143.261719 128.824219 143.390625 129.375 143.390625 C 129.613281 143.390625 129.851562 143.332031 130.089844 143.214844 C 130.324219 143.097656 130.527344 142.941406 130.699219 142.75 C 130.871094 142.558594 131.011719 142.347656 131.113281 142.109375 C 131.21875 141.875 131.269531 141.636719 131.269531 141.398438 C 131.269531 141.140625 131.203125 140.910156 131.070312 140.707031 C 130.933594 140.507812 130.746094 140.378906 130.507812 140.324219 L 129.160156 139.960938 C 128.796875 139.871094 128.503906 139.675781 128.292969 139.382812 C 128.078125 139.089844 127.972656 138.761719 127.972656 138.394531 C 127.972656 137.953125 128.101562 137.527344 128.363281 137.117188 C 128.621094 136.707031 128.964844 136.378906 129.386719 136.132812 C 129.8125 135.886719 130.242188 135.761719 130.679688 135.761719 C 131.011719 135.761719 131.320312 135.824219 131.601562 135.949219 C 131.882812 136.078125 132.101562 136.273438 132.253906 136.542969 L 132.886719 135.796875 C 132.929688 135.773438 132.953125 135.761719 132.960938 135.761719 L 133.023438 135.761719 C 133.058594 135.761719 133.082031 135.777344 133.097656 135.804688 C 133.117188 135.832031 133.125 135.855469 133.125 135.878906 L 132.484375 138.4375 C 132.472656 138.484375 132.445312 138.511719 132.402344 138.511719 L 132.261719 138.511719 C 132.195312 138.511719 132.164062 138.472656 132.164062 138.394531 C 132.203125 138.160156 132.222656 137.953125 132.222656 137.78125 C 132.222656 137.441406 132.164062 137.144531 132.042969 136.894531 C 131.925781 136.644531 131.75 136.449219 131.515625 136.320312 C 131.28125 136.1875 130.992188 136.121094 130.644531 136.121094 C 130.351562 136.121094 130.058594 136.207031 129.769531 136.371094 C 129.480469 136.539062 129.242188 136.765625 129.0625 137.046875 C 128.882812 137.328125 128.792969 137.617188 128.792969 137.917969 C 128.792969 138.15625 128.859375 138.363281 128.996094 138.546875 C 129.132812 138.730469 129.316406 138.855469 129.546875 138.921875 L 130.902344 139.273438 C 131.140625 139.332031 131.351562 139.445312 131.53125 139.609375 C 131.710938 139.773438 131.851562 139.96875 131.945312 140.191406 C 132.042969 140.414062 132.089844 140.664062 132.089844 140.929688 C 132.089844 141.273438 132.015625 141.617188 131.867188 141.957031 C 131.722656 142.292969 131.515625 142.605469 131.25 142.886719 C 130.984375 143.167969 130.683594 143.386719 130.351562 143.546875 C 130.015625 143.707031 129.679688 143.785156 129.332031 143.785156 C 128.453125 143.785156 127.824219 143.527344 127.449219 143.011719 L 126.832031 143.753906 C 126.789062 143.773438 126.761719 143.785156 126.75 143.785156 L 126.675781 143.785156 "/>
<path fill-rule="nonzero" fill="rgb(0%, 0%, 0%)" fill-opacity="1" d="M 134.066406 143.539062 L 134.066406 143.242188 C 134.066406 143.226562 134.074219 143.207031 134.089844 143.1875 L 135.796875 141.289062 C 136.058594 141.007812 136.273438 140.769531 136.433594 140.582031 C 136.59375 140.394531 136.753906 140.171875 136.910156 139.925781 C 137.066406 139.675781 137.1875 139.425781 137.28125 139.171875 C 137.375 138.914062 137.421875 138.644531 137.421875 138.355469 C 137.421875 138.054688 137.367188 137.765625 137.253906 137.488281 C 137.140625 137.210938 136.972656 136.992188 136.753906 136.828125 C 136.53125 136.664062 136.265625 136.582031 135.953125 136.582031 C 135.636719 136.582031 135.351562 136.679688 135.097656 136.871094 C 134.839844 137.0625 134.664062 137.308594 134.558594 137.617188 C 134.585938 137.609375 134.625 137.609375 134.671875 137.609375 C 134.835938 137.609375 134.980469 137.660156 135.097656 137.773438 C 135.214844 137.882812 135.273438 138.027344 135.273438 138.207031 C 135.273438 138.371094 135.214844 138.511719 135.097656 138.628906 C 134.980469 138.746094 134.835938 138.804688 134.671875 138.804688 C 134.503906 138.804688 134.359375 138.746094 134.242188 138.625 C 134.125 138.503906 134.066406 138.363281 134.066406 138.207031 C 134.066406 137.925781 134.117188 137.667969 134.222656 137.425781 C 134.328125 137.1875 134.476562 136.972656 134.671875 136.785156 C 134.871094 136.59375 135.089844 136.449219 135.332031 136.347656 C 135.578125 136.246094 135.839844 136.195312 136.117188 136.195312 C 136.539062 136.195312 136.929688 136.285156 137.289062 136.464844 C 137.652344 136.640625 137.9375 136.894531 138.152344 137.21875 C 138.363281 137.542969 138.472656 137.921875 138.472656 138.355469 C 138.472656 138.671875 138.402344 138.972656 138.261719 139.261719 C 138.121094 139.546875 137.945312 139.808594 137.726562 140.042969 C 137.507812 140.28125 137.226562 140.546875 136.882812 140.84375 C 136.542969 141.140625 136.316406 141.34375 136.207031 141.445312 L 134.960938 142.644531 L 136.019531 142.644531 C 136.539062 142.644531 136.972656 142.640625 137.324219 142.632812 C 137.671875 142.625 137.859375 142.609375 137.878906 142.585938 C 137.96875 142.496094 138.054688 142.15625 138.144531 141.570312 L 138.472656 141.570312 L 138.160156 143.539062 L 134.066406 143.539062 "/>
<path fill="none" stroke-width="3" stroke-linecap="butt" stroke-linejoin="round" stroke="rgb(50.196838%, 50.196838%, 50.196838%)" stroke-opacity="1" stroke-miterlimit="10" d="M 0.00266071 0.00125 L 136.565161 243.109509 " transform="matrix(0.7, 0, 0, -0.7, 17.8497, 178.6415)"/>
<path fill-rule="nonzero" fill="rgb(0%, 0%, 0%)" fill-opacity="1" d="M 78.964844 84.460938 C 78.945312 84.460938 78.925781 84.449219 78.910156 84.421875 C 78.894531 84.394531 78.886719 84.371094 78.886719 84.347656 L 79.515625 81.78125 C 79.53125 81.734375 79.5625 81.714844 79.605469 81.714844 L 79.738281 81.714844 C 79.765625 81.714844 79.785156 81.726562 79.804688 81.746094 C 79.820312 81.769531 79.828125 81.796875 79.828125 81.828125 C 79.769531 82.082031 79.738281 82.304688 79.738281 82.503906 C 79.738281 83.03125 79.921875 83.425781 80.289062 83.683594 C 80.652344 83.941406 81.113281 84.070312 81.664062 84.070312 C 81.90625 84.070312 82.144531 84.011719 82.378906 83.894531 C 82.613281 83.777344 82.816406 83.621094 82.992188 83.429688 C 83.164062 83.238281 83.300781 83.023438 83.40625 82.789062 C 83.507812 82.554688 83.5625 82.316406 83.5625 82.074219 C 83.5625 81.816406 83.492188 81.589844 83.359375 81.386719 C 83.226562 81.183594 83.039062 81.054688 82.796875 81 L 81.453125 80.640625 C 81.085938 80.546875 80.796875 80.355469 80.582031 80.0625 C 80.371094 79.769531 80.261719 79.441406 80.261719 79.074219 C 80.261719 78.628906 80.394531 78.203125 80.652344 77.792969 C 80.910156 77.382812 81.253906 77.054688 81.679688 76.808594 C 82.101562 76.5625 82.53125 76.4375 82.96875 76.4375 C 83.304688 76.441406 83.609375 76.503906 83.894531 76.628906 C 84.175781 76.753906 84.390625 76.949219 84.546875 77.21875 L 85.175781 76.472656 C 85.21875 76.449219 85.246094 76.4375 85.25 76.4375 L 85.316406 76.4375 C 85.347656 76.441406 85.375 76.453125 85.390625 76.480469 C 85.40625 76.507812 85.414062 76.53125 85.414062 76.554688 L 84.773438 79.113281 C 84.765625 79.164062 84.738281 79.1875 84.691406 79.1875 L 84.554688 79.1875 C 84.488281 79.1875 84.453125 79.148438 84.453125 79.074219 C 84.492188 78.839844 84.511719 78.632812 84.511719 78.457031 C 84.511719 78.117188 84.453125 77.824219 84.335938 77.570312 C 84.21875 77.320312 84.042969 77.128906 83.804688 76.996094 C 83.570312 76.867188 83.28125 76.800781 82.9375 76.800781 C 82.640625 76.800781 82.347656 76.882812 82.058594 77.050781 C 81.769531 77.21875 81.535156 77.441406 81.355469 77.722656 C 81.171875 78.003906 81.082031 78.296875 81.082031 78.597656 C 81.082031 78.832031 81.152344 79.042969 81.289062 79.226562 C 81.425781 79.40625 81.609375 79.53125 81.839844 79.597656 L 83.191406 79.953125 C 83.433594 80.011719 83.644531 80.125 83.824219 80.289062 C 84.003906 80.449219 84.140625 80.644531 84.238281 80.871094 C 84.332031 81.09375 84.382812 81.339844 84.382812 81.609375 C 84.382812 81.953125 84.308594 82.292969 84.160156 82.632812 C 84.011719 82.972656 83.804688 83.28125 83.539062 83.566406 C 83.273438 83.847656 82.976562 84.066406 82.640625 84.226562 C 82.308594 84.382812 81.96875 84.460938 81.625 84.460938 C 80.742188 84.460938 80.117188 84.207031 79.738281 83.691406 L 79.121094 84.429688 C 79.078125 84.453125 79.050781 84.460938 79.039062 84.460938 L 78.964844 84.460938 "/>
<path fill-rule="nonzero" fill="rgb(0%, 0%, 0%)" fill-opacity="1" d="M 86.480469 84.460938 C 86.457031 84.460938 86.4375 84.449219 86.421875 84.421875 C 86.40625 84.394531 86.398438 84.371094 86.398438 84.347656 L 87.03125 81.78125 C 87.046875 81.734375 87.078125 81.714844 87.121094 81.714844 L 87.25 81.714844 C 87.277344 81.714844 87.300781 81.726562 87.316406 81.746094 C 87.332031 81.769531 87.339844 81.796875 87.339844 81.828125 C 87.28125 82.082031 87.25 82.304688 87.25 82.503906 C 87.25 83.03125 87.433594 83.425781 87.800781 83.683594 C 88.167969 83.941406 88.625 84.070312 89.179688 84.070312 C 89.417969 84.070312 89.65625 84.011719 89.890625 83.894531 C 90.128906 83.777344 90.332031 83.621094 90.503906 83.429688 C 90.675781 83.238281 90.8125 83.023438 90.917969 82.789062 C 91.019531 82.554688 91.074219 82.316406 91.074219 82.074219 C 91.074219 81.816406 91.007812 81.589844 90.871094 81.386719 C 90.738281 81.183594 90.550781 81.054688 90.3125 81 L 88.964844 80.640625 C 88.597656 80.546875 88.308594 80.355469 88.097656 80.0625 C 87.882812 79.769531 87.777344 79.441406 87.777344 79.074219 C 87.777344 78.628906 87.90625 78.203125 88.164062 77.792969 C 88.425781 77.382812 88.765625 77.054688 89.191406 76.808594 C 89.613281 76.5625 90.046875 76.4375 90.484375 76.4375 C 90.816406 76.441406 91.125 76.503906 91.40625 76.628906 C 91.6875 76.753906 91.90625 76.949219 92.058594 77.21875 L 92.691406 76.472656 C 92.734375 76.449219 92.757812 76.4375 92.765625 76.4375 L 92.828125 76.4375 C 92.863281 76.441406 92.886719 76.453125 92.902344 76.480469 C 92.917969 76.507812 92.929688 76.53125 92.929688 76.554688 L 92.289062 79.113281 C 92.277344 79.164062 92.25 79.1875 92.207031 79.1875 L 92.066406 79.1875 C 92 79.1875 91.96875 79.148438 91.96875 79.074219 C 92.007812 78.839844 92.023438 78.632812 92.023438 78.457031 C 92.023438 78.117188 91.964844 77.824219 91.847656 77.570312 C 91.730469 77.320312 91.554688 77.128906 91.320312 76.996094 C 91.085938 76.867188 90.792969 76.800781 90.449219 76.800781 C 90.15625 76.800781 89.863281 76.882812 89.574219 77.050781 C 89.28125 77.21875 89.046875 77.441406 88.867188 77.722656 C 88.6875 78.003906 88.597656 78.296875 88.597656 78.597656 C 88.597656 78.832031 88.664062 79.042969 88.800781 79.226562 C 88.9375 79.40625 89.121094 79.53125 89.351562 79.597656 L 90.703125 79.953125 C 90.945312 80.011719 91.15625 80.125 91.335938 80.289062 C 91.515625 80.449219 91.65625 80.644531 91.75 80.871094 C 91.847656 81.09375 91.894531 81.339844 91.894531 81.609375 C 91.894531 81.953125 91.820312 82.292969 91.671875 82.632812 C 91.523438 82.972656 91.316406 83.28125 91.054688 83.566406 C 90.789062 83.847656 90.488281 84.066406 90.15625 84.226562 C 89.820312 84.382812 89.480469 84.460938 89.136719 84.460938 C 88.257812 84.460938 87.628906 84.207031 87.25 83.691406 L 86.636719 84.429688 C 86.59375 84.453125 86.566406 84.460938 86.554688 84.460938 L 86.480469 84.460938 "/>
<path fill-rule="nonzero" fill="rgb(0%, 0%, 0%)" fill-opacity="1" d="M 94.34375 84.21875 L 94.34375 83.832031 C 95.265625 83.832031 95.722656 83.714844 95.722656 83.480469 L 95.722656 77.695312 C 95.339844 77.875 94.859375 77.964844 94.28125 77.964844 L 94.28125 77.582031 C 95.183594 77.582031 95.863281 77.347656 96.324219 76.875 L 96.480469 76.875 C 96.5 76.875 96.523438 76.882812 96.546875 76.902344 C 96.574219 76.921875 96.585938 76.945312 96.585938 76.972656 L 96.585938 83.480469 C 96.585938 83.714844 97.042969 83.832031 97.964844 83.832031 L 97.964844 84.21875 L 94.34375 84.21875 "/>
<path fill-rule="nonzero" fill="rgb(0%, 0%, 0%)" fill-opacity="1" d="M 77.355469 81.378906 L 77.371094 81.089844 L 77.355469 80.800781 C 76.773438 76.914062 70.316406 76.585938 69.027344 80.226562 L 68.949219 80.511719 L 68.90625 80.800781 C 68.742188 85.058594 75.546875 85.765625 77.128906 82.226562 L 77.234375 81.949219 L 77.308594 81.664062 "/>
<path fill="none" stroke-width="0.5" stroke-linecap="butt" stroke-linejoin="round" stroke="rgb(0%, 0%, 0%)" stroke-opacity="1" stroke-miterlimit="10" d="M 0.0005625 -0.00149107 L -0.0217589 0.411455 L -0.0887232 0.824402 C -1.494973 6.404759 -11.227116 6.148063 -12.092071 0.411455 L -12.114393 -0.00149107 L -12.092071 -0.414437 C -11.227116 -6.145464 -1.494973 -6.407741 -0.0887232 -0.821804 L -0.0217589 -0.414437 Z M 0.0005625 -0.00149107 " transform="matrix(0.7, 0, 0, -0.7, 77.3707, 81.0888)"/>
<path fill="none" stroke-width="3" stroke-linecap="butt" stroke-linejoin="bevel" stroke="rgb(50.196838%, 50.196838%, 50.196838%)" stroke-opacity="1" stroke-dasharray="12 3 6 3" stroke-miterlimit="10" d="M 51.903357 33.328429 L 335.335277 159.405438 " transform="matrix(0.7, 0, 0, -0.7, -18.7386, 202.2049)"/>
<path fill-rule="nonzero" fill="rgb(0%, 0%, 0%)" fill-opacity="1" d="M 134.558594 129.402344 L 134.574219 129.113281 L 134.558594 128.820312 C 133.976562 124.9375 127.519531 124.609375 126.230469 128.25 L 126.152344 128.535156 L 126.105469 128.820312 C 125.945312 133.082031 132.75 133.785156 134.332031 130.25 L 134.4375 129.972656 L 134.511719 129.6875 "/>
<path fill="none" stroke-width="0.5" stroke-linecap="butt" stroke-linejoin="round" stroke="rgb(0%, 0%, 0%)" stroke-opacity="1" stroke-miterlimit="10" d="M 0.0023125 -0.00240179 L -0.0200089 0.416125 L -0.0869732 0.823491 C -1.493223 6.403848 -11.225366 6.152732 -12.095902 0.416125 L -12.112643 -0.00240179 L -12.095902 -0.415348 C -11.225366 -6.146375 -1.493223 -6.403071 -0.0869732 -0.822714 L -0.0200089 -0.415348 Z M 0.0023125 -0.00240179 " transform="matrix(0.7, 0, 0, -0.7, 134.5726, 129.1116)"/>
</svg>
