<?xml version="1.0" encoding="UTF-8"?>
<svg xmlns="http://www.w3.org/2000/svg" xmlns:xlink="http://www.w3.org/1999/xlink" width="240.9349pt" height="191.1354pt" viewBox="0 0 240.9349 191.1354">
<defs>
<clipPath id="clip-0">
<path clip-rule="nonzero" d="M 0 0 L 240.933594 0 L 240.933594 191.136719 L 0 191.136719 Z M 0 0 "/>
</clipPath>
</defs>
<g clip-path="url(#clip-0)">
<rect x="-24.09349" y="-19.11354" width="289.12188" height="229.36248" fill="rgb(100%, 100%, 100%)" fill-opacity="1"/>
<rect x="-24.09349" y="-19.11354" width="289.12188" height="229.36248" fill="rgb(100%, 100%, 100%)" fill-opacity="1"/>
</g>
<path fill-rule="nonzero" fill="rgb(100%, 100%, 100%)" fill-opacity="1" d="M 16.226562 178.613281 L 233.050781 178.613281 L 233.050781 5.363281 L 16.226562 5.363281 Z M 16.226562 178.613281 "/>
<path fill="none" stroke-width="0.5" stroke-linecap="square" stroke-linejoin="round" stroke="rgb(14.901733%, 14.901733%, 14.901733%)" stroke-opacity="1" stroke-miterlimit="10" d="M 0.000803571 0.000455357 L 309.749687 0.000455357 " transform="matrix(0.7, 0, 0, -0.7, 16.226, 178.6136)"/>
<path fill="none" stroke-width="0.5" stroke-linecap="square" stroke-linejoin="round" stroke="rgb(14.901733%, 14.901733%, 14.901733%)" stroke-opacity="1" stroke-miterlimit="10" d="M 0.000803571 0.000455357 L 0.000803571 247.500455 " transform="matrix(0.7, 0, 0, -0.7, 16.226, 178.6136)"/>
<path fill="none" stroke-width="3" stroke-linecap="butt" stroke-linejoin="round" stroke="rgb(31.37207%, 31.37207%, 31.37207%)" stroke-opacity="1" stroke-miterlimit="10" d="M 0.000651786 -0.000642857 L 1.440384 -11.886804 L 4.537482 -25.73725 C 36.362259 -143.985018 158.521857 -211.881223 274.024089 -221.306446 L 276.84775 -221.540821 " transform="matrix(0.7, 0, 0, -0.7, 39.2847, 5.3433)"/>
<path fill-rule="nonzero" fill="rgb(0%, 0%, 0%)" fill-opacity="1" d="M 42.796875 13.339844 C 42.726562 13.339844 42.691406 13.289062 42.691406 13.191406 C 42.691406 13.175781 42.695312 13.144531 42.707031 13.101562 C 42.71875 13.058594 42.734375 13.023438 42.753906 12.996094 C 42.773438 12.96875 42.800781 12.953125 42.839844 12.953125 C 43.046875 12.953125 43.226562 12.949219 43.382812 12.9375 C 43.535156 12.925781 43.664062 12.90625 43.773438 12.878906 C 43.855469 12.847656 43.925781 12.746094 43.980469 12.578125 L 45.488281 6.523438 C 45.503906 6.453125 45.515625 6.402344 45.515625 6.375 C 45.515625 6.292969 45.46875 6.246094 45.382812 6.234375 C 45.242188 6.207031 44.976562 6.195312 44.585938 6.195312 C 44.515625 6.195312 44.480469 6.144531 44.480469 6.046875 C 44.480469 6.03125 44.484375 6 44.496094 5.957031 C 44.507812 5.914062 44.523438 5.875 44.546875 5.851562 C 44.566406 5.824219 44.59375 5.808594 44.621094 5.808594 L 48.566406 5.808594 C 48.804688 5.808594 49.042969 5.839844 49.28125 5.898438 C 49.515625 5.960938 49.730469 6.054688 49.929688 6.183594 C 50.128906 6.3125 50.289062 6.46875 50.40625 6.660156 C 50.523438 6.851562 50.582031 7.078125 50.582031 7.335938 C 50.582031 7.609375 50.511719 7.863281 50.371094 8.101562 C 50.226562 8.339844 50.046875 8.546875 49.820312 8.722656 C 49.597656 8.894531 49.355469 9.039062 49.09375 9.152344 C 48.835938 9.265625 48.5625 9.347656 48.277344 9.402344 C 48.480469 9.402344 48.683594 9.441406 48.890625 9.519531 C 49.09375 9.601562 49.277344 9.707031 49.4375 9.84375 C 49.601562 9.980469 49.730469 10.144531 49.828125 10.335938 C 49.925781 10.527344 49.976562 10.734375 49.976562 10.953125 C 49.976562 11.390625 49.824219 11.792969 49.515625 12.15625 C 49.210938 12.523438 48.820312 12.8125 48.351562 13.023438 C 47.882812 13.234375 47.429688 13.339844 46.992188 13.339844 Z M 44.824219 12.863281 C 44.824219 12.921875 44.949219 12.953125 45.203125 12.953125 L 46.785156 12.953125 C 47.140625 12.953125 47.484375 12.855469 47.816406 12.652344 C 48.144531 12.453125 48.410156 12.1875 48.609375 11.859375 C 48.808594 11.527344 48.910156 11.183594 48.910156 10.828125 C 48.910156 10.605469 48.863281 10.394531 48.769531 10.203125 C 48.675781 10.007812 48.546875 9.855469 48.371094 9.742188 C 48.199219 9.628906 48.003906 9.574219 47.785156 9.574219 L 45.636719 9.574219 L 44.875 12.625 C 44.839844 12.722656 44.824219 12.804688 44.824219 12.863281 Z M 45.710938 9.277344 L 47.382812 9.277344 C 47.734375 9.277344 48.074219 9.191406 48.410156 9.011719 C 48.742188 8.835938 49.015625 8.589844 49.226562 8.28125 C 49.4375 7.972656 49.542969 7.644531 49.542969 7.300781 C 49.542969 6.980469 49.441406 6.714844 49.242188 6.507812 C 49.042969 6.296875 48.785156 6.195312 48.46875 6.195312 L 46.957031 6.195312 C 46.753906 6.195312 46.621094 6.210938 46.554688 6.246094 C 46.488281 6.285156 46.433594 6.390625 46.382812 6.570312 L 45.710938 9.277344 "/>
<path fill-rule="nonzero" fill="rgb(0%, 0%, 0%)" fill-opacity="1" d="M 52.914062 10.960938 C 52.914062 11.402344 53 11.792969 53.171875 12.125 C 53.34375 12.460938 53.59375 12.71875 53.914062 12.910156 C 54.238281 13.097656 54.621094 13.191406 55.0625 13.191406 C 55.527344 13.191406 55.976562 13.074219 56.40625 12.839844 C 56.832031 12.605469 57.199219 12.289062 57.5 11.890625 C 57.800781 11.496094 58.007812 11.074219 58.121094 10.625 C 58.132812 10.582031 58.160156 10.558594 58.203125 10.558594 L 58.34375 10.558594 C 58.371094 10.558594 58.394531 10.570312 58.414062 10.59375 C 58.433594 10.613281 58.441406 10.636719 58.441406 10.65625 C 58.441406 10.664062 58.4375 10.671875 58.425781 10.691406 C 58.300781 11.199219 58.058594 11.675781 57.695312 12.125 C 57.335938 12.574219 56.90625 12.929688 56.40625 13.191406 C 55.902344 13.453125 55.386719 13.585938 54.851562 13.585938 C 54.273438 13.585938 53.761719 13.457031 53.308594 13.195312 C 52.851562 12.9375 52.5 12.578125 52.246094 12.117188 C 51.992188 11.65625 51.863281 11.136719 51.863281 10.558594 C 51.863281 9.941406 52 9.328125 52.277344 8.726562 C 52.554688 8.121094 52.925781 7.585938 53.394531 7.113281 C 53.859375 6.644531 54.394531 6.265625 54.988281 5.984375 C 55.585938 5.703125 56.191406 5.5625 56.808594 5.5625 C 57.050781 5.5625 57.28125 5.597656 57.507812 5.671875 C 57.730469 5.746094 57.9375 5.859375 58.125 6.007812 C 58.316406 6.160156 58.472656 6.335938 58.597656 6.53125 L 59.46875 5.585938 C 59.46875 5.570312 59.484375 5.5625 59.515625 5.5625 L 59.582031 5.5625 C 59.617188 5.5625 59.640625 5.578125 59.65625 5.605469 C 59.671875 5.632812 59.679688 5.65625 59.679688 5.679688 L 58.933594 8.65625 C 58.933594 8.703125 58.90625 8.730469 58.84375 8.730469 L 58.648438 8.730469 C 58.59375 8.730469 58.566406 8.6875 58.566406 8.605469 C 58.59375 8.449219 58.605469 8.253906 58.605469 8.023438 C 58.605469 7.667969 58.546875 7.332031 58.421875 7.011719 C 58.300781 6.691406 58.109375 6.433594 57.851562 6.242188 C 57.59375 6.050781 57.28125 5.957031 56.917969 5.957031 C 56.316406 5.957031 55.765625 6.105469 55.269531 6.40625 C 54.769531 6.710938 54.347656 7.105469 54 7.59375 C 53.652344 8.082031 53.386719 8.628906 53.195312 9.226562 C 53.007812 9.824219 52.914062 10.402344 52.914062 10.960938 "/>
<path fill-rule="nonzero" fill="rgb(0%, 0%, 0%)" fill-opacity="1" d="M 192.636719 87.769531 C 192.707031 87.976562 192.839844 88.132812 193.035156 88.238281 C 193.226562 88.339844 193.4375 88.394531 193.667969 88.394531 C 193.898438 88.394531 194.121094 88.3125 194.332031 88.152344 C 194.546875 87.988281 194.726562 87.789062 194.875 87.546875 C 195.023438 87.308594 195.125 87.070312 195.1875 86.832031 L 196.492188 81.617188 C 196.496094 81.589844 196.5 81.570312 196.503906 81.554688 C 196.503906 81.542969 196.507812 81.527344 196.507812 81.511719 C 196.507812 81.433594 196.480469 81.382812 196.425781 81.363281 C 196.226562 81.3125 195.835938 81.289062 195.242188 81.289062 C 195.167969 81.289062 195.128906 81.238281 195.128906 81.140625 C 195.144531 81.085938 195.15625 81.042969 195.167969 81.011719 C 195.175781 80.976562 195.191406 80.949219 195.214844 80.933594 C 195.238281 80.914062 195.273438 80.902344 195.316406 80.902344 L 198.304688 80.902344 C 198.378906 80.902344 198.417969 80.953125 198.417969 81.050781 C 198.386719 81.210938 198.335938 81.289062 198.269531 81.289062 C 198.015625 81.289062 197.820312 81.308594 197.6875 81.351562 C 197.558594 81.390625 197.464844 81.496094 197.410156 81.664062 L 196.113281 86.875 C 196.03125 87.21875 195.863281 87.527344 195.609375 87.800781 C 195.355469 88.074219 195.054688 88.289062 194.707031 88.445312 C 194.359375 88.601562 194.007812 88.679688 193.652344 88.679688 C 193.269531 88.679688 192.933594 88.570312 192.640625 88.355469 C 192.347656 88.140625 192.199219 87.84375 192.199219 87.472656 C 192.199219 87.234375 192.265625 87.023438 192.398438 86.84375 C 192.527344 86.667969 192.71875 86.578125 192.964844 86.578125 C 193.101562 86.578125 193.214844 86.625 193.3125 86.710938 C 193.40625 86.796875 193.457031 86.910156 193.457031 87.046875 C 193.457031 87.242188 193.382812 87.417969 193.234375 87.5625 C 193.085938 87.710938 192.914062 87.785156 192.71875 87.785156 C 192.679688 87.785156 192.652344 87.78125 192.636719 87.769531 "/>
<path fill-rule="nonzero" fill="rgb(0%, 0%, 0%)" fill-opacity="1" d="M 200.332031 86.054688 C 200.332031 86.496094 200.417969 86.886719 200.589844 87.21875 C 200.761719 87.554688 201.011719 87.816406 201.335938 88.003906 C 201.65625 88.191406 202.039062 88.285156 202.480469 88.285156 C 202.945312 88.285156 203.394531 88.167969 203.824219 87.933594 C 204.253906 87.699219 204.617188 87.382812 204.917969 86.984375 C 205.21875 86.589844 205.425781 86.167969 205.542969 85.71875 C 205.554688 85.675781 205.582031 85.652344 205.625 85.652344 L 205.761719 85.652344 C 205.789062 85.652344 205.8125 85.664062 205.832031 85.6875 C 205.851562 85.707031 205.863281 85.730469 205.863281 85.75 C 205.863281 85.757812 205.855469 85.769531 205.84375 85.785156 C 205.71875 86.292969 205.476562 86.769531 205.117188 87.21875 C 204.753906 87.667969 204.324219 88.023438 203.824219 88.285156 C 203.324219 88.546875 202.804688 88.679688 202.269531 88.679688 C 201.695312 88.679688 201.179688 88.550781 200.726562 88.289062 C 200.273438 88.03125 199.917969 87.671875 199.664062 87.210938 C 199.410156 86.75 199.28125 86.234375 199.28125 85.652344 C 199.28125 85.035156 199.421875 84.421875 199.699219 83.820312 C 199.972656 83.214844 200.34375 82.679688 200.8125 82.207031 C 201.28125 81.738281 201.8125 81.359375 202.410156 81.078125 C 203.003906 80.796875 203.613281 80.65625 204.230469 80.65625 C 204.46875 80.65625 204.703125 80.695312 204.925781 80.769531 C 205.152344 80.839844 205.359375 80.953125 205.546875 81.105469 C 205.734375 81.253906 205.890625 81.429688 206.019531 81.625 L 206.886719 80.679688 C 206.886719 80.664062 206.902344 80.65625 206.9375 80.65625 L 207 80.65625 C 207.035156 80.65625 207.058594 80.671875 207.074219 80.699219 C 207.09375 80.726562 207.101562 80.75 207.101562 80.773438 L 206.355469 83.75 C 206.355469 83.796875 206.324219 83.824219 206.265625 83.824219 L 206.066406 83.824219 C 206.011719 83.824219 205.984375 83.78125 205.984375 83.699219 C 206.011719 83.542969 206.027344 83.347656 206.027344 83.117188 C 206.027344 82.761719 205.964844 82.425781 205.839844 82.105469 C 205.71875 81.785156 205.527344 81.527344 205.273438 81.335938 C 205.015625 81.144531 204.703125 81.050781 204.335938 81.050781 C 203.734375 81.050781 203.183594 81.199219 202.6875 81.5 C 202.1875 81.804688 201.765625 82.199219 201.417969 82.6875 C 201.070312 83.175781 200.804688 83.722656 200.617188 84.320312 C 200.425781 84.917969 200.332031 85.496094 200.332031 86.054688 "/>
<path fill-rule="nonzero" fill="rgb(0%, 0%, 0%)" fill-opacity="1" d="M 208.082031 88.433594 L 208.082031 88.136719 C 208.082031 88.121094 208.089844 88.101562 208.105469 88.082031 L 209.8125 86.1875 C 210.074219 85.902344 210.285156 85.664062 210.445312 85.476562 C 210.609375 85.289062 210.765625 85.070312 210.921875 84.820312 C 211.078125 84.570312 211.203125 84.320312 211.296875 84.066406 C 211.390625 83.808594 211.4375 83.539062 211.4375 83.25 C 211.4375 82.949219 211.378906 82.660156 211.265625 82.382812 C 211.15625 82.105469 210.988281 81.886719 210.765625 81.722656 C 210.546875 81.558594 210.277344 81.476562 209.96875 81.476562 C 209.648438 81.476562 209.363281 81.574219 209.109375 81.765625 C 208.855469 81.957031 208.675781 82.203125 208.574219 82.511719 C 208.601562 82.503906 208.636719 82.503906 208.6875 82.503906 C 208.851562 82.503906 208.992188 82.558594 209.109375 82.667969 C 209.226562 82.777344 209.285156 82.921875 209.285156 83.101562 C 209.285156 83.265625 209.226562 83.40625 209.109375 83.523438 C 208.992188 83.640625 208.851562 83.699219 208.6875 83.699219 C 208.519531 83.699219 208.375 83.640625 208.257812 83.519531 C 208.140625 83.398438 208.082031 83.257812 208.082031 83.101562 C 208.082031 82.820312 208.132812 82.5625 208.238281 82.320312 C 208.339844 82.082031 208.492188 81.867188 208.6875 81.679688 C 208.882812 81.488281 209.105469 81.34375 209.347656 81.242188 C 209.589844 81.140625 209.851562 81.089844 210.132812 81.089844 C 210.550781 81.089844 210.945312 81.179688 211.304688 81.359375 C 211.664062 81.535156 211.953125 81.789062 212.164062 82.113281 C 212.378906 82.4375 212.484375 82.816406 212.484375 83.25 C 212.484375 83.566406 212.414062 83.867188 212.277344 84.15625 C 212.136719 84.441406 211.957031 84.703125 211.738281 84.9375 C 211.519531 85.175781 211.238281 85.441406 210.898438 85.738281 C 210.554688 86.035156 210.332031 86.238281 210.222656 86.339844 L 208.972656 87.539062 L 210.03125 87.539062 C 210.550781 87.539062 210.988281 87.535156 211.335938 87.527344 C 211.6875 87.519531 211.875 87.503906 211.894531 87.480469 C 211.980469 87.390625 212.070312 87.050781 212.15625 86.464844 L 212.484375 86.464844 L 212.175781 88.433594 L 208.082031 88.433594 "/>
<path fill-rule="nonzero" fill="rgb(0%, 0%, 0%)" fill-opacity="1" d="M 77.707031 83.972656 C 77.683594 83.972656 77.664062 83.957031 77.648438 83.929688 C 77.632812 83.902344 77.625 83.878906 77.625 83.855469 L 78.253906 81.289062 C 78.273438 81.246094 78.300781 81.222656 78.347656 81.222656 L 78.476562 81.222656 C 78.503906 81.222656 78.527344 81.234375 78.542969 81.257812 C 78.558594 81.277344 78.566406 81.304688 78.566406 81.339844 C 78.507812 81.589844 78.476562 81.8125 78.476562 82.011719 C 78.476562 82.542969 78.660156 82.933594 79.027344 83.191406 C 79.394531 83.449219 79.851562 83.578125 80.40625 83.578125 C 80.644531 83.578125 80.882812 83.519531 81.117188 83.402344 C 81.355469 83.285156 81.558594 83.128906 81.730469 82.9375 C 81.902344 82.746094 82.039062 82.53125 82.144531 82.296875 C 82.246094 82.0625 82.300781 81.824219 82.300781 81.585938 C 82.300781 81.328125 82.234375 81.097656 82.097656 80.894531 C 81.964844 80.691406 81.777344 80.566406 81.539062 80.511719 L 80.191406 80.148438 C 79.824219 80.054688 79.535156 79.863281 79.320312 79.570312 C 79.109375 79.277344 79.003906 78.949219 79.003906 78.582031 C 79.003906 78.140625 79.132812 77.710938 79.390625 77.300781 C 79.652344 76.890625 79.992188 76.5625 80.417969 76.320312 C 80.839844 76.070312 81.273438 75.949219 81.710938 75.949219 C 82.042969 75.949219 82.351562 76.011719 82.632812 76.136719 C 82.914062 76.261719 83.132812 76.460938 83.285156 76.726562 L 83.914062 75.980469 C 83.960938 75.960938 83.984375 75.949219 83.988281 75.949219 L 84.054688 75.949219 C 84.089844 75.949219 84.113281 75.960938 84.128906 75.988281 C 84.144531 76.015625 84.152344 76.042969 84.152344 76.0625 L 83.515625 78.621094 C 83.503906 78.671875 83.476562 78.695312 83.433594 78.695312 L 83.292969 78.695312 C 83.226562 78.695312 83.195312 78.660156 83.195312 78.582031 C 83.234375 78.347656 83.25 78.140625 83.25 77.96875 C 83.25 77.628906 83.191406 77.332031 83.074219 77.082031 C 82.957031 76.828125 82.78125 76.636719 82.546875 76.507812 C 82.3125 76.375 82.019531 76.308594 81.675781 76.308594 C 81.382812 76.308594 81.089844 76.394531 80.800781 76.558594 C 80.507812 76.726562 80.273438 76.953125 80.09375 77.234375 C 79.914062 77.515625 79.824219 77.804688 79.824219 78.105469 C 79.824219 78.339844 79.890625 78.550781 80.027344 78.734375 C 80.164062 78.917969 80.347656 79.042969 80.578125 79.105469 L 81.929688 79.460938 C 82.171875 79.519531 82.382812 79.632812 82.5625 79.796875 C 82.742188 79.960938 82.882812 80.15625 82.976562 80.378906 C 83.074219 80.601562 83.121094 80.847656 83.121094 81.117188 C 83.121094 81.460938 83.046875 81.804688 82.898438 82.140625 C 82.75 82.480469 82.542969 82.792969 82.28125 83.074219 C 82.015625 83.355469 81.714844 83.574219 81.382812 83.734375 C 81.046875 83.890625 80.707031 83.972656 80.363281 83.972656 C 79.484375 83.972656 78.855469 83.714844 78.476562 83.199219 L 77.863281 83.9375 C 77.816406 83.960938 77.789062 83.972656 77.78125 83.972656 L 77.707031 83.972656 "/>
<path fill-rule="nonzero" fill="rgb(0%, 0%, 0%)" fill-opacity="1" d="M 85.21875 83.972656 C 85.199219 83.972656 85.179688 83.957031 85.160156 83.929688 C 85.144531 83.902344 85.136719 83.878906 85.136719 83.855469 L 85.769531 81.289062 C 85.785156 81.246094 85.816406 81.222656 85.859375 81.222656 L 85.992188 81.222656 C 86.019531 81.222656 86.039062 81.234375 86.054688 81.257812 C 86.074219 81.277344 86.082031 81.304688 86.082031 81.339844 C 86.019531 81.589844 85.992188 81.8125 85.992188 82.011719 C 85.992188 82.542969 86.171875 82.933594 86.539062 83.191406 C 86.90625 83.449219 87.367188 83.578125 87.917969 83.578125 C 88.160156 83.578125 88.398438 83.519531 88.632812 83.402344 C 88.867188 83.285156 89.070312 83.128906 89.242188 82.9375 C 89.414062 82.746094 89.554688 82.53125 89.65625 82.296875 C 89.761719 82.0625 89.8125 81.824219 89.8125 81.585938 C 89.8125 81.328125 89.746094 81.097656 89.613281 80.894531 C 89.480469 80.691406 89.292969 80.566406 89.050781 80.511719 L 87.707031 80.148438 C 87.339844 80.054688 87.046875 79.863281 86.835938 79.570312 C 86.621094 79.277344 86.515625 78.949219 86.515625 78.582031 C 86.515625 78.140625 86.644531 77.710938 86.90625 77.300781 C 87.164062 76.890625 87.507812 76.5625 87.929688 76.320312 C 88.355469 76.070312 88.785156 75.949219 89.222656 75.949219 C 89.554688 75.949219 89.863281 76.011719 90.144531 76.136719 C 90.425781 76.261719 90.644531 76.460938 90.796875 76.726562 L 91.429688 75.980469 C 91.472656 75.960938 91.496094 75.949219 91.503906 75.949219 L 91.570312 75.949219 C 91.601562 75.949219 91.625 75.960938 91.644531 75.988281 C 91.660156 76.015625 91.667969 76.042969 91.667969 76.0625 L 91.027344 78.621094 C 91.015625 78.671875 90.988281 78.695312 90.945312 78.695312 L 90.804688 78.695312 C 90.742188 78.695312 90.707031 78.660156 90.707031 78.582031 C 90.746094 78.347656 90.765625 78.140625 90.765625 77.96875 C 90.765625 77.628906 90.707031 77.332031 90.589844 77.082031 C 90.472656 76.828125 90.292969 76.636719 90.058594 76.507812 C 89.824219 76.375 89.535156 76.308594 89.191406 76.308594 C 88.894531 76.308594 88.601562 76.394531 88.3125 76.558594 C 88.023438 76.726562 87.785156 76.953125 87.605469 77.234375 C 87.425781 77.515625 87.335938 77.804688 87.335938 78.105469 C 87.335938 78.339844 87.402344 78.550781 87.539062 78.734375 C 87.679688 78.917969 87.859375 79.042969 88.089844 79.105469 L 89.445312 79.460938 C 89.683594 79.519531 89.894531 79.632812 90.074219 79.796875 C 90.257812 79.960938 90.394531 80.15625 90.488281 80.378906 C 90.585938 80.601562 90.632812 80.847656 90.632812 81.117188 C 90.632812 81.460938 90.558594 81.804688 90.410156 82.140625 C 90.265625 82.480469 90.058594 82.792969 89.792969 83.074219 C 89.527344 83.355469 89.226562 83.574219 88.894531 83.734375 C 88.558594 83.890625 88.222656 83.972656 87.878906 83.972656 C 86.996094 83.972656 86.367188 83.714844 85.992188 83.199219 L 85.375 83.9375 C 85.332031 83.960938 85.304688 83.972656 85.292969 83.972656 L 85.21875 83.972656 "/>
<path fill-rule="nonzero" fill="rgb(0%, 0%, 0%)" fill-opacity="1" d="M 93.085938 83.726562 L 93.085938 83.339844 C 94.003906 83.339844 94.464844 83.222656 94.464844 82.988281 L 94.464844 77.203125 C 94.082031 77.382812 93.601562 77.476562 93.019531 77.476562 L 93.019531 77.089844 C 93.921875 77.089844 94.601562 76.855469 95.0625 76.382812 L 95.21875 76.382812 C 95.238281 76.382812 95.265625 76.394531 95.289062 76.414062 C 95.3125 76.433594 95.324219 76.453125 95.324219 76.480469 L 95.324219 82.988281 C 95.324219 83.222656 95.785156 83.339844 96.703125 83.339844 L 96.703125 83.726562 L 93.085938 83.726562 "/>
<path fill-rule="nonzero" fill="rgb(0%, 0%, 0%)" fill-opacity="1" d="M 113.273438 15.734375 C 113.34375 15.941406 113.476562 16.097656 113.671875 16.203125 C 113.867188 16.308594 114.078125 16.359375 114.308594 16.359375 C 114.539062 16.359375 114.757812 16.277344 114.972656 16.117188 C 115.1875 15.957031 115.367188 15.753906 115.515625 15.511719 C 115.660156 15.273438 115.765625 15.035156 115.824219 14.800781 L 117.128906 9.582031 C 117.136719 9.554688 117.140625 9.535156 117.140625 9.519531 C 117.144531 9.507812 117.144531 9.492188 117.144531 9.476562 C 117.144531 9.398438 117.117188 9.351562 117.0625 9.328125 C 116.867188 9.28125 116.472656 9.253906 115.882812 9.253906 C 115.804688 9.253906 115.769531 9.207031 115.769531 9.105469 C 115.785156 9.050781 115.796875 9.007812 115.804688 8.976562 C 115.8125 8.941406 115.828125 8.917969 115.855469 8.898438 C 115.878906 8.878906 115.914062 8.867188 115.957031 8.867188 L 118.941406 8.867188 C 119.019531 8.867188 119.058594 8.917969 119.058594 9.015625 C 119.023438 9.175781 118.976562 9.253906 118.910156 9.253906 C 118.652344 9.253906 118.457031 9.273438 118.328125 9.316406 C 118.195312 9.355469 118.101562 9.460938 118.046875 9.632812 L 116.753906 14.839844 C 116.671875 15.183594 116.503906 15.496094 116.246094 15.769531 C 115.992188 16.042969 115.691406 16.253906 115.347656 16.410156 C 115 16.566406 114.648438 16.644531 114.292969 16.644531 C 113.910156 16.644531 113.570312 16.539062 113.277344 16.320312 C 112.984375 16.105469 112.839844 15.8125 112.839844 15.4375 C 112.839844 15.199219 112.90625 14.988281 113.035156 14.8125 C 113.167969 14.632812 113.355469 14.546875 113.601562 14.546875 C 113.738281 14.546875 113.855469 14.589844 113.949219 14.675781 C 114.046875 14.765625 114.09375 14.875 114.09375 15.011719 C 114.09375 15.210938 114.019531 15.382812 113.875 15.53125 C 113.726562 15.675781 113.554688 15.75 113.355469 15.75 C 113.316406 15.75 113.289062 15.746094 113.273438 15.734375 "/>
<path fill-rule="nonzero" fill="rgb(0%, 0%, 0%)" fill-opacity="1" d="M 120.972656 14.019531 C 120.972656 14.464844 121.058594 14.851562 121.230469 15.183594 C 121.402344 15.519531 121.648438 15.78125 121.972656 15.96875 C 122.296875 16.15625 122.679688 16.25 123.121094 16.25 C 123.585938 16.25 124.03125 16.132812 124.460938 15.898438 C 124.890625 15.664062 125.257812 15.347656 125.558594 14.953125 C 125.859375 14.554688 126.066406 14.132812 126.179688 13.683594 C 126.191406 13.640625 126.21875 13.617188 126.261719 13.617188 L 126.402344 13.617188 C 126.429688 13.617188 126.453125 13.628906 126.472656 13.652344 C 126.492188 13.671875 126.5 13.695312 126.5 13.714844 C 126.5 13.722656 126.496094 13.734375 126.484375 13.75 C 126.359375 14.257812 126.117188 14.738281 125.753906 15.183594 C 125.394531 15.632812 124.960938 15.988281 124.460938 16.25 C 123.960938 16.515625 123.445312 16.644531 122.90625 16.644531 C 122.332031 16.644531 121.820312 16.515625 121.367188 16.253906 C 120.910156 15.996094 120.558594 15.636719 120.304688 15.175781 C 120.050781 14.71875 119.921875 14.199219 119.921875 13.617188 C 119.921875 13 120.058594 12.390625 120.335938 11.785156 C 120.613281 11.179688 120.984375 10.644531 121.453125 10.171875 C 121.917969 9.703125 122.449219 9.328125 123.046875 9.042969 C 123.644531 8.761719 124.25 8.621094 124.867188 8.621094 C 125.109375 8.621094 125.339844 8.660156 125.566406 8.734375 C 125.789062 8.808594 125.996094 8.917969 126.183594 9.070312 C 126.375 9.21875 126.53125 9.394531 126.65625 9.589844 L 127.527344 8.648438 C 127.527344 8.628906 127.542969 8.621094 127.574219 8.621094 L 127.640625 8.621094 C 127.671875 8.621094 127.699219 8.636719 127.714844 8.664062 C 127.730469 8.691406 127.738281 8.714844 127.738281 8.738281 L 126.992188 11.714844 C 126.992188 11.765625 126.964844 11.789062 126.902344 11.789062 L 126.707031 11.789062 C 126.652344 11.789062 126.625 11.75 126.625 11.664062 C 126.652344 11.507812 126.664062 11.3125 126.664062 11.085938 C 126.664062 10.726562 126.601562 10.390625 126.480469 10.070312 C 126.355469 9.75 126.167969 9.496094 125.910156 9.304688 C 125.652344 9.113281 125.339844 9.015625 124.976562 9.015625 C 124.375 9.015625 123.824219 9.167969 123.324219 9.46875 C 122.828125 9.769531 122.40625 10.164062 122.058594 10.652344 C 121.710938 11.140625 121.445312 11.6875 121.253906 12.285156 C 121.066406 12.882812 120.972656 13.460938 120.972656 14.019531 "/>
<path fill-rule="nonzero" fill="rgb(0%, 0%, 0%)" fill-opacity="1" d="M 129.195312 16.398438 L 129.195312 16.015625 C 130.113281 16.015625 130.574219 15.898438 130.574219 15.660156 L 130.574219 9.878906 C 130.191406 10.058594 129.710938 10.148438 129.128906 10.148438 L 129.128906 9.761719 C 130.03125 9.761719 130.714844 9.527344 131.171875 9.058594 L 131.328125 9.058594 C 131.351562 9.058594 131.375 9.066406 131.398438 9.085938 C 131.421875 9.105469 131.433594 9.128906 131.433594 9.15625 L 131.433594 15.660156 C 131.433594 15.898438 131.894531 16.015625 132.8125 16.015625 L 132.8125 16.398438 L 129.195312 16.398438 "/>
<path fill-rule="nonzero" fill="rgb(0%, 0%, 0%)" fill-opacity="1" d="M 5.296875 8.324219 C 5.296875 8.164062 5.3125 7.980469 5.351562 7.785156 C 5.390625 7.585938 5.429688 7.425781 5.472656 7.296875 C 5.511719 7.167969 5.601562 6.917969 5.742188 6.550781 C 5.882812 6.179688 5.953125 5.992188 5.953125 5.980469 C 6.050781 5.707031 6.097656 5.484375 6.097656 5.316406 C 6.097656 5.097656 6.019531 4.988281 5.863281 4.988281 C 5.566406 4.988281 5.324219 5.136719 5.140625 5.433594 C 4.953125 5.734375 4.816406 6.066406 4.722656 6.441406 C 4.710938 6.488281 4.679688 6.511719 4.628906 6.511719 L 4.5 6.511719 C 4.4375 6.511719 4.410156 6.476562 4.410156 6.40625 L 4.410156 6.375 C 4.53125 5.9375 4.710938 5.546875 4.957031 5.207031 C 5.199219 4.871094 5.507812 4.699219 5.878906 4.699219 C 6.140625 4.699219 6.363281 4.785156 6.542969 4.960938 C 6.722656 5.132812 6.8125 5.351562 6.8125 5.617188 C 6.8125 5.753906 6.78125 5.898438 6.722656 6.046875 C 6.582031 6.417969 6.46875 6.714844 6.386719 6.9375 C 6.304688 7.164062 6.226562 7.414062 6.15625 7.695312 C 6.085938 7.972656 6.050781 8.230469 6.050781 8.464844 C 6.050781 8.746094 6.113281 8.972656 6.242188 9.144531 C 6.371094 9.320312 6.570312 9.410156 6.839844 9.410156 C 7.347656 9.410156 7.804688 9.015625 8.214844 8.226562 C 8.347656 7.96875 8.46875 7.667969 8.585938 7.324219 C 8.699219 6.980469 8.757812 6.703125 8.757812 6.488281 C 8.757812 6.265625 8.71875 6.089844 8.644531 5.96875 C 8.574219 5.84375 8.476562 5.714844 8.363281 5.582031 C 8.25 5.449219 8.191406 5.339844 8.191406 5.257812 C 8.191406 5.117188 8.25 4.984375 8.371094 4.867188 C 8.492188 4.75 8.625 4.691406 8.765625 4.691406 C 8.941406 4.691406 9.066406 4.773438 9.144531 4.933594 C 9.21875 5.09375 9.257812 5.277344 9.257812 5.480469 C 9.257812 5.726562 9.222656 6.015625 9.15625 6.351562 C 9.085938 6.6875 8.992188 7.039062 8.867188 7.402344 C 8.746094 7.765625 8.628906 8.050781 8.519531 8.261719 C 8.039062 9.21875 7.472656 9.695312 6.828125 9.695312 C 6.363281 9.695312 5.992188 9.578125 5.714844 9.347656 C 5.433594 9.113281 5.296875 8.773438 5.296875 8.324219 "/>
<path fill-rule="nonzero" fill="rgb(0%, 0%, 0%)" fill-opacity="1" d="M 232.796875 186.8125 C 232.796875 186.570312 232.832031 186.324219 232.894531 186.070312 C 232.960938 185.816406 233.054688 185.535156 233.171875 185.226562 C 233.289062 184.914062 233.390625 184.648438 233.472656 184.417969 C 233.570312 184.144531 233.617188 183.921875 233.617188 183.753906 C 233.617188 183.535156 233.539062 183.425781 233.378906 183.425781 C 233.085938 183.425781 232.84375 183.574219 232.660156 183.871094 C 232.472656 184.171875 232.332031 184.503906 232.242188 184.875 C 232.230469 184.925781 232.199219 184.949219 232.148438 184.949219 L 232.019531 184.949219 C 231.960938 184.949219 231.929688 184.914062 231.929688 184.84375 L 231.929688 184.8125 C 232.050781 184.375 232.230469 183.984375 232.472656 183.644531 C 232.71875 183.308594 233.023438 183.136719 233.398438 183.136719 C 233.660156 183.136719 233.882812 183.222656 234.0625 183.394531 C 234.242188 183.566406 234.332031 183.789062 234.332031 184.054688 C 234.332031 184.191406 234.300781 184.335938 234.242188 184.484375 C 234.210938 184.574219 234.136719 184.773438 234.019531 185.074219 C 233.90625 185.375 233.816406 185.625 233.757812 185.820312 C 233.699219 186.015625 233.648438 186.210938 233.609375 186.402344 C 233.570312 186.59375 233.554688 186.78125 233.554688 186.96875 C 233.554688 187.214844 233.605469 187.421875 233.710938 187.59375 C 233.8125 187.761719 233.980469 187.847656 234.207031 187.847656 C 234.679688 187.847656 235.09375 187.554688 235.449219 186.96875 C 235.460938 186.941406 235.46875 186.914062 235.472656 186.886719 C 235.476562 186.859375 235.480469 186.835938 235.480469 186.8125 L 236.277344 183.613281 C 236.296875 183.515625 236.355469 183.433594 236.445312 183.363281 C 236.535156 183.292969 236.632812 183.261719 236.734375 183.261719 C 236.828125 183.261719 236.90625 183.289062 236.972656 183.347656 C 237.039062 183.402344 237.070312 183.480469 237.070312 183.574219 C 237.070312 183.609375 237.070312 183.636719 237.0625 183.65625 L 236.261719 186.828125 C 236.210938 187.046875 236.1875 187.226562 236.1875 187.371094 C 236.1875 187.6875 236.292969 187.847656 236.507812 187.847656 C 236.742188 187.847656 236.917969 187.699219 237.035156 187.40625 C 237.152344 187.113281 237.253906 186.773438 237.335938 186.386719 C 237.351562 186.347656 237.378906 186.328125 237.417969 186.328125 L 237.554688 186.328125 C 237.582031 186.328125 237.605469 186.339844 237.625 186.367188 C 237.644531 186.390625 237.65625 186.414062 237.65625 186.433594 C 237.574219 186.746094 237.492188 187.015625 237.421875 187.242188 C 237.347656 187.46875 237.230469 187.675781 237.074219 187.859375 C 236.917969 188.042969 236.722656 188.132812 236.480469 188.132812 C 236.25 188.132812 236.042969 188.070312 235.859375 187.941406 C 235.671875 187.8125 235.546875 187.636719 235.480469 187.417969 C 235.3125 187.636719 235.117188 187.8125 234.894531 187.941406 C 234.671875 188.070312 234.4375 188.132812 234.191406 188.132812 C 233.765625 188.132812 233.425781 188.015625 233.175781 187.785156 C 232.925781 187.550781 232.796875 187.226562 232.796875 186.8125 "/>
<path fill-rule="nonzero" fill="rgb(0%, 0%, 0%)" fill-opacity="1" d="M 117.902344 143.292969 C 117.878906 143.292969 117.863281 143.28125 117.84375 143.253906 C 117.828125 143.226562 117.820312 143.199219 117.820312 143.179688 L 118.453125 140.609375 C 118.46875 140.566406 118.5 140.546875 118.542969 140.546875 L 118.671875 140.546875 C 118.699219 140.546875 118.722656 140.554688 118.738281 140.578125 C 118.753906 140.601562 118.765625 140.628906 118.765625 140.660156 C 118.703125 140.910156 118.671875 141.136719 118.671875 141.332031 C 118.671875 141.863281 118.855469 142.257812 119.222656 142.515625 C 119.589844 142.773438 120.050781 142.898438 120.601562 142.898438 C 120.839844 142.898438 121.078125 142.839844 121.316406 142.722656 C 121.550781 142.605469 121.753906 142.453125 121.925781 142.261719 C 122.097656 142.070312 122.238281 141.855469 122.339844 141.621094 C 122.445312 141.386719 122.496094 141.148438 122.496094 140.90625 C 122.496094 140.648438 122.429688 140.417969 122.292969 140.21875 C 122.160156 140.015625 121.972656 139.886719 121.734375 139.832031 L 120.386719 139.46875 C 120.023438 139.378906 119.730469 139.183594 119.519531 138.894531 C 119.304688 138.601562 119.199219 138.269531 119.199219 137.902344 C 119.199219 137.460938 119.328125 137.035156 119.589844 136.625 C 119.847656 136.214844 120.1875 135.886719 120.613281 135.640625 C 121.039062 135.394531 121.46875 135.269531 121.90625 135.269531 C 122.238281 135.269531 122.546875 135.332031 122.828125 135.460938 C 123.109375 135.585938 123.328125 135.78125 123.480469 136.050781 L 124.113281 135.304688 C 124.15625 135.28125 124.179688 135.269531 124.1875 135.269531 L 124.25 135.269531 C 124.285156 135.269531 124.308594 135.285156 124.324219 135.3125 C 124.34375 135.339844 124.351562 135.363281 124.351562 135.386719 L 123.710938 137.945312 C 123.699219 137.992188 123.671875 138.019531 123.628906 138.019531 L 123.488281 138.019531 C 123.421875 138.019531 123.390625 137.980469 123.390625 137.902344 C 123.429688 137.667969 123.449219 137.464844 123.449219 137.289062 C 123.449219 136.949219 123.390625 136.652344 123.269531 136.402344 C 123.152344 136.152344 122.976562 135.960938 122.742188 135.828125 C 122.507812 135.699219 122.21875 135.632812 121.871094 135.632812 C 121.578125 135.632812 121.285156 135.714844 120.996094 135.882812 C 120.707031 136.046875 120.46875 136.273438 120.289062 136.554688 C 120.109375 136.835938 120.019531 137.128906 120.019531 137.429688 C 120.019531 137.664062 120.085938 137.871094 120.222656 138.054688 C 120.359375 138.238281 120.542969 138.363281 120.773438 138.429688 L 122.125 138.78125 C 122.367188 138.839844 122.578125 138.953125 122.757812 139.117188 C 122.9375 139.28125 123.078125 139.476562 123.171875 139.699219 C 123.269531 139.925781 123.316406 140.171875 123.316406 140.4375 C 123.316406 140.785156 123.242188 141.125 123.09375 141.464844 C 122.949219 141.804688 122.742188 142.113281 122.476562 142.394531 C 122.210938 142.675781 121.910156 142.898438 121.578125 143.054688 C 121.242188 143.214844 120.90625 143.292969 120.558594 143.292969 C 119.679688 143.292969 119.050781 143.035156 118.671875 142.523438 L 118.058594 143.261719 C 118.015625 143.28125 117.988281 143.292969 117.976562 143.292969 L 117.902344 143.292969 "/>
<path fill-rule="nonzero" fill="rgb(0%, 0%, 0%)" fill-opacity="1" d="M 125.414062 143.292969 C 125.394531 143.292969 125.375 143.28125 125.359375 143.253906 C 125.34375 143.226562 125.332031 143.199219 125.332031 143.179688 L 125.964844 140.609375 C 125.980469 140.566406 126.011719 140.546875 126.054688 140.546875 L 126.1875 140.546875 C 126.214844 140.546875 126.234375 140.554688 126.253906 140.578125 C 126.269531 140.601562 126.277344 140.628906 126.277344 140.660156 C 126.21875 140.910156 126.1875 141.136719 126.1875 141.332031 C 126.1875 141.863281 126.371094 142.257812 126.738281 142.515625 C 127.101562 142.773438 127.5625 142.898438 128.113281 142.898438 C 128.355469 142.898438 128.59375 142.839844 128.828125 142.722656 C 129.0625 142.605469 129.265625 142.453125 129.4375 142.261719 C 129.609375 142.070312 129.75 141.855469 129.851562 141.621094 C 129.957031 141.386719 130.007812 141.148438 130.007812 140.90625 C 130.007812 140.648438 129.941406 140.417969 129.808594 140.21875 C 129.675781 140.015625 129.488281 139.886719 129.246094 139.832031 L 127.902344 139.46875 C 127.535156 139.378906 127.246094 139.183594 127.03125 138.894531 C 126.816406 138.601562 126.710938 138.269531 126.710938 137.902344 C 126.710938 137.460938 126.839844 137.035156 127.101562 136.625 C 127.359375 136.214844 127.703125 135.886719 128.125 135.640625 C 128.550781 135.394531 128.980469 135.269531 129.417969 135.269531 C 129.753906 135.269531 130.058594 135.332031 130.339844 135.460938 C 130.625 135.585938 130.839844 135.78125 130.992188 136.050781 L 131.625 135.304688 C 131.667969 135.28125 131.695312 135.269531 131.699219 135.269531 L 131.765625 135.269531 C 131.796875 135.269531 131.824219 135.285156 131.839844 135.3125 C 131.855469 135.339844 131.863281 135.363281 131.863281 135.386719 L 131.222656 137.945312 C 131.214844 137.992188 131.1875 138.019531 131.140625 138.019531 L 131.003906 138.019531 C 130.9375 138.019531 130.902344 137.980469 130.902344 137.902344 C 130.941406 137.667969 130.960938 137.464844 130.960938 137.289062 C 130.960938 136.949219 130.902344 136.652344 130.785156 136.402344 C 130.667969 136.152344 130.492188 135.960938 130.253906 135.828125 C 130.019531 135.699219 129.730469 135.632812 129.386719 135.632812 C 129.089844 135.632812 128.796875 135.714844 128.507812 135.882812 C 128.21875 136.046875 127.984375 136.273438 127.800781 136.554688 C 127.621094 136.835938 127.53125 137.128906 127.53125 137.429688 C 127.53125 137.664062 127.601562 137.871094 127.738281 138.054688 C 127.875 138.238281 128.058594 138.363281 128.285156 138.429688 L 129.640625 138.78125 C 129.878906 138.839844 130.089844 138.953125 130.273438 139.117188 C 130.453125 139.28125 130.589844 139.476562 130.6875 139.699219 C 130.78125 139.925781 130.828125 140.171875 130.828125 140.4375 C 130.828125 140.785156 130.753906 141.125 130.609375 141.464844 C 130.460938 141.804688 130.253906 142.113281 129.988281 142.394531 C 129.722656 142.675781 129.425781 142.898438 129.089844 143.054688 C 128.757812 143.214844 128.417969 143.292969 128.074219 143.292969 C 127.191406 143.292969 126.5625 143.035156 126.1875 142.523438 L 125.570312 143.261719 C 125.527344 143.28125 125.5 143.292969 125.488281 143.292969 L 125.414062 143.292969 "/>
<path fill-rule="nonzero" fill="rgb(0%, 0%, 0%)" fill-opacity="1" d="M 132.804688 143.046875 L 132.804688 142.75 C 132.804688 142.734375 132.816406 142.714844 132.832031 142.695312 L 134.539062 140.800781 C 134.800781 140.515625 135.011719 140.277344 135.171875 140.089844 C 135.332031 139.902344 135.492188 139.683594 135.648438 139.433594 C 135.804688 139.183594 135.929688 138.933594 136.023438 138.679688 C 136.113281 138.425781 136.160156 138.152344 136.160156 137.863281 C 136.160156 137.5625 136.105469 137.273438 135.992188 136.996094 C 135.878906 136.71875 135.714844 136.5 135.492188 136.335938 C 135.269531 136.171875 135.003906 136.089844 134.691406 136.089844 C 134.375 136.089844 134.089844 136.1875 133.835938 136.378906 C 133.582031 136.570312 133.402344 136.820312 133.296875 137.125 C 133.324219 137.117188 133.363281 137.117188 133.414062 137.117188 C 133.578125 137.117188 133.71875 137.171875 133.835938 137.28125 C 133.953125 137.390625 134.011719 137.535156 134.011719 137.714844 C 134.011719 137.878906 133.953125 138.019531 133.835938 138.136719 C 133.71875 138.253906 133.578125 138.3125 133.414062 138.3125 C 133.242188 138.3125 133.101562 138.253906 132.984375 138.132812 C 132.863281 138.011719 132.804688 137.875 132.804688 137.714844 C 132.804688 137.4375 132.859375 137.175781 132.960938 136.9375 C 133.066406 136.695312 133.214844 136.480469 133.414062 136.292969 C 133.609375 136.101562 133.832031 135.957031 134.074219 135.859375 C 134.316406 135.757812 134.578125 135.707031 134.855469 135.707031 C 135.277344 135.707031 135.667969 135.792969 136.03125 135.972656 C 136.390625 136.148438 136.679688 136.402344 136.890625 136.726562 C 137.105469 137.050781 137.210938 137.429688 137.210938 137.863281 C 137.210938 138.179688 137.140625 138.480469 137 138.769531 C 136.863281 139.054688 136.683594 139.316406 136.464844 139.554688 C 136.246094 139.789062 135.964844 140.054688 135.625 140.351562 C 135.28125 140.652344 135.054688 140.851562 134.949219 140.957031 L 133.699219 142.152344 L 134.757812 142.152344 C 135.277344 142.152344 135.710938 142.148438 136.0625 142.140625 C 136.414062 142.132812 136.597656 142.117188 136.621094 142.09375 C 136.707031 142.003906 136.796875 141.664062 136.882812 141.078125 L 137.210938 141.078125 L 136.898438 143.046875 L 132.804688 143.046875 "/>
<path fill="none" stroke-width="0.5" stroke-linecap="butt" stroke-linejoin="round" stroke="rgb(0%, 0%, 0%)" stroke-opacity="1" stroke-miterlimit="10" d="M 0.000401786 0.00120536 L 0.340804 -89.714196 " transform="matrix(0.7, 0, 0, -0.7, 71.988, 84.2235)"/>
<path fill="none" stroke-width="0.5" stroke-linecap="butt" stroke-linejoin="round" stroke="rgb(0%, 0%, 0%)" stroke-opacity="1" stroke-miterlimit="10" d="M 0.000642857 -0.000571429 L -3.710295 -10.017312 L -3.738196 -3.516196 L 0.000642857 -0.000571429 " transform="matrix(0.7, 0, 0, -0.7, 74.8433, 144.5621)"/>
<path fill="none" stroke-width="0.5" stroke-linecap="butt" stroke-linejoin="round" stroke="rgb(0%, 0%, 0%)" stroke-opacity="1" stroke-miterlimit="10" d="M 0.000705357 -0.0023125 L -3.788357 9.986527 L -0.0271964 6.498804 L 0.000705357 -0.0023125 " transform="matrix(0.7, 0, 0, -0.7, 72.2456, 151.5726)"/>
<path fill-rule="nonzero" fill="rgb(0%, 0%, 0%)" fill-opacity="1" d="M 72.246094 151.574219 L 74.84375 144.5625 L 72.226562 147.023438 L 69.59375 144.582031 "/>
<path fill="none" stroke-width="3" stroke-linecap="butt" stroke-linejoin="round" stroke="rgb(50.196838%, 50.196838%, 50.196838%)" stroke-opacity="1" stroke-miterlimit="10" d="M 0.000776786 0.00251786 L 136.563277 243.105196 " transform="matrix(0.7, 0, 0, -0.7, 16.5893, 178.1502)"/>
<path fill-rule="nonzero" fill="rgb(0%, 0%, 0%)" fill-opacity="1" d="M 76.09375 80.886719 L 76.109375 80.597656 L 76.09375 80.308594 C 75.515625 76.421875 69.054688 76.097656 67.765625 79.738281 L 67.691406 80.019531 L 67.644531 80.308594 C 67.484375 84.566406 74.289062 85.273438 75.867188 81.734375 L 75.972656 81.457031 L 76.050781 81.175781 "/>
<path fill="none" stroke-width="0.5" stroke-linecap="butt" stroke-linejoin="round" stroke="rgb(0%, 0%, 0%)" stroke-opacity="1" stroke-miterlimit="10" d="M -0.00132143 -0.000223214 L -0.0236429 0.412723 L -0.0850268 0.82567 C -1.491277 6.406027 -11.229 6.14933 -12.093955 0.412723 L -12.116277 -0.000223214 L -12.093955 -0.41317 C -11.229 -6.149777 -1.491277 -6.406473 -0.0850268 -0.826116 L -0.0236429 -0.41317 Z M -0.00132143 -0.000223214 " transform="matrix(0.7, 0, 0, -0.7, 76.1103, 80.5975)"/>
<path fill="none" stroke-width="3" stroke-linecap="butt" stroke-linejoin="bevel" stroke="rgb(50.196838%, 50.196838%, 50.196838%)" stroke-opacity="1" stroke-dasharray="12 3 6 3" stroke-miterlimit="10" d="M 52.649241 33.324116 L 336.081161 159.401125 " transform="matrix(0.7, 0, 0, -0.7, -19.999, 201.7136)"/>
<path fill-rule="nonzero" fill="rgb(0%, 0%, 0%)" fill-opacity="1" d="M 76.34375 154.804688 L 76.359375 154.515625 L 76.34375 154.226562 C 75.761719 150.339844 69.304688 150.015625 68.015625 153.65625 L 67.9375 153.9375 L 67.894531 154.226562 C 67.730469 158.484375 74.535156 159.191406 76.117188 155.652344 L 76.222656 155.375 L 76.296875 155.089844 "/>
<path fill="none" stroke-width="0.5" stroke-linecap="butt" stroke-linejoin="round" stroke="rgb(0%, 0%, 0%)" stroke-opacity="1" stroke-miterlimit="10" d="M 0.000821429 -0.00132143 L -0.0215 0.411625 L -0.0884643 0.824571 C -1.494714 6.404929 -11.226857 6.148232 -12.091813 0.411625 L -12.114134 -0.00132143 L -12.091813 -0.414268 C -11.226857 -6.145295 -1.494714 -6.407571 -0.0884643 -0.821634 L -0.0215 -0.414268 Z M 0.000821429 -0.00132143 " transform="matrix(0.7, 0, 0, -0.7, 76.3588, 154.5147)"/>
<path fill-rule="nonzero" fill="rgb(0%, 0%, 0%)" fill-opacity="1" d="M 133.820312 128.910156 L 133.835938 128.621094 L 133.820312 128.332031 C 133.238281 124.445312 126.785156 124.117188 125.492188 127.757812 L 125.417969 128.042969 L 125.371094 128.332031 C 125.210938 132.589844 132.015625 133.296875 133.59375 129.757812 L 133.699219 129.480469 L 133.777344 129.195312 "/>
<path fill="none" stroke-width="0.5" stroke-linecap="butt" stroke-linejoin="round" stroke="rgb(0%, 0%, 0%)" stroke-opacity="1" stroke-miterlimit="10" d="M -0.00180357 -0.00113393 L -0.024125 0.411812 L -0.0855089 0.824759 C -1.491759 6.405116 -11.229482 6.14842 -12.094437 0.411812 L -12.116759 -0.00113393 L -12.094437 -0.41408 C -11.229482 -6.150688 -1.491759 -6.401804 -0.0855089 -0.821446 L -0.024125 -0.41408 Z M -0.00180357 -0.00113393 " transform="matrix(0.7, 0, 0, -0.7, 133.8372, 128.6203)"/>
<path fill="none" stroke-width="3" stroke-linecap="butt" stroke-linejoin="round" stroke="rgb(0%, 0%, 0%)" stroke-opacity="1" stroke-miterlimit="10" d="M -0.00274107 0.00275893 L 18.088777 8.875527 " transform="matrix(0.7, 0, 0, -0.7, 77.4277, 152.5449)"/>
<path fill="none" stroke-width="0.5" stroke-linecap="butt" stroke-linejoin="round" stroke="rgb(0%, 0%, 0%)" stroke-opacity="1" stroke-miterlimit="10" d="M -0.00075 0.000303571 L 10.62983 1.03825 L 4.792777 -1.824473 L -0.00075 0.000303571 " transform="matrix(0.7, 0, 0, -0.7, 86.7349, 145.0549)"/>
<path fill="none" stroke-width="0.5" stroke-linecap="butt" stroke-linejoin="round" stroke="rgb(0%, 0%, 0%)" stroke-opacity="1" stroke-miterlimit="10" d="M -0.000169643 0.00125 L -7.327179 -7.772188 L -5.837223 -2.861473 L -0.000169643 0.00125 " transform="matrix(0.7, 0, 0, -0.7, 94.1759, 144.329)"/>
<path fill-rule="nonzero" fill="rgb(0%, 0%, 0%)" fill-opacity="1" d="M 94.175781 144.328125 L 86.734375 145.054688 L 90.089844 146.332031 L 89.046875 149.769531 "/>
<path fill="none" stroke-width="3" stroke-linecap="butt" stroke-linejoin="round" stroke="rgb(0%, 0%, 0%)" stroke-opacity="1" stroke-miterlimit="10" d="M 0.000848214 0.0008125 L 20.999732 9.96175 " transform="matrix(0.7, 0, 0, -0.7, 92.6205, 144.9576)"/>
<path fill="none" stroke-width="0.5" stroke-linecap="butt" stroke-linejoin="round" stroke="rgb(0%, 0%, 0%)" stroke-opacity="1" stroke-miterlimit="10" d="M 0.000526786 -0.0000892857 L 10.642268 0.898348 L 4.771732 -1.88625 L 0.000526786 -0.0000892857 " transform="matrix(0.7, 0, 0, -0.7, 103.9801, 136.664)"/>
<path fill="none" stroke-width="0.5" stroke-linecap="butt" stroke-linejoin="round" stroke="rgb(0%, 0%, 0%)" stroke-opacity="1" stroke-miterlimit="10" d="M -0.000732143 0.000348214 L -7.428187 -7.672643 L -5.871268 -2.78425 L -0.000732143 0.000348214 " transform="matrix(0.7, 0, 0, -0.7, 111.4302, 136.0354)"/>
<path fill-rule="nonzero" fill="rgb(0%, 0%, 0%)" fill-opacity="1" d="M 111.429688 136.035156 L 103.980469 136.664062 L 107.320312 137.984375 L 106.230469 141.40625 "/>
<path fill="none" stroke-width="3" stroke-linecap="butt" stroke-linejoin="round" stroke="rgb(0%, 0%, 0%)" stroke-opacity="1" stroke-miterlimit="10" d="M 0.00169643 0.0019375 L 10.671339 4.962875 " transform="matrix(0.7, 0, 0, -0.7, 110.866, 136.5912)"/>
<path fill="none" stroke-width="0.5" stroke-linecap="butt" stroke-linejoin="round" stroke="rgb(0%, 0%, 0%)" stroke-opacity="1" stroke-miterlimit="10" d="M 0.001875 -0.00248214 L 10.649196 0.81783 L 4.756339 -1.922125 L 0.001875 -0.00248214 " transform="matrix(0.7, 0, 0, -0.7, 115.0065, 131.7717)"/>
<path fill="none" stroke-width="0.5" stroke-linecap="butt" stroke-linejoin="round" stroke="rgb(0%, 0%, 0%)" stroke-opacity="1" stroke-miterlimit="10" d="M 0.000196429 0.00183036 L -7.488643 -7.615357 L -5.892661 -2.738125 L 0.000196429 0.00183036 " transform="matrix(0.7, 0, 0, -0.7, 122.4608, 131.2005)"/>
<path fill-rule="nonzero" fill="rgb(0%, 0%, 0%)" fill-opacity="1" d="M 122.460938 131.199219 L 115.007812 131.773438 L 118.335938 133.117188 L 117.21875 136.53125 "/>
</svg>
