<?xml version="1.0" encoding="utf-8"?>
<svg xmlns="http://www.w3.org/2000/svg" xmlns:xlink="http://www.w3.org/1999/xlink" width="500" height="309" viewBox="0 0 2000 1236">
<defs>
  <clipPath id="clip650">
    <rect x="0" y="0" width="2000" height="1236"/>
  </clipPath>
</defs>
<path clip-path="url(#clip650)" d="M0 1236 L2000 1236 L2000 1.24345e-14 L0 1.24345e-14  Z" fill="#ffffff" fill-rule="evenodd" fill-opacity="1"/>
<defs>
  <clipPath id="clip651">
    <rect x="272" y="47" width="1682" height="1082"/>
  </clipPath>
</defs>
<path clip-path="url(#clip650)" d="M272.235 1128.61 L1952.76 1128.61 L1952.76 47.2441 L272.235 47.2441  Z" fill="#ffffff" fill-rule="evenodd" fill-opacity="1"/>
<polyline clip-path="url(#clip650)" style="stroke:#000000; stroke-linecap:round; stroke-linejoin:round; stroke-width:4; stroke-opacity:1; fill:none" points="272.235,1128.61 1952.76,1128.61 "/>
<polyline clip-path="url(#clip650)" style="stroke:#000000; stroke-linecap:round; stroke-linejoin:round; stroke-width:4; stroke-opacity:1; fill:none" points="278.778,1128.61 278.778,1109.71 "/>
<polyline clip-path="url(#clip650)" style="stroke:#000000; stroke-linecap:round; stroke-linejoin:round; stroke-width:4; stroke-opacity:1; fill:none" points="689.245,1128.61 689.245,1109.71 "/>
<polyline clip-path="url(#clip650)" style="stroke:#000000; stroke-linecap:round; stroke-linejoin:round; stroke-width:4; stroke-opacity:1; fill:none" points="1099.71,1128.61 1099.71,1109.71 "/>
<polyline clip-path="url(#clip650)" style="stroke:#000000; stroke-linecap:round; stroke-linejoin:round; stroke-width:4; stroke-opacity:1; fill:none" points="1510.18,1128.61 1510.18,1109.71 "/>
<polyline clip-path="url(#clip650)" style="stroke:#000000; stroke-linecap:round; stroke-linejoin:round; stroke-width:4; stroke-opacity:1; fill:none" points="1920.65,1128.61 1920.65,1109.71 "/>
<path clip-path="url(#clip650)" d="M146.487 1183.88 L154.126 1183.88 L154.126 1157.51 L145.816 1159.18 L145.816 1154.92 L154.08 1153.25 L158.756 1153.25 L158.756 1183.88 L166.395 1183.88 L166.395 1187.81 L146.487 1187.81 L146.487 1183.88 Z" fill="#000000" fill-rule="nonzero" fill-opacity="1" /><path clip-path="url(#clip650)" d="M175.978 1187.09 L175.978 1182.83 Q177.737 1183.67 179.543 1184.11 Q181.348 1184.55 183.084 1184.55 Q187.714 1184.55 190.144 1181.45 Q192.598 1178.32 192.945 1171.98 Q191.603 1173.97 189.543 1175.03 Q187.482 1176.1 184.982 1176.1 Q179.797 1176.1 176.765 1172.97 Q173.756 1169.82 173.756 1164.38 Q173.756 1159.06 176.904 1155.84 Q180.052 1152.63 185.283 1152.63 Q191.279 1152.63 194.427 1157.23 Q197.598 1161.82 197.598 1170.57 Q197.598 1178.74 193.709 1183.62 Q189.844 1188.48 183.293 1188.48 Q181.533 1188.48 179.728 1188.13 Q177.922 1187.79 175.978 1187.09 M185.283 1172.44 Q188.432 1172.44 190.26 1170.29 Q192.112 1168.13 192.112 1164.38 Q192.112 1160.66 190.26 1158.51 Q188.432 1156.33 185.283 1156.33 Q182.135 1156.33 180.283 1158.51 Q178.455 1160.66 178.455 1164.38 Q178.455 1168.13 180.283 1170.29 Q182.135 1172.44 185.283 1172.44 Z" fill="#000000" fill-rule="nonzero" fill-opacity="1" /><path clip-path="url(#clip650)" d="M218.848 1157.32 L207.043 1175.77 L218.848 1175.77 L218.848 1157.32 M217.621 1153.25 L223.501 1153.25 L223.501 1175.77 L228.431 1175.77 L228.431 1179.66 L223.501 1179.66 L223.501 1187.81 L218.848 1187.81 L218.848 1179.66 L203.246 1179.66 L203.246 1175.15 L217.621 1153.25 Z" fill="#000000" fill-rule="nonzero" fill-opacity="1" /><path clip-path="url(#clip650)" d="M246.741 1168.67 Q243.593 1168.67 241.741 1170.82 Q239.913 1172.97 239.913 1176.72 Q239.913 1180.45 241.741 1182.63 Q243.593 1184.78 246.741 1184.78 Q249.89 1184.78 251.718 1182.63 Q253.57 1180.45 253.57 1176.72 Q253.57 1172.97 251.718 1170.82 Q249.89 1168.67 246.741 1168.67 M256.024 1154.01 L256.024 1158.27 Q254.265 1157.44 252.459 1157 Q250.677 1156.56 248.917 1156.56 Q244.288 1156.56 241.834 1159.69 Q239.403 1162.81 239.056 1169.13 Q240.422 1167.12 242.482 1166.05 Q244.542 1164.96 247.019 1164.96 Q252.227 1164.96 255.237 1168.13 Q258.269 1171.28 258.269 1176.72 Q258.269 1182.05 255.121 1185.26 Q251.973 1188.48 246.741 1188.48 Q240.746 1188.48 237.575 1183.9 Q234.403 1179.29 234.403 1170.57 Q234.403 1162.37 238.292 1157.51 Q242.181 1152.63 248.732 1152.63 Q250.491 1152.63 252.274 1152.97 Q254.079 1153.32 256.024 1154.01 Z" fill="#000000" fill-rule="nonzero" fill-opacity="1" /><path clip-path="url(#clip650)" d="M263.57 1172.93 L276.047 1172.93 L276.047 1176.72 L263.57 1176.72 L263.57 1172.93 Z" fill="#000000" fill-rule="nonzero" fill-opacity="1" /><path clip-path="url(#clip650)" d="M293.431 1156.33 Q289.82 1156.33 287.991 1159.89 Q286.186 1163.44 286.186 1170.57 Q286.186 1177.67 287.991 1181.24 Q289.82 1184.78 293.431 1184.78 Q297.065 1184.78 298.871 1181.24 Q300.699 1177.67 300.699 1170.57 Q300.699 1163.44 298.871 1159.89 Q297.065 1156.33 293.431 1156.33 M293.431 1152.63 Q299.241 1152.63 302.297 1157.23 Q305.375 1161.82 305.375 1170.57 Q305.375 1179.29 302.297 1183.9 Q299.241 1188.48 293.431 1188.48 Q287.621 1188.48 284.542 1183.9 Q281.487 1179.29 281.487 1170.57 Q281.487 1161.82 284.542 1157.23 Q287.621 1152.63 293.431 1152.63 Z" fill="#000000" fill-rule="nonzero" fill-opacity="1" /><path clip-path="url(#clip650)" d="M314.403 1183.88 L322.042 1183.88 L322.042 1157.51 L313.732 1159.18 L313.732 1154.92 L321.996 1153.25 L326.672 1153.25 L326.672 1183.88 L334.31 1183.88 L334.31 1187.81 L314.403 1187.81 L314.403 1183.88 Z" fill="#000000" fill-rule="nonzero" fill-opacity="1" /><path clip-path="url(#clip650)" d="M341 1172.93 L353.477 1172.93 L353.477 1176.72 L341 1176.72 L341 1172.93 Z" fill="#000000" fill-rule="nonzero" fill-opacity="1" /><path clip-path="url(#clip650)" d="M370.861 1156.33 Q367.25 1156.33 365.421 1159.89 Q363.616 1163.44 363.616 1170.57 Q363.616 1177.67 365.421 1181.24 Q367.25 1184.78 370.861 1184.78 Q374.495 1184.78 376.301 1181.24 Q378.13 1177.67 378.13 1170.57 Q378.13 1163.44 376.301 1159.89 Q374.495 1156.33 370.861 1156.33 M370.861 1152.63 Q376.671 1152.63 379.727 1157.23 Q382.805 1161.82 382.805 1170.57 Q382.805 1179.29 379.727 1183.9 Q376.671 1188.48 370.861 1188.48 Q365.051 1188.48 361.972 1183.9 Q358.917 1179.29 358.917 1170.57 Q358.917 1161.82 361.972 1157.23 Q365.051 1152.63 370.861 1152.63 Z" fill="#000000" fill-rule="nonzero" fill-opacity="1" /><path clip-path="url(#clip650)" d="M391.833 1183.88 L399.472 1183.88 L399.472 1157.51 L391.162 1159.18 L391.162 1154.92 L399.426 1153.25 L404.102 1153.25 L404.102 1183.88 L411.741 1183.88 L411.741 1187.81 L391.833 1187.81 L391.833 1183.88 Z" fill="#000000" fill-rule="nonzero" fill-opacity="1" /><path clip-path="url(#clip650)" d="M556.954 1183.88 L564.593 1183.88 L564.593 1157.51 L556.283 1159.18 L556.283 1154.92 L564.547 1153.25 L569.223 1153.25 L569.223 1183.88 L576.862 1183.88 L576.862 1187.81 L556.954 1187.81 L556.954 1183.88 Z" fill="#000000" fill-rule="nonzero" fill-opacity="1" /><path clip-path="url(#clip650)" d="M586.445 1187.09 L586.445 1182.83 Q588.204 1183.67 590.01 1184.11 Q591.815 1184.55 593.551 1184.55 Q598.181 1184.55 600.611 1181.45 Q603.065 1178.32 603.412 1171.98 Q602.07 1173.97 600.01 1175.03 Q597.949 1176.1 595.449 1176.1 Q590.264 1176.1 587.232 1172.97 Q584.223 1169.82 584.223 1164.38 Q584.223 1159.06 587.371 1155.84 Q590.519 1152.63 595.75 1152.63 Q601.746 1152.63 604.894 1157.23 Q608.065 1161.82 608.065 1170.57 Q608.065 1178.74 604.176 1183.62 Q600.311 1188.48 593.76 1188.48 Q592 1188.48 590.195 1188.13 Q588.389 1187.79 586.445 1187.09 M595.75 1172.44 Q598.899 1172.44 600.727 1170.29 Q602.579 1168.13 602.579 1164.38 Q602.579 1160.66 600.727 1158.51 Q598.899 1156.33 595.75 1156.33 Q592.602 1156.33 590.75 1158.51 Q588.922 1160.66 588.922 1164.38 Q588.922 1168.13 590.75 1170.29 Q592.602 1172.44 595.75 1172.44 Z" fill="#000000" fill-rule="nonzero" fill-opacity="1" /><path clip-path="url(#clip650)" d="M627.047 1168.67 Q623.898 1168.67 622.047 1170.82 Q620.218 1172.97 620.218 1176.72 Q620.218 1180.45 622.047 1182.63 Q623.898 1184.78 627.047 1184.78 Q630.195 1184.78 632.023 1182.63 Q633.875 1180.45 633.875 1176.72 Q633.875 1172.97 632.023 1170.82 Q630.195 1168.67 627.047 1168.67 M636.329 1154.01 L636.329 1158.27 Q634.57 1157.44 632.764 1157 Q630.982 1156.56 629.222 1156.56 Q624.593 1156.56 622.139 1159.69 Q619.709 1162.81 619.361 1169.13 Q620.727 1167.12 622.787 1166.05 Q624.847 1164.96 627.324 1164.96 Q632.533 1164.96 635.542 1168.13 Q638.574 1171.28 638.574 1176.72 Q638.574 1182.05 635.426 1185.26 Q632.278 1188.48 627.047 1188.48 Q621.051 1188.48 617.88 1183.9 Q614.709 1179.29 614.709 1170.57 Q614.709 1162.37 618.597 1157.51 Q622.486 1152.63 629.037 1152.63 Q630.796 1152.63 632.579 1152.97 Q634.384 1153.32 636.329 1154.01 Z" fill="#000000" fill-rule="nonzero" fill-opacity="1" /><path clip-path="url(#clip650)" d="M657.208 1168.67 Q654.06 1168.67 652.208 1170.82 Q650.38 1172.97 650.38 1176.72 Q650.38 1180.45 652.208 1182.63 Q654.06 1184.78 657.208 1184.78 Q660.357 1184.78 662.185 1182.63 Q664.037 1180.45 664.037 1176.72 Q664.037 1172.97 662.185 1170.82 Q660.357 1168.67 657.208 1168.67 M666.491 1154.01 L666.491 1158.27 Q664.731 1157.44 662.926 1157 Q661.144 1156.56 659.384 1156.56 Q654.755 1156.56 652.301 1159.69 Q649.87 1162.81 649.523 1169.13 Q650.889 1167.12 652.949 1166.05 Q655.009 1164.96 657.486 1164.96 Q662.694 1164.96 665.704 1168.13 Q668.736 1171.28 668.736 1176.72 Q668.736 1182.05 665.588 1185.26 Q662.44 1188.48 657.208 1188.48 Q651.213 1188.48 648.042 1183.9 Q644.87 1179.29 644.87 1170.57 Q644.87 1162.37 648.759 1157.51 Q652.648 1152.63 659.199 1152.63 Q660.958 1152.63 662.741 1152.97 Q664.546 1153.32 666.491 1154.01 Z" fill="#000000" fill-rule="nonzero" fill-opacity="1" /><path clip-path="url(#clip650)" d="M674.037 1172.93 L686.514 1172.93 L686.514 1176.72 L674.037 1176.72 L674.037 1172.93 Z" fill="#000000" fill-rule="nonzero" fill-opacity="1" /><path clip-path="url(#clip650)" d="M703.898 1156.33 Q700.287 1156.33 698.458 1159.89 Q696.653 1163.44 696.653 1170.57 Q696.653 1177.67 698.458 1181.24 Q700.287 1184.78 703.898 1184.78 Q707.532 1184.78 709.338 1181.24 Q711.166 1177.67 711.166 1170.57 Q711.166 1163.44 709.338 1159.89 Q707.532 1156.33 703.898 1156.33 M703.898 1152.63 Q709.708 1152.63 712.764 1157.23 Q715.842 1161.82 715.842 1170.57 Q715.842 1179.29 712.764 1183.9 Q709.708 1188.48 703.898 1188.48 Q698.088 1188.48 695.009 1183.9 Q691.954 1179.29 691.954 1170.57 Q691.954 1161.82 695.009 1157.23 Q698.088 1152.63 703.898 1152.63 Z" fill="#000000" fill-rule="nonzero" fill-opacity="1" /><path clip-path="url(#clip650)" d="M724.87 1183.88 L732.509 1183.88 L732.509 1157.51 L724.199 1159.18 L724.199 1154.92 L732.463 1153.25 L737.139 1153.25 L737.139 1183.88 L744.777 1183.88 L744.777 1187.81 L724.87 1187.81 L724.87 1183.88 Z" fill="#000000" fill-rule="nonzero" fill-opacity="1" /><path clip-path="url(#clip650)" d="M751.467 1172.93 L763.944 1172.93 L763.944 1176.72 L751.467 1176.72 L751.467 1172.93 Z" fill="#000000" fill-rule="nonzero" fill-opacity="1" /><path clip-path="url(#clip650)" d="M781.328 1156.33 Q777.717 1156.33 775.888 1159.89 Q774.083 1163.44 774.083 1170.57 Q774.083 1177.67 775.888 1181.24 Q777.717 1184.78 781.328 1184.78 Q784.962 1184.78 786.768 1181.24 Q788.597 1177.67 788.597 1170.57 Q788.597 1163.44 786.768 1159.89 Q784.962 1156.33 781.328 1156.33 M781.328 1152.63 Q787.138 1152.63 790.194 1157.23 Q793.272 1161.82 793.272 1170.57 Q793.272 1179.29 790.194 1183.9 Q787.138 1188.48 781.328 1188.48 Q775.518 1188.48 772.439 1183.9 Q769.384 1179.29 769.384 1170.57 Q769.384 1161.82 772.439 1157.23 Q775.518 1152.63 781.328 1152.63 Z" fill="#000000" fill-rule="nonzero" fill-opacity="1" /><path clip-path="url(#clip650)" d="M802.3 1183.88 L809.939 1183.88 L809.939 1157.51 L801.629 1159.18 L801.629 1154.92 L809.893 1153.25 L814.569 1153.25 L814.569 1183.88 L822.207 1183.88 L822.207 1187.81 L802.3 1187.81 L802.3 1183.88 Z" fill="#000000" fill-rule="nonzero" fill-opacity="1" /><path clip-path="url(#clip650)" d="M967.421 1183.88 L975.06 1183.88 L975.06 1157.51 L966.75 1159.18 L966.75 1154.92 L975.014 1153.25 L979.69 1153.25 L979.69 1183.88 L987.329 1183.88 L987.329 1187.81 L967.421 1187.81 L967.421 1183.88 Z" fill="#000000" fill-rule="nonzero" fill-opacity="1" /><path clip-path="url(#clip650)" d="M996.912 1187.09 L996.912 1182.83 Q998.671 1183.67 1000.48 1184.11 Q1002.28 1184.55 1004.02 1184.55 Q1008.65 1184.55 1011.08 1181.45 Q1013.53 1178.32 1013.88 1171.98 Q1012.54 1173.97 1010.48 1175.03 Q1008.42 1176.1 1005.92 1176.1 Q1000.73 1176.1 997.699 1172.97 Q994.69 1169.82 994.69 1164.38 Q994.69 1159.06 997.838 1155.84 Q1000.99 1152.63 1006.22 1152.63 Q1012.21 1152.63 1015.36 1157.23 Q1018.53 1161.82 1018.53 1170.57 Q1018.53 1178.74 1014.64 1183.62 Q1010.78 1188.48 1004.23 1188.48 Q1002.47 1188.48 1000.66 1188.13 Q998.856 1187.79 996.912 1187.09 M1006.22 1172.44 Q1009.37 1172.44 1011.19 1170.29 Q1013.05 1168.13 1013.05 1164.38 Q1013.05 1160.66 1011.19 1158.51 Q1009.37 1156.33 1006.22 1156.33 Q1003.07 1156.33 1001.22 1158.51 Q999.389 1160.66 999.389 1164.38 Q999.389 1168.13 1001.22 1170.29 Q1003.07 1172.44 1006.22 1172.44 Z" fill="#000000" fill-rule="nonzero" fill-opacity="1" /><path clip-path="url(#clip650)" d="M1036.93 1171.4 Q1033.6 1171.4 1031.68 1173.18 Q1029.78 1174.96 1029.78 1178.09 Q1029.78 1181.21 1031.68 1183 Q1033.6 1184.78 1036.93 1184.78 Q1040.27 1184.78 1042.19 1183 Q1044.11 1181.19 1044.11 1178.09 Q1044.11 1174.96 1042.19 1173.18 Q1040.29 1171.4 1036.93 1171.4 M1032.26 1169.41 Q1029.25 1168.67 1027.56 1166.61 Q1025.89 1164.55 1025.89 1161.58 Q1025.89 1157.44 1028.83 1155.03 Q1031.8 1152.63 1036.93 1152.63 Q1042.1 1152.63 1045.04 1155.03 Q1047.98 1157.44 1047.98 1161.58 Q1047.98 1164.55 1046.29 1166.61 Q1044.62 1168.67 1041.63 1169.41 Q1045.01 1170.2 1046.89 1172.49 Q1048.79 1174.78 1048.79 1178.09 Q1048.79 1183.11 1045.71 1185.8 Q1042.65 1188.48 1036.93 1188.48 Q1031.22 1188.48 1028.14 1185.8 Q1025.08 1183.11 1025.08 1178.09 Q1025.08 1174.78 1026.98 1172.49 Q1028.88 1170.2 1032.26 1169.41 M1030.55 1162.02 Q1030.55 1164.71 1032.21 1166.21 Q1033.9 1167.72 1036.93 1167.72 Q1039.94 1167.72 1041.63 1166.21 Q1043.35 1164.71 1043.35 1162.02 Q1043.35 1159.34 1041.63 1157.83 Q1039.94 1156.33 1036.93 1156.33 Q1033.9 1156.33 1032.21 1157.83 Q1030.55 1159.34 1030.55 1162.02 Z" fill="#000000" fill-rule="nonzero" fill-opacity="1" /><path clip-path="url(#clip650)" d="M1067.68 1168.67 Q1064.53 1168.67 1062.68 1170.82 Q1060.85 1172.97 1060.85 1176.72 Q1060.85 1180.45 1062.68 1182.63 Q1064.53 1184.78 1067.68 1184.78 Q1070.82 1184.78 1072.65 1182.63 Q1074.5 1180.45 1074.5 1176.72 Q1074.5 1172.97 1072.65 1170.82 Q1070.82 1168.67 1067.68 1168.67 M1076.96 1154.01 L1076.96 1158.27 Q1075.2 1157.44 1073.39 1157 Q1071.61 1156.56 1069.85 1156.56 Q1065.22 1156.56 1062.77 1159.69 Q1060.34 1162.81 1059.99 1169.13 Q1061.36 1167.12 1063.42 1166.05 Q1065.48 1164.96 1067.95 1164.96 Q1073.16 1164.96 1076.17 1168.13 Q1079.2 1171.28 1079.2 1176.72 Q1079.2 1182.05 1076.05 1185.26 Q1072.91 1188.48 1067.68 1188.48 Q1061.68 1188.48 1058.51 1183.9 Q1055.34 1179.29 1055.34 1170.57 Q1055.34 1162.37 1059.23 1157.51 Q1063.12 1152.63 1069.67 1152.63 Q1071.43 1152.63 1073.21 1152.97 Q1075.01 1153.32 1076.96 1154.01 Z" fill="#000000" fill-rule="nonzero" fill-opacity="1" /><path clip-path="url(#clip650)" d="M1084.5 1172.93 L1096.98 1172.93 L1096.98 1176.72 L1084.5 1176.72 L1084.5 1172.93 Z" fill="#000000" fill-rule="nonzero" fill-opacity="1" /><path clip-path="url(#clip650)" d="M1114.36 1156.33 Q1110.75 1156.33 1108.93 1159.89 Q1107.12 1163.44 1107.12 1170.57 Q1107.12 1177.67 1108.93 1181.24 Q1110.75 1184.78 1114.36 1184.78 Q1118 1184.78 1119.8 1181.24 Q1121.63 1177.67 1121.63 1170.57 Q1121.63 1163.44 1119.8 1159.89 Q1118 1156.33 1114.36 1156.33 M1114.36 1152.63 Q1120.18 1152.63 1123.23 1157.23 Q1126.31 1161.82 1126.31 1170.57 Q1126.31 1179.29 1123.23 1183.9 Q1120.18 1188.48 1114.36 1188.48 Q1108.55 1188.48 1105.48 1183.9 Q1102.42 1179.29 1102.42 1170.57 Q1102.42 1161.82 1105.48 1157.23 Q1108.55 1152.63 1114.36 1152.63 Z" fill="#000000" fill-rule="nonzero" fill-opacity="1" /><path clip-path="url(#clip650)" d="M1135.34 1183.88 L1142.98 1183.88 L1142.98 1157.51 L1134.67 1159.18 L1134.67 1154.92 L1142.93 1153.25 L1147.61 1153.25 L1147.61 1183.88 L1155.24 1183.88 L1155.24 1187.81 L1135.34 1187.81 L1135.34 1183.88 Z" fill="#000000" fill-rule="nonzero" fill-opacity="1" /><path clip-path="url(#clip650)" d="M1161.93 1172.93 L1174.41 1172.93 L1174.41 1176.72 L1161.93 1176.72 L1161.93 1172.93 Z" fill="#000000" fill-rule="nonzero" fill-opacity="1" /><path clip-path="url(#clip650)" d="M1191.8 1156.33 Q1188.18 1156.33 1186.36 1159.89 Q1184.55 1163.44 1184.55 1170.57 Q1184.55 1177.67 1186.36 1181.24 Q1188.18 1184.78 1191.8 1184.78 Q1195.43 1184.78 1197.23 1181.24 Q1199.06 1177.67 1199.06 1170.57 Q1199.06 1163.44 1197.23 1159.89 Q1195.43 1156.33 1191.8 1156.33 M1191.8 1152.63 Q1197.61 1152.63 1200.66 1157.23 Q1203.74 1161.82 1203.74 1170.57 Q1203.74 1179.29 1200.66 1183.9 Q1197.61 1188.48 1191.8 1188.48 Q1185.98 1188.48 1182.91 1183.9 Q1179.85 1179.29 1179.85 1170.57 Q1179.85 1161.82 1182.91 1157.23 Q1185.98 1152.63 1191.8 1152.63 Z" fill="#000000" fill-rule="nonzero" fill-opacity="1" /><path clip-path="url(#clip650)" d="M1212.77 1183.88 L1220.41 1183.88 L1220.41 1157.51 L1212.1 1159.18 L1212.1 1154.92 L1220.36 1153.25 L1225.04 1153.25 L1225.04 1183.88 L1232.67 1183.88 L1232.67 1187.81 L1212.77 1187.81 L1212.77 1183.88 Z" fill="#000000" fill-rule="nonzero" fill-opacity="1" /><path clip-path="url(#clip650)" d="M1381.97 1183.88 L1398.29 1183.88 L1398.29 1187.81 L1376.35 1187.81 L1376.35 1183.88 Q1379.01 1181.12 1383.59 1176.49 Q1388.2 1171.84 1389.38 1170.5 Q1391.63 1167.97 1392.51 1166.24 Q1393.41 1164.48 1393.41 1162.79 Q1393.41 1160.03 1391.46 1158.3 Q1389.54 1156.56 1386.44 1156.56 Q1384.24 1156.56 1381.79 1157.32 Q1379.36 1158.09 1376.58 1159.64 L1376.58 1154.92 Q1379.4 1153.78 1381.86 1153.2 Q1384.31 1152.63 1386.35 1152.63 Q1391.72 1152.63 1394.91 1155.31 Q1398.11 1158 1398.11 1162.49 Q1398.11 1164.62 1397.3 1166.54 Q1396.51 1168.44 1394.4 1171.03 Q1393.83 1171.7 1390.72 1174.92 Q1387.62 1178.11 1381.97 1183.88 Z" fill="#000000" fill-rule="nonzero" fill-opacity="1" /><path clip-path="url(#clip650)" d="M1418.11 1156.33 Q1414.5 1156.33 1412.67 1159.89 Q1410.86 1163.44 1410.86 1170.57 Q1410.86 1177.67 1412.67 1181.24 Q1414.5 1184.78 1418.11 1184.78 Q1421.74 1184.78 1423.55 1181.24 Q1425.38 1177.67 1425.38 1170.57 Q1425.38 1163.44 1423.55 1159.89 Q1421.74 1156.33 1418.11 1156.33 M1418.11 1152.63 Q1423.92 1152.63 1426.97 1157.23 Q1430.05 1161.82 1430.05 1170.57 Q1430.05 1179.29 1426.97 1183.9 Q1423.92 1188.48 1418.11 1188.48 Q1412.3 1188.48 1409.22 1183.9 Q1406.16 1179.29 1406.16 1170.57 Q1406.16 1161.82 1409.22 1157.23 Q1412.3 1152.63 1418.11 1152.63 Z" fill="#000000" fill-rule="nonzero" fill-opacity="1" /><path clip-path="url(#clip650)" d="M1448.27 1156.33 Q1444.66 1156.33 1442.83 1159.89 Q1441.02 1163.44 1441.02 1170.57 Q1441.02 1177.67 1442.83 1181.24 Q1444.66 1184.78 1448.27 1184.78 Q1451.9 1184.78 1453.71 1181.24 Q1455.54 1177.67 1455.54 1170.57 Q1455.54 1163.44 1453.71 1159.89 Q1451.9 1156.33 1448.27 1156.33 M1448.27 1152.63 Q1454.08 1152.63 1457.14 1157.23 Q1460.21 1161.82 1460.21 1170.57 Q1460.21 1179.29 1457.14 1183.9 Q1454.08 1188.48 1448.27 1188.48 Q1442.46 1188.48 1439.38 1183.9 Q1436.33 1179.29 1436.33 1170.57 Q1436.33 1161.82 1439.38 1157.23 Q1442.46 1152.63 1448.27 1152.63 Z" fill="#000000" fill-rule="nonzero" fill-opacity="1" /><path clip-path="url(#clip650)" d="M1479.01 1168.67 Q1475.86 1168.67 1474.01 1170.82 Q1472.18 1172.97 1472.18 1176.72 Q1472.18 1180.45 1474.01 1182.63 Q1475.86 1184.78 1479.01 1184.78 Q1482.16 1184.78 1483.99 1182.63 Q1485.84 1180.45 1485.84 1176.72 Q1485.84 1172.97 1483.99 1170.82 Q1482.16 1168.67 1479.01 1168.67 M1488.29 1154.01 L1488.29 1158.27 Q1486.53 1157.44 1484.73 1157 Q1482.95 1156.56 1481.19 1156.56 Q1476.56 1156.56 1474.1 1159.69 Q1471.67 1162.81 1471.33 1169.13 Q1472.69 1167.12 1474.75 1166.05 Q1476.81 1164.96 1479.29 1164.96 Q1484.5 1164.96 1487.51 1168.13 Q1490.54 1171.28 1490.54 1176.72 Q1490.54 1182.05 1487.39 1185.26 Q1484.24 1188.48 1479.01 1188.48 Q1473.02 1188.48 1469.84 1183.9 Q1466.67 1179.29 1466.67 1170.57 Q1466.67 1162.37 1470.56 1157.51 Q1474.45 1152.63 1481 1152.63 Q1482.76 1152.63 1484.54 1152.97 Q1486.35 1153.32 1488.29 1154.01 Z" fill="#000000" fill-rule="nonzero" fill-opacity="1" /><path clip-path="url(#clip650)" d="M1495.84 1172.93 L1508.32 1172.93 L1508.32 1176.72 L1495.84 1176.72 L1495.84 1172.93 Z" fill="#000000" fill-rule="nonzero" fill-opacity="1" /><path clip-path="url(#clip650)" d="M1525.7 1156.33 Q1522.09 1156.33 1520.26 1159.89 Q1518.45 1163.44 1518.45 1170.57 Q1518.45 1177.67 1520.26 1181.24 Q1522.09 1184.78 1525.7 1184.78 Q1529.33 1184.78 1531.14 1181.24 Q1532.97 1177.67 1532.97 1170.57 Q1532.97 1163.44 1531.14 1159.89 Q1529.33 1156.33 1525.7 1156.33 M1525.7 1152.63 Q1531.51 1152.63 1534.57 1157.23 Q1537.64 1161.82 1537.64 1170.57 Q1537.64 1179.29 1534.57 1183.9 Q1531.51 1188.48 1525.7 1188.48 Q1519.89 1188.48 1516.81 1183.9 Q1513.76 1179.29 1513.76 1170.57 Q1513.76 1161.82 1516.81 1157.23 Q1519.89 1152.63 1525.7 1152.63 Z" fill="#000000" fill-rule="nonzero" fill-opacity="1" /><path clip-path="url(#clip650)" d="M1546.67 1183.88 L1554.31 1183.88 L1554.31 1157.51 L1546 1159.18 L1546 1154.92 L1554.26 1153.25 L1558.94 1153.25 L1558.94 1183.88 L1566.58 1183.88 L1566.58 1187.81 L1546.67 1187.81 L1546.67 1183.88 Z" fill="#000000" fill-rule="nonzero" fill-opacity="1" /><path clip-path="url(#clip650)" d="M1573.27 1172.93 L1585.75 1172.93 L1585.75 1176.72 L1573.27 1176.72 L1573.27 1172.93 Z" fill="#000000" fill-rule="nonzero" fill-opacity="1" /><path clip-path="url(#clip650)" d="M1603.13 1156.33 Q1599.52 1156.33 1597.69 1159.89 Q1595.88 1163.44 1595.88 1170.57 Q1595.88 1177.67 1597.69 1181.24 Q1599.52 1184.78 1603.13 1184.78 Q1606.76 1184.78 1608.57 1181.24 Q1610.4 1177.67 1610.4 1170.57 Q1610.4 1163.44 1608.57 1159.89 Q1606.76 1156.33 1603.13 1156.33 M1603.13 1152.63 Q1608.94 1152.63 1612 1157.23 Q1615.07 1161.82 1615.07 1170.57 Q1615.07 1179.29 1612 1183.9 Q1608.94 1188.48 1603.13 1188.48 Q1597.32 1188.48 1594.24 1183.9 Q1591.19 1179.29 1591.19 1170.57 Q1591.19 1161.82 1594.24 1157.23 Q1597.32 1152.63 1603.13 1152.63 Z" fill="#000000" fill-rule="nonzero" fill-opacity="1" /><path clip-path="url(#clip650)" d="M1624.1 1183.88 L1631.74 1183.88 L1631.74 1157.51 L1623.43 1159.18 L1623.43 1154.92 L1631.69 1153.25 L1636.37 1153.25 L1636.37 1183.88 L1644.01 1183.88 L1644.01 1187.81 L1624.1 1187.81 L1624.1 1183.88 Z" fill="#000000" fill-rule="nonzero" fill-opacity="1" /><path clip-path="url(#clip650)" d="M1792.44 1183.88 L1808.76 1183.88 L1808.76 1187.81 L1786.82 1187.81 L1786.82 1183.88 Q1789.48 1181.12 1794.06 1176.49 Q1798.67 1171.84 1799.85 1170.5 Q1802.09 1167.97 1802.97 1166.24 Q1803.88 1164.48 1803.88 1162.79 Q1803.88 1160.03 1801.93 1158.3 Q1800.01 1156.56 1796.91 1156.56 Q1794.71 1156.56 1792.26 1157.32 Q1789.83 1158.09 1787.05 1159.64 L1787.05 1154.92 Q1789.87 1153.78 1792.33 1153.2 Q1794.78 1152.63 1796.82 1152.63 Q1802.19 1152.63 1805.38 1155.31 Q1808.58 1158 1808.58 1162.49 Q1808.58 1164.62 1807.76 1166.54 Q1806.98 1168.44 1804.87 1171.03 Q1804.29 1171.7 1801.19 1174.92 Q1798.09 1178.11 1792.44 1183.88 Z" fill="#000000" fill-rule="nonzero" fill-opacity="1" /><path clip-path="url(#clip650)" d="M1828.57 1156.33 Q1824.96 1156.33 1823.14 1159.89 Q1821.33 1163.44 1821.33 1170.57 Q1821.33 1177.67 1823.14 1181.24 Q1824.96 1184.78 1828.57 1184.78 Q1832.21 1184.78 1834.01 1181.24 Q1835.84 1177.67 1835.84 1170.57 Q1835.84 1163.44 1834.01 1159.89 Q1832.21 1156.33 1828.57 1156.33 M1828.57 1152.63 Q1834.39 1152.63 1837.44 1157.23 Q1840.52 1161.82 1840.52 1170.57 Q1840.52 1179.29 1837.44 1183.9 Q1834.39 1188.48 1828.57 1188.48 Q1822.76 1188.48 1819.69 1183.9 Q1816.63 1179.29 1816.63 1170.57 Q1816.63 1161.82 1819.69 1157.23 Q1822.76 1152.63 1828.57 1152.63 Z" fill="#000000" fill-rule="nonzero" fill-opacity="1" /><path clip-path="url(#clip650)" d="M1852.76 1183.88 L1869.08 1183.88 L1869.08 1187.81 L1847.14 1187.81 L1847.14 1183.88 Q1849.8 1181.12 1854.38 1176.49 Q1858.99 1171.84 1860.17 1170.5 Q1862.42 1167.97 1863.3 1166.24 Q1864.2 1164.48 1864.2 1162.79 Q1864.2 1160.03 1862.26 1158.3 Q1860.33 1156.56 1857.23 1156.56 Q1855.03 1156.56 1852.58 1157.32 Q1850.15 1158.09 1847.37 1159.64 L1847.37 1154.92 Q1850.2 1153.78 1852.65 1153.2 Q1855.1 1152.63 1857.14 1152.63 Q1862.51 1152.63 1865.7 1155.31 Q1868.9 1158 1868.9 1162.49 Q1868.9 1164.62 1868.09 1166.54 Q1867.3 1168.44 1865.2 1171.03 Q1864.62 1171.7 1861.51 1174.92 Q1858.41 1178.11 1852.76 1183.88 Z" fill="#000000" fill-rule="nonzero" fill-opacity="1" /><path clip-path="url(#clip650)" d="M1889.48 1168.67 Q1886.33 1168.67 1884.48 1170.82 Q1882.65 1172.97 1882.65 1176.72 Q1882.65 1180.45 1884.48 1182.63 Q1886.33 1184.78 1889.48 1184.78 Q1892.63 1184.78 1894.45 1182.63 Q1896.31 1180.45 1896.31 1176.72 Q1896.31 1172.97 1894.45 1170.82 Q1892.63 1168.67 1889.48 1168.67 M1898.76 1154.01 L1898.76 1158.27 Q1897 1157.44 1895.19 1157 Q1893.41 1156.56 1891.65 1156.56 Q1887.02 1156.56 1884.57 1159.69 Q1882.14 1162.81 1881.79 1169.13 Q1883.16 1167.12 1885.22 1166.05 Q1887.28 1164.96 1889.76 1164.96 Q1894.96 1164.96 1897.97 1168.13 Q1901.01 1171.28 1901.01 1176.72 Q1901.01 1182.05 1897.86 1185.26 Q1894.71 1188.48 1889.48 1188.48 Q1883.48 1188.48 1880.31 1183.9 Q1877.14 1179.29 1877.14 1170.57 Q1877.14 1162.37 1881.03 1157.51 Q1884.92 1152.63 1891.47 1152.63 Q1893.23 1152.63 1895.01 1152.97 Q1896.82 1153.32 1898.76 1154.01 Z" fill="#000000" fill-rule="nonzero" fill-opacity="1" /><path clip-path="url(#clip650)" d="M1906.31 1172.93 L1918.78 1172.93 L1918.78 1176.72 L1906.31 1176.72 L1906.31 1172.93 Z" fill="#000000" fill-rule="nonzero" fill-opacity="1" /><path clip-path="url(#clip650)" d="M1936.17 1156.33 Q1932.56 1156.33 1930.73 1159.89 Q1928.92 1163.44 1928.92 1170.57 Q1928.92 1177.67 1930.73 1181.24 Q1932.56 1184.78 1936.17 1184.78 Q1939.8 1184.78 1941.61 1181.24 Q1943.44 1177.67 1943.44 1170.57 Q1943.44 1163.44 1941.61 1159.89 Q1939.8 1156.33 1936.17 1156.33 M1936.17 1152.63 Q1941.98 1152.63 1945.03 1157.23 Q1948.11 1161.82 1948.11 1170.57 Q1948.11 1179.29 1945.03 1183.9 Q1941.98 1188.48 1936.17 1188.48 Q1930.36 1188.48 1927.28 1183.9 Q1924.22 1179.29 1924.22 1170.57 Q1924.22 1161.82 1927.28 1157.23 Q1930.36 1152.63 1936.17 1152.63 Z" fill="#000000" fill-rule="nonzero" fill-opacity="1" /><path clip-path="url(#clip650)" d="M1957.14 1183.88 L1964.78 1183.88 L1964.78 1157.51 L1956.47 1159.18 L1956.47 1154.92 L1964.73 1153.25 L1969.41 1153.25 L1969.41 1183.88 L1977.05 1183.88 L1977.05 1187.81 L1957.14 1187.81 L1957.14 1183.88 Z" fill="#000000" fill-rule="nonzero" fill-opacity="1" /><path clip-path="url(#clip650)" d="M1983.74 1172.93 L1996.21 1172.93 L1996.21 1176.72 L1983.74 1176.72 L1983.74 1172.93 Z" fill="#000000" fill-rule="nonzero" fill-opacity="1" /><path clip-path="url(#clip650)" d="M2013.6 1156.33 Q2009.99 1156.33 2008.16 1159.89 Q2006.35 1163.44 2006.35 1170.57 Q2006.35 1177.67 2008.16 1181.24 Q2009.99 1184.78 2013.6 1184.78 Q2017.23 1184.78 2019.04 1181.24 Q2020.87 1177.67 2020.87 1170.57 Q2020.87 1163.44 2019.04 1159.89 Q2017.23 1156.33 2013.6 1156.33 M2013.6 1152.63 Q2019.41 1152.63 2022.46 1157.23 Q2025.54 1161.82 2025.54 1170.57 Q2025.54 1179.29 2022.46 1183.9 Q2019.41 1188.48 2013.6 1188.48 Q2007.79 1188.48 2004.71 1183.9 Q2001.65 1179.29 2001.65 1170.57 Q2001.65 1161.82 2004.71 1157.23 Q2007.79 1152.63 2013.6 1152.63 Z" fill="#000000" fill-rule="nonzero" fill-opacity="1" /><path clip-path="url(#clip650)" d="M2034.57 1183.88 L2042.21 1183.88 L2042.21 1157.51 L2033.9 1159.18 L2033.9 1154.92 L2042.16 1153.25 L2046.84 1153.25 L2046.84 1183.88 L2054.48 1183.88 L2054.48 1187.81 L2034.57 1187.81 L2034.57 1183.88 Z" fill="#000000" fill-rule="nonzero" fill-opacity="1" /><polyline clip-path="url(#clip650)" style="stroke:#000000; stroke-linecap:round; stroke-linejoin:round; stroke-width:4; stroke-opacity:1; fill:none" points="272.235,1128.61 272.235,47.2441 "/>
<polyline clip-path="url(#clip650)" style="stroke:#000000; stroke-linecap:round; stroke-linejoin:round; stroke-width:4; stroke-opacity:1; fill:none" points="272.235,1087.8 291.133,1087.8 "/>
<polyline clip-path="url(#clip650)" style="stroke:#000000; stroke-linecap:round; stroke-linejoin:round; stroke-width:4; stroke-opacity:1; fill:none" points="272.235,875.875 291.133,875.875 "/>
<polyline clip-path="url(#clip650)" style="stroke:#000000; stroke-linecap:round; stroke-linejoin:round; stroke-width:4; stroke-opacity:1; fill:none" points="272.235,663.953 291.133,663.953 "/>
<polyline clip-path="url(#clip650)" style="stroke:#000000; stroke-linecap:round; stroke-linejoin:round; stroke-width:4; stroke-opacity:1; fill:none" points="272.235,452.032 291.133,452.032 "/>
<polyline clip-path="url(#clip650)" style="stroke:#000000; stroke-linecap:round; stroke-linejoin:round; stroke-width:4; stroke-opacity:1; fill:none" points="272.235,240.11 291.133,240.11 "/>
<path clip-path="url(#clip650)" d="M125.731 1073.6 Q122.12 1073.6 120.291 1077.16 Q118.486 1080.7 118.486 1087.83 Q118.486 1094.94 120.291 1098.5 Q122.12 1102.04 125.731 1102.04 Q129.365 1102.04 131.171 1098.5 Q132.999 1094.94 132.999 1087.83 Q132.999 1080.7 131.171 1077.16 Q129.365 1073.6 125.731 1073.6 M125.731 1069.89 Q131.541 1069.89 134.597 1074.5 Q137.675 1079.08 137.675 1087.83 Q137.675 1096.56 134.597 1101.16 Q131.541 1105.75 125.731 1105.75 Q119.921 1105.75 116.842 1101.16 Q113.787 1096.56 113.787 1087.83 Q113.787 1079.08 116.842 1074.5 Q119.921 1069.89 125.731 1069.89 Z" fill="#000000" fill-rule="nonzero" fill-opacity="1" /><path clip-path="url(#clip650)" d="M145.893 1099.2 L150.777 1099.2 L150.777 1105.08 L145.893 1105.08 L145.893 1099.2 Z" fill="#000000" fill-rule="nonzero" fill-opacity="1" /><path clip-path="url(#clip650)" d="M161.009 1070.52 L179.365 1070.52 L179.365 1074.45 L165.291 1074.45 L165.291 1082.92 Q166.309 1082.58 167.328 1082.41 Q168.346 1082.23 169.365 1082.23 Q175.152 1082.23 178.532 1085.4 Q181.911 1088.57 181.911 1093.99 Q181.911 1099.57 178.439 1102.67 Q174.967 1105.75 168.647 1105.75 Q166.471 1105.75 164.203 1105.38 Q161.958 1105.01 159.55 1104.27 L159.55 1099.57 Q161.634 1100.7 163.856 1101.26 Q166.078 1101.81 168.555 1101.81 Q172.559 1101.81 174.897 1099.71 Q177.235 1097.6 177.235 1093.99 Q177.235 1090.38 174.897 1088.27 Q172.559 1086.16 168.555 1086.16 Q166.68 1086.16 164.805 1086.58 Q162.953 1087 161.009 1087.88 L161.009 1070.52 Z" fill="#000000" fill-rule="nonzero" fill-opacity="1" /><path clip-path="url(#clip650)" d="M189.944 1070.52 L212.166 1070.52 L212.166 1072.51 L199.619 1105.08 L194.735 1105.08 L206.541 1074.45 L189.944 1074.45 L189.944 1070.52 Z" fill="#000000" fill-rule="nonzero" fill-opacity="1" /><path clip-path="url(#clip650)" d="M221.332 1070.52 L239.689 1070.52 L239.689 1074.45 L225.615 1074.45 L225.615 1082.92 Q226.633 1082.58 227.652 1082.41 Q228.67 1082.23 229.689 1082.23 Q235.476 1082.23 238.855 1085.4 Q242.235 1088.57 242.235 1093.99 Q242.235 1099.57 238.763 1102.67 Q235.291 1105.75 228.971 1105.75 Q226.795 1105.75 224.527 1105.38 Q222.281 1105.01 219.874 1104.27 L219.874 1099.57 Q221.957 1100.7 224.179 1101.26 Q226.402 1101.81 228.879 1101.81 Q232.883 1101.81 235.221 1099.71 Q237.559 1097.6 237.559 1093.99 Q237.559 1090.38 235.221 1088.27 Q232.883 1086.16 228.879 1086.16 Q227.004 1086.16 225.129 1086.58 Q223.277 1087 221.332 1087.88 L221.332 1070.52 Z" fill="#000000" fill-rule="nonzero" fill-opacity="1" /><path clip-path="url(#clip650)" d="M124.736 861.674 Q121.124 861.674 119.296 865.238 Q117.49 868.78 117.49 875.91 Q117.49 883.016 119.296 886.581 Q121.124 890.122 124.736 890.122 Q128.37 890.122 130.175 886.581 Q132.004 883.016 132.004 875.91 Q132.004 868.78 130.175 865.238 Q128.37 861.674 124.736 861.674 M124.736 857.97 Q130.546 857.97 133.601 862.576 Q136.68 867.16 136.68 875.91 Q136.68 884.636 133.601 889.243 Q130.546 893.826 124.736 893.826 Q118.925 893.826 115.847 889.243 Q112.791 884.636 112.791 875.91 Q112.791 867.16 115.847 862.576 Q118.925 857.97 124.736 857.97 Z" fill="#000000" fill-rule="nonzero" fill-opacity="1" /><path clip-path="url(#clip650)" d="M144.898 887.275 L149.782 887.275 L149.782 893.155 L144.898 893.155 L144.898 887.275 Z" fill="#000000" fill-rule="nonzero" fill-opacity="1" /><path clip-path="url(#clip650)" d="M170.546 874.011 Q167.397 874.011 165.546 876.164 Q163.717 878.317 163.717 882.067 Q163.717 885.794 165.546 887.97 Q167.397 890.122 170.546 890.122 Q173.694 890.122 175.522 887.97 Q177.374 885.794 177.374 882.067 Q177.374 878.317 175.522 876.164 Q173.694 874.011 170.546 874.011 M179.828 859.359 L179.828 863.618 Q178.069 862.785 176.263 862.345 Q174.481 861.905 172.721 861.905 Q168.092 861.905 165.638 865.03 Q163.208 868.155 162.86 874.474 Q164.226 872.461 166.286 871.396 Q168.346 870.308 170.823 870.308 Q176.032 870.308 179.041 873.479 Q182.073 876.627 182.073 882.067 Q182.073 887.391 178.925 890.609 Q175.777 893.826 170.546 893.826 Q164.55 893.826 161.379 889.243 Q158.208 884.636 158.208 875.91 Q158.208 867.715 162.096 862.854 Q165.985 857.97 172.536 857.97 Q174.295 857.97 176.078 858.317 Q177.883 858.664 179.828 859.359 Z" fill="#000000" fill-rule="nonzero" fill-opacity="1" /><path clip-path="url(#clip650)" d="M200.129 861.674 Q196.518 861.674 194.689 865.238 Q192.883 868.78 192.883 875.91 Q192.883 883.016 194.689 886.581 Q196.518 890.122 200.129 890.122 Q203.763 890.122 205.568 886.581 Q207.397 883.016 207.397 875.91 Q207.397 868.78 205.568 865.238 Q203.763 861.674 200.129 861.674 M200.129 857.97 Q205.939 857.97 208.994 862.576 Q212.073 867.16 212.073 875.91 Q212.073 884.636 208.994 889.243 Q205.939 893.826 200.129 893.826 Q194.319 893.826 191.24 889.243 Q188.184 884.636 188.184 875.91 Q188.184 867.16 191.24 862.576 Q194.319 857.97 200.129 857.97 Z" fill="#000000" fill-rule="nonzero" fill-opacity="1" /><path clip-path="url(#clip650)" d="M230.291 861.674 Q226.679 861.674 224.851 865.238 Q223.045 868.78 223.045 875.91 Q223.045 883.016 224.851 886.581 Q226.679 890.122 230.291 890.122 Q233.925 890.122 235.73 886.581 Q237.559 883.016 237.559 875.91 Q237.559 868.78 235.73 865.238 Q233.925 861.674 230.291 861.674 M230.291 857.97 Q236.101 857.97 239.156 862.576 Q242.235 867.16 242.235 875.91 Q242.235 884.636 239.156 889.243 Q236.101 893.826 230.291 893.826 Q224.48 893.826 221.402 889.243 Q218.346 884.636 218.346 875.91 Q218.346 867.16 221.402 862.576 Q224.48 857.97 230.291 857.97 Z" fill="#000000" fill-rule="nonzero" fill-opacity="1" /><path clip-path="url(#clip650)" d="M125.731 649.752 Q122.12 649.752 120.291 653.317 Q118.486 656.858 118.486 663.988 Q118.486 671.094 120.291 674.659 Q122.12 678.201 125.731 678.201 Q129.365 678.201 131.171 674.659 Q132.999 671.094 132.999 663.988 Q132.999 656.858 131.171 653.317 Q129.365 649.752 125.731 649.752 M125.731 646.048 Q131.541 646.048 134.597 650.655 Q137.675 655.238 137.675 663.988 Q137.675 672.715 134.597 677.321 Q131.541 681.904 125.731 681.904 Q119.921 681.904 116.842 677.321 Q113.787 672.715 113.787 663.988 Q113.787 655.238 116.842 650.655 Q119.921 646.048 125.731 646.048 Z" fill="#000000" fill-rule="nonzero" fill-opacity="1" /><path clip-path="url(#clip650)" d="M145.893 675.354 L150.777 675.354 L150.777 681.233 L145.893 681.233 L145.893 675.354 Z" fill="#000000" fill-rule="nonzero" fill-opacity="1" /><path clip-path="url(#clip650)" d="M171.541 662.09 Q168.393 662.09 166.541 664.243 Q164.712 666.395 164.712 670.145 Q164.712 673.872 166.541 676.048 Q168.393 678.201 171.541 678.201 Q174.689 678.201 176.518 676.048 Q178.37 673.872 178.37 670.145 Q178.37 666.395 176.518 664.243 Q174.689 662.09 171.541 662.09 M180.823 647.437 L180.823 651.696 Q179.064 650.863 177.258 650.423 Q175.476 649.983 173.717 649.983 Q169.087 649.983 166.634 653.108 Q164.203 656.233 163.856 662.553 Q165.221 660.539 167.282 659.474 Q169.342 658.386 171.819 658.386 Q177.027 658.386 180.036 661.557 Q183.069 664.706 183.069 670.145 Q183.069 675.469 179.92 678.687 Q176.772 681.904 171.541 681.904 Q165.546 681.904 162.374 677.321 Q159.203 672.715 159.203 663.988 Q159.203 655.794 163.092 650.932 Q166.981 646.048 173.532 646.048 Q175.291 646.048 177.073 646.395 Q178.879 646.743 180.823 647.437 Z" fill="#000000" fill-rule="nonzero" fill-opacity="1" /><path clip-path="url(#clip650)" d="M195.152 677.298 L211.471 677.298 L211.471 681.233 L189.527 681.233 L189.527 677.298 Q192.189 674.543 196.772 669.914 Q201.379 665.261 202.559 663.918 Q204.805 661.395 205.684 659.659 Q206.587 657.9 206.587 656.21 Q206.587 653.456 204.643 651.719 Q202.721 649.983 199.619 649.983 Q197.42 649.983 194.967 650.747 Q192.536 651.511 189.758 653.062 L189.758 648.34 Q192.582 647.206 195.036 646.627 Q197.49 646.048 199.527 646.048 Q204.897 646.048 208.092 648.733 Q211.286 651.419 211.286 655.909 Q211.286 658.039 210.476 659.96 Q209.689 661.858 207.582 664.451 Q207.004 665.122 203.902 668.34 Q200.8 671.534 195.152 677.298 Z" fill="#000000" fill-rule="nonzero" fill-opacity="1" /><path clip-path="url(#clip650)" d="M221.332 646.673 L239.689 646.673 L239.689 650.608 L225.615 650.608 L225.615 659.081 Q226.633 658.733 227.652 658.571 Q228.67 658.386 229.689 658.386 Q235.476 658.386 238.855 661.557 Q242.235 664.729 242.235 670.145 Q242.235 675.724 238.763 678.826 Q235.291 681.904 228.971 681.904 Q226.795 681.904 224.527 681.534 Q222.281 681.164 219.874 680.423 L219.874 675.724 Q221.957 676.858 224.179 677.414 Q226.402 677.969 228.879 677.969 Q232.883 677.969 235.221 675.863 Q237.559 673.756 237.559 670.145 Q237.559 666.534 235.221 664.428 Q232.883 662.321 228.879 662.321 Q227.004 662.321 225.129 662.738 Q223.277 663.155 221.332 664.034 L221.332 646.673 Z" fill="#000000" fill-rule="nonzero" fill-opacity="1" /><path clip-path="url(#clip650)" d="M124.736 437.83 Q121.124 437.83 119.296 441.395 Q117.49 444.937 117.49 452.066 Q117.49 459.173 119.296 462.738 Q121.124 466.279 124.736 466.279 Q128.37 466.279 130.175 462.738 Q132.004 459.173 132.004 452.066 Q132.004 444.937 130.175 441.395 Q128.37 437.83 124.736 437.83 M124.736 434.127 Q130.546 434.127 133.601 438.733 Q136.68 443.316 136.68 452.066 Q136.68 460.793 133.601 465.4 Q130.546 469.983 124.736 469.983 Q118.925 469.983 115.847 465.4 Q112.791 460.793 112.791 452.066 Q112.791 443.316 115.847 438.733 Q118.925 434.127 124.736 434.127 Z" fill="#000000" fill-rule="nonzero" fill-opacity="1" /><path clip-path="url(#clip650)" d="M144.898 463.432 L149.782 463.432 L149.782 469.312 L144.898 469.312 L144.898 463.432 Z" fill="#000000" fill-rule="nonzero" fill-opacity="1" /><path clip-path="url(#clip650)" d="M170.546 450.168 Q167.397 450.168 165.546 452.321 Q163.717 454.474 163.717 458.224 Q163.717 461.95 165.546 464.126 Q167.397 466.279 170.546 466.279 Q173.694 466.279 175.522 464.126 Q177.374 461.95 177.374 458.224 Q177.374 454.474 175.522 452.321 Q173.694 450.168 170.546 450.168 M179.828 435.515 L179.828 439.775 Q178.069 438.941 176.263 438.502 Q174.481 438.062 172.721 438.062 Q168.092 438.062 165.638 441.187 Q163.208 444.312 162.86 450.631 Q164.226 448.617 166.286 447.552 Q168.346 446.464 170.823 446.464 Q176.032 446.464 179.041 449.636 Q182.073 452.784 182.073 458.224 Q182.073 463.548 178.925 466.765 Q175.777 469.983 170.546 469.983 Q164.55 469.983 161.379 465.4 Q158.208 460.793 158.208 452.066 Q158.208 443.872 162.096 439.011 Q165.985 434.127 172.536 434.127 Q174.295 434.127 176.078 434.474 Q177.883 434.821 179.828 435.515 Z" fill="#000000" fill-rule="nonzero" fill-opacity="1" /><path clip-path="url(#clip650)" d="M190.175 434.752 L208.531 434.752 L208.531 438.687 L194.457 438.687 L194.457 447.159 Q195.476 446.812 196.494 446.65 Q197.513 446.464 198.531 446.464 Q204.318 446.464 207.698 449.636 Q211.078 452.807 211.078 458.224 Q211.078 463.802 207.606 466.904 Q204.133 469.983 197.814 469.983 Q195.638 469.983 193.369 469.612 Q191.124 469.242 188.717 468.501 L188.717 463.802 Q190.8 464.937 193.022 465.492 Q195.244 466.048 197.721 466.048 Q201.726 466.048 204.064 463.941 Q206.402 461.835 206.402 458.224 Q206.402 454.613 204.064 452.506 Q201.726 450.4 197.721 450.4 Q195.846 450.4 193.971 450.816 Q192.119 451.233 190.175 452.113 L190.175 434.752 Z" fill="#000000" fill-rule="nonzero" fill-opacity="1" /><path clip-path="url(#clip650)" d="M230.291 437.83 Q226.679 437.83 224.851 441.395 Q223.045 444.937 223.045 452.066 Q223.045 459.173 224.851 462.738 Q226.679 466.279 230.291 466.279 Q233.925 466.279 235.73 462.738 Q237.559 459.173 237.559 452.066 Q237.559 444.937 235.73 441.395 Q233.925 437.83 230.291 437.83 M230.291 434.127 Q236.101 434.127 239.156 438.733 Q242.235 443.316 242.235 452.066 Q242.235 460.793 239.156 465.4 Q236.101 469.983 230.291 469.983 Q224.48 469.983 221.402 465.4 Q218.346 460.793 218.346 452.066 Q218.346 443.316 221.402 438.733 Q224.48 434.127 230.291 434.127 Z" fill="#000000" fill-rule="nonzero" fill-opacity="1" /><path clip-path="url(#clip650)" d="M125.731 225.909 Q122.12 225.909 120.291 229.473 Q118.486 233.015 118.486 240.145 Q118.486 247.251 120.291 250.816 Q122.12 254.357 125.731 254.357 Q129.365 254.357 131.171 250.816 Q132.999 247.251 132.999 240.145 Q132.999 233.015 131.171 229.473 Q129.365 225.909 125.731 225.909 M125.731 222.205 Q131.541 222.205 134.597 226.811 Q137.675 231.395 137.675 240.145 Q137.675 248.871 134.597 253.478 Q131.541 258.061 125.731 258.061 Q119.921 258.061 116.842 253.478 Q113.787 248.871 113.787 240.145 Q113.787 231.395 116.842 226.811 Q119.921 222.205 125.731 222.205 Z" fill="#000000" fill-rule="nonzero" fill-opacity="1" /><path clip-path="url(#clip650)" d="M145.893 251.51 L150.777 251.51 L150.777 257.39 L145.893 257.39 L145.893 251.51 Z" fill="#000000" fill-rule="nonzero" fill-opacity="1" /><path clip-path="url(#clip650)" d="M171.541 238.246 Q168.393 238.246 166.541 240.399 Q164.712 242.552 164.712 246.302 Q164.712 250.029 166.541 252.205 Q168.393 254.357 171.541 254.357 Q174.689 254.357 176.518 252.205 Q178.37 250.029 178.37 246.302 Q178.37 242.552 176.518 240.399 Q174.689 238.246 171.541 238.246 M180.823 223.594 L180.823 227.853 Q179.064 227.02 177.258 226.58 Q175.476 226.14 173.717 226.14 Q169.087 226.14 166.634 229.265 Q164.203 232.39 163.856 238.709 Q165.221 236.696 167.282 235.631 Q169.342 234.543 171.819 234.543 Q177.027 234.543 180.036 237.714 Q183.069 240.862 183.069 246.302 Q183.069 251.626 179.92 254.844 Q176.772 258.061 171.541 258.061 Q165.546 258.061 162.374 253.478 Q159.203 248.871 159.203 240.145 Q159.203 231.95 163.092 227.089 Q166.981 222.205 173.532 222.205 Q175.291 222.205 177.073 222.552 Q178.879 222.899 180.823 223.594 Z" fill="#000000" fill-rule="nonzero" fill-opacity="1" /><path clip-path="url(#clip650)" d="M189.944 222.83 L212.166 222.83 L212.166 224.821 L199.619 257.39 L194.735 257.39 L206.541 226.765 L189.944 226.765 L189.944 222.83 Z" fill="#000000" fill-rule="nonzero" fill-opacity="1" /><path clip-path="url(#clip650)" d="M221.332 222.83 L239.689 222.83 L239.689 226.765 L225.615 226.765 L225.615 235.237 Q226.633 234.89 227.652 234.728 Q228.67 234.543 229.689 234.543 Q235.476 234.543 238.855 237.714 Q242.235 240.885 242.235 246.302 Q242.235 251.881 238.763 254.982 Q235.291 258.061 228.971 258.061 Q226.795 258.061 224.527 257.691 Q222.281 257.32 219.874 256.58 L219.874 251.881 Q221.957 253.015 224.179 253.57 Q226.402 254.126 228.879 254.126 Q232.883 254.126 235.221 252.02 Q237.559 249.913 237.559 246.302 Q237.559 242.691 235.221 240.584 Q232.883 238.478 228.879 238.478 Q227.004 238.478 225.129 238.895 Q223.277 239.311 221.332 240.191 L221.332 222.83 Z" fill="#000000" fill-rule="nonzero" fill-opacity="1" /><path clip-path="url(#clip650)" d="M46.2552 709.942 Q46.9555 707.873 49.2471 705.932 Q51.5388 703.958 55.5492 701.985 L68.5352 695.46 L68.5352 702.367 L56.3449 708.446 Q51.5706 710.801 50.011 713.029 Q48.4514 715.226 48.4514 719.045 L48.4514 726.047 L68.5352 726.047 L68.5352 732.477 L21.0152 732.477 L21.0152 717.963 Q21.0152 709.815 24.4209 705.804 Q27.8265 701.794 34.7015 701.794 Q39.1893 701.794 42.1493 703.895 Q45.1094 705.964 46.2552 709.942 M26.2987 726.047 L43.1679 726.047 L43.1679 717.963 Q43.1679 713.316 41.0353 710.961 Q38.871 708.573 34.7015 708.573 Q30.5319 708.573 28.4312 710.961 Q26.2987 713.316 26.2987 717.963 L26.2987 726.047 Z" fill="#000000" fill-rule="nonzero" fill-opacity="1" /><path clip-path="url(#clip650)" d="M50.6157 672.671 Q50.6157 679.769 52.239 682.506 Q53.8622 685.243 57.7772 685.243 Q60.8963 685.243 62.7424 683.206 Q64.5566 681.137 64.5566 677.604 Q64.5566 672.735 61.1191 669.806 Q57.6498 666.846 51.9207 666.846 L50.6157 666.846 L50.6157 672.671 M48.1968 660.99 L68.5352 660.99 L68.5352 666.846 L63.1243 666.846 Q66.3709 668.851 67.9305 671.843 Q69.4582 674.835 69.4582 679.164 Q69.4582 684.638 66.4027 687.885 Q63.3153 691.1 58.1591 691.1 Q52.1435 691.1 49.088 687.089 Q46.0324 683.047 46.0324 675.058 L46.0324 666.846 L45.4595 666.846 Q41.4173 666.846 39.2211 669.52 Q36.9931 672.162 36.9931 676.968 Q36.9931 680.023 37.7252 682.92 Q38.4572 685.816 39.9213 688.49 L34.5105 688.49 Q33.2692 685.275 32.6644 682.251 Q32.0279 679.228 32.0279 676.363 Q32.0279 668.629 36.0383 664.809 Q40.0487 660.99 48.1968 660.99 Z" fill="#000000" fill-rule="nonzero" fill-opacity="1" /><path clip-path="url(#clip650)" d="M22.7658 643.134 L32.8872 643.134 L32.8872 631.071 L37.4387 631.071 L37.4387 643.134 L56.7905 643.134 Q61.151 643.134 62.3923 641.956 Q63.6336 640.747 63.6336 637.087 L63.6336 631.071 L68.5352 631.071 L68.5352 637.087 Q68.5352 643.866 66.0207 646.444 Q63.4745 649.022 56.7905 649.022 L37.4387 649.022 L37.4387 653.319 L32.8872 653.319 L32.8872 649.022 L22.7658 649.022 L22.7658 643.134 Z" fill="#000000" fill-rule="nonzero" fill-opacity="1" /><path clip-path="url(#clip650)" d="M32.8872 623.368 L32.8872 617.512 L68.5352 617.512 L68.5352 623.368 L32.8872 623.368 M19.01 623.368 L19.01 617.512 L26.426 617.512 L26.426 623.368 L19.01 623.368 Z" fill="#000000" fill-rule="nonzero" fill-opacity="1" /><path clip-path="url(#clip650)" d="M36.9931 591.444 Q36.9931 596.155 40.6852 598.892 Q44.3455 601.63 50.743 601.63 Q57.1406 601.63 60.8327 598.924 Q64.493 596.187 64.493 591.444 Q64.493 586.766 60.8009 584.028 Q57.1088 581.291 50.743 581.291 Q44.4092 581.291 40.7171 584.028 Q36.9931 586.766 36.9931 591.444 M32.0279 591.444 Q32.0279 583.806 36.9931 579.445 Q41.9584 575.085 50.743 575.085 Q59.4959 575.085 64.493 579.445 Q69.4582 583.806 69.4582 591.444 Q69.4582 599.115 64.493 603.476 Q59.4959 607.804 50.743 607.804 Q41.9584 607.804 36.9931 603.476 Q32.0279 599.115 32.0279 591.444 Z" fill="#000000" fill-rule="nonzero" fill-opacity="1" /><path clip-path="url(#clip650)" d="M24.6755 508.818 L31.455 508.818 Q28.4312 512.064 26.9353 515.756 Q25.4394 519.417 25.4394 523.554 Q25.4394 531.702 30.4364 536.031 Q35.4017 540.36 44.8229 540.36 Q54.2124 540.36 59.2094 536.031 Q64.1747 531.702 64.1747 523.554 Q64.1747 519.417 62.6787 515.756 Q61.1828 512.064 58.1591 508.818 L64.8749 508.818 Q67.1666 512.191 68.3124 515.979 Q69.4582 519.735 69.4582 523.936 Q69.4582 534.726 62.8697 540.933 Q56.2494 547.139 44.8229 547.139 Q33.3647 547.139 26.7762 540.933 Q20.1558 534.726 20.1558 523.936 Q20.1558 519.671 21.3017 515.915 Q22.4157 512.128 24.6755 508.818 Z" fill="#000000" fill-rule="nonzero" fill-opacity="1" /><path clip-path="url(#clip650)" d="M21.0152 488.734 L21.0152 483.323 L74.5826 499.874 L74.5826 505.285 L21.0152 488.734 Z" fill="#000000" fill-rule="nonzero" fill-opacity="1" /><path clip-path="url(#clip650)" d="M21.0152 483.45 L21.0152 476.543 L40.5579 463.366 L21.0152 450.285 L21.0152 443.378 L45.9051 460.184 L68.5352 460.184 L68.5352 466.645 L45.9051 466.645 L21.0152 483.45 Z" fill="#000000" fill-rule="nonzero" fill-opacity="1" /><polyline clip-path="url(#clip651)" style="stroke:#0f6a81; stroke-linecap:round; stroke-linejoin:round; stroke-width:4; stroke-opacity:1; fill:none" points="319.797,717.449 324.91,742.673 330.023,764.824 335.193,729.274 340.362,647.648 345.419,547.805 350.533,591.057 355.702,466.267 360.872,586.129 365.929,659.375 371.042,594.533 376.211,854.151 381.381,800.73 386.438,1031.97 391.551,1075.21 396.721,1057.47 401.89,1098.01 407.004,1013.36 412.117,1025.23 417.286,1013.57 422.456,1046.83 427.513,1055.18 432.626,1039.17 437.796,997.024 442.965,954.799 448.022,895.321 453.135,884.115 458.305,877.053 463.474,907.351 468.531,893.02 473.645,898.805 478.814,865.835 483.984,837.671 489.097,862.776 494.21,846.658 499.38,860.111 504.549,857.311 509.606,837.181 514.72,846.809 519.889,791.184 525.058,726.818 530.116,717.984 535.229,751.504 540.398,801.394 545.568,805.727 550.625,841.48 555.738,791.592 560.908,800.477 566.077,865.696 571.19,773.478 576.304,819.413 581.473,745.822 586.643,782.72 591.7,793.399 596.813,866.126 601.982,863.637 607.152,899.922 612.209,883.637 617.322,904.89 622.492,850.173 627.661,869.975 632.718,878.977 637.832,920.868 643.001,911.983 648.17,919.208 653.284,885.296 658.397,871.069 663.566,872.276 668.736,881.708 673.793,889.765 678.906,914.818 684.076,889.786 689.245,937.202 694.302,941.471 699.416,926.78 704.585,946.947 709.755,962.336 714.812,897.09 719.925,918.868 725.094,925.972 730.264,908.34 735.377,915.679 740.49,860.613 745.66,857.651 750.829,880.549 755.886,863.235 761,871.969 766.169,806.115 771.339,766.39 776.396,750.239 781.509,752.55 786.678,710.419 791.848,751.147 796.905,731.544 802.018,732.849 807.188,658.54 812.357,685.485 817.471,704.35 822.584,673.254 827.753,638.288 832.923,672.014 837.98,731.346 843.093,685.189 848.263,750.397 853.432,752.236 858.489,745.876 863.602,673.478 868.772,730.461 873.941,621.555 878.998,572.234 884.112,587.642 889.281,602.053 894.451,615.164 899.564,605.255 904.677,578.326 909.847,547.598 915.016,548.002 920.073,622.336 925.187,667.32 930.356,587.819 935.525,574.858 940.583,664.426 945.696,695.153 950.865,723.07 956.035,705.378 961.092,714.392 966.205,702.397 971.375,702.46 976.544,726.448 981.657,736.693 986.771,673.089 991.94,699.767 997.11,783.606 1002.17,744.565 1007.28,782.456 1012.45,761.217 1017.62,640.226 1022.68,648.255 1027.79,592.107 1032.96,500.229 1038.13,517.969 1043.19,530.705 1048.3,541.661 1053.47,567.815 1058.64,627.331 1063.75,644.468 1068.86,656.181 1074.03,631.206 1079.2,592.667 1084.26,590.666 1089.37,570.974 1094.54,599.167 1099.71,602.33 1104.77,568.22 1109.88,524.852 1115.05,520.751 1120.22,555.712 1125.28,540.447 1130.39,525.748 1135.56,606.209 1140.73,539.606 1145.84,570.406 1150.96,554.179 1156.13,564.608 1161.3,594.131 1166.35,609.92 1171.47,597.843 1176.64,585.121 1181.81,598.486 1186.86,601.603 1191.98,583.948 1197.15,575.826 1202.31,570.852 1207.37,568.227 1212.49,568.591 1217.65,590.013 1222.82,554.177 1227.94,575.869 1233.05,571.399 1238.22,563.449 1243.39,551.783 1248.45,534.171 1253.56,499.826 1258.73,525.818 1263.9,516.481 1268.96,547.489 1274.07,537.912 1279.24,541.367 1284.41,547.087 1289.47,515.863 1294.58,512.865 1299.75,511.865 1304.92,502.494 1310.03,534.293 1315.14,549.981 1320.31,562.935 1325.48,541.014 1330.54,605.801 1335.65,581.722 1340.82,563.512 1345.99,563.096 1351.05,518.416 1356.16,515.991 1361.33,524.809 1366.5,520.087 1371.56,482.489 1376.67,493.395 1381.84,502.97 1387.01,440.458 1392.12,488.587 1397.24,441.774 1402.41,426.593 1407.58,388.246 1412.63,411.71 1417.75,369.993 1422.92,295.336 1428.09,329.825 1433.14,335.808 1438.26,319.372 1443.43,294.992 1448.6,296.913 1453.65,282.349 1458.77,296.272 1463.93,322.722 1469.1,302.215 1474.22,315.093 1479.33,302.45 1484.5,296.237 1489.67,322.795 1494.73,288.252 1499.84,285.669 1505.01,306.623 1510.18,320.849 1515.24,306.237 1520.35,278.44 1525.52,273.117 1530.69,255.198 1535.75,275.014 1540.86,269.864 1546.03,283.11 1551.2,266.591 1556.31,284.701 1561.42,298.71 1566.59,224.072 1571.76,172.945 1576.82,191.093 1581.93,172.617 1587.1,240.836 1592.27,235.424 1597.33,239.441 1602.44,242.714 1607.61,237.718 1612.78,202.189 1617.84,235.01 1622.95,216.299 1628.12,270.308 1633.29,276.93 1638.4,292.251 1643.52,288.924 1648.69,272.895 1653.86,291.844 1658.91,290.818 1664.03,315.833 1669.2,315.332 1674.37,275.393 1679.42,293.989 1684.54,306.701 1689.71,270.318 1694.88,277.832 1699.93,273.942 1705.05,256.728 1710.22,244.071 1715.38,234.098 1720.5,224.111 1725.61,224.896 1730.78,227.102 1735.95,211.009 1741.01,214.666 1746.12,220.982 1751.29,222.922 1756.46,228.006 1761.52,227.744 1766.63,237.022 1771.8,227.259 1776.97,253.812 1782.03,252.795 1787.14,254.759 1792.31,256.228 1797.48,277.633 1802.59,325.565 1807.7,266.308 1812.87,253.637 1818.04,204.253 1823.1,102.767 1828.21,102.392 1833.38,145.867 1838.55,125.603 1843.61,87.0652 1848.72,101.79 1853.89,130.388 1859.06,108.263 1864.12,123.027 1869.23,145.756 1874.4,151.08 1879.57,138.282 1884.68,134.09 1889.8,125.393 1894.97,96.3615 1900.14,77.8488 1905.19,97.3691 "/>
</svg>
