<?xml version="1.0" encoding="utf-8"?>
<svg xmlns="http://www.w3.org/2000/svg" xmlns:xlink="http://www.w3.org/1999/xlink" width="500" height="309" viewBox="0 0 2000 1236">
<defs>
  <clipPath id="clip610">
    <rect x="0" y="0" width="2000" height="1236"/>
  </clipPath>
</defs>
<path clip-path="url(#clip610)" d="M0 1236 L2000 1236 L2000 1.24345e-14 L0 1.24345e-14  Z" fill="#ffffff" fill-rule="evenodd" fill-opacity="1"/>
<defs>
  <clipPath id="clip611">
    <rect x="309" y="47" width="1645" height="1082"/>
  </clipPath>
</defs>
<path clip-path="url(#clip610)" d="M309.063 1128.61 L1952.76 1128.61 L1952.76 47.2441 L309.063 47.2441  Z" fill="#ffffff" fill-rule="evenodd" fill-opacity="1"/>
<polyline clip-path="url(#clip610)" style="stroke:#000000; stroke-linecap:round; stroke-linejoin:round; stroke-width:4; stroke-opacity:1; fill:none" points="309.063,1128.61 1952.76,1128.61 "/>
<polyline clip-path="url(#clip610)" style="stroke:#000000; stroke-linecap:round; stroke-linejoin:round; stroke-width:4; stroke-opacity:1; fill:none" points="549.415,1128.61 549.415,1109.71 "/>
<polyline clip-path="url(#clip610)" style="stroke:#000000; stroke-linecap:round; stroke-linejoin:round; stroke-width:4; stroke-opacity:1; fill:none" points="937.078,1128.61 937.078,1109.71 "/>
<polyline clip-path="url(#clip610)" style="stroke:#000000; stroke-linecap:round; stroke-linejoin:round; stroke-width:4; stroke-opacity:1; fill:none" points="1324.74,1128.61 1324.74,1109.71 "/>
<polyline clip-path="url(#clip610)" style="stroke:#000000; stroke-linecap:round; stroke-linejoin:round; stroke-width:4; stroke-opacity:1; fill:none" points="1712.4,1128.61 1712.4,1109.71 "/>
<path clip-path="url(#clip610)" d="M493.94 1183.88 L501.579 1183.88 L501.579 1157.51 L493.269 1159.18 L493.269 1154.92 L501.533 1153.25 L506.209 1153.25 L506.209 1183.88 L513.848 1183.88 L513.848 1187.81 L493.94 1187.81 L493.94 1183.88 Z" fill="#000000" fill-rule="nonzero" fill-opacity="1" /><path clip-path="url(#clip610)" d="M523.431 1187.09 L523.431 1182.83 Q525.19 1183.67 526.996 1184.11 Q528.801 1184.55 530.537 1184.55 Q535.167 1184.55 537.598 1181.45 Q540.051 1178.32 540.399 1171.98 Q539.056 1173.97 536.996 1175.03 Q534.936 1176.1 532.436 1176.1 Q527.25 1176.1 524.218 1172.97 Q521.209 1169.82 521.209 1164.38 Q521.209 1159.06 524.357 1155.84 Q527.505 1152.63 532.737 1152.63 Q538.732 1152.63 541.88 1157.23 Q545.051 1161.82 545.051 1170.57 Q545.051 1178.74 541.162 1183.62 Q537.297 1188.48 530.746 1188.48 Q528.987 1188.48 527.181 1188.13 Q525.375 1187.79 523.431 1187.09 M532.737 1172.44 Q535.885 1172.44 537.713 1170.29 Q539.565 1168.13 539.565 1164.38 Q539.565 1160.66 537.713 1158.51 Q535.885 1156.33 532.737 1156.33 Q529.588 1156.33 527.737 1158.51 Q525.908 1160.66 525.908 1164.38 Q525.908 1168.13 527.737 1170.29 Q529.588 1172.44 532.737 1172.44 Z" fill="#000000" fill-rule="nonzero" fill-opacity="1" /><path clip-path="url(#clip610)" d="M564.033 1168.67 Q560.885 1168.67 559.033 1170.82 Q557.204 1172.97 557.204 1176.72 Q557.204 1180.45 559.033 1182.63 Q560.885 1184.78 564.033 1184.78 Q567.181 1184.78 569.01 1182.63 Q570.861 1180.45 570.861 1176.72 Q570.861 1172.97 569.01 1170.82 Q567.181 1168.67 564.033 1168.67 M573.315 1154.01 L573.315 1158.27 Q571.556 1157.44 569.75 1157 Q567.968 1156.56 566.209 1156.56 Q561.579 1156.56 559.125 1159.69 Q556.695 1162.81 556.348 1169.13 Q557.713 1167.12 559.773 1166.05 Q561.834 1164.96 564.31 1164.96 Q569.519 1164.96 572.528 1168.13 Q575.56 1171.28 575.56 1176.72 Q575.56 1182.05 572.412 1185.26 Q569.264 1188.48 564.033 1188.48 Q558.037 1188.48 554.866 1183.9 Q551.695 1179.29 551.695 1170.57 Q551.695 1162.37 555.584 1157.51 Q559.473 1152.63 566.023 1152.63 Q567.783 1152.63 569.565 1152.97 Q571.371 1153.32 573.315 1154.01 Z" fill="#000000" fill-rule="nonzero" fill-opacity="1" /><path clip-path="url(#clip610)" d="M593.616 1156.33 Q590.005 1156.33 588.176 1159.89 Q586.371 1163.44 586.371 1170.57 Q586.371 1177.67 588.176 1181.24 Q590.005 1184.78 593.616 1184.78 Q597.25 1184.78 599.056 1181.24 Q600.884 1177.67 600.884 1170.57 Q600.884 1163.44 599.056 1159.89 Q597.25 1156.33 593.616 1156.33 M593.616 1152.63 Q599.426 1152.63 602.482 1157.23 Q605.56 1161.82 605.56 1170.57 Q605.56 1179.29 602.482 1183.9 Q599.426 1188.48 593.616 1188.48 Q587.806 1188.48 584.727 1183.9 Q581.671 1179.29 581.671 1170.57 Q581.671 1161.82 584.727 1157.23 Q587.806 1152.63 593.616 1152.63 Z" fill="#000000" fill-rule="nonzero" fill-opacity="1" /><path clip-path="url(#clip610)" d="M881.604 1183.88 L889.243 1183.88 L889.243 1157.51 L880.932 1159.18 L880.932 1154.92 L889.196 1153.25 L893.872 1153.25 L893.872 1183.88 L901.511 1183.88 L901.511 1187.81 L881.604 1187.81 L881.604 1183.88 Z" fill="#000000" fill-rule="nonzero" fill-opacity="1" /><path clip-path="url(#clip610)" d="M911.094 1187.09 L911.094 1182.83 Q912.854 1183.67 914.659 1184.11 Q916.465 1184.55 918.201 1184.55 Q922.83 1184.55 925.261 1181.45 Q927.715 1178.32 928.062 1171.98 Q926.719 1173.97 924.659 1175.03 Q922.599 1176.1 920.099 1176.1 Q914.914 1176.1 911.881 1172.97 Q908.872 1169.82 908.872 1164.38 Q908.872 1159.06 912.02 1155.84 Q915.168 1152.63 920.4 1152.63 Q926.395 1152.63 929.543 1157.23 Q932.715 1161.82 932.715 1170.57 Q932.715 1178.74 928.826 1183.62 Q924.96 1188.48 918.409 1188.48 Q916.65 1188.48 914.844 1188.13 Q913.039 1187.79 911.094 1187.09 M920.4 1172.44 Q923.548 1172.44 925.377 1170.29 Q927.229 1168.13 927.229 1164.38 Q927.229 1160.66 925.377 1158.51 Q923.548 1156.33 920.4 1156.33 Q917.252 1156.33 915.4 1158.51 Q913.571 1160.66 913.571 1164.38 Q913.571 1168.13 915.4 1170.29 Q917.252 1172.44 920.4 1172.44 Z" fill="#000000" fill-rule="nonzero" fill-opacity="1" /><path clip-path="url(#clip610)" d="M951.117 1171.4 Q947.784 1171.4 945.863 1173.18 Q943.965 1174.96 943.965 1178.09 Q943.965 1181.21 945.863 1183 Q947.784 1184.78 951.117 1184.78 Q954.451 1184.78 956.372 1183 Q958.293 1181.19 958.293 1178.09 Q958.293 1174.96 956.372 1173.18 Q954.474 1171.4 951.117 1171.4 M946.441 1169.41 Q943.432 1168.67 941.742 1166.61 Q940.076 1164.55 940.076 1161.58 Q940.076 1157.44 943.015 1155.03 Q945.978 1152.63 951.117 1152.63 Q956.279 1152.63 959.219 1155.03 Q962.159 1157.44 962.159 1161.58 Q962.159 1164.55 960.469 1166.61 Q958.802 1168.67 955.816 1169.41 Q959.196 1170.2 961.071 1172.49 Q962.969 1174.78 962.969 1178.09 Q962.969 1183.11 959.89 1185.8 Q956.835 1188.48 951.117 1188.48 Q945.4 1188.48 942.321 1185.8 Q939.266 1183.11 939.266 1178.09 Q939.266 1174.78 941.164 1172.49 Q943.062 1170.2 946.441 1169.41 M944.728 1162.02 Q944.728 1164.71 946.395 1166.21 Q948.085 1167.72 951.117 1167.72 Q954.127 1167.72 955.816 1166.21 Q957.529 1164.71 957.529 1162.02 Q957.529 1159.34 955.816 1157.83 Q954.127 1156.33 951.117 1156.33 Q948.085 1156.33 946.395 1157.83 Q944.728 1159.34 944.728 1162.02 Z" fill="#000000" fill-rule="nonzero" fill-opacity="1" /><path clip-path="url(#clip610)" d="M981.279 1156.33 Q977.668 1156.33 975.839 1159.89 Q974.034 1163.44 974.034 1170.57 Q974.034 1177.67 975.839 1181.24 Q977.668 1184.78 981.279 1184.78 Q984.913 1184.78 986.719 1181.24 Q988.548 1177.67 988.548 1170.57 Q988.548 1163.44 986.719 1159.89 Q984.913 1156.33 981.279 1156.33 M981.279 1152.63 Q987.089 1152.63 990.145 1157.23 Q993.224 1161.82 993.224 1170.57 Q993.224 1179.29 990.145 1183.9 Q987.089 1188.48 981.279 1188.48 Q975.469 1188.48 972.39 1183.9 Q969.335 1179.29 969.335 1170.57 Q969.335 1161.82 972.39 1157.23 Q975.469 1152.63 981.279 1152.63 Z" fill="#000000" fill-rule="nonzero" fill-opacity="1" /><path clip-path="url(#clip610)" d="M1273.35 1183.88 L1289.67 1183.88 L1289.67 1187.81 L1267.73 1187.81 L1267.73 1183.88 Q1270.39 1181.12 1274.97 1176.49 Q1279.58 1171.84 1280.76 1170.5 Q1283.01 1167.97 1283.89 1166.24 Q1284.79 1164.48 1284.79 1162.79 Q1284.79 1160.03 1282.84 1158.3 Q1280.92 1156.56 1277.82 1156.56 Q1275.62 1156.56 1273.17 1157.32 Q1270.74 1158.09 1267.96 1159.64 L1267.96 1154.92 Q1270.78 1153.78 1273.24 1153.2 Q1275.69 1152.63 1277.73 1152.63 Q1283.1 1152.63 1286.29 1155.31 Q1289.49 1158 1289.49 1162.49 Q1289.49 1164.62 1288.68 1166.54 Q1287.89 1168.44 1285.78 1171.03 Q1285.2 1171.7 1282.1 1174.92 Q1279 1178.11 1273.35 1183.88 Z" fill="#000000" fill-rule="nonzero" fill-opacity="1" /><path clip-path="url(#clip610)" d="M1309.49 1156.33 Q1305.88 1156.33 1304.05 1159.89 Q1302.24 1163.44 1302.24 1170.57 Q1302.24 1177.67 1304.05 1181.24 Q1305.88 1184.78 1309.49 1184.78 Q1313.12 1184.78 1314.93 1181.24 Q1316.76 1177.67 1316.76 1170.57 Q1316.76 1163.44 1314.93 1159.89 Q1313.12 1156.33 1309.49 1156.33 M1309.49 1152.63 Q1315.3 1152.63 1318.35 1157.23 Q1321.43 1161.82 1321.43 1170.57 Q1321.43 1179.29 1318.35 1183.9 Q1315.3 1188.48 1309.49 1188.48 Q1303.68 1188.48 1300.6 1183.9 Q1297.54 1179.29 1297.54 1170.57 Q1297.54 1161.82 1300.6 1157.23 Q1303.68 1152.63 1309.49 1152.63 Z" fill="#000000" fill-rule="nonzero" fill-opacity="1" /><path clip-path="url(#clip610)" d="M1339.65 1156.33 Q1336.04 1156.33 1334.21 1159.89 Q1332.4 1163.44 1332.4 1170.57 Q1332.4 1177.67 1334.21 1181.24 Q1336.04 1184.78 1339.65 1184.78 Q1343.28 1184.78 1345.09 1181.24 Q1346.92 1177.67 1346.92 1170.57 Q1346.92 1163.44 1345.09 1159.89 Q1343.28 1156.33 1339.65 1156.33 M1339.65 1152.63 Q1345.46 1152.63 1348.51 1157.23 Q1351.59 1161.82 1351.59 1170.57 Q1351.59 1179.29 1348.51 1183.9 Q1345.46 1188.48 1339.65 1188.48 Q1333.84 1188.48 1330.76 1183.9 Q1327.7 1179.29 1327.7 1170.57 Q1327.7 1161.82 1330.76 1157.23 Q1333.84 1152.63 1339.65 1152.63 Z" fill="#000000" fill-rule="nonzero" fill-opacity="1" /><path clip-path="url(#clip610)" d="M1369.81 1156.33 Q1366.2 1156.33 1364.37 1159.89 Q1362.57 1163.44 1362.57 1170.57 Q1362.57 1177.67 1364.37 1181.24 Q1366.2 1184.78 1369.81 1184.78 Q1373.44 1184.78 1375.25 1181.24 Q1377.08 1177.67 1377.08 1170.57 Q1377.08 1163.44 1375.25 1159.89 Q1373.44 1156.33 1369.81 1156.33 M1369.81 1152.63 Q1375.62 1152.63 1378.68 1157.23 Q1381.75 1161.82 1381.75 1170.57 Q1381.75 1179.29 1378.68 1183.9 Q1375.62 1188.48 1369.81 1188.48 Q1364 1188.48 1360.92 1183.9 Q1357.87 1179.29 1357.87 1170.57 Q1357.87 1161.82 1360.92 1157.23 Q1364 1152.63 1369.81 1152.63 Z" fill="#000000" fill-rule="nonzero" fill-opacity="1" /><path clip-path="url(#clip610)" d="M1661.02 1183.88 L1677.34 1183.88 L1677.34 1187.81 L1655.39 1187.81 L1655.39 1183.88 Q1658.05 1181.12 1662.64 1176.49 Q1667.24 1171.84 1668.42 1170.5 Q1670.67 1167.97 1671.55 1166.24 Q1672.45 1164.48 1672.45 1162.79 Q1672.45 1160.03 1670.51 1158.3 Q1668.59 1156.56 1665.48 1156.56 Q1663.28 1156.56 1660.83 1157.32 Q1658.4 1158.09 1655.62 1159.64 L1655.62 1154.92 Q1658.45 1153.78 1660.9 1153.2 Q1663.35 1152.63 1665.39 1152.63 Q1670.76 1152.63 1673.96 1155.31 Q1677.15 1158 1677.15 1162.49 Q1677.15 1164.62 1676.34 1166.54 Q1675.55 1168.44 1673.45 1171.03 Q1672.87 1171.7 1669.77 1174.92 Q1666.66 1178.11 1661.02 1183.88 Z" fill="#000000" fill-rule="nonzero" fill-opacity="1" /><path clip-path="url(#clip610)" d="M1697.15 1156.33 Q1693.54 1156.33 1691.71 1159.89 Q1689.9 1163.44 1689.9 1170.57 Q1689.9 1177.67 1691.71 1181.24 Q1693.54 1184.78 1697.15 1184.78 Q1700.78 1184.78 1702.59 1181.24 Q1704.42 1177.67 1704.42 1170.57 Q1704.42 1163.44 1702.59 1159.89 Q1700.78 1156.33 1697.15 1156.33 M1697.15 1152.63 Q1702.96 1152.63 1706.02 1157.23 Q1709.09 1161.82 1709.09 1170.57 Q1709.09 1179.29 1706.02 1183.9 Q1702.96 1188.48 1697.15 1188.48 Q1691.34 1188.48 1688.26 1183.9 Q1685.21 1179.29 1685.21 1170.57 Q1685.21 1161.82 1688.26 1157.23 Q1691.34 1152.63 1697.15 1152.63 Z" fill="#000000" fill-rule="nonzero" fill-opacity="1" /><path clip-path="url(#clip610)" d="M1721.34 1183.88 L1737.66 1183.88 L1737.66 1187.81 L1715.71 1187.81 L1715.71 1183.88 Q1718.38 1181.12 1722.96 1176.49 Q1727.57 1171.84 1728.75 1170.5 Q1730.99 1167.97 1731.87 1166.24 Q1732.77 1164.48 1732.77 1162.79 Q1732.77 1160.03 1730.83 1158.3 Q1728.91 1156.56 1725.81 1156.56 Q1723.61 1156.56 1721.15 1157.32 Q1718.72 1158.09 1715.95 1159.64 L1715.95 1154.92 Q1718.77 1153.78 1721.22 1153.2 Q1723.68 1152.63 1725.71 1152.63 Q1731.09 1152.63 1734.28 1155.31 Q1737.47 1158 1737.47 1162.49 Q1737.47 1164.62 1736.66 1166.54 Q1735.88 1168.44 1733.77 1171.03 Q1733.19 1171.7 1730.09 1174.92 Q1726.99 1178.11 1721.34 1183.88 Z" fill="#000000" fill-rule="nonzero" fill-opacity="1" /><path clip-path="url(#clip610)" d="M1757.47 1156.33 Q1753.86 1156.33 1752.03 1159.89 Q1750.23 1163.44 1750.23 1170.57 Q1750.23 1177.67 1752.03 1181.24 Q1753.86 1184.78 1757.47 1184.78 Q1761.11 1184.78 1762.91 1181.24 Q1764.74 1177.67 1764.74 1170.57 Q1764.74 1163.44 1762.91 1159.89 Q1761.11 1156.33 1757.47 1156.33 M1757.47 1152.63 Q1763.28 1152.63 1766.34 1157.23 Q1769.42 1161.82 1769.42 1170.57 Q1769.42 1179.29 1766.34 1183.9 Q1763.28 1188.48 1757.47 1188.48 Q1751.66 1188.48 1748.59 1183.9 Q1745.53 1179.29 1745.53 1170.57 Q1745.53 1161.82 1748.59 1157.23 Q1751.66 1152.63 1757.47 1152.63 Z" fill="#000000" fill-rule="nonzero" fill-opacity="1" /><polyline clip-path="url(#clip610)" style="stroke:#000000; stroke-linecap:round; stroke-linejoin:round; stroke-width:4; stroke-opacity:1; fill:none" points="309.063,1128.61 309.063,47.2441 "/>
<polyline clip-path="url(#clip610)" style="stroke:#000000; stroke-linecap:round; stroke-linejoin:round; stroke-width:4; stroke-opacity:1; fill:none" points="309.063,1091.08 327.961,1091.08 "/>
<polyline clip-path="url(#clip610)" style="stroke:#000000; stroke-linecap:round; stroke-linejoin:round; stroke-width:4; stroke-opacity:1; fill:none" points="309.063,864.747 327.961,864.747 "/>
<polyline clip-path="url(#clip610)" style="stroke:#000000; stroke-linecap:round; stroke-linejoin:round; stroke-width:4; stroke-opacity:1; fill:none" points="309.063,638.414 327.961,638.414 "/>
<polyline clip-path="url(#clip610)" style="stroke:#000000; stroke-linecap:round; stroke-linejoin:round; stroke-width:4; stroke-opacity:1; fill:none" points="309.063,412.08 327.961,412.08 "/>
<polyline clip-path="url(#clip610)" style="stroke:#000000; stroke-linecap:round; stroke-linejoin:round; stroke-width:4; stroke-opacity:1; fill:none" points="309.063,185.747 327.961,185.747 "/>
<path clip-path="url(#clip610)" d="M112.791 1091.53 L142.467 1091.53 L142.467 1095.47 L112.791 1095.47 L112.791 1091.53 Z" fill="#000000" fill-rule="nonzero" fill-opacity="1" /><path clip-path="url(#clip610)" d="M162.559 1076.88 Q158.948 1076.88 157.12 1080.44 Q155.314 1083.99 155.314 1091.12 Q155.314 1098.22 157.12 1101.79 Q158.948 1105.33 162.559 1105.33 Q166.194 1105.33 167.999 1101.79 Q169.828 1098.22 169.828 1091.12 Q169.828 1083.99 167.999 1080.44 Q166.194 1076.88 162.559 1076.88 M162.559 1073.18 Q168.37 1073.18 171.425 1077.78 Q174.504 1082.37 174.504 1091.12 Q174.504 1099.84 171.425 1104.45 Q168.37 1109.03 162.559 1109.03 Q156.749 1109.03 153.671 1104.45 Q150.615 1099.84 150.615 1091.12 Q150.615 1082.37 153.671 1077.78 Q156.749 1073.18 162.559 1073.18 Z" fill="#000000" fill-rule="nonzero" fill-opacity="1" /><path clip-path="url(#clip610)" d="M182.721 1102.48 L187.606 1102.48 L187.606 1108.36 L182.721 1108.36 L182.721 1102.48 Z" fill="#000000" fill-rule="nonzero" fill-opacity="1" /><path clip-path="url(#clip610)" d="M207.791 1076.88 Q204.18 1076.88 202.351 1080.44 Q200.545 1083.99 200.545 1091.12 Q200.545 1098.22 202.351 1101.79 Q204.18 1105.33 207.791 1105.33 Q211.425 1105.33 213.23 1101.79 Q215.059 1098.22 215.059 1091.12 Q215.059 1083.99 213.23 1080.44 Q211.425 1076.88 207.791 1076.88 M207.791 1073.18 Q213.601 1073.18 216.656 1077.78 Q219.735 1082.37 219.735 1091.12 Q219.735 1099.84 216.656 1104.45 Q213.601 1109.03 207.791 1109.03 Q201.981 1109.03 198.902 1104.45 Q195.846 1099.84 195.846 1091.12 Q195.846 1082.37 198.902 1077.78 Q201.981 1073.18 207.791 1073.18 Z" fill="#000000" fill-rule="nonzero" fill-opacity="1" /><path clip-path="url(#clip610)" d="M231.98 1104.43 L248.3 1104.43 L248.3 1108.36 L226.355 1108.36 L226.355 1104.43 Q229.017 1101.67 233.601 1097.04 Q238.207 1092.39 239.388 1091.05 Q241.633 1088.52 242.513 1086.79 Q243.415 1085.03 243.415 1083.34 Q243.415 1080.58 241.471 1078.85 Q239.55 1077.11 236.448 1077.11 Q234.249 1077.11 231.795 1077.87 Q229.365 1078.64 226.587 1080.19 L226.587 1075.47 Q229.411 1074.33 231.865 1073.75 Q234.318 1073.18 236.355 1073.18 Q241.726 1073.18 244.92 1075.86 Q248.115 1078.55 248.115 1083.04 Q248.115 1085.17 247.304 1087.09 Q246.517 1088.99 244.411 1091.58 Q243.832 1092.25 240.73 1095.47 Q237.628 1098.66 231.98 1104.43 Z" fill="#000000" fill-rule="nonzero" fill-opacity="1" /><path clip-path="url(#clip610)" d="M258.161 1073.8 L276.517 1073.8 L276.517 1077.74 L262.443 1077.74 L262.443 1086.21 Q263.462 1085.86 264.48 1085.7 Q265.499 1085.51 266.517 1085.51 Q272.304 1085.51 275.684 1088.68 Q279.063 1091.86 279.063 1097.27 Q279.063 1102.85 275.591 1105.95 Q272.119 1109.03 265.8 1109.03 Q263.624 1109.03 261.355 1108.66 Q259.11 1108.29 256.702 1107.55 L256.702 1102.85 Q258.786 1103.99 261.008 1104.54 Q263.23 1105.1 265.707 1105.1 Q269.712 1105.1 272.05 1102.99 Q274.388 1100.88 274.388 1097.27 Q274.388 1093.66 272.05 1091.56 Q269.712 1089.45 265.707 1089.45 Q263.832 1089.45 261.957 1089.87 Q260.105 1090.28 258.161 1091.16 L258.161 1073.8 Z" fill="#000000" fill-rule="nonzero" fill-opacity="1" /><path clip-path="url(#clip610)" d="M161.564 850.546 Q157.953 850.546 156.124 854.111 Q154.319 857.652 154.319 864.782 Q154.319 871.888 156.124 875.453 Q157.953 878.995 161.564 878.995 Q165.198 878.995 167.004 875.453 Q168.833 871.888 168.833 864.782 Q168.833 857.652 167.004 854.111 Q165.198 850.546 161.564 850.546 M161.564 846.842 Q167.374 846.842 170.43 851.449 Q173.508 856.032 173.508 864.782 Q173.508 873.509 170.43 878.115 Q167.374 882.698 161.564 882.698 Q155.754 882.698 152.675 878.115 Q149.62 873.509 149.62 864.782 Q149.62 856.032 152.675 851.449 Q155.754 846.842 161.564 846.842 Z" fill="#000000" fill-rule="nonzero" fill-opacity="1" /><path clip-path="url(#clip610)" d="M181.726 876.148 L186.61 876.148 L186.61 882.027 L181.726 882.027 L181.726 876.148 Z" fill="#000000" fill-rule="nonzero" fill-opacity="1" /><path clip-path="url(#clip610)" d="M206.795 850.546 Q203.184 850.546 201.356 854.111 Q199.55 857.652 199.55 864.782 Q199.55 871.888 201.356 875.453 Q203.184 878.995 206.795 878.995 Q210.43 878.995 212.235 875.453 Q214.064 871.888 214.064 864.782 Q214.064 857.652 212.235 854.111 Q210.43 850.546 206.795 850.546 M206.795 846.842 Q212.605 846.842 215.661 851.449 Q218.74 856.032 218.74 864.782 Q218.74 873.509 215.661 878.115 Q212.605 882.698 206.795 882.698 Q200.985 882.698 197.906 878.115 Q194.851 873.509 194.851 864.782 Q194.851 856.032 197.906 851.449 Q200.985 846.842 206.795 846.842 Z" fill="#000000" fill-rule="nonzero" fill-opacity="1" /><path clip-path="url(#clip610)" d="M236.957 850.546 Q233.346 850.546 231.517 854.111 Q229.712 857.652 229.712 864.782 Q229.712 871.888 231.517 875.453 Q233.346 878.995 236.957 878.995 Q240.591 878.995 242.397 875.453 Q244.226 871.888 244.226 864.782 Q244.226 857.652 242.397 854.111 Q240.591 850.546 236.957 850.546 M236.957 846.842 Q242.767 846.842 245.823 851.449 Q248.902 856.032 248.902 864.782 Q248.902 873.509 245.823 878.115 Q242.767 882.698 236.957 882.698 Q231.147 882.698 228.068 878.115 Q225.013 873.509 225.013 864.782 Q225.013 856.032 228.068 851.449 Q231.147 846.842 236.957 846.842 Z" fill="#000000" fill-rule="nonzero" fill-opacity="1" /><path clip-path="url(#clip610)" d="M267.119 850.546 Q263.508 850.546 261.679 854.111 Q259.874 857.652 259.874 864.782 Q259.874 871.888 261.679 875.453 Q263.508 878.995 267.119 878.995 Q270.753 878.995 272.559 875.453 Q274.388 871.888 274.388 864.782 Q274.388 857.652 272.559 854.111 Q270.753 850.546 267.119 850.546 M267.119 846.842 Q272.929 846.842 275.985 851.449 Q279.063 856.032 279.063 864.782 Q279.063 873.509 275.985 878.115 Q272.929 882.698 267.119 882.698 Q261.309 882.698 258.23 878.115 Q255.175 873.509 255.175 864.782 Q255.175 856.032 258.23 851.449 Q261.309 846.842 267.119 846.842 Z" fill="#000000" fill-rule="nonzero" fill-opacity="1" /><path clip-path="url(#clip610)" d="M162.559 624.213 Q158.948 624.213 157.12 627.777 Q155.314 631.319 155.314 638.449 Q155.314 645.555 157.12 649.12 Q158.948 652.661 162.559 652.661 Q166.194 652.661 167.999 649.12 Q169.828 645.555 169.828 638.449 Q169.828 631.319 167.999 627.777 Q166.194 624.213 162.559 624.213 M162.559 620.509 Q168.37 620.509 171.425 625.115 Q174.504 629.699 174.504 638.449 Q174.504 647.175 171.425 651.782 Q168.37 656.365 162.559 656.365 Q156.749 656.365 153.671 651.782 Q150.615 647.175 150.615 638.449 Q150.615 629.699 153.671 625.115 Q156.749 620.509 162.559 620.509 Z" fill="#000000" fill-rule="nonzero" fill-opacity="1" /><path clip-path="url(#clip610)" d="M182.721 649.814 L187.606 649.814 L187.606 655.694 L182.721 655.694 L182.721 649.814 Z" fill="#000000" fill-rule="nonzero" fill-opacity="1" /><path clip-path="url(#clip610)" d="M207.791 624.213 Q204.18 624.213 202.351 627.777 Q200.545 631.319 200.545 638.449 Q200.545 645.555 202.351 649.12 Q204.18 652.661 207.791 652.661 Q211.425 652.661 213.23 649.12 Q215.059 645.555 215.059 638.449 Q215.059 631.319 213.23 627.777 Q211.425 624.213 207.791 624.213 M207.791 620.509 Q213.601 620.509 216.656 625.115 Q219.735 629.699 219.735 638.449 Q219.735 647.175 216.656 651.782 Q213.601 656.365 207.791 656.365 Q201.981 656.365 198.902 651.782 Q195.846 647.175 195.846 638.449 Q195.846 629.699 198.902 625.115 Q201.981 620.509 207.791 620.509 Z" fill="#000000" fill-rule="nonzero" fill-opacity="1" /><path clip-path="url(#clip610)" d="M231.98 651.759 L248.3 651.759 L248.3 655.694 L226.355 655.694 L226.355 651.759 Q229.017 649.004 233.601 644.374 Q238.207 639.722 239.388 638.379 Q241.633 635.856 242.513 634.12 Q243.415 632.361 243.415 630.671 Q243.415 627.916 241.471 626.18 Q239.55 624.444 236.448 624.444 Q234.249 624.444 231.795 625.208 Q229.365 625.972 226.587 627.523 L226.587 622.8 Q229.411 621.666 231.865 621.088 Q234.318 620.509 236.355 620.509 Q241.726 620.509 244.92 623.194 Q248.115 625.879 248.115 630.37 Q248.115 632.5 247.304 634.421 Q246.517 636.319 244.411 638.912 Q243.832 639.583 240.73 642.8 Q237.628 645.995 231.98 651.759 Z" fill="#000000" fill-rule="nonzero" fill-opacity="1" /><path clip-path="url(#clip610)" d="M258.161 621.134 L276.517 621.134 L276.517 625.069 L262.443 625.069 L262.443 633.541 Q263.462 633.194 264.48 633.032 Q265.499 632.847 266.517 632.847 Q272.304 632.847 275.684 636.018 Q279.063 639.189 279.063 644.606 Q279.063 650.185 275.591 653.286 Q272.119 656.365 265.8 656.365 Q263.624 656.365 261.355 655.995 Q259.11 655.624 256.702 654.884 L256.702 650.185 Q258.786 651.319 261.008 651.874 Q263.23 652.43 265.707 652.43 Q269.712 652.43 272.05 650.323 Q274.388 648.217 274.388 644.606 Q274.388 640.995 272.05 638.888 Q269.712 636.782 265.707 636.782 Q263.832 636.782 261.957 637.199 Q260.105 637.615 258.161 638.495 L258.161 621.134 Z" fill="#000000" fill-rule="nonzero" fill-opacity="1" /><path clip-path="url(#clip610)" d="M161.564 397.879 Q157.953 397.879 156.124 401.444 Q154.319 404.986 154.319 412.115 Q154.319 419.222 156.124 422.786 Q157.953 426.328 161.564 426.328 Q165.198 426.328 167.004 422.786 Q168.833 419.222 168.833 412.115 Q168.833 404.986 167.004 401.444 Q165.198 397.879 161.564 397.879 M161.564 394.175 Q167.374 394.175 170.43 398.782 Q173.508 403.365 173.508 412.115 Q173.508 420.842 170.43 425.448 Q167.374 430.032 161.564 430.032 Q155.754 430.032 152.675 425.448 Q149.62 420.842 149.62 412.115 Q149.62 403.365 152.675 398.782 Q155.754 394.175 161.564 394.175 Z" fill="#000000" fill-rule="nonzero" fill-opacity="1" /><path clip-path="url(#clip610)" d="M181.726 423.481 L186.61 423.481 L186.61 429.36 L181.726 429.36 L181.726 423.481 Z" fill="#000000" fill-rule="nonzero" fill-opacity="1" /><path clip-path="url(#clip610)" d="M206.795 397.879 Q203.184 397.879 201.356 401.444 Q199.55 404.986 199.55 412.115 Q199.55 419.222 201.356 422.786 Q203.184 426.328 206.795 426.328 Q210.43 426.328 212.235 422.786 Q214.064 419.222 214.064 412.115 Q214.064 404.986 212.235 401.444 Q210.43 397.879 206.795 397.879 M206.795 394.175 Q212.605 394.175 215.661 398.782 Q218.74 403.365 218.74 412.115 Q218.74 420.842 215.661 425.448 Q212.605 430.032 206.795 430.032 Q200.985 430.032 197.906 425.448 Q194.851 420.842 194.851 412.115 Q194.851 403.365 197.906 398.782 Q200.985 394.175 206.795 394.175 Z" fill="#000000" fill-rule="nonzero" fill-opacity="1" /><path clip-path="url(#clip610)" d="M227.004 394.8 L245.36 394.8 L245.36 398.736 L231.286 398.736 L231.286 407.208 Q232.304 406.861 233.323 406.699 Q234.341 406.513 235.36 406.513 Q241.147 406.513 244.527 409.685 Q247.906 412.856 247.906 418.273 Q247.906 423.851 244.434 426.953 Q240.962 430.032 234.642 430.032 Q232.466 430.032 230.198 429.661 Q227.953 429.291 225.545 428.55 L225.545 423.851 Q227.629 424.986 229.851 425.541 Q232.073 426.097 234.55 426.097 Q238.554 426.097 240.892 423.99 Q243.23 421.884 243.23 418.273 Q243.23 414.661 240.892 412.555 Q238.554 410.449 234.55 410.449 Q232.675 410.449 230.8 410.865 Q228.948 411.282 227.004 412.161 L227.004 394.8 Z" fill="#000000" fill-rule="nonzero" fill-opacity="1" /><path clip-path="url(#clip610)" d="M267.119 397.879 Q263.508 397.879 261.679 401.444 Q259.874 404.986 259.874 412.115 Q259.874 419.222 261.679 422.786 Q263.508 426.328 267.119 426.328 Q270.753 426.328 272.559 422.786 Q274.388 419.222 274.388 412.115 Q274.388 404.986 272.559 401.444 Q270.753 397.879 267.119 397.879 M267.119 394.175 Q272.929 394.175 275.985 398.782 Q279.063 403.365 279.063 412.115 Q279.063 420.842 275.985 425.448 Q272.929 430.032 267.119 430.032 Q261.309 430.032 258.23 425.448 Q255.175 420.842 255.175 412.115 Q255.175 403.365 258.23 398.782 Q261.309 394.175 267.119 394.175 Z" fill="#000000" fill-rule="nonzero" fill-opacity="1" /><path clip-path="url(#clip610)" d="M162.559 171.546 Q158.948 171.546 157.12 175.111 Q155.314 178.652 155.314 185.782 Q155.314 192.888 157.12 196.453 Q158.948 199.995 162.559 199.995 Q166.194 199.995 167.999 196.453 Q169.828 192.888 169.828 185.782 Q169.828 178.652 167.999 175.111 Q166.194 171.546 162.559 171.546 M162.559 167.842 Q168.37 167.842 171.425 172.449 Q174.504 177.032 174.504 185.782 Q174.504 194.509 171.425 199.115 Q168.37 203.698 162.559 203.698 Q156.749 203.698 153.671 199.115 Q150.615 194.509 150.615 185.782 Q150.615 177.032 153.671 172.449 Q156.749 167.842 162.559 167.842 Z" fill="#000000" fill-rule="nonzero" fill-opacity="1" /><path clip-path="url(#clip610)" d="M182.721 197.148 L187.606 197.148 L187.606 203.027 L182.721 203.027 L182.721 197.148 Z" fill="#000000" fill-rule="nonzero" fill-opacity="1" /><path clip-path="url(#clip610)" d="M207.791 171.546 Q204.18 171.546 202.351 175.111 Q200.545 178.652 200.545 185.782 Q200.545 192.888 202.351 196.453 Q204.18 199.995 207.791 199.995 Q211.425 199.995 213.23 196.453 Q215.059 192.888 215.059 185.782 Q215.059 178.652 213.23 175.111 Q211.425 171.546 207.791 171.546 M207.791 167.842 Q213.601 167.842 216.656 172.449 Q219.735 177.032 219.735 185.782 Q219.735 194.509 216.656 199.115 Q213.601 203.698 207.791 203.698 Q201.981 203.698 198.902 199.115 Q195.846 194.509 195.846 185.782 Q195.846 177.032 198.902 172.449 Q201.981 167.842 207.791 167.842 Z" fill="#000000" fill-rule="nonzero" fill-opacity="1" /><path clip-path="url(#clip610)" d="M226.772 168.467 L248.994 168.467 L248.994 170.458 L236.448 203.027 L231.564 203.027 L243.369 172.402 L226.772 172.402 L226.772 168.467 Z" fill="#000000" fill-rule="nonzero" fill-opacity="1" /><path clip-path="url(#clip610)" d="M258.161 168.467 L276.517 168.467 L276.517 172.402 L262.443 172.402 L262.443 180.874 Q263.462 180.527 264.48 180.365 Q265.499 180.18 266.517 180.18 Q272.304 180.18 275.684 183.351 Q279.063 186.523 279.063 191.939 Q279.063 197.518 275.591 200.62 Q272.119 203.698 265.8 203.698 Q263.624 203.698 261.355 203.328 Q259.11 202.958 256.702 202.217 L256.702 197.518 Q258.786 198.652 261.008 199.208 Q263.23 199.763 265.707 199.763 Q269.712 199.763 272.05 197.657 Q274.388 195.55 274.388 191.939 Q274.388 188.328 272.05 186.222 Q269.712 184.115 265.707 184.115 Q263.832 184.115 261.957 184.532 Q260.105 184.949 258.161 185.828 L258.161 168.467 Z" fill="#000000" fill-rule="nonzero" fill-opacity="1" /><path clip-path="url(#clip610)" d="M61.7557 817.984 L48.9925 817.984 L48.9925 828.487 L43.7089 828.487 L43.7089 811.618 L64.111 811.618 Q66.7528 815.342 68.1214 819.83 Q69.4582 824.318 69.4582 829.411 Q69.4582 840.55 62.9652 846.853 Q56.4404 853.123 44.8229 853.123 Q33.1737 853.123 26.6807 846.853 Q20.1558 840.55 20.1558 829.411 Q20.1558 824.764 21.3017 820.594 Q22.4475 816.393 24.6755 812.86 L31.5186 812.86 Q28.4949 816.424 26.9671 820.435 Q25.4394 824.445 25.4394 828.869 Q25.4394 837.59 30.3091 841.983 Q35.1789 846.343 44.8229 846.343 Q54.4352 846.343 59.3049 841.983 Q64.1747 837.59 64.1747 828.869 Q64.1747 825.464 63.6018 822.79 Q62.997 820.117 61.7557 817.984 Z" fill="#000000" fill-rule="nonzero" fill-opacity="1" /><path clip-path="url(#clip610)" d="M38.3617 779.472 Q37.7888 780.458 37.5342 781.636 Q37.2477 782.782 37.2477 784.182 Q37.2477 789.147 40.4943 791.821 Q43.7089 794.463 49.7564 794.463 L68.5352 794.463 L68.5352 800.351 L32.8872 800.351 L32.8872 794.463 L38.4254 794.463 Q35.1789 792.617 33.6193 789.657 Q32.0279 786.697 32.0279 782.463 Q32.0279 781.859 32.1234 781.127 Q32.187 780.395 32.3462 779.503 L38.3617 779.472 Z" fill="#000000" fill-rule="nonzero" fill-opacity="1" /><path clip-path="url(#clip610)" d="M36.9931 760.947 Q36.9931 765.658 40.6852 768.395 Q44.3455 771.132 50.743 771.132 Q57.1406 771.132 60.8327 768.427 Q64.493 765.69 64.493 760.947 Q64.493 756.269 60.8009 753.531 Q57.1088 750.794 50.743 750.794 Q44.4092 750.794 40.7171 753.531 Q36.9931 756.269 36.9931 760.947 M32.0279 760.947 Q32.0279 753.308 36.9931 748.948 Q41.9584 744.587 50.743 744.587 Q59.4959 744.587 64.493 748.948 Q69.4582 753.308 69.4582 760.947 Q69.4582 768.618 64.493 772.979 Q59.4959 777.307 50.743 777.307 Q41.9584 777.307 36.9931 772.979 Q32.0279 768.618 32.0279 760.947 Z" fill="#000000" fill-rule="nonzero" fill-opacity="1" /><path clip-path="url(#clip610)" d="M32.8872 738.285 L32.8872 732.429 L60.7054 725.108 L32.8872 717.82 L32.8872 710.913 L60.7054 703.592 L32.8872 696.304 L32.8872 690.447 L68.5352 699.773 L68.5352 706.68 L39.3166 714.35 L68.5352 722.053 L68.5352 728.96 L32.8872 738.285 Z" fill="#000000" fill-rule="nonzero" fill-opacity="1" /><path clip-path="url(#clip610)" d="M22.7658 675.774 L32.8872 675.774 L32.8872 663.711 L37.4387 663.711 L37.4387 675.774 L56.7905 675.774 Q61.151 675.774 62.3923 674.597 Q63.6336 673.387 63.6336 669.727 L63.6336 663.711 L68.5352 663.711 L68.5352 669.727 Q68.5352 676.506 66.0207 679.084 Q63.4745 681.662 56.7905 681.662 L37.4387 681.662 L37.4387 685.959 L32.8872 685.959 L32.8872 681.662 L22.7658 681.662 L22.7658 675.774 Z" fill="#000000" fill-rule="nonzero" fill-opacity="1" /><path clip-path="url(#clip610)" d="M47.0191 626.376 L68.5352 626.376 L68.5352 632.233 L47.2101 632.233 Q42.1493 632.233 39.6349 634.206 Q37.1204 636.179 37.1204 640.126 Q37.1204 644.869 40.1441 647.606 Q43.1679 650.343 48.3877 650.343 L68.5352 650.343 L68.5352 656.231 L19.01 656.231 L19.01 650.343 L38.4254 650.343 Q35.2107 648.242 33.6193 645.41 Q32.0279 642.545 32.0279 638.821 Q32.0279 632.678 35.8473 629.527 Q39.6349 626.376 47.0191 626.376 Z" fill="#000000" fill-rule="nonzero" fill-opacity="1" /><path clip-path="url(#clip610)" d="M46.2552 571.186 Q46.9555 569.117 49.2471 567.175 Q51.5388 565.202 55.5492 563.228 L68.5352 556.704 L68.5352 563.61 L56.3449 569.69 Q51.5706 572.045 50.011 574.273 Q48.4514 576.469 48.4514 580.289 L48.4514 587.291 L68.5352 587.291 L68.5352 593.72 L21.0152 593.72 L21.0152 579.206 Q21.0152 571.058 24.4209 567.048 Q27.8265 563.038 34.7015 563.038 Q39.1893 563.038 42.1493 565.138 Q45.1094 567.207 46.2552 571.186 M26.2987 587.291 L43.1679 587.291 L43.1679 579.206 Q43.1679 574.559 41.0353 572.204 Q38.871 569.817 34.7015 569.817 Q30.5319 569.817 28.4312 572.204 Q26.2987 574.559 26.2987 579.206 L26.2987 587.291 Z" fill="#000000" fill-rule="nonzero" fill-opacity="1" /><path clip-path="url(#clip610)" d="M50.6157 533.914 Q50.6157 541.012 52.239 543.749 Q53.8622 546.487 57.7772 546.487 Q60.8963 546.487 62.7424 544.45 Q64.5566 542.381 64.5566 538.848 Q64.5566 533.978 61.1191 531.05 Q57.6498 528.09 51.9207 528.09 L50.6157 528.09 L50.6157 533.914 M48.1968 522.233 L68.5352 522.233 L68.5352 528.09 L63.1243 528.09 Q66.3709 530.095 67.9305 533.087 Q69.4582 536.079 69.4582 540.407 Q69.4582 545.882 66.4027 549.128 Q63.3153 552.343 58.1591 552.343 Q52.1435 552.343 49.088 548.333 Q46.0324 544.291 46.0324 536.302 L46.0324 528.09 L45.4595 528.09 Q41.4173 528.09 39.2211 530.763 Q36.9931 533.405 36.9931 538.211 Q36.9931 541.267 37.7252 544.163 Q38.4572 547.06 39.9213 549.733 L34.5105 549.733 Q33.2692 546.519 32.6644 543.495 Q32.0279 540.471 32.0279 537.607 Q32.0279 529.872 36.0383 526.053 Q40.0487 522.233 48.1968 522.233 Z" fill="#000000" fill-rule="nonzero" fill-opacity="1" /><path clip-path="url(#clip610)" d="M22.7658 504.378 L32.8872 504.378 L32.8872 492.315 L37.4387 492.315 L37.4387 504.378 L56.7905 504.378 Q61.151 504.378 62.3923 503.2 Q63.6336 501.99 63.6336 498.33 L63.6336 492.315 L68.5352 492.315 L68.5352 498.33 Q68.5352 505.11 66.0207 507.688 Q63.4745 510.266 56.7905 510.266 L37.4387 510.266 L37.4387 514.563 L32.8872 514.563 L32.8872 510.266 L22.7658 510.266 L22.7658 504.378 Z" fill="#000000" fill-rule="nonzero" fill-opacity="1" /><path clip-path="url(#clip610)" d="M49.2471 454.12 L52.1117 454.12 L52.1117 481.047 Q58.1591 480.665 61.3419 477.419 Q64.493 474.14 64.493 468.316 Q64.493 464.942 63.6654 461.791 Q62.8379 458.608 61.1828 455.489 L66.721 455.489 Q68.0578 458.64 68.758 461.95 Q69.4582 465.26 69.4582 468.666 Q69.4582 477.196 64.493 482.193 Q59.5277 487.158 51.0613 487.158 Q42.3085 487.158 37.1841 482.448 Q32.0279 477.705 32.0279 469.684 Q32.0279 462.491 36.6748 458.322 Q41.29 454.12 49.2471 454.12 M47.5284 459.977 Q42.7223 460.04 39.8577 462.682 Q36.9931 465.292 36.9931 469.621 Q36.9931 474.522 39.7622 477.482 Q42.5313 480.411 47.5602 480.856 L47.5284 459.977 Z" fill="#000000" fill-rule="nonzero" fill-opacity="1" /><path clip-path="url(#clip610)" d="M19.0737 409.719 Q26.3942 413.984 33.5556 416.053 Q40.7171 418.122 48.0695 418.122 Q55.4218 418.122 62.6469 416.053 Q69.8402 413.953 77.1289 409.719 L77.1289 414.812 Q69.6492 419.586 62.4241 421.973 Q55.199 424.329 48.0695 424.329 Q40.9717 424.329 33.7784 421.973 Q26.5852 419.618 19.0737 414.812 L19.0737 409.719 Z" fill="#000000" fill-rule="nonzero" fill-opacity="1" /><path clip-path="url(#clip610)" d="M47.6239 357.107 Q47.6239 359.876 49.9792 361.467 Q52.3345 363.027 56.5358 363.027 Q60.6735 363.027 63.0607 361.467 Q65.416 359.876 65.416 357.107 Q65.416 354.401 63.0607 352.842 Q60.6735 351.25 56.5358 351.25 Q52.3663 351.25 50.011 352.842 Q47.6239 354.401 47.6239 357.107 M43.5816 357.107 Q43.5816 352.078 47.0828 349.118 Q50.5839 346.158 56.5358 346.158 Q62.4878 346.158 65.9889 349.15 Q69.4582 352.11 69.4582 357.107 Q69.4582 362.199 65.9889 365.16 Q62.4878 368.12 56.5358 368.12 Q50.5521 368.12 47.0828 365.16 Q43.5816 362.168 43.5816 357.107 M24.1981 389.954 Q24.1981 392.691 26.5852 394.283 Q28.9405 395.842 33.0782 395.842 Q37.2796 395.842 39.6349 394.283 Q41.9902 392.723 41.9902 389.954 Q41.9902 387.185 39.6349 385.625 Q37.2796 384.034 33.0782 384.034 Q28.9723 384.034 26.5852 385.625 Q24.1981 387.217 24.1981 389.954 M20.1558 361.213 L20.1558 356.12 L69.4582 385.848 L69.4582 390.941 L20.1558 361.213 M20.1558 389.954 Q20.1558 384.925 23.657 381.933 Q27.1263 378.941 33.0782 378.941 Q39.0938 378.941 42.5631 381.933 Q46.0324 384.893 46.0324 389.954 Q46.0324 395.015 42.5631 397.975 Q39.062 400.903 33.0782 400.903 Q27.1581 400.903 23.657 397.943 Q20.1558 394.983 20.1558 389.954 Z" fill="#000000" fill-rule="nonzero" fill-opacity="1" /><path clip-path="url(#clip610)" d="M19.0737 337.341 L19.0737 332.249 Q26.5852 327.475 33.7784 325.119 Q40.9717 322.732 48.0695 322.732 Q55.199 322.732 62.4241 325.119 Q69.6492 327.475 77.1289 332.249 L77.1289 337.341 Q69.8402 333.108 62.6469 331.039 Q55.4218 328.939 48.0695 328.939 Q40.7171 328.939 33.5556 331.039 Q26.3942 333.108 19.0737 337.341 Z" fill="#000000" fill-rule="nonzero" fill-opacity="1" /><polyline clip-path="url(#clip611)" style="stroke:#0f6a81; stroke-linecap:round; stroke-linejoin:round; stroke-width:4; stroke-opacity:1; fill:none" points="355.583,77.8488 374.966,136.408 394.349,495.013 413.733,440.343 433.116,916.995 452.499,218.813 471.882,671.702 491.265,674.121 510.648,931.904 530.032,237.198 549.415,631.674 568.798,632.498 588.181,309.813 607.564,470.267 626.947,343.025 646.331,276.421 665.714,267.648 685.097,616.446 704.48,419.82 723.863,582.057 743.246,848.034 762.63,566.645 782.013,388.95 801.396,353.627 820.779,913.683 840.162,883.362 859.545,376.952 878.929,446.103 898.312,363.627 917.695,578.12 937.078,887.993 956.461,635.002 975.844,1027.98 995.228,449.761 1014.61,209.606 1033.99,487.262 1053.38,551.26 1072.76,551.989 1092.14,486.591 1111.53,532.286 1130.91,694.006 1150.29,874.552 1169.68,545.844 1189.06,615.618 1208.44,499.987 1227.83,621.715 1247.21,523.185 1266.59,462.134 1285.98,458.875 1305.36,431.234 1324.74,495.59 1344.12,778.24 1363.51,710.8 1382.89,611.652 1402.27,516.396 1421.66,549.37 1441.04,612.653 1460.42,683.331 1479.81,854.464 1499.19,1098.01 1518.57,620.742 1537.96,723.116 1557.34,657.506 1576.72,673.013 1596.11,636.258 1615.49,598.077 1634.87,700.027 1654.26,642.25 1673.64,596.18 1693.02,630.825 1712.4,1060.57 1731.79,316.563 1751.17,637.293 1770.55,603.328 1789.94,613.961 1809.32,649.684 1828.7,677.951 1848.09,685.254 1867.47,672.677 1886.85,672.677 1906.24,672.678 "/>
</svg>
